<svg width="284" height="139" viewBox="0 0 284 139" fill="none" xmlns="http://www.w3.org/2000/svg">
<g filter="url(#filter0_d_240_587)">
<path d="M153.738 76.5229C164.033 76.236 168.412 68.6909 169.33 64.627C165.026 76.7199 146.81 73.181 125.485 73.8824C140.836 67.7085 140.828 56.0414 144.156 43.2873C146.368 34.8083 150.735 16.4894 161.158 11.2315L161.056 9.01084C150.382 14.0496 138.938 23.6415 135.859 41.5678C133.889 51.9836 127.545 73.1024 117.928 74.2515C113.756 74.7275 105.059 74.0842 103.646 67.7035C103.523 66.6754 103.59 64.4386 104.845 63.7162L104.881 61.6411C103.553 62.2621 101.213 64.7837 102.478 69.902C104.036 73.6512 107.599 77.1378 121.376 77.0009L153.738 76.5229Z" fill="#225D5C" stroke="#225D5C"/>
<ellipse cx="106.9" cy="63.1784" rx="2.6107" ry="2.64793" transform="rotate(1 106.9 63.1784)" fill="#225D5C"/>
<path d="M156.463 13.0113C152.145 15.1548 142.638 24.7805 139.16 46.1354C137.998 53.2727 134.098 68.522 124.654 72.6517" stroke="#9A6923" stroke-width="2"/>
</g>
<g filter="url(#filter1_d_240_587)">
<path d="M239.903 87.4084H224.513V81.2124H241.582C257.813 84.8737 255.294 104.87 244.101 107.686L256.413 124.866H248.578L232.348 102.054H239.903C251.097 100.082 246.899 87.4084 239.903 87.4084Z" fill="#225D5C" stroke="#225D5C"/>
<path d="M112.298 81.2124H134.125L129.23 86.8965L112.298 86.8965V81.2124Z" fill="#225D5C"/>
<path d="M107.821 124.866L142.52 81.2124H150.076L115.376 124.866H107.821Z" fill="#225D5C"/>
<path d="M148.397 124.866V118.913H127.409L122.372 124.866H148.397Z" fill="#225D5C"/>
<path d="M112.298 81.2124H134.125L129.23 86.8965L112.298 86.8965V81.2124Z" stroke="#225D5C"/>
<path d="M107.821 124.866L142.52 81.2124H150.076L115.376 124.866H107.821Z" stroke="#225D5C"/>
<path d="M148.397 124.866V118.913H127.409L122.372 124.866H148.397Z" stroke="#225D5C"/>
<path d="M214.158 81.2124H220.595V124.866H214.158V81.2124Z" fill="#225D5C" stroke="#225D5C"/>
<path d="M269.564 81.2124H276V124.866H269.564V81.2124Z" fill="#225D5C" stroke="#225D5C"/>
<rect x="11" y="81.2124" width="6.71598" height="33.0203" fill="#225D5C"/>
<rect x="11" y="118.15" width="36.9379" height="6.71598" fill="#225D5C"/>
<path d="M181.07 81.6648C192.056 82.8019 200.623 92.0879 200.623 103.375L200.615 103.938C200.336 114.969 191.872 123.966 181.07 125.084V119.59C189.034 118.483 195.165 111.647 195.165 103.378C195.165 95.1084 189.034 88.2718 181.07 87.1648V81.6648ZM176.523 87.1648C168.557 88.2711 162.425 95.1078 162.425 103.378C162.425 111.647 168.557 118.483 176.523 119.59V125.083C165.72 123.965 157.255 114.969 156.976 103.938L156.969 103.375C156.969 92.0878 165.536 82.8018 176.523 81.6648V87.1648Z" fill="#225D5C"/>
<path fill-rule="evenodd" clip-rule="evenodd" d="M97.1895 81.2124H90.7534V107.841C90.4456 111.212 89.4576 112.915 86.5559 115.69C84.4624 117.262 82.8379 118.042 80.574 118.447V124.702C80.6997 124.689 80.828 124.675 80.9592 124.66C84.0504 124.178 89.8125 121.882 93.7975 116.407C96.9098 112.13 97.1895 106.564 97.1895 101.275V81.2124ZM75.1173 124.719V118.499C72.9852 118.096 71.4229 117.253 69.2063 115.69C66.4668 112.967 65.4325 111.241 64.4491 107.841V81.773H58.2928V102.18C58.2928 106.872 58.6088 111.731 61.2097 115.636C63.7692 119.479 68.0365 123.415 74.5231 124.66C74.7283 124.681 74.926 124.701 75.1173 124.719Z" fill="#225D5C"/>
<path d="M90.7534 81.2124V80.7124H90.2534V81.2124H90.7534ZM97.1895 81.2124H97.6895V80.7124H97.1895V81.2124ZM90.7534 107.841L91.2513 107.887L91.2534 107.864V107.841H90.7534ZM86.5559 115.69L86.8562 116.09L86.88 116.072L86.9015 116.051L86.5559 115.69ZM80.574 118.447L80.486 117.955L80.074 118.029V118.447H80.574ZM80.574 124.702H80.074V125.259L80.6272 125.2L80.574 124.702ZM80.9592 124.66L81.0163 125.156L81.0263 125.155L81.0362 125.154L80.9592 124.66ZM93.7975 116.407L94.2018 116.701L94.2018 116.701L93.7975 116.407ZM75.1173 124.719L75.0701 125.217L75.6173 125.268V124.719H75.1173ZM75.1173 118.499H75.6173V118.085L75.2103 118.008L75.1173 118.499ZM69.2063 115.69L68.8538 116.044L68.8837 116.074L68.9181 116.098L69.2063 115.69ZM64.4491 107.841H63.9491V107.912L63.9688 107.98L64.4491 107.841ZM64.4491 81.773H64.9491V81.273H64.4491V81.773ZM58.2928 81.773V81.273H57.7928V81.773H58.2928ZM61.2097 115.636L61.6259 115.359L61.6259 115.359L61.2097 115.636ZM74.5231 124.66L74.4289 125.151L74.4499 125.155L74.4711 125.157L74.5231 124.66ZM90.7534 81.2124V81.7124H97.1895V81.2124V80.7124H90.7534V81.2124ZM90.7534 107.841H91.2534V81.2124H90.7534H90.2534V107.841H90.7534ZM86.5559 115.69L86.9015 116.051C88.3644 114.652 89.3814 113.49 90.0668 112.227C90.7571 110.956 91.0934 109.616 91.2513 107.887L90.7534 107.841L90.2554 107.796C90.1056 109.437 89.794 110.634 89.1879 111.75C88.577 112.876 87.6491 113.952 86.2103 115.328L86.5559 115.69ZM80.574 118.447L80.6621 118.94C83.0188 118.518 84.7144 117.699 86.8562 116.09L86.5559 115.69L86.2556 115.29C84.2104 116.826 82.6571 117.567 80.486 117.955L80.574 118.447ZM80.574 118.447H80.074V124.702H80.574H81.074V118.447H80.574ZM80.9592 124.66L80.9021 124.163C80.7721 124.178 80.6451 124.192 80.5209 124.205L80.574 124.702L80.6272 125.2C80.7542 125.186 80.8839 125.172 81.0163 125.156L80.9592 124.66ZM93.7975 116.407L93.3932 116.112C89.4996 121.462 83.8659 123.701 80.8823 124.166L80.9592 124.66L81.0362 125.154C84.2348 124.655 90.1254 122.302 94.2018 116.701L93.7975 116.407ZM97.1895 101.275H96.6895C96.6895 106.576 96.3984 111.983 93.3932 116.112L93.7975 116.407L94.2018 116.701C97.4212 112.277 97.6895 106.551 97.6895 101.275H97.1895ZM97.1895 81.2124H96.6895V101.275H97.1895H97.6895V81.2124H97.1895ZM75.1173 124.719H75.6173V118.499H75.1173H74.6173V124.719H75.1173ZM69.2063 115.69L68.9181 116.098C71.1594 117.679 72.7903 118.568 75.0243 118.991L75.1173 118.499L75.2103 118.008C73.18 117.624 71.6864 116.827 69.4945 115.281L69.2063 115.69ZM64.4491 107.841L63.9688 107.98C64.4674 109.704 64.9866 111.03 65.7414 112.278C66.495 113.524 67.4699 114.669 68.8538 116.044L69.2063 115.69L69.5588 115.335C68.2032 113.988 67.2912 112.908 66.597 111.761C65.9039 110.615 65.4143 109.379 64.9294 107.702L64.4491 107.841ZM64.4491 81.773H63.9491V107.841H64.4491H64.9491V81.773H64.4491ZM58.2928 81.773V82.273H64.4491V81.773V81.273H58.2928V81.773ZM58.2928 102.18H58.7928V81.773H58.2928H57.7928V102.18H58.2928ZM61.2097 115.636L61.6259 115.359C59.1164 111.591 58.7928 106.873 58.7928 102.18H58.2928H57.7928C57.7928 106.872 58.1011 111.871 60.7936 115.914L61.2097 115.636ZM74.5231 124.66L74.6173 124.169C68.295 122.956 64.1317 119.122 61.6259 115.359L61.2097 115.636L60.7936 115.914C63.4067 119.837 67.778 123.875 74.4289 125.151L74.5231 124.66ZM75.1173 124.719L75.1644 124.221C74.9749 124.203 74.7788 124.184 74.5751 124.162L74.5231 124.66L74.4711 125.157C74.6777 125.178 74.877 125.198 75.0701 125.217L75.1173 124.719Z" fill="#225D5C"/>
</g>
<defs>
<filter id="filter0_d_240_587" x="91.6152" y="0.238525" width="88.2023" height="89.2664" filterUnits="userSpaceOnUse" color-interpolation-filters="sRGB">
<feFlood flood-opacity="0" result="BackgroundImageFix"/>
<feColorMatrix in="SourceAlpha" type="matrix" values="0 0 0 0 0 0 0 0 0 0 0 0 0 0 0 0 0 0 127 0" result="hardAlpha"/>
<feOffset dy="2"/>
<feGaussianBlur stdDeviation="5"/>
<feComposite in2="hardAlpha" operator="out"/>
<feColorMatrix type="matrix" values="0 0 0 0 0.603922 0 0 0 0 0.411765 0 0 0 0 0.137255 0 0 0 1 0"/>
<feBlend mode="normal" in2="BackgroundImageFix" result="effect1_dropShadow_240_587"/>
<feBlend mode="normal" in="SourceGraphic" in2="effect1_dropShadow_240_587" result="shape"/>
</filter>
<filter id="filter1_d_240_587" x="0" y="75.7124" width="283.5" height="62.6538" filterUnits="userSpaceOnUse" color-interpolation-filters="sRGB">
<feFlood flood-opacity="0" result="BackgroundImageFix"/>
<feColorMatrix in="SourceAlpha" type="matrix" values="0 0 0 0 0 0 0 0 0 0 0 0 0 0 0 0 0 0 127 0" result="hardAlpha"/>
<feOffset dx="-2" dy="4"/>
<feGaussianBlur stdDeviation="4.5"/>
<feComposite in2="hardAlpha" operator="out"/>
<feColorMatrix type="matrix" values="0 0 0 0 0.603922 0 0 0 0 0.411765 0 0 0 0 0.137255 0 0 0 1 0"/>
<feBlend mode="normal" in2="BackgroundImageFix" result="effect1_dropShadow_240_587"/>
<feBlend mode="normal" in="SourceGraphic" in2="effect1_dropShadow_240_587" result="shape"/>
</filter>
</defs>
</svg>
