<svg width="512" height="512" viewBox="0 0 512 512" fill="none" xmlns="http://www.w3.org/2000/svg">
<path d="M131 45.9996C134.774 49.2758 137.745 53.1049 139 57.9996C139 59.9796 139 61.9596 139 63.9996C155.17 63.9996 171.34 63.9996 188 63.9996C188.33 61.3596 188.66 58.7196 189 55.9996C191.017 50.5032 194.601 46.6956 199.817 44.0933C205.97 41.4924 211.566 41.0897 218 42.9371C223.215 45.1422 227.166 49.1626 230 53.9996C230.99 58.9496 230.99 58.9496 232 63.9996C247.84 63.9996 263.68 63.9996 280 63.9996C280.66 60.6996 281.32 57.3996 282 53.9996C285.226 48.4942 289.794 44.1319 296.008 42.3668C303.461 40.9932 309.424 42.2494 316 45.9996C320.231 49.5946 322.811 53.5268 324 58.9996C324 60.6496 324 62.2996 324 63.9996C340.17 63.9996 356.34 63.9996 373 63.9996C373.33 61.0296 373.66 58.0596 374 54.9996C377.079 48.4188 382.307 44.8163 388.938 42.2496C396.266 41.3613 401.687 41.9966 408 45.9996C411.398 49.1218 414.356 52.6556 416 56.9996C416.034 59.3327 416.037 61.6665 416 63.9996C417.185 63.9786 418.369 63.9577 419.59 63.9361C424.031 63.8631 428.472 63.8175 432.913 63.7798C434.827 63.7599 436.74 63.7327 438.654 63.6978C454.552 63.4156 466.932 64.8412 479.161 75.9644C486.702 83.7591 491.119 93.8349 491.132 104.696C491.136 105.864 491.14 107.033 491.144 108.237C491.143 109.522 491.142 110.807 491.141 112.131C491.144 113.509 491.147 114.887 491.15 116.266C491.158 120.057 491.16 123.848 491.161 127.639C491.162 131.727 491.17 135.814 491.177 139.901C491.19 148.842 491.196 157.782 491.201 166.722C491.203 172.305 491.208 177.888 491.212 183.471C491.224 198.929 491.235 214.387 491.238 229.846C491.238 230.835 491.238 231.825 491.239 232.844C491.239 233.836 491.239 234.828 491.239 235.85C491.24 237.86 491.24 239.87 491.241 241.879C491.241 242.876 491.241 243.873 491.241 244.901C491.245 261.05 491.263 277.2 491.286 293.349C491.31 309.931 491.322 326.513 491.323 343.095C491.324 352.405 491.33 361.714 491.348 371.024C491.364 378.952 491.369 386.881 491.361 394.809C491.357 398.853 491.357 402.897 491.372 406.941C491.384 410.647 491.383 414.353 491.371 418.059C491.368 420.026 491.38 421.993 491.392 423.959C491.317 437.456 487.565 448.2 478.375 458.25C466.599 469.373 452.356 470.301 437.041 470.26C435.417 470.263 433.792 470.267 432.168 470.272C427.719 470.282 423.271 470.28 418.822 470.276C414.018 470.273 409.214 470.282 404.41 470.29C395.005 470.302 385.599 470.304 376.194 470.302C368.547 470.3 360.901 470.302 353.254 470.306C351.621 470.307 351.621 470.307 349.955 470.308C347.743 470.309 345.531 470.31 343.319 470.312C322.579 470.322 301.84 470.32 281.1 470.314C262.136 470.309 243.172 470.32 224.208 470.339C204.726 470.359 185.244 470.367 165.762 470.363C154.829 470.361 143.895 470.364 132.961 470.378C123.653 470.39 114.344 470.391 105.036 470.379C100.289 470.373 95.5425 470.372 90.7957 470.384C86.445 470.395 82.0946 470.392 77.7439 470.378C76.1753 470.375 74.6067 470.378 73.0382 470.386C57.4373 470.46 44.7115 468.165 32.813 457.5C25.2875 449.592 20.8855 439.041 20.8663 428.186C20.8618 427.017 20.8573 425.847 20.8528 424.642C20.8529 423.361 20.8531 422.081 20.8533 420.761C20.85 419.384 20.8463 418.006 20.8422 416.628C20.8322 412.843 20.8284 409.058 20.8258 405.273C20.8219 401.191 20.8123 397.108 20.8036 393.025C20.7838 383.166 20.7737 373.307 20.7648 363.447C20.7605 358.802 20.7551 354.157 20.7498 349.511C20.7328 334.066 20.7183 318.62 20.7111 303.175C20.7092 299.168 20.7073 295.161 20.7053 291.154C20.7048 290.158 20.7043 289.162 20.7038 288.136C20.6956 272.007 20.6702 255.879 20.6377 239.75C20.6046 223.184 20.5867 206.618 20.5835 190.051C20.5813 180.753 20.5726 171.455 20.547 162.156C20.5253 154.236 20.5173 146.317 20.527 138.397C20.5315 134.359 20.5297 130.321 20.5102 126.284C20.4925 122.58 20.4936 118.877 20.5091 115.174C20.5126 113.214 20.4965 111.253 20.4795 109.293C20.573 96.3534 24.1362 85.4002 33.0005 75.8433C40.0657 69.0809 49.2211 63.8552 59.2183 63.886C60.0388 63.8861 60.8594 63.8862 61.7048 63.8863C62.5809 63.8914 63.4571 63.8966 64.3599 63.9019C65.7164 63.904 65.7164 63.904 67.1004 63.9062C69.9838 63.9118 72.8671 63.9243 75.7505 63.9371C77.7075 63.9421 79.6645 63.9466 81.6216 63.9507C86.4146 63.9618 91.2075 63.979 96.0005 63.9996C95.9823 62.8911 95.9641 61.7827 95.9453 60.6407C96.0309 54.9944 98.6599 51.4845 102.458 47.4527C111.02 39.7717 121.526 40.5808 131 45.9996ZM64.0005 107C64.0005 127.79 64.0005 148.58 64.0005 170C190.72 170 317.44 170 448 170C448 149.21 448 128.42 448 107C437.44 107 426.88 107 416 107C415.87 115.854 415.87 115.854 415.793 124.709C415.565 133.748 414.038 139.065 407.563 145.375C402.344 148.684 397.137 149.845 391 149C384.138 147.321 380.027 144.759 376.059 138.902C373.99 135.184 373.821 131.981 373.684 127.8C373.646 126.711 373.608 125.623 373.569 124.501C373.526 123.119 373.482 121.736 373.438 120.312C373.294 115.919 373.149 111.526 373 107C356.83 107 340.66 107 324 107C323.831 115.15 323.831 115.15 323.703 123.302C323.467 131.271 322.725 138.38 316.782 144.156C315.653 144.821 315.653 144.821 314.5 145.5C313.748 145.964 312.995 146.428 312.219 146.906C306.44 149.755 300.055 149.853 293.938 148C289.122 145.976 285.655 142.454 283 138C281 130 281 130 280 107C264.16 107 248.32 107 232 107C231.791 114.537 231.791 114.537 231.613 122.076C231.307 130.872 229.865 137.889 223.731 144.523C219.252 148.345 213.806 149.539 208.012 149.289C202.28 148.465 197.004 146.225 193 142C188.56 134.834 188.352 127.67 188.25 119.437C188.168 115.333 188.085 111.228 188 107C171.83 107 155.66 107 139 107C138.83 115.525 138.83 115.525 138.703 124.05C138.47 132.242 137.67 138.228 131.75 144.312C125.908 147.897 119.965 150.165 113 149C105.765 146.851 101.852 143.602 97.8975 137.219C96.6993 134.254 96.6735 131.677 96.5864 128.484C96.5508 127.357 96.5152 126.23 96.4785 125.069C96.4445 123.644 96.4105 122.218 96.3755 120.75C96.2517 116.212 96.128 111.675 96.0005 107C85.4405 107 74.8805 107 64.0005 107ZM317.16 257.579C316.2 258.548 315.24 259.516 314.279 260.483C312.224 262.554 310.174 264.629 308.128 266.708C304.892 269.994 301.644 273.267 298.394 276.538C289.743 285.247 281.109 293.973 272.484 302.707C266.804 308.458 261.117 314.201 255.417 319.932C252.182 323.184 248.96 326.448 245.746 329.72C243.75 331.747 241.743 333.763 239.734 335.777C238.357 337.163 236.993 338.561 235.629 339.96C234.81 340.776 233.991 341.592 233.148 342.433C232.44 343.15 231.731 343.867 231.001 344.606C229 346 229 346 226.87 345.831C224.264 344.672 222.723 343.034 220.742 340.986C219.91 340.135 219.079 339.284 218.222 338.407C217.33 337.481 216.439 336.555 215.52 335.601C214.584 334.645 213.648 333.689 212.71 332.735C208.734 328.686 204.776 324.621 200.831 320.543C198.415 318.045 195.983 315.563 193.542 313.089C192.175 311.694 190.824 310.282 189.474 308.87C183.976 303.306 178.992 299.135 170.887 298.952C165.06 299.437 160.807 301.494 156.375 305.187C152.165 310.173 149.164 315.2 149.645 321.972C151.558 332.885 160 339.694 167.524 347.117C168.872 348.463 170.22 349.811 171.567 351.16C174.382 353.973 177.205 356.777 180.035 359.576C183.655 363.157 187.258 366.755 190.855 370.359C193.632 373.14 196.417 375.912 199.204 378.682C200.535 380.006 201.864 381.332 203.191 382.661C205.048 384.515 206.914 386.36 208.783 388.202C209.597 389.02 209.597 389.02 210.427 389.855C215.573 394.888 220.582 397.505 227.708 398.054C240.102 397.759 249.072 385.078 257.142 377.003C258.242 375.906 259.342 374.81 260.442 373.714C263.406 370.758 266.368 367.799 269.329 364.838C271.181 362.987 273.034 361.136 274.887 359.286C281.357 352.825 287.825 346.361 294.291 339.895C300.311 333.874 306.337 327.859 312.365 321.846C317.551 316.673 322.733 311.497 327.912 306.317C331.001 303.228 334.091 300.14 337.186 297.056C340.092 294.16 342.993 291.259 345.891 288.354C346.953 287.29 348.018 286.228 349.084 285.167C350.542 283.718 351.992 282.263 353.442 280.806C354.254 279.993 355.067 279.181 355.905 278.344C360.038 273.72 361.782 269.845 362.25 263.75C361.769 256.523 359.91 252.488 354.5 247.562C350.144 243.852 347.015 242.814 341.313 242.625C340.319 242.576 339.325 242.527 338.301 242.476C329.397 243.888 323.183 251.428 317.16 257.579Z" fill="#FFD6A8"/>
</svg>
