<svg width="512" height="512" viewBox="0 0 512 512" fill="none" xmlns="http://www.w3.org/2000/svg">
<path d="M131 45.9996C134.773 49.2758 137.745 53.1049 139 57.9996C139 59.9796 139 61.9596 139 63.9996C155.17 63.9996 171.34 63.9996 188 63.9996C188.33 61.3596 188.66 58.7196 189 55.9996C191.017 50.5032 194.601 46.6956 199.816 44.0933C205.97 41.4924 211.566 41.0897 218 42.9371C223.214 45.1422 227.166 49.1626 230 53.9996C230.99 58.9496 230.99 58.9496 232 63.9996C247.84 63.9996 263.68 63.9996 280 63.9996C280.66 60.6996 281.32 57.3996 282 53.9996C285.226 48.4942 289.793 44.1319 296.008 42.3668C303.46 40.9932 309.423 42.2494 316 45.9996C320.231 49.5946 322.81 53.5268 324 58.9996C324 60.6496 324 62.2996 324 63.9996C340.17 63.9996 356.34 63.9996 373 63.9996C373.33 61.0296 373.66 58.0596 374 54.9996C377.079 48.4188 382.307 44.8163 388.938 42.2496C396.266 41.3613 401.686 41.9966 408 45.9996C411.397 49.1218 414.356 52.6556 416 56.9996C416.034 59.3327 416.036 61.6665 416 63.9996C417.184 63.9786 418.369 63.9577 419.589 63.9361C424.03 63.8631 428.471 63.8175 432.913 63.7798C434.826 63.7599 436.74 63.7327 438.653 63.6978C454.552 63.4156 466.931 64.8412 479.16 75.9644C486.701 83.7591 491.118 93.8349 491.131 104.696C491.135 105.864 491.139 107.033 491.143 108.237C491.142 109.522 491.141 110.807 491.14 112.131C491.143 113.509 491.146 114.887 491.149 116.266C491.158 120.057 491.159 123.848 491.16 127.639C491.162 131.727 491.169 135.814 491.176 139.901C491.19 148.842 491.196 157.782 491.2 166.722C491.203 172.305 491.207 177.888 491.212 183.471C491.224 198.929 491.234 214.387 491.238 229.846C491.238 230.835 491.238 231.825 491.238 232.844C491.238 233.836 491.239 234.828 491.239 235.85C491.239 237.86 491.24 239.87 491.24 241.879C491.24 242.876 491.241 243.873 491.241 244.901C491.245 261.05 491.262 277.2 491.286 293.349C491.309 309.931 491.322 326.513 491.323 343.095C491.324 352.405 491.33 361.714 491.348 371.024C491.363 378.952 491.368 386.881 491.36 394.809C491.356 398.853 491.357 402.897 491.371 406.941C491.384 410.647 491.383 414.353 491.37 418.059C491.368 420.026 491.379 421.993 491.392 423.959C491.317 437.456 487.564 448.2 478.375 458.25C466.599 469.373 452.356 470.301 437.041 470.26C435.416 470.263 433.792 470.267 432.168 470.272C427.719 470.282 423.27 470.28 418.821 470.276C414.018 470.273 409.214 470.282 404.41 470.29C395.004 470.302 385.599 470.304 376.193 470.302C368.547 470.3 360.9 470.302 353.254 470.306C351.62 470.307 351.62 470.307 349.954 470.308C347.742 470.309 345.53 470.31 343.318 470.312C322.579 470.322 301.839 470.32 281.1 470.314C262.135 470.309 243.171 470.32 224.207 470.339C204.726 470.359 185.244 470.367 165.762 470.363C154.828 470.361 143.895 470.364 132.961 470.378C123.652 470.39 114.344 470.391 105.035 470.379C100.289 470.373 95.542 470.372 90.7952 470.384C86.4446 470.395 82.0941 470.392 77.7434 470.378C76.1748 470.375 74.6062 470.378 73.0377 470.386C57.4368 470.46 44.711 468.165 32.8125 457.5C25.287 449.592 20.885 439.041 20.8658 428.186C20.8613 427.017 20.8569 425.847 20.8523 424.642C20.8525 423.361 20.8526 422.081 20.8528 420.761C20.8495 419.384 20.8458 418.006 20.8417 416.628C20.8317 412.843 20.8279 409.058 20.8253 405.273C20.8214 401.191 20.8118 397.108 20.8031 393.025C20.7833 383.166 20.7733 373.307 20.7644 363.447C20.76 358.802 20.7546 354.157 20.7494 349.511C20.7324 334.066 20.7179 318.62 20.7106 303.175C20.7087 299.168 20.7068 295.161 20.7048 291.154C20.7044 290.158 20.7039 289.162 20.7034 288.136C20.6951 272.007 20.6697 255.879 20.6373 239.75C20.6042 223.184 20.5862 206.618 20.583 190.051C20.5808 180.753 20.5721 171.455 20.5465 162.156C20.5248 154.236 20.5168 146.317 20.5265 138.397C20.531 134.359 20.5292 130.321 20.5097 126.284C20.492 122.58 20.4931 118.877 20.5086 115.174C20.5121 113.214 20.496 111.253 20.479 109.293C20.5725 96.3534 24.1357 85.4002 33 75.8433C40.0652 69.0809 49.2207 63.8552 59.2178 63.886C60.0383 63.8861 60.8589 63.8862 61.7043 63.8863C62.5805 63.8914 63.4566 63.8966 64.3594 63.9019C65.7159 63.904 65.7159 63.904 67.0999 63.9062C69.9833 63.9118 72.8666 63.9243 75.75 63.9371C77.707 63.9421 79.6641 63.9466 81.6211 63.9507C86.4141 63.9618 91.207 63.979 96 63.9996C95.9818 62.8911 95.9636 61.7827 95.9448 60.6407C96.0304 54.9944 98.6594 51.4845 102.457 47.4527C111.019 39.7717 121.525 40.5808 131 45.9996ZM64 107C64 127.79 64 148.58 64 170C190.72 170 317.44 170 448 170C448 149.21 448 128.42 448 107C437.44 107 426.88 107 416 107C415.869 115.854 415.869 115.854 415.792 124.709C415.565 133.748 414.038 139.065 407.563 145.375C402.343 148.684 397.136 149.845 391 149C384.138 147.321 380.027 144.759 376.059 138.902C373.99 135.184 373.821 131.981 373.684 127.8C373.645 126.711 373.607 125.623 373.568 124.501C373.525 123.119 373.482 121.736 373.438 120.312C373.293 115.919 373.149 111.526 373 107C356.83 107 340.66 107 324 107C323.83 115.15 323.83 115.15 323.702 123.302C323.466 131.271 322.725 138.38 316.781 144.156C315.652 144.821 315.652 144.821 314.5 145.5C313.747 145.964 312.994 146.428 312.219 146.906C306.439 149.755 300.055 149.853 293.938 148C289.121 145.976 285.654 142.454 283 138C281 130 281 130 280 107C264.16 107 248.32 107 232 107C231.791 114.537 231.791 114.537 231.612 122.076C231.307 130.872 229.865 137.889 223.73 144.523C219.251 148.345 213.806 149.539 208.012 149.289C202.279 148.465 197.003 146.225 193 142C188.56 134.834 188.352 127.67 188.25 119.437C188.168 115.333 188.085 111.228 188 107C171.83 107 155.66 107 139 107C138.83 115.525 138.83 115.525 138.702 124.05C138.469 132.242 137.67 138.228 131.75 144.312C125.907 147.897 119.964 150.165 113 149C105.764 146.851 101.852 143.602 97.897 137.219C96.6988 134.254 96.673 131.677 96.5859 128.484C96.5503 127.357 96.5147 126.23 96.478 125.069C96.444 123.644 96.41 122.218 96.375 120.75C96.2512 116.212 96.1275 111.675 96 107C85.44 107 74.88 107 64 107ZM317.159 257.579C316.2 258.548 315.239 259.516 314.279 260.483C312.224 262.554 310.174 264.629 308.127 266.708C304.892 269.994 301.644 273.267 298.393 276.538C289.743 285.247 281.109 293.973 272.483 302.707C266.803 308.458 261.117 314.201 255.416 319.932C252.182 323.184 248.96 326.448 245.745 329.72C243.749 331.747 241.743 333.763 239.733 335.777C238.356 337.163 236.992 338.561 235.628 339.96C234.81 340.776 233.991 341.592 233.148 342.433C232.439 343.15 231.73 343.867 231 344.606C229 346 229 346 226.869 345.831C224.264 344.672 222.722 343.034 220.741 340.986C219.91 340.135 219.078 339.284 218.222 338.407C217.33 337.481 216.438 336.555 215.52 335.601C214.584 334.645 213.647 333.689 212.709 332.735C208.734 328.686 204.775 324.621 200.831 320.543C198.414 318.045 195.983 315.563 193.542 313.089C192.174 311.694 190.823 310.282 189.473 308.87C183.975 303.306 178.991 299.135 170.887 298.952C165.06 299.437 160.806 301.494 156.375 305.187C152.165 310.173 149.163 315.2 149.645 321.972C151.558 332.885 160 339.694 167.523 347.117C168.872 348.463 170.219 349.811 171.566 351.16C174.381 353.973 177.204 356.777 180.034 359.576C183.655 363.157 187.257 366.755 190.854 370.359C193.631 373.14 196.416 375.912 199.203 378.682C200.535 380.006 201.864 381.332 203.191 382.661C205.048 384.515 206.914 386.36 208.783 388.202C209.597 389.02 209.597 389.02 210.427 389.855C215.573 394.888 220.582 397.505 227.707 398.054C240.102 397.759 249.071 385.078 257.142 377.003C258.241 375.906 259.341 374.81 260.441 373.714C263.406 370.758 266.368 367.799 269.328 364.838C271.181 362.987 273.033 361.136 274.887 359.286C281.357 352.825 287.825 346.361 294.29 339.895C300.31 333.874 306.336 327.859 312.364 321.846C317.55 316.673 322.732 311.497 327.911 306.317C331 303.228 334.091 300.14 337.185 297.056C340.091 294.16 342.993 291.259 345.89 288.354C346.953 287.29 348.018 286.228 349.084 285.167C350.541 283.718 351.992 282.263 353.441 280.806C354.254 279.993 355.067 279.181 355.904 278.344C360.038 273.72 361.781 269.845 362.25 263.75C361.768 256.523 359.91 252.488 354.5 247.562C350.144 243.852 347.015 242.814 341.313 242.625C340.319 242.576 339.325 242.527 338.301 242.476C329.396 243.888 323.183 251.428 317.159 257.579Z" fill="#225D5C"/>
</svg>
