<svg width="512" height="512" viewBox="0 0 512 512" fill="none" xmlns="http://www.w3.org/2000/svg">
<path d="M93 6C96.0432 7.52162 98.1439 9.2156 100.633 11.4961C106.671 16.9246 112.446 19.6944 120.715 19.3398C128.419 18.1941 133.637 13.9501 139.152 8.70703C142.883 5.25997 146.707 5.3125 151.633 5.3125C157.054 6.41933 160.318 9.94996 164.254 13.5742C169.462 18.1748 174.881 19.5882 181.785 19.2695C189.714 18.3046 194.2 14.412 199.898 8.96094C203.743 5.37376 207.356 5.25456 212.492 5.24219C218.45 6.52935 222.315 10.43 226.773 14.3984C231.548 18.5196 236.563 19.4396 242.719 19.2344C250.822 18.4019 255.679 14.1258 261.68 8.96094C265.698 5.56512 268.895 5.48585 274.055 5.51953C278.345 6.21935 280.669 8.28559 283.863 11.1133C285.941 12.9478 288.024 14.4146 290.375 15.875C291.001 16.2643 291.628 16.6536 292.273 17.0547C296.979 19.6313 301.787 19.6433 307 19C313.474 16.8291 318.48 13.0967 323.406 8.45312C326.953 5.21918 330.654 5.6688 335.25 5.72266C339.855 6.18708 342.331 8.50283 345.668 11.4961C351.7 16.8356 357.159 19.6973 365.387 19.4102C373.036 18.2096 378.906 13.6379 384.406 8.45312C387.99 5.18589 391.961 5.3125 396.633 5.3125C402.054 6.41933 405.318 9.94996 409.254 13.5742C414.463 18.176 419.877 19.5808 426.781 19.2734C434.334 18.3426 438.773 14.8254 444.215 9.64453C446 8 446 8 447 8C447.092 60.0954 447.162 112.191 447.204 164.286C447.209 170.435 447.214 176.583 447.22 182.731C447.221 183.955 447.222 185.18 447.223 186.441C447.24 206.268 447.272 226.096 447.309 245.923C447.346 266.263 447.368 286.603 447.376 306.944C447.382 319.498 447.399 332.052 447.432 344.606C447.453 353.211 447.459 361.816 447.454 370.422C447.451 375.389 447.455 380.355 447.477 385.322C447.496 389.87 447.497 394.417 447.484 398.965C447.482 400.61 447.487 402.255 447.5 403.899C447.623 421.078 447.623 421.078 441.153 427.966C434.376 432.414 427.277 434.003 419.422 435.625C417.899 435.955 416.377 436.286 414.855 436.619C411.454 437.359 408.05 438.086 404.644 438.805C398.622 440.077 392.607 441.381 386.592 442.688C373.448 445.537 360.297 448.353 347.146 451.166C340.5 452.588 333.855 454.014 327.211 455.439C326.538 455.583 325.866 455.727 325.174 455.876C321.756 456.609 318.338 457.342 314.92 458.076C312.164 458.667 309.408 459.258 306.652 459.849C281.117 465.325 255.589 470.831 230.064 476.353C223.1 477.86 216.136 479.365 209.171 480.868C188.383 485.355 167.598 489.854 146.835 494.453C141.617 495.608 136.397 496.755 131.177 497.903C126.475 498.937 121.776 499.984 117.079 501.042C114.258 501.675 111.434 502.295 108.609 502.912C106.749 503.322 104.892 503.747 103.036 504.173C82.6828 508.578 82.6828 508.578 74.375 503.812C70.2148 500.666 66.9094 496.882 65 492C64.8058 489.338 64.721 486.781 64.7316 484.119C64.7269 483.316 64.7222 482.512 64.7173 481.685C64.7039 478.976 64.7048 476.267 64.7057 473.558C64.6991 471.603 64.6916 469.648 64.6834 467.693C64.6633 462.307 64.6559 456.921 64.6506 451.536C64.6428 445.733 64.6236 439.93 64.6062 434.126C64.5666 420.108 64.5465 406.089 64.5287 392.071C64.52 385.474 64.5092 378.878 64.4987 372.281C64.4647 350.362 64.4357 328.443 64.4212 306.525C64.4203 305.107 64.4193 303.69 64.4184 302.272C64.4179 301.57 64.4174 300.867 64.417 300.142C64.4146 296.581 64.4121 293.02 64.4097 289.458C64.4092 288.751 64.4087 288.045 64.4082 287.317C64.3924 264.388 64.3455 241.46 64.2806 218.532C64.212 194.298 64.1725 170.064 64.166 145.829C64.1616 132.616 64.144 119.403 64.093 106.189C64.0497 94.9411 64.0335 83.6932 64.053 72.445C64.0621 66.7024 64.0581 60.9606 64.0194 55.2181C63.9844 49.9655 63.986 44.7142 64.0172 39.4615C64.022 37.5571 64.0132 35.6526 63.9896 33.7483C63.8235 19.4545 63.8235 19.4545 66.7673 15.8151C68.836 14.5036 70.6765 13.7366 73 13C74.3245 11.957 75.6276 10.884 76.875 9.75C81.8579 5.25384 86.4116 5.33555 93 6ZM132.789 73.3359C129.625 78.0476 129.852 82.3192 129.855 87.7983C129.851 88.6978 129.848 89.5973 129.845 90.5241C129.835 93.503 129.833 96.482 129.832 99.4609C129.829 101.53 129.825 103.599 129.822 105.667C129.816 110.007 129.814 114.346 129.815 118.686C129.815 124.246 129.801 129.807 129.784 135.368C129.773 139.642 129.771 143.916 129.771 148.189C129.77 150.24 129.766 152.29 129.758 154.34C129.748 157.208 129.751 160.075 129.757 162.943C129.751 163.79 129.746 164.637 129.74 165.509C129.767 170.593 130.122 174.609 133.375 178.75C141.427 184.944 160.737 181.352 170.313 180.312C179.676 178.806 186.556 175.586 192.531 168.117C195.734 163.501 198.447 158.667 199 153C199.063 152.367 199.126 151.734 199.191 151.082C199.65 142.72 197.073 135.093 191.75 128.625C188.29 124.977 184.407 122.381 180 120C180.459 119.622 180.918 119.245 181.391 118.855C187.443 113.427 190.709 107.345 191.156 99.1289C190.702 90.9388 188.326 84.9246 182.375 79.25C172.339 71.0642 160.757 70.783 148.375 70.625C146.697 70.5689 146.697 70.5689 144.984 70.5117C138.442 70.3658 138.442 70.3658 132.789 73.3359ZM220 75C217.52 79.4654 217.71 83.8583 217.725 88.8259C217.72 89.7046 217.715 90.5833 217.71 91.4886C217.696 94.387 217.697 97.2851 217.699 100.184C217.695 102.202 217.691 104.221 217.686 106.24C217.679 110.469 217.679 114.698 217.684 118.927C217.69 124.342 217.673 129.757 217.65 135.171C217.635 139.34 217.634 143.508 217.637 147.677C217.637 149.673 217.632 151.669 217.622 153.666C217.609 156.459 217.616 159.251 217.628 162.045C217.62 162.866 217.612 163.688 217.605 164.534C217.657 170.27 218.702 174.538 222.75 178.875C226.04 180.52 228.371 180.446 232 180C234.753 178.204 236.526 176.947 238 174C238.104 171 238.147 168.024 238.145 165.024C238.149 164.094 238.152 163.164 238.155 162.205C238.165 159.118 238.167 156.032 238.168 152.945C238.171 150.805 238.175 148.666 238.178 146.526C238.184 142.035 238.186 137.544 238.185 133.053C238.185 127.294 238.199 121.535 238.216 115.775C238.227 111.354 238.229 106.933 238.229 102.511C238.23 100.388 238.234 98.2641 238.242 96.1406C238.252 93.1719 238.249 90.2035 238.243 87.2349C238.249 86.3547 238.254 85.4746 238.26 84.5677C238.256 83.7574 238.252 82.947 238.247 82.1121C238.248 81.4104 238.248 80.7088 238.249 79.9859C237.949 77.5943 237.281 76.0381 236 74C229.563 70.0816 225.88 70.2707 220 75ZM264 76C262.271 79.459 262.844 83.4594 262.839 87.2673C262.834 88.2284 262.829 89.1895 262.824 90.1797C262.809 93.3685 262.802 96.5573 262.797 99.7461C262.791 101.956 262.785 104.165 262.78 106.375C262.769 111.011 262.763 115.647 262.76 120.283C262.754 126.233 262.73 132.183 262.702 138.133C262.683 142.698 262.678 147.263 262.676 151.827C262.673 154.021 262.665 156.215 262.652 158.41C262.635 161.474 262.637 164.538 262.644 167.603C262.634 168.515 262.625 169.427 262.616 170.366C262.621 171.201 262.627 172.035 262.633 172.894C262.631 173.619 262.63 174.344 262.628 175.09C263.109 177.561 264.053 178.454 266 180C267.953 180.464 267.953 180.464 270.117 180.42C270.941 180.436 271.766 180.452 272.615 180.468C273.503 180.468 274.39 180.469 275.305 180.469C276.221 180.476 277.137 180.484 278.081 180.492C280.019 180.503 281.958 180.505 283.896 180.501C286.857 180.5 289.816 180.542 292.777 180.586C294.661 180.591 296.546 180.594 298.43 180.594C299.313 180.61 300.197 180.627 301.107 180.643C305.551 180.594 307.417 180.453 311.032 177.646C313.347 174.534 314.079 172.885 314 169C312.388 165.775 311.14 163.639 307.957 161.855C302.967 160.412 297.853 160.602 292.686 160.521C291.857 160.495 291.029 160.469 290.176 160.441C289.422 160.428 288.668 160.414 287.892 160.401C286 160 286 160 284 157C283.803 154.46 283.72 152.027 283.729 149.487C283.724 148.724 283.718 147.961 283.713 147.175C283.703 145.518 283.697 143.862 283.695 142.205C283.691 139.582 283.675 136.96 283.654 134.337C283.599 126.88 283.568 119.422 283.544 111.965C283.528 107.403 283.498 102.842 283.459 98.28C283.447 96.5425 283.441 94.8049 283.441 93.0674C283.441 90.6353 283.423 88.204 283.401 85.772C283.405 85.056 283.41 84.3399 283.415 83.6022C283.351 79.2343 282.646 76.4929 280 73C273.719 68.4514 268.853 71.2601 264 76ZM332 76C330.271 79.459 330.844 83.4594 330.839 87.2673C330.834 88.2284 330.829 89.1895 330.824 90.1797C330.809 93.3685 330.802 96.5573 330.797 99.7461C330.791 101.956 330.785 104.165 330.78 106.375C330.769 111.011 330.763 115.647 330.76 120.283C330.754 126.233 330.73 132.183 330.702 138.133C330.683 142.698 330.678 147.263 330.676 151.827C330.673 154.021 330.665 156.215 330.652 158.41C330.635 161.474 330.637 164.538 330.644 167.603C330.634 168.515 330.625 169.427 330.616 170.366C330.621 171.201 330.627 172.035 330.633 172.894C330.631 173.619 330.63 174.344 330.628 175.09C331.109 177.561 332.053 178.454 334 180C335.953 180.464 335.953 180.464 338.117 180.42C338.941 180.436 339.766 180.452 340.615 180.468C341.503 180.468 342.39 180.469 343.305 180.469C344.221 180.476 345.137 180.484 346.081 180.492C348.019 180.503 349.958 180.505 351.896 180.501C354.857 180.5 357.816 180.542 360.777 180.586C362.661 180.591 364.546 180.594 366.43 180.594C367.313 180.61 368.197 180.627 369.107 180.643C373.595 180.593 375.42 180.457 379.057 177.592C381.481 174.359 381.739 172.83 381.496 168.934C380.645 165.618 378.639 164.026 376 162C373.264 161.088 371.454 160.842 368.621 160.754C367.783 160.721 366.944 160.688 366.08 160.654C364.315 160.593 362.549 160.536 360.783 160.482C359.946 160.448 359.109 160.414 358.246 160.379C357.48 160.354 356.713 160.329 355.924 160.303C354 160 354 160 352 158C351.798 155.503 351.72 153.115 351.729 150.616C351.724 149.855 351.718 149.094 351.713 148.31C351.703 146.654 351.697 144.997 351.695 143.341C351.691 140.718 351.675 138.096 351.654 135.472C351.599 128.013 351.568 120.554 351.544 113.095C351.528 108.535 351.498 103.974 351.459 99.4138C351.447 97.6771 351.441 95.9404 351.441 94.2037C351.441 91.7693 351.423 89.3357 351.401 86.9014C351.405 86.1874 351.41 85.4734 351.414 84.7377C351.348 80.1094 350.416 76.9425 348 73C345.673 71.2345 344.021 71.0033 341.125 70.5625C336.732 71.1776 335.154 72.919 332 76ZM113 244C111.836 246.904 111.836 246.904 112 250C113.788 252.592 114.96 252.987 118 254C119.553 254.093 121.11 254.129 122.666 254.131C123.63 254.135 124.594 254.139 125.588 254.143C126.649 254.142 127.711 254.141 128.805 254.14C129.931 254.143 131.057 254.146 132.218 254.149C136.011 254.158 139.804 254.16 143.597 254.161C146.309 254.165 149.02 254.171 151.732 254.176C159.112 254.19 166.492 254.196 173.872 254.2C178.479 254.203 183.085 254.207 187.692 254.212C200.443 254.224 213.194 254.234 225.945 254.238C227.169 254.238 227.169 254.238 228.418 254.238C229.237 254.238 230.055 254.239 230.898 254.239C232.556 254.239 234.214 254.24 235.872 254.24C236.694 254.24 237.516 254.241 238.364 254.241C251.694 254.245 265.025 254.262 278.355 254.286C292.036 254.309 305.717 254.322 319.398 254.323C327.082 254.324 334.765 254.33 342.449 254.348C348.991 254.363 355.532 254.368 362.074 254.36C365.412 254.356 368.75 254.359 372.089 254.371C375.706 254.384 379.323 254.378 382.941 254.367C383.998 254.376 385.055 254.384 386.145 254.392C393.095 254.411 393.095 254.411 399 251C400.155 248.562 400.155 248.562 400 246C398.187 243.462 397.015 243.005 394 242C392.447 241.908 390.89 241.873 389.334 241.871C388.37 241.868 387.406 241.865 386.412 241.862C385.351 241.863 384.289 241.865 383.195 241.866C382.069 241.864 380.943 241.862 379.782 241.859C375.989 241.853 372.196 241.854 368.403 241.855C365.691 241.852 362.98 241.848 360.268 241.845C353.656 241.836 347.043 241.834 340.43 241.833C335.056 241.832 329.682 241.83 324.308 241.827C309.078 241.818 293.848 241.814 278.618 241.815C277.796 241.815 276.975 241.815 276.128 241.815C274.895 241.815 274.895 241.815 273.636 241.815C260.306 241.815 246.975 241.806 233.645 241.792C219.964 241.777 206.283 241.77 192.602 241.771C184.918 241.771 177.235 241.769 169.551 241.758C163.009 241.749 156.468 241.747 149.926 241.753C146.588 241.757 143.25 241.756 139.911 241.748C136.294 241.74 132.677 241.745 129.059 241.753C128.002 241.748 126.945 241.742 125.855 241.737C124.886 241.742 123.916 241.746 122.917 241.751C122.082 241.751 121.247 241.751 120.387 241.75C117.588 242.043 115.499 242.706 113 244ZM113 294C111.836 296.904 111.836 296.904 112 300C113.788 302.592 114.96 302.987 118 304C119.553 304.093 121.11 304.129 122.666 304.131C123.63 304.135 124.594 304.139 125.588 304.143C126.649 304.142 127.711 304.141 128.805 304.14C129.931 304.143 131.057 304.146 132.218 304.149C136.011 304.158 139.804 304.16 143.597 304.161C146.309 304.165 149.02 304.171 151.732 304.176C159.112 304.19 166.492 304.196 173.872 304.2C178.479 304.203 183.085 304.207 187.692 304.212C200.443 304.224 213.194 304.234 225.945 304.238C227.169 304.238 227.169 304.238 228.418 304.238C229.237 304.238 230.055 304.239 230.898 304.239C232.556 304.239 234.214 304.24 235.872 304.24C236.694 304.24 237.516 304.241 238.364 304.241C251.694 304.245 265.025 304.262 278.355 304.286C292.036 304.309 305.717 304.322 319.398 304.323C327.082 304.324 334.765 304.33 342.449 304.348C348.991 304.363 355.532 304.368 362.074 304.36C365.412 304.356 368.75 304.359 372.089 304.371C375.706 304.384 379.323 304.378 382.941 304.367C383.998 304.376 385.055 304.384 386.145 304.392C393.095 304.411 393.095 304.411 399 301C400.155 298.562 400.155 298.562 400 296C398.187 293.462 397.015 293.005 394 292C392.447 291.908 390.89 291.873 389.334 291.871C388.37 291.868 387.406 291.865 386.412 291.862C385.351 291.863 384.289 291.865 383.195 291.866C382.069 291.864 380.943 291.862 379.782 291.859C375.989 291.853 372.196 291.854 368.403 291.855C365.691 291.852 362.98 291.848 360.268 291.845C353.656 291.836 347.043 291.834 340.43 291.833C335.056 291.832 329.682 291.83 324.308 291.827C309.078 291.818 293.848 291.814 278.618 291.815C277.796 291.815 276.975 291.815 276.128 291.815C274.895 291.815 274.895 291.815 273.636 291.815C260.306 291.815 246.975 291.806 233.645 291.792C219.964 291.777 206.283 291.77 192.602 291.771C184.918 291.771 177.235 291.769 169.551 291.758C163.009 291.749 156.468 291.747 149.926 291.753C146.588 291.757 143.25 291.756 139.911 291.748C136.294 291.74 132.677 291.745 129.059 291.753C128.002 291.748 126.945 291.742 125.855 291.737C124.886 291.742 123.916 291.746 122.917 291.751C122.082 291.751 121.247 291.751 120.387 291.75C117.588 292.043 115.499 292.706 113 294ZM113 344C111.836 346.904 111.836 346.904 112 350C113.788 352.592 114.96 352.987 118 354C119.553 354.093 121.11 354.129 122.666 354.131C123.63 354.135 124.594 354.139 125.588 354.143C126.649 354.142 127.711 354.141 128.805 354.14C129.931 354.143 131.057 354.146 132.218 354.149C136.011 354.158 139.804 354.16 143.597 354.161C146.309 354.165 149.02 354.171 151.732 354.176C159.112 354.19 166.492 354.196 173.872 354.2C178.479 354.203 183.085 354.207 187.692 354.212C200.443 354.224 213.194 354.234 225.945 354.238C227.169 354.238 227.169 354.238 228.418 354.238C229.237 354.238 230.055 354.239 230.898 354.239C232.556 354.239 234.214 354.24 235.872 354.24C236.694 354.24 237.516 354.241 238.364 354.241C251.694 354.245 265.025 354.262 278.355 354.286C292.036 354.309 305.717 354.322 319.398 354.323C327.082 354.324 334.765 354.33 342.449 354.348C348.991 354.363 355.532 354.368 362.074 354.36C365.412 354.356 368.75 354.359 372.089 354.371C375.706 354.384 379.323 354.378 382.941 354.367C383.998 354.376 385.055 354.384 386.145 354.392C393.095 354.411 393.095 354.411 399 351C400.155 348.562 400.155 348.562 400 346C398.187 343.462 397.015 343.005 394 342C392.447 341.908 390.89 341.873 389.334 341.871C388.37 341.868 387.406 341.865 386.412 341.862C385.351 341.863 384.289 341.865 383.195 341.866C382.069 341.864 380.943 341.862 379.782 341.859C375.989 341.853 372.196 341.854 368.403 341.855C365.691 341.852 362.98 341.848 360.268 341.845C353.656 341.836 347.043 341.834 340.43 341.833C335.056 341.832 329.682 341.83 324.308 341.827C309.078 341.818 293.848 341.814 278.618 341.815C277.796 341.815 276.975 341.815 276.128 341.815C274.895 341.815 274.895 341.815 273.636 341.815C260.306 341.815 246.975 341.806 233.645 341.792C219.964 341.777 206.283 341.77 192.602 341.771C184.918 341.771 177.235 341.769 169.551 341.758C163.009 341.749 156.468 341.747 149.926 341.753C146.588 341.757 143.25 341.756 139.911 341.748C136.294 341.74 132.677 341.745 129.059 341.753C128.002 341.748 126.945 341.742 125.855 341.737C124.886 341.742 123.916 341.746 122.917 341.751C122.082 341.751 121.247 341.751 120.387 341.75C117.588 342.043 115.499 342.706 113 344ZM113 394C111.836 396.904 111.836 396.904 112 400C113.788 402.592 114.96 402.987 118 404C119.553 404.093 121.11 404.129 122.666 404.131C123.63 404.135 124.594 404.139 125.588 404.143C126.649 404.142 127.711 404.141 128.805 404.14C129.931 404.143 131.057 404.146 132.218 404.149C136.011 404.158 139.804 404.16 143.597 404.161C146.309 404.165 149.02 404.171 151.732 404.176C159.112 404.19 166.492 404.196 173.872 404.2C178.479 404.203 183.085 404.207 187.692 404.212C200.443 404.224 213.194 404.234 225.945 404.238C227.169 404.238 227.169 404.238 228.418 404.238C229.237 404.238 230.055 404.239 230.898 404.239C232.556 404.239 234.214 404.24 235.872 404.24C236.694 404.24 237.516 404.241 238.364 404.241C251.694 404.245 265.025 404.262 278.355 404.286C292.036 404.309 305.717 404.322 319.398 404.323C327.082 404.324 334.765 404.33 342.449 404.348C348.991 404.363 355.532 404.368 362.074 404.36C365.412 404.356 368.75 404.359 372.089 404.371C375.706 404.384 379.323 404.378 382.941 404.367C383.998 404.376 385.055 404.384 386.145 404.392C393.095 404.411 393.095 404.411 399 401C400.155 398.562 400.155 398.562 400 396C398.187 393.462 397.015 393.005 394 392C392.447 391.908 390.89 391.873 389.334 391.871C388.37 391.868 387.406 391.865 386.412 391.862C385.351 391.863 384.289 391.865 383.195 391.866C382.069 391.864 380.943 391.862 379.782 391.859C375.989 391.853 372.196 391.854 368.403 391.855C365.691 391.852 362.98 391.848 360.268 391.845C353.656 391.836 347.043 391.834 340.43 391.833C335.056 391.832 329.682 391.83 324.308 391.827C309.078 391.818 293.848 391.814 278.618 391.815C277.796 391.815 276.975 391.815 276.128 391.815C274.895 391.815 274.895 391.815 273.636 391.815C260.306 391.815 246.975 391.806 233.645 391.792C219.964 391.777 206.283 391.77 192.602 391.771C184.918 391.771 177.235 391.769 169.551 391.758C163.009 391.749 156.468 391.747 149.926 391.753C146.588 391.757 143.25 391.756 139.911 391.748C136.294 391.74 132.677 391.745 129.059 391.753C128.002 391.748 126.945 391.742 125.855 391.737C124.886 391.742 123.916 391.746 122.917 391.751C122.082 391.751 121.247 391.751 120.387 391.75C117.588 392.043 115.499 392.706 113 394Z" fill="#225D5C"/>
<path d="M157.5 131.688C163.47 131.834 170.013 132.431 174.703 136.465C178.537 140.97 179.292 144.028 179.219 149.746C178.823 153.825 177.023 156.076 174.062 158.75C169.587 161.463 164.915 161.152 159.812 161.125C159.076 161.129 158.339 161.133 157.58 161.137C152.127 161.127 152.127 161.127 151 160C150.747 155.694 150.815 151.376 150.812 147.062C150.794 145.234 150.794 145.234 150.775 143.369C150.773 142.207 150.772 141.045 150.77 139.848C150.765 138.775 150.761 137.703 150.757 136.598C151.187 132.001 153.397 131.707 157.5 131.688Z" fill="#225D5C"/>
<path d="M157.25 89.6875C161.509 89.7902 164.398 90.5984 168 93C171.433 96.777 171.512 99.6483 171.352 104.59C170.844 108.066 169.635 109.721 167 112C162.693 114.584 157.888 114.413 153 114C152.34 113.67 151.68 113.34 151 113C150.942 109.542 150.906 106.084 150.875 102.625C150.858 101.64 150.841 100.655 150.824 99.6406C150.818 98.6996 150.811 97.7586 150.805 96.7891C150.794 95.9198 150.784 95.0504 150.773 94.1548C151.214 89.9678 153.584 89.7062 157.25 89.6875Z" fill="#225D5C"/>
</svg>
