<svg width="512" height="512" viewBox="0 0 512 512" fill="none" xmlns="http://www.w3.org/2000/svg">
<path d="M149 41.0001C152.884 42.9773 155.991 45.0868 158 49.0001C158.33 51.9701 158.66 54.9401 159 58.0001C186.06 58.0001 213.12 58.0001 241 58.0001C241.33 55.0301 241.66 52.0601 242 49.0001C244.566 45.1858 246.749 42.7178 251 41.0001C255.993 40.2915 259.917 40.4485 264.438 42.7501C270.431 48.0123 269.988 48.8901 271 58.0001C298.06 58.0001 325.12 58.0001 353 58.0001C353.33 55.0301 353.66 52.0601 354 49.0001C356.566 45.1858 358.749 42.7178 363 41.0001C367.993 40.2915 371.917 40.4485 376.438 42.7501C380.519 46.3335 382.043 48.2101 382.574 53.6446C382.656 54.4591 382.738 55.2735 382.823 56.1126C382.881 56.7355 382.94 57.3583 383 58.0001C383.886 57.9868 383.886 57.9868 384.791 57.9732C391.021 57.8837 397.252 57.8239 403.483 57.7803C405.799 57.7604 408.115 57.7333 410.431 57.6983C432.522 57.3737 452.273 59.3135 469.5 74.5626C471.009 76.0321 472.51 77.5105 474 79.0001C474.621 79.5389 475.243 80.0777 475.883 80.6329C486.912 90.4747 493.653 107.54 495 122C495.144 125.856 495.144 129.709 495.14 133.567C495.145 135.307 495.145 135.307 495.149 137.082C495.157 140.289 495.159 143.495 495.16 146.702C495.162 150.166 495.169 153.629 495.176 157.093C495.19 164.662 495.196 172.23 495.2 179.799C495.203 184.529 495.207 189.26 495.212 193.991C495.224 207.103 495.234 220.216 495.238 233.328C495.238 234.166 495.238 235.005 495.238 235.869C495.238 236.709 495.239 237.55 495.239 238.416C495.239 240.118 495.24 241.821 495.24 243.524C495.24 244.369 495.241 245.214 495.241 246.084C495.245 259.76 495.262 273.437 495.286 287.113C495.309 301.173 495.322 315.233 495.323 329.293C495.324 337.18 495.33 345.066 495.348 352.953C495.363 359.671 495.368 366.388 495.36 373.106C495.356 376.529 495.357 379.951 495.371 383.373C495.456 408.044 493.112 430.179 475.695 449.328C459.551 465.249 440.089 471.659 417.744 471.508C416.282 471.513 414.819 471.519 413.357 471.527C409.387 471.543 405.419 471.535 401.449 471.523C397.149 471.514 392.849 471.528 388.549 471.539C380.145 471.557 371.741 471.553 363.337 471.541C356.502 471.532 349.668 471.531 342.833 471.535C341.857 471.536 340.881 471.537 339.876 471.537C337.893 471.538 335.911 471.54 333.928 471.541C315.372 471.552 296.815 471.539 278.259 471.518C262.364 471.5 246.468 471.503 230.573 471.522C212.08 471.543 193.586 471.551 175.092 471.539C173.117 471.538 171.142 471.537 169.167 471.535C167.71 471.534 167.71 471.534 166.223 471.533C159.403 471.53 152.583 471.536 145.762 471.545C137.441 471.556 129.121 471.553 120.8 471.532C116.561 471.522 112.322 471.517 108.083 471.531C104.192 471.543 100.301 471.536 96.4098 471.515C94.3586 471.508 92.3073 471.521 90.256 471.535C69.8535 471.365 51.7775 464.182 37 450C22.5056 435.115 16.8433 415.703 16.8596 395.433C16.8566 394.273 16.8537 393.113 16.8506 391.918C16.8434 388.711 16.8407 385.505 16.84 382.298C16.8381 378.834 16.8306 375.371 16.8239 371.907C16.8103 364.338 16.8042 356.77 16.7998 349.202C16.7971 344.471 16.7928 339.74 16.7884 335.009C16.7762 321.897 16.7659 308.785 16.7625 295.672C16.7623 294.834 16.762 293.995 16.7618 293.131C16.7616 292.291 16.7614 291.451 16.7611 290.585C16.7607 288.882 16.7603 287.179 16.7598 285.476C16.7596 284.631 16.7594 283.787 16.7591 282.916C16.7552 269.24 16.7377 255.563 16.7144 241.887C16.6907 227.827 16.6783 213.767 16.6771 199.707C16.6762 191.82 16.6705 183.934 16.6523 176.047C16.6368 169.329 16.6318 162.612 16.64 155.894C16.6439 152.472 16.6431 149.049 16.629 145.627C16.5405 119.848 19.3114 97.6688 38.0625 78.3126C51.3806 65.0856 69.0315 57.7707 87.7563 57.7735C88.7984 57.7838 89.8404 57.7941 90.9141 57.8048C92.5576 57.809 92.5576 57.809 94.2343 57.8133C97.698 57.8244 101.161 57.8495 104.625 57.8751C106.988 57.8851 109.352 57.8942 111.715 57.9024C117.477 57.9243 123.238 57.9577 129 58.0001C129.045 57.3903 129.091 56.7805 129.137 56.1522C129.245 54.9457 129.245 54.9457 129.356 53.7149C129.421 52.9195 129.487 52.1241 129.555 51.3045C130.304 47.4258 132.164 45.7038 135 43.0001C139.46 40.2789 143.918 40.3417 149 41.0001ZM178.375 206.75C160.67 227.012 152.926 253.451 154 280C156.283 308.799 170.727 334.002 192.289 352.844C213.364 369.607 239.799 376.839 266.449 374.727C294.831 371.296 320.269 356.348 338 334C354.124 310.775 361.316 283.754 356.742 255.688C351.096 227.636 335.757 203.48 311.82 187.387C267.651 159.057 213.475 169.603 178.375 206.75Z" fill="#225D5C"/>
<path d="M301.375 213.938C302.934 215.273 304.477 216.627 306 218.001C306.685 218.593 307.369 219.184 308.074 219.794C318.171 229.097 324.237 240.971 328 254.001C328.245 254.816 328.49 255.63 328.742 256.47C333.22 274.379 329.522 293.834 320.918 309.849C318.012 314.626 314.741 318.853 311 323.001C310.409 323.685 309.817 324.37 309.207 325.075C299.904 335.172 288.03 341.237 275 345.001C274.186 345.246 273.371 345.491 272.531 345.743C254.623 350.22 235.167 346.522 219.153 337.919C214.375 335.012 210.148 331.742 206 328.001C205.316 327.409 204.631 326.818 203.926 326.208C193.83 316.905 187.764 305.031 184 292.001C183.755 291.186 183.51 290.372 183.258 289.532C178.781 271.623 182.479 252.168 191.082 236.153C193.989 231.376 197.259 227.149 201 223.001C201.592 222.316 202.184 221.632 202.793 220.927C212.096 210.83 223.97 204.764 237 201.001C237.815 200.756 238.63 200.511 239.469 200.259C260.672 194.958 284.31 200.718 301.375 213.938ZM268.75 253.688C267.24 254.949 265.73 256.21 264.219 257.47C263.495 258.077 262.77 258.684 262.024 259.31C259.451 261.46 256.859 263.582 254.25 265.688C253.534 266.27 252.817 266.851 252.078 267.45C249.808 269.145 247.451 270.583 245 272.001C244.36 271.17 243.719 270.338 243.059 269.481C242.186 268.383 241.312 267.286 240.438 266.188C240.019 265.641 239.601 265.094 239.17 264.53C235.867 260.432 233.017 258.646 228 257.001C222.574 257.096 219.107 258.454 215 262.001C212.386 266.387 211.595 269.728 212.338 274.798C213.65 279.162 216.631 282.418 219.5 285.876C220.132 286.66 220.763 287.445 221.413 288.253C229.231 299.478 229.231 299.478 239.996 306.38C248.409 307.013 252.795 303.272 259 298.001C260.031 297.136 261.063 296.271 262.094 295.407C263.718 294.04 265.337 292.668 266.948 291.285C270.927 287.874 274.993 284.598 279.125 281.376C279.706 280.92 280.287 280.464 280.885 279.995C283.649 277.828 286.424 275.678 289.223 273.556C296.486 268.056 296.486 268.056 300 260.001C299.905 254.575 298.547 251.108 295 247.001C283.837 240.912 277.448 246.319 268.75 253.688Z" fill="#225D5C"/>
</svg>
