<svg width="512" height="512" viewBox="0 0 512 512" fill="none" xmlns="http://www.w3.org/2000/svg">
<path d="M87.0468 42.6705C92.8943 46.6468 98.8471 51.517 102 57.9987C102.357 59.9946 102.692 61.9946 103 63.9987C104.434 63.9853 104.434 63.9853 105.896 63.9717C114.901 63.8907 123.906 63.8307 132.911 63.7914C137.541 63.7705 142.171 63.7422 146.8 63.6969C151.268 63.6534 155.735 63.6295 160.202 63.6191C161.907 63.6117 163.612 63.5973 165.317 63.5757C167.704 63.5467 170.09 63.5427 172.478 63.5445C173.536 63.523 173.536 63.523 174.616 63.501C177.937 63.5289 179.73 63.8013 182.442 65.7806C184.843 69.1993 184.493 72.6837 184.391 76.7018C184.385 77.5396 184.379 78.3774 184.373 79.2405C184.351 81.9105 184.301 84.5791 184.25 87.2487C184.23 89.0611 184.212 90.8736 184.195 92.6862C184.151 97.1242 184.082 101.561 184 105.999C184.539 105.73 185.078 105.461 185.633 105.184C197.488 99.2821 209.183 94.3902 222 90.9987C223.246 90.6583 224.493 90.318 225.777 89.9674C260.827 82.1545 296.658 89.8858 328 105.999C327.979 104.868 327.958 103.738 327.936 102.574C327.864 98.377 327.818 94.1803 327.78 89.983C327.76 88.1672 327.733 86.3514 327.698 84.5358C327.65 81.9243 327.627 79.3136 327.609 76.7018C327.589 75.8912 327.568 75.0807 327.547 74.2455C327.545 70.8886 327.597 68.5722 329.558 65.7806C332.834 63.39 335.622 63.4651 339.522 63.5445C340.274 63.544 341.026 63.5434 341.8 63.5428C344.279 63.5456 346.756 63.5767 349.234 63.608C350.955 63.6155 352.676 63.6212 354.396 63.6252C358.921 63.6404 363.445 63.6797 367.969 63.724C372.587 63.7649 377.206 63.7832 381.824 63.8033C390.883 63.8462 399.941 63.9145 409 63.9987C409.138 63.0615 409.276 62.1244 409.418 61.1588C410.715 54.1149 415.786 48.4864 421.562 44.4987C429.726 39.3462 438.642 39.0257 448 39.9987C457.504 42.2471 463.391 47.6379 468.703 55.6197C473.065 63.6214 473.55 74.001 471.277 82.7955C470.336 85.0058 469.28 86.9684 468 88.9987C467.649 89.62 467.299 90.2413 466.937 90.8815C462.661 97.7411 455.707 101.94 448 103.999C436.589 105.016 427.807 104.133 418.75 96.6862C413.091 91.4001 410.294 87.7635 409 79.9987C387.55 79.9987 366.1 79.9987 344 79.9987C343.938 86.083 343.876 92.1674 343.812 98.4362C343.765 100.338 343.717 102.24 343.667 104.2C343.526 113.241 343.526 113.241 347.401 121.111C350.166 123.363 352.937 125.184 356 126.999C375.408 143.919 389.433 169.317 396 193.999C396.195 194.705 396.389 195.411 396.59 196.139C399.763 208.151 400.392 220.019 400.437 232.374C400.444 233.087 400.45 233.8 400.456 234.535C400.513 244.719 399.357 254.079 397 263.999C397.58 263.99 398.16 263.981 398.757 263.972C404.792 263.883 410.826 263.823 416.861 263.779C419.113 263.759 421.365 263.732 423.618 263.697C426.855 263.648 430.091 263.626 433.328 263.608C434.336 263.587 435.343 263.567 436.381 263.545C437.792 263.545 437.792 263.545 439.231 263.545C440.057 263.536 440.884 263.527 441.735 263.518C445.043 264.22 446.088 265.199 448 267.999C448.567 270.999 448.505 273.945 448.454 276.99C448.455 277.898 448.455 278.805 448.456 279.74C448.453 282.738 448.422 285.735 448.391 288.733C448.383 290.812 448.377 292.892 448.373 294.971C448.358 300.442 448.319 305.913 448.275 311.385C448.234 316.968 448.215 322.552 448.195 328.135C448.152 339.09 448.084 350.044 448 360.999C448.947 361.14 449.894 361.282 450.869 361.428C458.537 362.826 464.591 369.91 469 375.999C473.454 382.98 472.725 392.058 472 399.999C471.121 403.371 469.853 406.061 468 408.999C467.649 409.62 467.299 410.241 466.937 410.881C462.661 417.741 455.707 421.94 448 423.999C439.113 424.791 430.768 424.898 423 419.999C422.379 419.648 421.757 419.297 421.117 418.936C414.258 414.66 410.058 407.706 408 399.999C407.763 397.342 407.619 394.839 407.625 392.186C407.627 391.481 407.628 390.775 407.63 390.048C407.767 384.181 408.95 379.947 412 374.999C412.536 373.967 413.072 372.936 413.625 371.874C418.718 365.708 424.136 362.309 432 360.999C432 334.269 432 307.539 432 279.999C418.8 279.999 405.6 279.999 392 279.999C390.515 284.454 390.515 284.454 389 288.999C387.798 291.67 386.58 294.27 385.25 296.874C384.725 297.908 384.725 297.908 384.189 298.964C366.441 333.426 335.725 358.285 299.099 370.354C295.412 371.487 291.695 372.439 287.937 373.311C287.267 373.471 286.596 373.63 285.905 373.795C278.542 375.372 271.727 375.484 264 375.999C264 386.889 264 397.779 264 408.999C265.98 409.329 267.96 409.659 270 409.999C278.23 414.214 283.674 420.271 287.133 428.788C289.377 437.096 289.37 447.477 285.187 455.116C284.6 456.048 284.6 456.048 284 456.999C283.649 457.62 283.299 458.241 282.937 458.881C278.661 465.741 271.707 469.94 264 471.999C255.113 472.791 246.768 472.898 239 467.999C238.379 467.648 237.757 467.297 237.117 466.936C230.258 462.66 226.058 455.706 224 447.999C223.208 439.111 223.101 430.767 228 422.999C228.351 422.377 228.701 421.756 229.062 421.116C232.213 416.062 236.672 412.606 242 409.999C243.98 409.669 245.96 409.339 248 408.999C248 398.109 248 387.219 248 375.999C243.05 375.669 238.1 375.339 233 374.999C229.438 374.363 226.05 373.699 222.562 372.811C221.674 372.59 220.786 372.37 219.871 372.142C182.372 362.507 150.51 338.27 130.807 304.983C120 286.052 120 286.052 120 279.999C107.13 279.999 94.26 279.999 81 279.999C81 306.729 81 333.459 81 360.999C83.31 361.659 85.62 362.319 88 362.999C95.2794 366.901 100.055 373.235 103.141 380.792C105.369 389.106 105.372 399.474 101.187 407.116C100.6 408.048 100.6 408.048 100 408.999C99.474 409.931 99.474 409.931 98.9375 410.881C94.6614 417.741 87.707 421.94 80 423.999C71.1125 424.791 62.768 424.898 55 419.999C54.3786 419.648 53.7573 419.297 53.1172 418.936C46.2576 414.66 42.0583 407.706 40 399.999C39.2079 391.111 39.1007 382.767 44 374.999C44.5259 374.067 44.5259 374.067 45.0625 373.116C48.2129 368.062 52.6723 364.606 58 361.999C59.9948 361.636 61.9948 361.299 64 360.999C63.9911 359.842 63.9822 358.686 63.973 357.495C63.892 346.606 63.832 335.718 63.7927 324.829C63.7718 319.231 63.7435 313.632 63.6982 308.034C63.6548 302.633 63.6308 297.232 63.6205 291.831C63.6131 289.769 63.5986 287.707 63.577 285.645C63.5481 282.76 63.544 279.875 63.5459 276.99C63.5315 276.135 63.5171 275.279 63.5023 274.398C63.5285 270.642 63.5729 268.624 65.7303 265.465C68.3429 263.777 69.6806 263.511 72.7685 263.545C73.7092 263.545 74.6499 263.545 75.619 263.545C76.6265 263.566 77.6339 263.587 78.6718 263.608C79.7094 263.614 80.7469 263.619 81.8159 263.625C85.1278 263.648 88.4385 263.698 91.75 263.749C93.996 263.769 96.2421 263.787 98.4882 263.803C103.993 263.847 109.496 263.914 115 263.999C114.788 263.109 114.577 262.219 114.359 261.302C112.206 251.558 111.476 242.336 111.562 232.374C111.567 231.266 111.567 231.266 111.571 230.135C111.639 217.749 112.696 205.986 116 193.999C116.177 193.335 116.353 192.671 116.535 191.987C124.492 162.981 142.331 138.318 165 118.999C165.66 118.669 166.32 118.339 167 117.999C167.33 105.459 167.66 92.9187 168 79.9987C146.55 79.9987 125.1 79.9987 103 79.9987C102.67 81.9787 102.34 83.9587 102 85.9987C98.0355 93.3377 90.6158 100.998 82.5273 103.561C73.0619 105.2 63.308 105.239 55 99.9987C54.068 99.4727 54.068 99.4727 53.1172 98.9362C46.2576 94.66 42.0583 87.7057 40 79.9987C39.2112 71.148 39.0399 62.7006 44 54.9987C44.4357 54.2922 44.8714 53.5858 45.3203 52.858C54.0367 39.9977 73.1628 35.1456 87.0468 42.6705ZM58.625 63.6237C56.4209 68.2014 56.2028 72.0042 57 76.9987C59.3297 81.8372 62.1614 84.669 67 86.9987C71.9944 87.7958 75.7973 87.5777 80.375 85.3737C83.959 82.1309 86.5953 79.5339 87.3828 74.6002C87.6388 68.9164 86.9362 65.3493 83 60.9987C78.6493 57.0624 75.0822 56.3598 69.3984 56.6158C64.4647 57.4033 61.8677 60.0396 58.625 63.6237ZM426.625 63.6237C424.421 68.2014 424.203 72.0042 425 76.9987C427.33 81.8372 430.161 84.669 435 86.9987C439.994 87.7958 443.797 87.5777 448.375 85.3737C451.959 82.1309 454.595 79.5339 455.383 74.6002C455.639 68.9164 454.936 65.3493 451 60.9987C446.649 57.0624 443.082 56.3598 437.398 56.6158C432.465 57.4033 429.868 60.0396 426.625 63.6237ZM163.466 143.467C141.029 166.913 128.579 198.653 128.625 230.936C128.626 231.617 128.627 232.297 128.628 232.999C128.758 263.848 139.311 291.347 159 314.999C159.741 315.893 160.482 316.788 161.246 317.71C180.746 340.303 211.187 356.498 241 358.999C278.013 361.031 310.287 352.901 339 328.999C339.895 328.257 340.789 327.516 341.711 326.753C364.848 306.783 379.471 277.208 383 246.999C385.466 208.231 375.66 174.967 350.165 145.456C336.57 130.175 318.992 119.274 300 111.999C299.016 111.62 298.033 111.241 297.02 110.85C250.287 94.0743 198.031 109.072 163.466 143.467ZM58.625 383.624C56.4209 388.201 56.2028 392.004 57 396.999C59.3297 401.837 62.1614 404.669 67 406.999C71.9944 407.796 75.7973 407.578 80.375 405.374C83.959 402.131 86.5953 399.534 87.3828 394.6C87.6388 388.916 86.9362 385.349 83 380.999C78.6493 377.062 75.0822 376.36 69.3984 376.616C64.4647 377.403 61.8677 380.04 58.625 383.624ZM426.625 383.624C424.421 388.201 424.203 392.004 425 396.999C427.33 401.837 430.161 404.669 435 406.999C439.994 407.796 443.797 407.578 448.375 405.374C451.959 402.131 454.595 399.534 455.383 394.6C455.639 388.916 454.936 385.349 451 380.999C446.649 377.062 443.082 376.36 437.398 376.616C432.465 377.403 429.868 380.04 426.625 383.624ZM242.625 431.624C240.421 436.201 240.203 440.004 241 444.999C243.33 449.837 246.161 452.669 251 454.999C255.994 455.796 259.797 455.578 264.375 453.374C267.959 450.131 270.595 447.534 271.383 442.6C271.639 436.916 270.936 433.349 267 428.999C262.649 425.062 259.082 424.36 253.398 424.616C248.465 425.403 245.868 428.04 242.625 431.624Z" fill="#225D5C"/>
<path d="M260 120C261.93 121.337 261.93 121.337 263.833 123.099C264.528 123.737 265.222 124.375 265.937 125.032C269.007 127.96 272.048 130.909 275.043 133.913C275.696 134.564 276.349 135.216 277.022 135.887C279.151 138.012 281.277 140.14 283.402 142.269C284.89 143.757 286.379 145.244 287.867 146.731C290.971 149.834 294.073 152.938 297.174 156.044C301.154 160.03 305.139 164.011 309.125 167.991C312.192 171.054 315.257 174.12 318.32 177.186C319.79 178.656 321.26 180.126 322.731 181.594C324.777 183.638 326.82 185.685 328.863 187.733C329.473 188.342 330.084 188.95 330.712 189.577C335.058 193.945 336.092 195.733 336.328 201.93C335.877 204.777 335.049 205.963 333 208C329.863 208.39 329.863 208.39 326.312 208.25C325.133 208.214 323.953 208.178 322.738 208.14C321.835 208.094 320.931 208.048 320 208C320.004 208.594 320.007 209.188 320.011 209.8C320.099 224.256 320.166 238.711 320.207 253.166C320.228 260.157 320.256 267.147 320.302 274.138C320.346 280.881 320.369 287.624 320.379 294.367C320.387 296.943 320.401 299.519 320.423 302.094C320.452 305.695 320.456 309.296 320.454 312.897C320.468 313.968 320.483 315.038 320.498 316.141C320.492 317.122 320.487 318.104 320.481 319.115C320.485 319.967 320.488 320.818 320.492 321.696C319.812 324.879 318.573 326.054 316 328C313.645 328.503 313.645 328.503 310.99 328.508C309.981 328.519 308.971 328.53 307.931 328.542C306.279 328.53 306.279 328.53 304.594 328.517C303.429 328.524 302.264 328.531 301.065 328.539C297.209 328.556 293.355 328.545 289.5 328.531C286.825 328.534 284.15 328.538 281.475 328.543C275.866 328.55 270.257 328.54 264.648 328.521C258.166 328.5 251.684 328.507 245.201 328.529C239.633 328.547 234.065 328.549 228.498 328.539C225.173 328.533 221.849 328.533 218.524 328.545C214.818 328.555 211.112 328.54 207.406 328.517C206.305 328.526 205.203 328.534 204.068 328.542C203.059 328.531 202.05 328.519 201.01 328.508C200.134 328.506 199.258 328.505 198.355 328.503C195.144 327.817 193.962 326.598 192 324C191.508 321.696 191.508 321.696 191.519 319.115C191.513 318.133 191.508 317.152 191.502 316.141C191.517 315.07 191.531 314 191.546 312.897C191.545 311.765 191.545 310.633 191.544 309.467C191.547 305.722 191.578 301.979 191.609 298.234C191.617 295.639 191.622 293.044 191.626 290.449C191.64 284.315 191.672 278.181 191.712 272.047C191.757 265.063 191.779 258.079 191.799 251.095C191.84 236.73 191.911 222.365 192 208C191.096 208.046 190.193 208.093 189.262 208.14C188.082 208.177 186.903 208.213 185.687 208.25C184.516 208.296 183.344 208.343 182.137 208.39C179 208 179 208 177.121 206.219C175.375 202.763 175.052 199.7 176 196C177.349 194.082 177.349 194.082 179.107 192.174C179.744 191.479 180.381 190.783 181.037 190.067C183.958 186.991 186.908 183.952 189.913 180.957C190.565 180.304 191.216 179.651 191.887 178.978C194.012 176.849 196.141 174.723 198.269 172.598C199.757 171.109 201.244 169.621 202.732 168.133C205.834 165.029 208.938 161.927 212.044 158.826C216.03 154.846 220.011 150.861 223.991 146.875C227.054 143.808 230.12 140.743 233.187 137.679C234.657 136.21 236.126 134.74 237.594 133.269C239.638 131.223 241.685 129.179 243.734 127.137C244.342 126.526 244.95 125.916 245.577 125.287C250.119 120.768 253.419 118.58 260 120ZM252.861 142.891C251.977 143.777 251.094 144.662 250.183 145.574C249.695 146.06 249.207 146.546 248.704 147.047C247.087 148.66 245.477 150.281 243.867 151.902C242.749 153.021 241.631 154.14 240.513 155.258C238.168 157.605 235.826 159.955 233.487 162.307C230.481 165.33 227.469 168.346 224.454 171.36C222.144 173.67 219.837 175.983 217.531 178.296C216.421 179.409 215.31 180.522 214.199 181.634C212.649 183.186 211.103 184.741 209.558 186.296C208.676 187.183 207.794 188.069 206.885 188.981C204.886 190.661 204.886 190.661 205 192C238.66 192 272.32 192 307 192C303.467 187.878 300.108 183.981 296.311 180.166C295 178.846 295 178.846 293.663 177.498C292.738 176.572 291.813 175.646 290.859 174.691C289.886 173.715 288.913 172.738 287.94 171.762C285.914 169.73 283.887 167.701 281.858 165.673C279.255 163.07 276.659 160.46 274.064 157.848C272.063 155.836 270.058 153.829 268.052 151.823C267.092 150.862 266.133 149.899 265.177 148.935C263.846 147.594 262.509 146.261 261.171 144.928C260.412 144.167 259.653 143.407 258.87 142.623C256.133 140.247 255.565 140.5 252.861 142.891ZM208 208C208 231.76 208 255.52 208 280C213.28 280 218.56 280 224 280C224 256.24 224 232.48 224 208C218.72 208 213.44 208 208 208ZM240 208C240 231.76 240 255.52 240 280C250.56 280 261.12 280 272 280C272 256.24 272 232.48 272 208C261.44 208 250.88 208 240 208ZM288 208C288 231.43 288 254.86 288 279C293.253 280.485 293.253 280.485 304 280C304 256.24 304 232.48 304 208C298.72 208 293.44 208 288 208ZM208 296C208 301.28 208 306.56 208 312C239.68 312 271.36 312 304 312C304 306.72 304 301.44 304 296C272.32 296 240.64 296 208 296Z" fill="#225D5C"/>
<path d="M332.469 455.497C333.747 455.489 333.747 455.489 335.052 455.481C337.868 455.468 340.684 455.485 343.5 455.503C345.458 455.503 347.415 455.501 349.373 455.499C353.475 455.497 357.577 455.51 361.68 455.532C366.939 455.561 372.198 455.558 377.457 455.545C381.5 455.538 385.542 455.546 389.584 455.559C391.524 455.563 393.463 455.563 395.402 455.56C398.112 455.557 400.821 455.573 403.531 455.595C404.735 455.588 404.735 455.588 405.962 455.581C409.238 455.625 411.599 455.778 414.496 457.376C416.553 459.596 416.536 461.008 416.5 463.999C416.515 465.298 416.515 465.298 416.531 466.624C416 468.999 416 468.999 414.496 470.622C410.923 472.593 407.508 472.425 403.531 472.403C402.679 472.41 401.826 472.417 400.948 472.424C398.132 472.442 395.316 472.438 392.5 472.433C390.542 472.437 388.585 472.442 386.627 472.448C382.525 472.457 378.423 472.455 374.32 472.445C369.061 472.434 363.802 472.454 358.543 472.483C354.5 472.501 350.458 472.501 346.416 472.495C344.476 472.495 342.537 472.501 340.598 472.514C337.888 472.528 335.179 472.518 332.469 472.501C331.265 472.515 331.265 472.515 330.038 472.53C326.436 472.482 324.409 472.311 321.504 470.093C319.875 467.825 319.457 466.76 319.5 463.999C319.485 463.009 319.485 463.009 319.469 461.999C321.221 455.402 326.647 455.427 332.469 455.497Z" fill="#225D5C"/>
<path d="M108.469 455.497C109.747 455.489 109.747 455.489 111.052 455.481C113.868 455.468 116.684 455.485 119.5 455.503C121.458 455.503 123.415 455.501 125.373 455.499C129.475 455.497 133.577 455.51 137.68 455.532C142.939 455.561 148.198 455.558 153.457 455.545C157.5 455.538 161.542 455.546 165.584 455.559C167.524 455.563 169.463 455.563 171.402 455.56C174.112 455.557 176.821 455.573 179.531 455.595C180.735 455.588 180.735 455.588 181.962 455.581C185.238 455.625 187.599 455.778 190.496 457.376C192.553 459.596 192.536 461.008 192.5 463.999C192.515 465.298 192.515 465.298 192.531 466.624C192 468.999 192 468.999 190.496 470.622C186.923 472.593 183.508 472.425 179.531 472.403C178.679 472.41 177.826 472.417 176.948 472.424C174.132 472.442 171.316 472.438 168.5 472.433C166.542 472.437 164.585 472.442 162.627 472.448C158.525 472.457 154.423 472.455 150.32 472.445C145.061 472.434 139.802 472.454 134.543 472.483C130.5 472.501 126.458 472.501 122.416 472.495C120.476 472.495 118.537 472.501 116.598 472.514C113.888 472.528 111.179 472.518 108.469 472.501C107.265 472.515 107.265 472.515 106.038 472.53C102.436 472.482 100.409 472.311 97.5038 470.093C95.8747 467.825 95.4568 466.76 95.4999 463.999C95.4844 463.009 95.4844 463.009 95.4688 461.999C97.2211 455.402 102.647 455.427 108.469 455.497Z" fill="#225D5C"/>
<path d="M365 423.565C365.873 423.56 366.745 423.555 367.645 423.549C369.487 423.543 371.329 423.544 373.172 423.553C375.99 423.561 378.807 423.533 381.625 423.501C383.417 423.499 385.208 423.5 387 423.503C388.263 423.486 388.263 423.486 389.551 423.469C395.389 423.538 395.389 423.538 398.529 425.905C400.121 428.171 400.543 429.259 400.5 431.999C400.51 432.659 400.521 433.319 400.531 433.999C399.72 437.053 398.532 438.091 396 439.999C393.001 440.589 390.048 440.536 387 440.495C386.127 440.496 385.255 440.498 384.355 440.499C382.513 440.498 380.67 440.486 378.828 440.465C376.01 440.436 373.193 440.445 370.375 440.458C368.583 440.452 366.792 440.443 365 440.432C363.737 440.437 363.737 440.437 362.449 440.441C358.92 440.385 356.608 440.33 353.471 438.62C351.454 436.397 351.465 434.967 351.5 431.999C351.49 431.133 351.479 430.266 351.469 429.374C352 426.999 352 426.999 353.471 425.378C357.249 423.318 360.761 423.551 365 423.565Z" fill="#225D5C"/>
<path d="M125 423.565C125.873 423.56 126.745 423.555 127.645 423.549C129.487 423.543 131.329 423.544 133.172 423.553C135.99 423.561 138.807 423.533 141.625 423.501C143.417 423.499 145.208 423.5 147 423.503C148.263 423.486 148.263 423.486 149.551 423.469C155.389 423.538 155.389 423.538 158.529 425.905C160.121 428.171 160.543 429.259 160.5 431.999C160.51 432.659 160.521 433.319 160.531 433.999C159.72 437.053 158.532 438.091 156 439.999C153.001 440.589 150.048 440.536 147 440.495C146.127 440.496 145.255 440.498 144.355 440.499C142.513 440.498 140.67 440.486 138.828 440.465C136.01 440.436 133.193 440.445 130.375 440.458C128.583 440.452 126.792 440.443 125 440.432C123.737 440.437 123.737 440.437 122.449 440.441C118.92 440.385 116.608 440.33 113.471 438.62C111.454 436.397 111.465 434.967 111.5 431.999C111.49 431.133 111.479 430.266 111.469 429.374C112 426.999 112 426.999 113.471 425.378C117.249 423.318 120.761 423.551 125 423.565Z" fill="#225D5C"/>
<path d="M444 456.001C446.5 457.501 446.5 457.501 448 460.001C448.791 464.022 448.622 466.966 446.5 470.501C442.964 472.623 440.021 472.792 436 472.001C433.5 470.501 433.5 470.501 432 468.001C431.209 463.98 431.378 461.037 433.5 457.501C437.036 455.38 439.979 455.21 444 456.001Z" fill="#225D5C"/>
<path d="M76 456.001C78.5 457.501 78.5 457.501 80 460.001C80.791 464.022 80.6215 466.966 78.5 470.501C74.9641 472.623 72.021 472.792 68 472.001C65.5 470.501 65.5 470.501 64 468.001C63.209 463.98 63.3785 461.037 65.5 457.501C69.0359 455.38 71.979 455.21 76 456.001Z" fill="#225D5C"/>
<path d="M332 424.001C334.5 425.501 334.5 425.501 336 428.001C336.791 432.022 336.622 434.966 334.5 438.501C330.964 440.623 328.021 440.792 324 440.001C321.5 438.501 321.5 438.501 320 436.001C319.209 431.98 319.378 429.037 321.5 425.501C325.036 423.38 327.979 423.21 332 424.001Z" fill="#225D5C"/>
<path d="M188 424.001C190.5 425.501 190.5 425.501 192 428.001C192.791 432.022 192.622 434.966 190.5 438.501C186.964 440.623 184.021 440.792 180 440.001C177.5 438.501 177.5 438.501 176 436.001C175.209 431.98 175.378 429.037 177.5 425.501C181.036 423.38 183.979 423.21 188 424.001Z" fill="#225D5C"/>
<path d="M460 208.001C462.5 209.501 462.5 209.501 464 212.001C464.791 216.022 464.622 218.966 462.5 222.501C458.964 224.623 456.021 224.792 452 224.001C449.5 222.501 449.5 222.501 448 220.001C447.209 215.98 447.378 213.037 449.5 209.501C453.036 207.38 455.979 207.21 460 208.001Z" fill="#225D5C"/>
<path d="M60 208.001C62.5 209.501 62.5 209.501 64 212.001C64.791 216.022 64.6215 218.966 62.5 222.501C58.9641 224.623 56.021 224.792 52 224.001C49.5 222.501 49.5 222.501 48 220.001C47.209 215.98 47.3785 213.037 49.5 209.501C53.0359 207.38 55.979 207.21 60 208.001Z" fill="#225D5C"/>
<path d="M428 192.001C430.5 193.501 430.5 193.501 432 196.001C432.791 200.022 432.622 202.966 430.5 206.501C426.964 208.623 424.021 208.792 420 208.001C417.5 206.501 417.5 206.501 416 204.001C415.209 199.98 415.378 197.037 417.5 193.501C421.036 191.38 423.979 191.21 428 192.001Z" fill="#225D5C"/>
<path d="M92 192.001C94.5 193.501 94.5 193.501 96 196.001C96.791 200.022 96.6215 202.966 94.5 206.501C90.9641 208.623 88.021 208.792 84 208.001C81.5 206.501 81.5 206.501 80 204.001C79.209 199.98 79.3785 197.037 81.5 193.501C85.0359 191.38 87.979 191.21 92 192.001Z" fill="#225D5C"/>
<path d="M460 176.001C462.5 177.501 462.5 177.501 464 180.001C464.791 184.022 464.622 186.966 462.5 190.501C458.964 192.623 456.021 192.792 452 192.001C449.5 190.501 449.5 190.501 448 188.001C447.209 183.98 447.378 181.037 449.5 177.501C453.036 175.38 455.979 175.21 460 176.001Z" fill="#225D5C"/>
<path d="M60 176.001C62.5 177.501 62.5 177.501 64 180.001C64.791 184.022 64.6215 186.966 62.5 190.501C58.9641 192.623 56.021 192.792 52 192.001C49.5 190.501 49.5 190.501 48 188.001C47.209 183.98 47.3785 181.037 49.5 177.501C53.0359 175.38 55.979 175.21 60 176.001Z" fill="#225D5C"/>
<path d="M292 40.0015C294.5 41.5015 294.5 41.5015 296 44.0015C296.791 48.0225 296.622 50.9656 294.5 54.5015C290.964 56.623 288.021 56.7925 284 56.0015C281.5 54.5015 281.5 54.5015 280 52.0015C279.209 47.9805 279.378 45.0374 281.5 41.5015C285.036 39.3799 287.979 39.2105 292 40.0015Z" fill="#225D5C"/>
<path d="M260 40.0015C262.5 41.5015 262.5 41.5015 264 44.0015C264.791 48.0225 264.622 50.9656 262.5 54.5015C258.964 56.623 256.021 56.7925 252 56.0015C249.5 54.5015 249.5 54.5015 248 52.0015C247.209 47.9805 247.378 45.0374 249.5 41.5015C253.036 39.3799 255.979 39.2105 260 40.0015Z" fill="#225D5C"/>
<path d="M228 40.0015C230.5 41.5015 230.5 41.5015 232 44.0015C232.791 48.0225 232.622 50.9656 230.5 54.5015C226.964 56.623 224.021 56.7925 220 56.0015C217.5 54.5015 217.5 54.5015 216 52.0015C215.209 47.9805 215.378 45.0374 217.5 41.5015C221.036 39.3799 223.979 39.2105 228 40.0015Z" fill="#225D5C"/>
</svg>
