<svg width="512" height="512" viewBox="0 0 512 512" fill="none" xmlns="http://www.w3.org/2000/svg">
<g clip-path="url(#clip0_300_567)">
<mask id="mask0_300_567" style="mask-type:luminance" maskUnits="userSpaceOnUse" x="0" y="0" width="512" height="512">
<path d="M512 0H0V512H512V0Z" fill="white"/>
</mask>
<g mask="url(#mask0_300_567)">
<path d="M325 7.99839C325.803 8.21882 326.606 8.43925 327.433 8.66636C350.602 15.2687 369.5 26.51 387 42.9984C388.013 43.9149 388.013 43.9149 389.047 44.85C411.914 66.3448 424.393 99.1423 426 129.998C426.023 132.666 426.013 135.331 426 137.998C426.899 137.99 427.798 137.981 428.724 137.971C437.213 137.891 445.702 137.83 454.191 137.791C458.555 137.77 462.919 137.742 467.283 137.697C471.498 137.653 475.712 137.629 479.927 137.619C481.531 137.612 483.136 137.597 484.741 137.575C486.995 137.546 489.249 137.542 491.504 137.544C492.785 137.535 494.067 137.527 495.387 137.517C500.797 138.238 505.464 140.651 508.875 145.061C512.95 150.693 512.513 156.283 512 162.998C510.949 168.867 509.497 174.615 508.024 180.39C507.596 182.112 507.169 183.835 506.743 185.558C505.591 190.206 504.421 194.849 503.247 199.491C502.017 204.365 500.802 209.241 499.585 214.118C497.54 222.301 495.484 230.481 493.421 238.66C491.039 248.101 488.674 257.547 486.318 266.996C484.046 276.107 481.764 285.215 479.476 294.323C478.504 298.189 477.536 302.057 476.572 305.925C475.434 310.481 474.288 315.035 473.134 319.586C472.713 321.253 472.296 322.92 471.881 324.588C466.534 346.102 466.534 346.102 459 350.998C455.706 352.977 453.243 353.25 449.418 353.256C447.703 353.265 447.703 353.265 445.953 353.275C444.068 353.271 444.068 353.271 442.145 353.266C440.797 353.27 439.449 353.274 438.101 353.28C434.393 353.292 430.686 353.292 426.978 353.289C422.981 353.289 418.983 353.3 414.986 353.309C407.153 353.326 399.321 353.331 391.488 353.332C385.122 353.333 378.756 353.338 372.391 353.344C354.349 353.362 336.308 353.371 318.267 353.369C317.294 353.369 316.321 353.369 315.318 353.369C313.857 353.369 313.857 353.369 312.367 353.369C296.576 353.368 280.786 353.387 264.996 353.415C248.789 353.444 232.582 353.458 216.376 353.456C207.274 353.455 198.173 353.461 189.071 353.482C181.323 353.501 173.574 353.505 165.825 353.491C161.871 353.485 157.917 353.485 153.963 353.502C150.343 353.518 146.724 353.515 143.104 353.498C141.174 353.493 139.244 353.508 137.314 353.524C130.901 353.473 126.859 353.35 122 348.998C121.266 348.426 120.532 347.854 119.776 347.264C117.268 344.065 116.497 340.625 115.579 336.743C115.371 335.909 115.163 335.075 114.949 334.215C112.331 323.552 110.038 312.812 107.738 302.077C107.234 299.737 106.728 297.397 106.223 295.057C105.144 290.059 104.067 285.061 102.993 280.062C100.414 268.067 97.8248 256.073 95.2353 244.08C94.6361 241.304 94.0371 238.529 93.4382 235.753C88.9868 215.123 84.4929 194.502 79.9659 173.888C79.3546 171.103 78.7437 168.319 78.1328 165.535C74.3871 148.461 74.3871 148.461 70.6288 131.39C69.2592 125.179 67.8942 118.968 66.5326 112.756C66.0315 110.474 65.5286 108.193 65.0236 105.912C64.3357 102.804 63.6541 99.6952 62.9741 96.5856C62.7718 95.679 62.5695 94.7725 62.361 93.8386C62.1799 93.0041 61.9987 92.1696 61.8121 91.3099C61.5752 90.2343 61.5752 90.2343 61.3334 89.1369C61 86.9984 61 86.9984 61 81.9984C40.87 81.9984 20.74 81.9984 0 81.9984C0 69.4584 0 56.9184 0 43.9984C18.606 43.8781 18.606 43.8781 26.5762 43.8519C32.001 43.834 37.4256 43.8129 42.8503 43.7721C47.227 43.7393 51.6035 43.7215 55.9803 43.7138C57.6447 43.7082 59.3092 43.6975 60.9735 43.6812C80.4622 43.4984 80.4622 43.4984 88.375 49.1859C93.162 54.3149 94.4625 61.2637 95.9011 67.975C96.0674 68.7271 96.2336 69.4793 96.4049 70.2543C96.9461 72.7095 97.479 75.1664 98.0117 77.6234C98.3881 79.3384 98.7649 81.0534 99.1423 82.7682C100.129 87.2583 101.108 91.75 102.087 96.242C103.264 101.644 104.451 107.044 105.636 112.444C107.431 120.628 109.214 128.813 111 136.998C135.75 137.493 135.75 137.493 161 137.998C161 134.368 161 130.738 161 126.998C163.453 102.231 171.051 79.1215 186 58.9984C186.589 58.1876 187.178 57.3768 187.785 56.5414C208.504 29.312 238.395 11.7938 272 5.99839C273.5 5.72189 273.5 5.72189 275.031 5.4398C291.345 3.62539 309.082 3.61243 325 7.99839ZM220.366 75.3988C204.126 94.4192 196.682 119.194 198 143.998C200.529 170.734 212.699 193.872 233 211.436C254.7 228.61 280.042 234.282 307.306 231.787C331.428 228.748 353.741 214.252 368.902 195.666C384.591 174.215 391.555 149.42 388 122.998C383.823 98.5021 370.595 75.013 350.344 60.2523C339.316 52.558 328.008 47.4919 315 43.9984C314.165 43.7702 313.329 43.5421 312.469 43.307C278.273 35.5697 243.337 50.1311 220.366 75.3988Z" fill="#FFD6A8"/>
<path d="M414.027 394.242C426.817 405.359 435.816 420.952 437.16 438.029C437.675 447.42 437.006 456.021 434 465C433.733 465.848 433.466 466.697 433.191 467.57C427.7 483.141 415.339 494.55 401 502C384.174 508.853 365.508 509.425 348.586 502.629C332.005 495.097 320.43 482.054 314 465C308.371 448.994 309.98 431.945 316.473 416.496C324.236 400.951 337.274 389.515 353.664 383.707C374.601 377.37 396.441 381.217 414.027 394.242Z" fill="#FFD6A8"/>
<path d="M221.371 395.793C233.817 406.242 242.001 420.778 244 437C245.479 454.148 241.36 470.662 230.488 484.227C220.055 496.545 205.237 505.309 189 507C172.79 508.213 155.642 505.041 142.805 494.449C130.043 483.376 120.274 469.125 118.82 451.861C117.782 434.233 121.067 417.906 132.941 404.271C156.565 378.19 193.227 374.215 221.371 395.793Z" fill="#FFD6A8"/>
<path d="M341 79C348.584 82.2529 354.119 89.9836 359.355 96.1523C360.98 97.9772 362.701 99.5998 364.5 101.25C367 104 367 104 366.941 105.871C365.636 108.823 363.751 110.57 361.438 112.812C360.529 113.696 359.62 114.579 358.684 115.488C355.87 118.122 352.991 120.653 350.062 123.156C347.611 125.348 345.311 127.661 343 130C339.479 133.564 335.868 136.903 332.062 140.156C329.611 142.348 327.311 144.661 325 147C321.479 150.564 317.868 153.903 314.062 157.156C311.611 159.348 309.311 161.661 307 164C302.829 168.216 298.524 172.169 294 176C293.455 176.485 292.909 176.969 292.348 177.469C287.442 181.762 283.652 183.481 277.031 183.234C265.362 181.888 257.02 170.054 249.547 161.956C243.217 155.138 236.651 148.566 230.062 142C229.514 141.454 228.966 140.907 228.401 140.344C225.271 137.226 222.137 134.111 219 131C223.138 126.067 227.434 121.411 232 116.875C232.59 116.281 233.181 115.686 233.789 115.074C237.374 111.498 241.061 108.182 245 105C248.915 106.588 251.551 109.278 254.465 112.234C254.98 112.75 255.495 113.266 256.026 113.797C257.113 114.887 258.198 115.98 259.281 117.075C260.923 118.736 262.573 120.388 264.225 122.039C265.284 123.104 266.344 124.169 267.402 125.234C267.889 125.722 268.376 126.21 268.877 126.712C272.121 130 275.086 133.423 278 137C282.349 135.343 285.091 132.088 288.25 128.812C292.401 124.578 296.586 120.511 301.109 116.672C304.145 113.987 306.94 111.067 309.785 108.184C311.777 106.22 313.813 104.379 315.938 102.562C320.022 99.0625 323.757 95.2585 327.535 91.4336C330.356 88.6482 333.288 86.0388 336.309 83.4727C337.948 82.0454 339.482 80.5549 341 79Z" fill="#FFD6A8"/>
</g>
</g>
<defs>
<clipPath id="clip0_300_567">
<rect width="512" height="512" fill="white"/>
</clipPath>
</defs>
</svg>
