<svg width="512" height="512" viewBox="0 0 512 512" fill="none" xmlns="http://www.w3.org/2000/svg">
<path d="M74.1074 155.866C75.4186 155.862 76.7299 155.857 78.0809 155.853C79.55 155.853 81.0192 155.853 82.4883 155.853C84.0381 155.85 85.5879 155.846 87.1377 155.842C91.4125 155.832 95.6872 155.828 99.962 155.826C104.566 155.822 109.17 155.812 113.774 155.804C124.9 155.784 136.026 155.774 147.151 155.765C152.386 155.76 157.62 155.755 162.855 155.75C180.247 155.733 197.638 155.718 215.03 155.711C219.546 155.709 224.061 155.707 228.576 155.705C230.259 155.705 230.259 155.705 231.977 155.704C250.171 155.696 268.365 155.67 286.559 155.638C305.222 155.605 323.885 155.587 342.549 155.583C353.034 155.581 363.52 155.572 374.005 155.547C382.932 155.525 391.858 155.517 400.785 155.527C405.343 155.532 409.9 155.53 414.457 155.51C418.626 155.493 422.794 155.493 426.963 155.509C428.474 155.511 429.986 155.507 431.497 155.495C433.545 155.48 435.593 155.492 437.642 155.505C439.351 155.504 439.351 155.504 441.095 155.503C444.669 156.115 445.85 157.123 448 160C448.393 162.717 448.541 165.029 448.508 167.744C448.518 168.921 448.518 168.921 448.527 170.121C448.543 172.753 448.53 175.384 448.518 178.016C448.523 179.902 448.53 181.788 448.539 183.673C448.557 188.797 448.55 193.921 448.538 199.045C448.527 204.403 448.537 209.761 448.543 215.119C448.55 224.117 448.541 233.115 448.522 242.114C448.5 252.523 448.507 262.931 448.529 273.34C448.547 282.271 448.55 291.202 448.539 300.132C448.533 305.469 448.532 310.806 448.546 316.142C448.557 321.159 448.549 326.175 448.526 331.192C448.521 333.035 448.522 334.878 448.531 336.721C448.542 339.234 448.528 341.745 448.508 344.257C448.522 345.356 448.522 345.356 448.535 346.478C448.486 349.663 448.297 351.603 446.366 354.186C443.285 356.549 441.508 356.502 437.647 356.504C436.332 356.514 435.017 356.525 433.662 356.535C432.198 356.527 430.735 356.518 429.272 356.508C427.72 356.513 426.169 356.519 424.617 356.527C420.347 356.544 416.077 356.536 411.807 356.523C407.204 356.514 402.601 356.528 397.999 356.539C388.979 356.557 379.96 356.553 370.941 356.542C363.613 356.533 356.284 356.531 348.956 356.536C347.914 356.536 346.872 356.537 345.799 356.538C343.683 356.539 341.566 356.54 339.45 356.541C319.592 356.553 299.734 356.54 279.876 356.518C262.826 356.5 245.777 356.504 228.727 356.522C208.941 356.543 189.156 356.552 169.37 356.54C167.262 356.538 165.153 356.537 163.044 356.536C161.488 356.535 161.488 356.535 159.9 356.534C152.578 356.53 145.257 356.536 137.935 356.546C129.015 356.557 120.096 356.554 111.176 356.533C106.623 356.522 102.07 356.518 97.5164 356.531C93.3515 356.543 89.1871 356.537 85.0222 356.515C83.5122 356.511 82.0021 356.513 80.4921 356.523C78.4459 356.535 76.3996 356.52 74.3535 356.504C72.6457 356.503 72.6457 356.503 70.9034 356.502C67.3383 355.886 66.1865 354.831 64.0003 352C62.824 348.472 62.8554 345.29 62.8599 341.619C62.8569 340.861 62.8539 340.103 62.8509 339.322C62.8422 336.775 62.8407 334.228 62.8392 331.681C62.8345 329.858 62.8295 328.034 62.8241 326.211C62.811 321.253 62.8046 316.294 62.8001 311.335C62.7972 308.238 62.7931 305.141 62.7886 302.044C62.7749 292.356 62.7653 282.668 62.7614 272.98C62.7569 261.793 62.7394 250.605 62.7104 239.417C62.6888 230.772 62.6787 222.128 62.6774 213.483C62.6763 208.319 62.6704 203.154 62.6525 197.99C62.6361 193.131 62.6339 188.273 62.6427 183.415C62.6435 181.632 62.6391 179.85 62.6292 178.067C62.6165 175.632 62.6224 173.198 62.6328 170.763C62.6248 170.059 62.6167 169.355 62.6084 168.629C62.6543 164.044 63.5809 160.893 66.0003 157C68.7694 155.616 71.0069 155.871 74.1074 155.866ZM96.0003 191C94.7512 193.499 94.8661 195.194 94.8531 197.991C94.846 199.046 94.8388 200.102 94.8315 201.19C94.8288 202.353 94.8261 203.516 94.8233 204.715C94.8167 205.936 94.8102 207.157 94.8034 208.415C94.787 211.771 94.7754 215.126 94.7672 218.482C94.762 220.578 94.756 222.674 94.7497 224.77C94.7306 231.329 94.7164 237.887 94.7081 244.445C94.6983 252.017 94.672 259.588 94.6316 267.159C94.6014 273.01 94.5866 278.862 94.5833 284.713C94.5809 288.208 94.572 291.703 94.5468 295.198C94.5192 299.098 94.5234 302.998 94.5303 306.898C94.5175 308.055 94.5047 309.212 94.4915 310.404C94.4912 316.603 94.4912 316.603 96.9047 322.194C99.9044 324.78 101.512 325.127 105.383 325.141C106.304 325.147 107.225 325.152 108.174 325.158C109.188 325.159 110.201 325.16 111.246 325.162C112.311 325.167 113.376 325.172 114.473 325.177C118.01 325.191 121.546 325.198 125.082 325.204C127.534 325.209 129.985 325.215 132.437 325.221C137.582 325.231 142.728 325.237 147.874 325.241C154.471 325.246 161.069 325.27 167.667 325.299C172.732 325.317 177.798 325.323 182.864 325.324C185.296 325.327 187.729 325.335 190.161 325.348C193.563 325.365 196.965 325.363 200.367 325.357C201.374 325.366 202.382 325.375 203.42 325.385C210.206 325.356 210.206 325.356 216 322C217.259 319.482 217.135 317.747 217.147 314.928C217.155 313.854 217.162 312.78 217.169 311.673C217.172 310.49 217.175 309.306 217.177 308.087C217.184 306.845 217.19 305.602 217.197 304.322C217.214 300.909 217.225 297.496 217.233 294.082C217.239 291.951 217.245 289.819 217.251 287.687C217.27 281.019 217.284 274.352 217.293 267.684C217.302 259.983 217.329 252.282 217.369 244.582C217.399 238.632 217.414 232.682 217.417 226.732C217.42 223.177 217.429 219.622 217.454 216.067C217.481 212.102 217.477 208.138 217.47 204.173C217.483 202.993 217.496 201.814 217.509 200.599C217.502 199.519 217.495 198.44 217.488 197.327C217.49 196.39 217.493 195.452 217.495 194.486C216.851 191.249 215.509 190.072 213 188C210.649 186.825 209.24 186.867 206.617 186.853C205.236 186.843 205.236 186.843 203.826 186.832C202.813 186.829 201.799 186.826 200.755 186.823C199.69 186.817 198.625 186.81 197.527 186.804C193.991 186.784 190.455 186.772 186.918 186.762C185.713 186.758 184.507 186.754 183.265 186.75C176.886 186.729 170.506 186.715 164.127 186.705C157.529 186.694 150.932 186.66 144.334 186.62C139.268 186.594 134.203 186.586 129.137 186.582C126.704 186.577 124.272 186.565 121.839 186.547C118.437 186.523 115.036 186.524 111.634 186.531C110.626 186.518 109.619 186.505 108.581 186.492C103.139 186.532 99.8644 186.734 96.0003 191ZM233 187C239.579 206.546 246.565 225.937 253.625 245.313C253.856 245.946 254.086 246.579 254.324 247.231C257.212 255.155 260.105 263.079 263 271C268.94 271 274.88 271 281 271C281.559 269.435 282.118 267.87 282.693 266.257C284.581 260.968 286.469 255.68 288.357 250.391C289.497 247.198 290.637 244.005 291.776 240.812C292.659 238.339 293.542 235.866 294.425 233.394C295.306 230.926 296.186 228.458 297.066 225.99C299.247 219.879 301.443 213.774 303.669 207.68C304.089 206.526 304.509 205.373 304.941 204.185C305.736 202.005 306.535 199.826 307.338 197.649C307.689 196.684 308.041 195.718 308.403 194.723C308.713 193.879 309.023 193.036 309.342 192.167C310.146 189.899 310.146 189.899 310 187C304.72 187 299.44 187 294 187C291.002 194.296 288.363 201.645 285.891 209.133C285.519 210.251 285.148 211.369 284.765 212.521C283.59 216.055 282.42 219.59 281.25 223.125C280.45 225.537 279.649 227.948 278.848 230.36C276.896 236.239 274.947 242.119 273 248C270.56 245.56 270.036 243.627 268.937 240.357C268.537 239.176 268.137 237.995 267.724 236.778C267.293 235.485 266.861 234.192 266.43 232.899C265.985 231.579 265.539 230.259 265.093 228.939C263.921 225.465 262.756 221.989 261.592 218.513C260.403 214.966 259.207 211.421 258.012 207.875C255.668 200.919 253.333 193.961 251 187C245.06 187 239.12 187 233 187ZM320 187C320 214.72 320 242.44 320 271C325.28 271 330.56 271 336 271C336 243.28 336 215.56 336 187C330.72 187 325.44 187 320 187ZM353 187C353 214.72 353 242.44 353 271C358.28 271 363.56 271 369 271C369 260.44 369 249.88 369 239C381 239.125 381 239.125 384.735 239.181C394.194 239.228 402.566 238.377 410 232C416.573 224.016 417.871 217.229 417 207C415.288 199.288 411.526 194.368 405 190C391.466 183.384 363.553 187 353 187ZM233 280C233 284.62 233 289.24 233 294C293.72 294 354.44 294 417 294C417 289.38 417 284.76 417 280C356.28 280 295.56 280 233 280ZM233 310C233 314.95 233 319.9 233 325C293.72 325 354.44 325 417 325C417 320.05 417 315.1 417 310C356.28 310 295.56 310 233 310Z" fill="#FFD6A8"/>
<path d="M369 201C372.692 200.938 376.384 200.876 380.188 200.812C381.343 200.785 382.498 200.758 383.688 200.729C384.61 200.722 385.531 200.715 386.48 200.707C387.418 200.691 388.355 200.675 389.321 200.659C393.332 201.169 395.973 202.936 398.75 205.812C400.389 208.681 400.87 210.685 401 214C398.355 221.801 398.355 221.801 395 224C389.024 225.81 383.715 226.255 377.5 226.125C373.293 226.063 373.293 226.063 369 226C369 217.75 369 209.5 369 201Z" fill="#FFD6A8"/>
</svg>
