<svg width="683" height="683" viewBox="0 0 683 683" fill="none" xmlns="http://www.w3.org/2000/svg">
<path d="M222.133 33.3317C213.733 35.4651 201.733 42.6651 195.867 48.9317C192.933 52.1317 188.533 58.7984 186.267 63.7317C182.4 71.8651 182 73.8651 182 85.4651C182 97.4651 182.267 98.6651 186.933 108.265C192.933 120.399 200.667 127.865 213.067 133.732C221.067 137.599 223.2 137.999 234 137.865C242.8 137.865 247.867 137.065 252.8 135.199L259.467 132.399L275.467 145.599C284.133 152.799 291.333 159.199 291.333 159.999C291.333 160.665 284.267 167.199 275.467 174.399L259.6 187.599L252.8 184.932C247.867 182.932 242.8 182.132 234 182.132C223.2 181.999 221.067 182.399 213.067 186.265C200.667 192.132 192.933 199.599 186.933 211.732C182.267 221.332 182 222.532 182 234.532C182 246.132 182.4 248.132 186.267 256.265C192.133 268.665 199.6 276.399 211.733 282.399C221.333 287.065 222.533 287.332 234.667 287.332C246.8 287.332 248 287.065 257.6 282.399C269.733 276.399 277.2 268.665 283.067 256.265C286.8 248.399 287.333 245.999 287.333 235.465V223.599L308.533 207.599C328.4 192.665 329.867 191.732 332.667 193.465C334.267 194.532 354 210.665 376.533 229.332C399.067 247.999 420.267 264.932 423.867 266.932C436.4 274.265 448.667 276.532 475.333 276.532C502.8 276.532 510.133 275.199 511.467 269.999C511.867 268.132 511.6 265.732 510.8 264.799C509.867 263.732 478.533 239.999 441.2 211.865C403.867 183.865 373.467 160.399 373.6 159.732C373.867 159.065 404.933 135.199 442.667 106.932C490.8 70.6651 511.467 54.5317 511.733 52.5317C512.8 45.3317 503.733 43.1984 472 43.4651C448.933 43.5984 435.6 46.2651 423.867 53.0651C420.267 55.0651 399.067 71.9984 376.533 90.6651C354 109.332 334.267 125.465 332.667 126.532C329.867 128.265 328.4 127.332 308.533 112.399L287.333 96.3984V84.5317C287.333 73.3317 286.933 71.8651 282.4 62.3984C273.333 44.2651 257.333 33.4651 237.6 32.5317C232 32.2651 225.067 32.6651 222.133 33.3317ZM243.067 65.8651C256.8 71.5984 260.133 89.4651 249.467 100.132C240.8 108.799 228.533 108.799 219.867 100.132C203.333 83.7317 221.6 56.7984 243.067 65.8651ZM243.067 215.199C256.8 220.932 260.133 238.799 249.467 249.465C240.8 258.132 228.533 258.132 219.867 249.465C203.333 233.065 221.6 206.132 243.067 215.199Z" fill="#FFD6A8"/>
<path d="M121.6 201.601C109.733 219.201 91.7338 249.734 82.6671 267.334C71.6005 288.934 65.3338 306.134 64.4005 317.334C62.9338 334.134 70.5338 353.068 83.8671 365.734C109.867 390.534 149.333 389.734 174 364.001L181.333 356.134L188.667 364.001C214 390.401 255.333 390.401 280.667 364.001L288 356.134L295.333 364.001C320.667 390.401 362 390.401 387.333 364.001L394.667 356.134L402 364.001C418 380.668 441.6 387.601 463.333 382.001C474.933 378.934 485.6 372.668 494 364.001L501.333 356.134L508.667 364.001C543.733 400.668 604.133 384.134 616.8 334.268C621.2 317.601 616.667 299.868 600 267.334C590.933 249.734 572.933 219.201 561.067 201.601L554.533 192.001H511.733C475.333 192.001 469.067 192.268 470.667 193.868C471.733 194.801 484.933 204.801 500 216.001C532.4 240.134 535.2 242.668 539.6 251.334C546.933 265.468 544.267 283.201 533.333 294.534C522.4 305.734 510.533 308.534 474.667 308.668C449.067 308.668 435.733 306.668 420 300.401C406.8 295.068 399.467 289.868 363.067 259.734L329.333 231.868L324.933 235.201C320.933 238.268 320.133 239.868 318.133 250.268C310.267 290.801 275.333 320.001 234.667 320.001C186.267 320.001 146.8 278.401 149.733 230.534C150.4 219.201 155.333 201.334 159.467 194.934L161.333 192.001H144.8H128.133L121.6 201.601Z" fill="#FFD6A8"/>
<path d="M170.667 405.467C165.2 408.4 156.8 411.733 152 412.933C142.933 415.333 118.933 416.133 111.067 414.4L106.667 413.333V526.667V640H341.333H576V526.667V413.333L571.733 414.4C569.333 414.933 561.333 415.333 554 415.333C537.867 415.333 525.333 412.4 511.2 405.2L500.933 400.133L495.867 403.067L490.667 406V480.267V554.667H341.333H192V480.267V406L186.667 402.933C183.867 401.333 181.333 400.133 181.067 400.133C180.8 400.267 176.133 402.667 170.667 405.467Z" fill="#FFD6A8"/>
</svg>
