<svg width="512" height="512" viewBox="0 0 512 512" fill="none" xmlns="http://www.w3.org/2000/svg">
<path d="M213 140C239.295 139.953 265.59 139.918 291.886 139.896C304.095 139.886 316.305 139.872 328.515 139.849C339.158 139.829 349.802 139.816 360.445 139.812C366.08 139.809 371.714 139.803 377.348 139.789C382.655 139.775 387.962 139.771 393.269 139.774C395.213 139.773 397.157 139.769 399.101 139.762C426.468 139.659 426.468 139.659 437.688 149.313C438.451 150.199 439.214 151.086 440 152C440.756 152.845 440.756 152.845 441.527 153.707C450.894 164.952 449.401 179.069 449.293 192.855C449.287 194.97 449.283 197.084 449.28 199.198C449.269 204.73 449.239 210.262 449.206 215.794C449.175 221.452 449.162 227.11 449.147 232.768C449.114 243.845 449.063 254.923 449 266C446.766 265.846 444.533 265.69 442.299 265.534C441.056 265.448 439.812 265.361 438.53 265.272C435.744 265.057 432.983 264.795 430.211 264.453C402.455 261.203 370.957 266.949 348.313 284C343.368 288.22 340.055 292.836 338 299C337.883 300.947 337.823 302.898 337.795 304.848C337.775 306.049 337.755 307.25 337.734 308.488C337.709 310.433 337.709 310.433 337.684 312.418C337.663 313.759 337.642 315.1 337.621 316.441C337.566 319.967 337.516 323.493 337.468 327.02C337.418 330.619 337.362 334.219 337.307 337.818C337.199 344.879 337.098 351.939 337 359C311.113 359.094 285.227 359.164 259.34 359.207C247.319 359.228 235.299 359.256 223.279 359.302C212.8 359.342 202.321 359.367 191.842 359.376C186.295 359.382 180.749 359.394 175.202 359.423C169.976 359.45 164.751 359.458 159.525 359.452C157.612 359.454 155.699 359.461 153.786 359.477C139.834 359.584 128.79 358.793 118.234 348.641C111.2 340.327 108.838 331.663 108.867 321.016C108.866 320.242 108.865 319.468 108.864 318.671C108.864 317.03 108.865 315.389 108.87 313.749C108.875 311.3 108.87 308.851 108.863 306.402C108.859 295.901 109.262 285.475 110 275C122.554 269.344 122.554 269.344 129.277 271.848C130.037 272.178 130.798 272.508 131.582 272.848C132.432 273.205 133.282 273.563 134.158 273.932C135.919 274.682 137.677 275.44 139.432 276.205C145.641 278.796 150.712 280.254 157.391 278.301C158.004 277.975 158.618 277.649 159.25 277.312C159.874 276.999 160.498 276.686 161.141 276.363C164.975 273.552 167.12 269.884 169.234 265.715C176.167 252.288 176.167 252.288 181.926 250.039C185.895 248.935 189.913 248.469 194 248C200.558 246.514 205.307 244.922 210 240C212.869 235.305 213.358 231.841 213.25 226.375C213.244 225.321 213.244 225.321 213.239 224.245C213.183 219.97 212.649 216.023 211.875 211.813C211.322 206.403 213.292 203.297 216.563 199.188C218.328 197.074 220.148 195.041 222 193C227.763 186.341 230.527 182.715 230.301 173.734C229.486 166.327 224.001 161.664 219.199 156.418C216.4 153.34 214.056 150.633 212 147C212.383 143.293 212.383 143.293 213 140ZM271 176C270.536 178.959 270.62 181.827 270.75 184.813C270.768 185.601 270.786 186.389 270.805 187.201C270.852 189.135 270.923 191.067 271 193C270.334 193.026 269.667 193.052 268.98 193.078C256.44 193.85 247.451 197.468 239 207C233.65 214.698 232.11 221.678 233 231C233.95 234.562 235.307 237.731 237 241C237.327 241.638 237.655 242.276 237.992 242.934C242.619 250.516 250.967 254.727 259.313 256.938C263.473 257.885 266.596 258 271 258C271 268.56 271 279.12 271 290C255.375 289.688 255.375 289.688 250.478 289.55C249.194 289.537 247.909 289.525 246.586 289.512C245.277 289.486 243.968 289.459 242.619 289.432C237.866 290.178 236.312 291.57 233 295C232.184 298.915 232.641 300.422 234.75 303.812C238.684 307.637 242.627 307.12 247.953 307.098C248.943 307.096 248.943 307.096 249.954 307.093C252.053 307.088 254.151 307.075 256.25 307.062C257.677 307.057 259.104 307.053 260.531 307.049C264.021 307.038 267.51 307.021 271 307C270.942 308.169 270.884 309.338 270.824 310.543C270.777 312.091 270.732 313.639 270.688 315.188C270.625 316.341 270.625 316.341 270.561 317.518C270.468 321.829 270.598 323.481 273.332 327.012C275.867 329.192 275.867 329.192 279 329.625C283.121 328.766 284.41 327.301 287 324C287.726 321.061 287.79 318.205 287.813 315.188C287.838 314.399 287.863 313.611 287.889 312.799C287.947 310.866 287.977 308.933 288 307C289.199 306.888 289.199 306.888 290.422 306.773C302.072 305.379 311.843 301.837 319.375 292.484C324.055 285.329 326.27 277.508 325 269C323.201 261.4 320.184 254.929 314 250C304.81 244.547 297.814 242 287 242C287 231.11 287 220.22 287 209C290.612 209.07 290.612 209.07 294.297 209.141C296.633 209.172 298.97 209.196 301.307 209.22C302.929 209.24 304.55 209.267 306.172 209.302C308.505 209.35 310.838 209.373 313.172 209.391C314.257 209.422 314.257 209.422 315.363 209.453C318.785 209.455 320.667 209.245 323.458 207.194C325.713 203.985 325.547 201.826 325 198C323.133 195.635 321.679 194.34 319 193C316.592 192.914 314.213 192.884 311.805 192.902C311.097 192.904 310.39 192.905 309.661 192.907C307.399 192.912 305.137 192.925 302.875 192.938C301.342 192.943 299.81 192.947 298.277 192.951C294.518 192.962 290.759 192.979 287 193C287.046 191.831 287.093 190.662 287.141 189.457C287.178 187.909 287.215 186.361 287.25 184.813C287.284 184.044 287.317 183.275 287.352 182.482C287.419 178.535 287.276 176.47 285.234 172.988C282.9 170.911 282.065 170.315 279 170.375C278.01 170.356 278.01 170.356 277 170.336C273.732 171.421 272.724 173.059 271 176Z" fill="#FFD6A8"/>
<path d="M94 89.0004C99.1897 89.4221 103.284 90.7852 108 92.9379C116.334 96.7234 123.314 99.5091 132.24 96.1601C134.583 95.1354 136.887 94.0544 139.188 92.9379C149.229 88.0871 149.229 88.0871 153 89.0004C154.555 90.8012 154.555 90.8012 155.875 93.3129C156.378 94.2204 156.88 95.1279 157.398 96.0629C158.191 97.517 158.191 97.517 159 99.0004C160.146 100.95 161.313 102.888 162.5 104.812C163.289 106.122 163.289 106.122 164.094 107.457C169.804 115.074 175.752 116.34 184.812 118.25C187.09 118.753 189.368 119.258 191.645 119.766C192.648 119.98 193.652 120.194 194.687 120.415C197 121 197 121 198 122C198.41 127.324 197.955 132.664 197.485 137.968C196.795 146.33 196.598 152.713 201.996 159.516C204.885 162.77 207.896 165.885 210.957 168.977C213.518 171.7 214.893 173.164 215.375 176.938C213.649 180.781 211.252 182.928 208.203 185.785C202.799 191.218 197.205 198.241 196.865 206.138C196.917 207.285 196.969 208.432 197.023 209.613C197.075 210.86 197.127 212.108 197.18 213.393C197.244 214.686 197.309 215.98 197.375 217.312C197.432 218.625 197.488 219.938 197.547 221.291C197.688 224.528 197.84 227.764 198 231C196.984 231.242 195.968 231.485 194.922 231.734C188.347 233.324 181.783 234.958 175.312 236.937C174.401 237.215 173.49 237.492 172.551 237.777C165.998 240.918 162.846 247.164 159.312 253.187C158.353 254.807 157.391 256.426 156.426 258.043C156.007 258.755 155.589 259.467 155.157 260.2C154 262 154 262 152 264C148.549 263.617 145.588 262.527 142.418 261.152C141.568 260.795 140.718 260.437 139.842 260.068C138.081 259.318 136.323 258.56 134.568 257.795C126.767 254.539 121.431 253.865 113.547 257.004C111.608 257.843 109.676 258.696 107.75 259.562C105.812 260.428 103.869 261.284 101.922 262.129C101.072 262.511 100.222 262.893 99.3467 263.287C96.6585 264.104 95.5347 264.203 93 263C91.5237 261.114 91.5237 261.114 90.1602 258.668C89.4012 257.346 89.4012 257.346 88.627 255.998C88.1107 255.071 87.5944 254.143 87.0625 253.187C81.219 242.743 76.4986 238.501 65 235C59.6947 233.553 54.3518 232.262 49 231C49.0157 230.123 49.0314 229.245 49.0476 228.341C49.0989 225.065 49.1364 221.789 49.1648 218.512C49.1798 217.098 49.2002 215.684 49.2263 214.27C49.263 212.229 49.2798 210.189 49.293 208.148C49.3087 206.923 49.3244 205.698 49.3406 204.435C48.8189 199.173 46.5896 195.352 43.1523 191.422C42.6296 190.819 42.1069 190.215 41.5684 189.594C41.0302 188.985 40.492 188.377 39.9375 187.75C39.3954 187.126 38.8534 186.502 38.2949 185.859C36.2468 183.51 34.2046 181.205 32 179C31.6211 176.672 31.6211 176.672 32 174C33.7227 171.641 33.7227 171.641 36.0625 169.25C46.2401 158.825 46.2401 158.825 49.0977 145.145C49.0955 144.152 49.0955 144.152 49.0934 143.14C49.0878 141.03 49.0752 138.922 49.0625 136.812C49.0575 135.381 49.0529 133.949 49.0488 132.518C49.0378 129.012 49.0206 125.506 49 122C55.4 119.763 61.7844 118 68.4004 116.539C72.2858 115.625 74.9434 114.556 78 112C78.66 112 79.32 112 80 112C80.2771 111.429 80.5541 110.857 80.8396 110.268C81.9931 108.013 83.2462 105.868 84.5664 103.707C85.0517 102.912 85.5371 102.118 86.0371 101.299C86.5405 100.478 87.0439 99.6582 87.5625 98.8129C88.3234 97.5648 88.3234 97.5648 89.0996 96.2914C92.8714 90.129 92.8714 90.129 94 89.0004ZM65 138C60.7561 144.573 57.8721 151.48 59.4805 159.352C62.0422 167.815 66.5127 173.371 74 178C80.1604 180.955 87.0443 181.097 93.6055 179.277C98.331 177.322 101.648 174.927 105 171C105.722 170.196 106.444 169.391 107.188 168.562C111.415 162.586 111.919 156.124 111 149C108.465 140.887 103.435 135.007 96.0234 130.906C85.1601 126.232 72.9985 129.444 65 138ZM137.141 136.75C136.517 137.822 135.893 138.895 135.25 140C134.881 140.628 134.513 141.257 134.133 141.904C133.263 143.388 132.397 144.874 131.533 146.362C129.776 149.385 128.006 152.4 126.234 155.414C122.2 162.28 118.177 169.153 114.155 176.026C111.076 181.288 107.995 186.549 104.913 191.809C103.844 193.633 102.777 195.457 101.709 197.282C101.048 198.41 100.388 199.537 99.707 200.699C98.7692 202.303 98.7692 202.303 97.8125 203.938C95.6288 207.627 93.3782 211.272 91.0989 214.902C89.4155 218.116 89.2958 220.479 90 224C91.4167 226.583 91.4167 226.583 94 228C97.4573 228.75 97.4573 228.75 101 228C106.181 223.826 109.014 218.223 112.25 212.5C113.497 210.329 114.744 208.159 115.992 205.988C116.645 204.847 117.299 203.706 117.972 202.53C121.047 197.166 124.179 191.836 127.309 186.504C128.376 184.686 129.442 182.868 130.507 181.049C134.177 174.789 137.862 168.537 141.566 162.297C141.936 161.674 142.306 161.051 142.687 160.41C144.455 157.431 146.226 154.453 148 151.477C148.627 150.421 149.255 149.365 149.902 148.277C150.454 147.352 151.006 146.426 151.574 145.472C154.281 141.028 154.281 141.028 154.938 136C153.748 132.192 152.408 131.014 149 129C143.065 127.665 140.212 132.208 137.141 136.75ZM141 180C136.716 186.827 134.217 193.258 135.562 201.375C137.561 209.043 141.432 214.368 148.188 218.5C154.932 222.229 161.076 223.213 168.633 221.352C176.413 218.568 181.654 214.119 185.438 206.75C188.104 199.962 188.104 193.038 185.438 186.25C181.901 179.337 176.691 174.504 169.453 171.66C158.713 168.77 148.623 172.031 141 180Z" fill="#FFD6A8"/>
<path d="M416.562 279.625C417.609 279.625 417.608 279.625 418.674 279.626C434.872 279.674 450.404 281.495 465 289C465.914 289.464 466.828 289.928 467.77 290.406C473.047 293.312 477.636 296.266 480 302C481.015 306.074 480.844 309.279 478.984 313.07C469.797 325.401 450.276 329.96 436.062 332.25C410.521 335.194 379.777 333.969 358.625 317.5C354.916 313.968 353.215 311.691 352.562 306.562C353.339 300.248 357.13 296.322 361.902 292.441C377.664 281.611 398.013 279.573 416.562 279.625Z" fill="#FFD6A8"/>
<path d="M353 374C354.597 374.797 354.597 374.797 356.226 375.609C387.901 391.151 426.783 394.083 460.557 383.057C466.646 380.92 472.347 378.09 478 375C478.66 374.67 479.32 374.34 480 374C480.205 378.333 480.328 382.664 480.437 387C480.525 388.831 480.525 388.831 480.615 390.699C480.729 396.711 480.771 400.967 476.754 405.676C474.82 407.51 474.82 407.51 473 409C472.226 409.633 471.453 410.266 470.656 410.918C446.536 425.119 413.71 426.884 386.93 420.505C374.737 417.315 361.338 412.867 354 402C352.643 399.286 352.887 397.152 352.902 394.117C352.905 392.951 352.909 391.784 352.912 390.582C352.92 389.359 352.929 388.135 352.937 386.875C352.942 385.644 352.946 384.413 352.951 383.145C352.963 380.096 352.979 377.048 353 374Z" fill="#FFD6A8"/>
<path d="M353 333C353.993 333.531 354.985 334.062 356.008 334.609C387.754 351.27 427.13 352.324 461.219 342.057C467.227 340.102 472.624 337.312 478 334C478.66 333.67 479.32 333.34 480 333C481.203 351.945 481.203 351.945 477.5 356.688C458.629 373.085 429.81 375.369 406 374C388.707 372.481 367.844 368.574 355.25 355.688C350.975 349.425 352.584 340.204 353 333Z" fill="#FFD6A8"/>
<path d="M271 209C271 219.89 271 230.78 271 242C257.221 240.469 257.221 240.469 251.563 234.375C248.616 229.897 248.253 226.298 249 221C251.19 215.741 254.903 212.965 260.008 210.711C263.696 209.395 267.108 209 271 209Z" fill="#FFD6A8"/>
<path d="M287 258C300.629 259.363 300.629 259.363 306.375 265.562C309.146 269.719 309.417 273.08 309 278C306.157 283.371 302.704 286.825 297.125 289.25C294 290 294 290 287 290C287 279.44 287 268.88 287 258Z" fill="#FFD6A8"/>
<path d="M88.9999 145C91.7532 146.796 93.5262 148.053 94.9999 151C95.3944 155.181 95.4503 157.309 93.1249 160.875C90.2128 163.787 89.3996 163.961 85.1874 164.375C81.8391 164.308 80.968 163.979 77.9999 162.063C75.6765 158.505 75.2014 156.347 75.453 152.16C75.9999 150 75.9999 150 78.5624 146.938C82.5433 144.694 84.5058 144.265 88.9999 145Z" fill="#FFD6A8"/>
<path d="M165 187C167.949 188.538 169.547 189.661 170.633 192.871C171.268 196.446 171.217 198.501 169.75 201.875C167.221 204.945 165.598 205.934 161.625 206.375C157.437 205.942 155.938 204.938 153 202C151.45 198.9 151.71 196.421 152 193C155.691 187.341 158.304 186.433 165 187Z" fill="#FFD6A8"/>
</svg>
