<svg width="512" height="512" viewBox="0 0 512 512" fill="none" xmlns="http://www.w3.org/2000/svg">
<path d="M7.59312 127.867C8.40522 127.869 9.21731 127.872 10.054 127.874C11.3418 127.872 11.3418 127.872 12.6557 127.87C15.5702 127.866 18.4847 127.87 21.3993 127.873C23.4949 127.872 25.5904 127.87 27.686 127.868C33.4738 127.864 39.2616 127.866 45.0494 127.869C51.2798 127.871 57.5103 127.868 63.7408 127.865C75.2507 127.861 86.7605 127.861 98.2704 127.864C108.902 127.867 119.533 127.867 130.165 127.866C130.869 127.866 131.573 127.866 132.298 127.866C135.156 127.866 138.013 127.865 140.871 127.865C167.701 127.862 194.531 127.865 221.362 127.87C245.221 127.875 269.08 127.874 292.939 127.87C319.718 127.864 346.498 127.862 373.278 127.865C376.131 127.865 378.983 127.866 381.836 127.866C382.889 127.866 382.889 127.866 383.964 127.866C394.591 127.867 405.218 127.866 415.845 127.864C427.924 127.861 440.002 127.862 452.08 127.867C458.249 127.87 464.419 127.871 470.588 127.867C476.225 127.864 481.863 127.866 487.501 127.871C489.55 127.872 491.599 127.872 493.648 127.869C496.414 127.866 499.18 127.869 501.946 127.874C503.164 127.871 503.164 127.871 504.407 127.867C509.886 127.886 509.886 127.886 511 129C511.094 131.147 511.118 133.298 511.114 135.447C511.114 136.121 511.114 136.794 511.114 137.487C511.113 139.722 511.106 141.957 511.098 144.191C511.096 145.737 511.095 147.282 511.094 148.828C511.09 152.903 511.08 156.979 511.069 161.054C511.059 165.21 511.054 169.366 511.049 173.521C511.038 181.681 511.021 189.84 511 198C509.772 198.39 508.543 198.779 507.278 199.181C505.646 199.708 504.014 200.237 502.383 200.766C501.576 201.02 500.769 201.275 499.937 201.538C488.78 205.179 480.189 211.965 474 222C467.35 236.378 465.212 251.859 470.68 267.039C476.76 280.675 486.089 289.554 500 295C501.899 295.545 503.803 296.071 505.712 296.583C507.197 296.982 507.197 296.982 508.713 297.39C509.468 297.591 510.222 297.793 511 298C511.023 306.979 511.041 315.958 511.052 324.938C511.057 329.107 511.064 333.276 511.076 337.445C511.086 341.465 511.092 345.484 511.095 349.504C511.097 351.042 511.1 352.579 511.106 354.116C511.113 356.261 511.114 358.407 511.114 360.552C511.116 361.776 511.118 363 511.12 364.26C511 367 511 367 510 368C507.307 368.1 504.64 368.134 501.946 368.126C501.088 368.127 500.229 368.129 499.345 368.13C496.43 368.134 493.516 368.13 490.601 368.127C488.505 368.128 486.41 368.13 484.314 368.132C478.526 368.136 472.739 368.134 466.951 368.131C460.72 368.128 454.49 368.132 448.259 368.135C436.75 368.139 425.24 368.138 413.73 368.136C403.098 368.133 392.467 368.133 381.836 368.134C381.132 368.134 380.428 368.134 379.702 368.134C376.845 368.134 373.987 368.135 371.129 368.135C344.299 368.138 317.469 368.135 290.639 368.13C266.78 368.125 242.921 368.126 219.062 368.13C192.282 368.136 165.502 368.138 138.722 368.135C135.87 368.134 133.017 368.134 130.165 368.134C129.111 368.134 129.111 368.134 128.036 368.133C117.409 368.132 106.782 368.134 96.1548 368.136C84.0765 368.139 71.9982 368.138 59.9199 368.133C53.7508 368.13 47.5817 368.129 41.4126 368.133C35.775 368.136 30.1373 368.134 24.4997 368.129C22.4506 368.127 20.4015 368.128 18.3524 368.13C15.5862 368.133 12.8202 368.13 10.054 368.126C8.83587 368.129 8.83587 368.129 7.59312 368.133C2.11429 368.114 2.11429 368.114 1.00014 367C0.905881 364.852 0.882711 362.702 0.886612 360.552C0.886466 359.879 0.88632 359.206 0.886169 358.513C0.886869 356.278 0.894661 354.043 0.902481 351.809C0.904345 350.263 0.905769 348.717 0.906769 347.172C0.910594 343.096 0.920424 339.021 0.931473 334.945C0.941687 330.79 0.946266 326.634 0.951309 322.478C0.962046 314.319 0.979123 306.159 1.00014 298C2.0906 297.672 3.18107 297.345 4.30458 297.007C5.75397 296.565 7.20326 296.122 8.65248 295.68C9.72726 295.358 9.72726 295.358 10.8237 295.03C24.204 290.918 32.7932 283.273 39.4884 271.086C45.3362 259.149 45.9727 244.847 42.4376 232.062C37.7769 219.123 29.9953 209.648 17.5626 203.687C13.6998 201.966 9.82957 200.617 5.78114 199.417C4.88464 199.151 3.98813 198.884 3.06445 198.61C2.38323 198.408 1.702 198.207 1.00014 198C0.977012 189.021 0.959221 180.042 0.948325 171.062C0.943097 166.893 0.936 162.724 0.924698 158.555C0.913867 154.535 0.90786 150.515 0.90526 146.495C0.903406 144.958 0.899786 143.421 0.894407 141.884C0.887194 139.739 0.886146 137.593 0.886612 135.447C0.884391 134.224 0.882171 133 0.879883 131.74C1.0937 126.868 3.26497 127.882 7.59312 127.867ZM111.277 142.031C109.333 145.028 109.526 148.046 109.563 151.5C109.543 152.177 109.523 152.853 109.502 153.551C109.505 156.82 109.578 158.552 111.863 160.976C114.001 162.208 114.001 162.208 116.625 161.875C119.33 161.143 119.33 161.143 121 158C121.394 154.936 121.394 154.936 121.375 151.562C121.403 150.429 121.432 149.296 121.461 148.129C121.24 144.931 121.24 144.931 119.227 142.59C116.438 140.599 114.33 140.204 111.277 142.031ZM168.46 160.59C164.899 167.514 165.439 175.069 165.483 182.652C165.477 184.237 165.47 185.821 165.461 187.405C165.443 191.69 165.45 195.975 165.463 200.26C165.473 204.754 165.464 209.248 165.457 213.742C165.45 221.287 165.46 228.832 165.479 236.378C165.5 245.089 165.493 253.801 165.471 262.512C165.453 270.005 165.451 277.497 165.461 284.989C165.467 289.459 165.468 293.928 165.455 298.397C165.443 302.6 165.451 306.802 165.475 311.004C165.48 312.543 165.478 314.081 165.469 315.619C165.409 326.898 165.409 326.898 170 337C176.364 342.281 182.408 342.148 190.286 342.134C191.225 342.136 192.163 342.138 193.13 342.141C196.277 342.147 199.423 342.146 202.57 342.145C204.825 342.148 207.081 342.152 209.336 342.155C215.464 342.164 221.592 342.167 227.72 342.167C232.835 342.168 237.949 342.172 243.063 342.175C254.44 342.183 265.816 342.186 277.192 342.185C277.874 342.185 278.556 342.185 279.259 342.185C279.943 342.185 280.626 342.185 281.33 342.185C292.402 342.185 303.474 342.194 314.546 342.208C325.92 342.223 337.293 342.229 348.667 342.229C355.051 342.229 361.434 342.231 367.818 342.242C373.821 342.252 379.824 342.252 385.828 342.244C388.031 342.243 390.234 342.246 392.437 342.252C395.445 342.26 398.452 342.255 401.46 342.247C402.767 342.255 402.767 342.255 404.1 342.263C410.47 342.227 415.817 341.892 420.813 337.562C425.618 331.934 426.123 327.729 426.134 320.492C426.138 319.176 426.142 317.859 426.147 316.503C426.146 315.051 426.146 313.599 426.145 312.147C426.148 310.613 426.152 309.078 426.156 307.544C426.164 303.38 426.167 299.217 426.167 295.054C426.168 292.451 426.17 289.848 426.173 287.244C426.182 278.158 426.186 269.071 426.185 259.985C426.185 251.524 426.195 243.063 426.211 234.602C426.224 227.33 426.23 220.059 426.229 212.787C426.229 208.448 426.232 204.108 426.242 199.769C426.252 195.685 426.252 191.602 426.245 187.518C426.244 186.024 426.246 184.529 426.252 183.034C426.828 170.819 426.828 170.819 422.344 159.941C421.735 159.486 421.127 159.031 420.5 158.562C419.892 158.089 419.283 157.616 418.656 157.129C414.578 154.349 410.546 154.852 405.771 154.853C404.803 154.849 403.834 154.845 402.836 154.842C399.569 154.831 396.303 154.827 393.036 154.823C390.703 154.817 388.369 154.81 386.035 154.803C379.68 154.786 373.324 154.775 366.969 154.767C363 154.762 359.032 154.756 355.064 154.749C344.077 154.732 333.091 154.718 322.104 154.711C319.253 154.709 316.401 154.707 313.549 154.705C312.84 154.704 312.132 154.704 311.401 154.703C299.922 154.695 288.442 154.67 276.962 154.637C265.177 154.604 253.392 154.586 241.607 154.583C234.99 154.581 228.373 154.572 221.756 154.546C215.53 154.523 209.305 154.519 203.079 154.529C200.794 154.53 198.508 154.523 196.223 154.51C193.103 154.492 189.984 154.499 186.864 154.512C185.96 154.501 185.055 154.49 184.124 154.479C177.664 154.545 173.115 155.784 168.46 160.59ZM111.84 174.031C109.145 176.915 109.452 179.762 109.563 183.5C109.556 184.177 109.548 184.853 109.541 185.551C109.579 188.478 109.656 190.513 111.371 192.941C113.751 194.488 115.227 194.485 118 194C120.357 191.654 120.968 190.227 121.434 186.906C121.435 185.782 121.436 184.658 121.438 183.5C121.457 182.376 121.476 181.252 121.496 180.094C120.904 176.397 119.983 175.2 117 173C114.052 172.785 114.052 172.785 111.84 174.031ZM112 206C109.555 209.668 109.701 211.634 109.688 216C109.671 217.237 109.654 218.475 109.637 219.75C109.727 222.945 109.727 222.945 111.363 224.91C113.743 226.494 115.208 226.488 118 226C120.256 223.717 120.955 222.327 121.399 219.125C121.391 218.094 121.383 217.062 121.375 216C121.383 214.969 121.391 213.937 121.399 212.875C120.953 209.663 120.291 208.269 118 206C114.958 205.416 114.958 205.416 112 206ZM110 241C109.56 244.326 109.56 244.326 109.688 248C109.692 249.237 109.695 250.475 109.699 251.75C109.754 255.146 109.754 255.146 112 258C113.787 259.176 113.787 259.176 116 259C118.7 257.343 119.608 256.728 121 254C121.727 249.059 122.215 244.071 119.625 239.656C118.085 237.765 118.085 237.765 115.5 237.562C112.479 238.091 111.771 238.518 110 241ZM111.277 271.031C109.333 274.028 109.526 277.046 109.563 280.5C109.543 281.177 109.523 281.853 109.502 282.551C109.505 285.805 109.601 287.561 111.828 290.012C114.106 291.309 114.106 291.309 117.188 290.312C120.107 289.305 120.107 289.305 121 287C121.174 284.88 121.267 282.752 121.313 280.625C121.369 278.912 121.369 278.912 121.426 277.164C121.248 273.935 121.248 273.935 119.231 271.586C116.439 269.601 114.329 269.204 111.277 271.031ZM111.84 303.031C109.145 305.915 109.452 308.762 109.563 312.5C109.556 313.177 109.548 313.853 109.541 314.551C109.579 317.467 109.68 319.527 111.336 321.976C113.11 323.281 113.11 323.281 116.063 322.875C119.293 322.253 119.293 322.253 121 319C121.394 315.936 121.394 315.936 121.375 312.562C121.403 311.429 121.432 310.296 121.461 309.129C121.246 305.92 121.246 305.92 119.164 303.59C116.358 301.528 114.963 301.54 111.84 303.031ZM112.875 334.812C110.851 335.868 110.851 335.868 110 338C109.851 340.309 109.779 342.624 109.75 344.937C109.724 346.184 109.699 347.43 109.672 348.715C109.72 351.941 109.72 351.941 111.36 353.914C113.742 355.491 115.209 355.488 118 355C120.386 352.637 120.971 351.232 121.399 347.871C121.391 346.738 121.383 345.605 121.375 344.437C121.383 343.302 121.391 342.166 121.399 340.996C121.246 338.032 121.246 338.032 119.664 336.16C117.204 334.445 115.744 333.715 112.875 334.812Z" fill="#FFD6A8"/>
<path d="M189.148 164.748C190.096 164.745 191.044 164.741 192.02 164.738C195.21 164.73 198.4 164.737 201.59 164.743C203.871 164.74 206.152 164.737 208.434 164.732C214.64 164.723 220.846 164.727 227.053 164.733C233.538 164.738 240.023 164.733 246.507 164.73C258.097 164.726 269.687 164.733 281.277 164.743C291.791 164.752 302.304 164.75 312.817 164.741C325.02 164.73 337.222 164.726 349.424 164.732C355.886 164.735 362.347 164.736 368.809 164.729C374.883 164.723 380.957 164.727 387.03 164.739C389.264 164.742 391.498 164.741 393.732 164.736C396.772 164.731 399.812 164.738 402.852 164.748C403.744 164.743 404.636 164.739 405.554 164.734C411.657 164.773 411.657 164.773 415 167.002C415.375 169.772 415.375 169.772 415.374 173.379C415.378 174.041 415.382 174.703 415.386 175.384C415.396 177.613 415.384 179.84 415.372 182.068C415.375 183.661 415.378 185.254 415.383 186.847C415.393 191.182 415.383 195.516 415.37 199.851C415.359 204.38 415.363 208.909 415.365 213.437C415.366 221.044 415.354 228.65 415.336 236.257C415.315 245.06 415.311 253.863 415.318 262.667C415.323 271.123 415.318 279.58 415.306 288.036C415.302 291.641 415.301 295.245 415.303 298.85C415.305 303.091 415.297 307.333 415.281 311.575C415.277 313.135 415.276 314.695 415.279 316.255C415.282 318.379 415.273 320.501 415.261 322.624C415.258 324.41 415.258 324.41 415.254 326.231C415 329.002 415 329.002 413 331.002C409.933 331.2 406.957 331.271 403.889 331.256C402.933 331.259 401.978 331.262 400.993 331.265C397.77 331.273 394.547 331.267 391.324 331.26C389.022 331.263 386.719 331.267 384.417 331.271C378.148 331.28 371.88 331.277 365.612 331.27C359.065 331.265 352.518 331.27 345.971 331.273C334.27 331.277 322.569 331.271 310.868 331.261C300.251 331.252 289.634 331.253 279.017 331.262C266.698 331.273 254.379 331.277 242.06 331.271C235.536 331.268 229.011 331.268 222.486 331.274C216.353 331.28 210.22 331.276 204.087 331.264C201.831 331.262 199.574 331.263 197.317 331.267C194.248 331.272 191.179 331.266 188.111 331.256C186.756 331.262 186.756 331.262 185.373 331.269C179.228 331.23 179.228 331.23 177 329.002C176.745 326.231 176.745 326.231 176.739 322.624C176.735 321.963 176.732 321.301 176.728 320.619C176.717 318.391 176.721 316.163 176.725 313.935C176.721 312.342 176.716 310.749 176.71 309.156C176.696 304.821 176.696 300.487 176.698 296.152C176.699 292.539 176.695 288.925 176.69 285.312C176.679 276.79 176.678 268.268 176.684 259.747C176.69 250.943 176.678 242.14 176.657 233.336C176.639 225.788 176.633 218.24 176.636 210.692C176.638 206.179 176.635 201.666 176.622 197.154C176.609 192.912 176.611 188.67 176.624 184.428C176.626 182.868 176.624 181.308 176.615 179.748C176.605 177.625 176.613 175.502 176.626 173.379C176.626 172.189 176.625 170.998 176.625 169.772C176.749 168.858 176.872 167.944 177 167.002C181.002 164.334 184.502 164.724 189.148 164.748ZM254 196.002C249.746 202.091 248.215 209.017 249.371 216.357C251.271 223.215 255.203 228.838 261.434 232.388C268.342 235.385 273.809 235.928 281 233.502C287.193 230.815 291.028 226.789 294.129 220.834C296.922 213.757 296.405 206.706 293.437 199.752C290.415 194.322 285.582 191.21 280.062 188.627C269.927 186.558 261.366 188.468 254 196.002ZM331.191 194.154C330.468 195.094 329.745 196.033 329 197.002C328.225 197.993 327.45 198.984 326.652 200.006C324.966 202.177 323.295 204.359 321.633 206.549C318.979 210.041 316.277 213.494 313.562 216.939C313.105 217.52 312.648 218.101 312.176 218.7C311.248 219.878 310.32 221.057 309.391 222.236C307.091 225.155 304.796 228.079 302.5 231.002C301.583 232.168 300.667 233.335 299.75 234.502C299.296 235.079 298.842 235.657 298.375 236.252C294.25 241.502 294.25 241.502 292.876 243.251C291.956 244.421 291.037 245.591 290.118 246.76C287.865 249.628 285.611 252.496 283.355 255.361C277.611 262.66 271.898 269.983 266.201 277.318C263.016 281.416 259.823 285.509 256.611 289.586C255.277 291.279 253.949 292.976 252.621 294.674C250.802 296.994 248.957 299.291 247.098 301.58C246.169 302.741 245.241 303.903 244.312 305.064C243.484 306.086 242.655 307.109 241.801 308.162C239.892 311.172 239.413 312.521 240 316.002C241.654 317.992 241.654 317.992 244 319.002C248.735 318.492 250.669 315.41 253.613 311.97C256.926 307.85 260.076 303.617 263.22 299.367C266.9 294.411 270.71 289.586 274.625 284.814C279.374 279.024 283.999 273.162 288.543 267.209C291.144 263.803 293.787 260.431 296.437 257.064C296.897 256.48 297.357 255.895 297.831 255.293C299.22 253.529 300.61 251.765 302 250.002C308.627 241.588 315.226 233.153 321.792 224.692C325.022 220.533 328.269 216.39 331.542 212.265C333.711 209.523 335.856 206.763 338 204.002C339.141 202.561 339.141 202.561 340.305 201.092C340.967 200.216 341.63 199.341 342.312 198.439C342.886 197.695 343.46 196.952 344.051 196.185C345.28 193.963 345.28 193.963 344.332 191.31C343.147 188.78 343.147 188.78 340.375 187.627C335.567 188.161 334.167 190.501 331.191 194.154ZM296.078 279.232C290.96 286.702 290.255 293.021 291 302.002C292.662 308.21 296.644 312.593 302 316.002C308.219 319.169 314.255 319.855 321 318.002C328.547 314.657 332.876 310.781 336.25 303.189C338.143 295.142 337.168 288.21 333 281.002C328.678 275.91 323.132 272.575 316.465 271.65C308.501 271.224 301.43 273.021 296.078 279.232Z" fill="#FFD6A8"/>
<path d="M82 379C144.04 379 206.08 379 270 379C266.517 382.483 263.544 384.554 259.312 386.812C252.275 390.674 245.372 394.728 238.5 398.875C236.344 400.175 234.188 401.474 232.031 402.773C231.472 403.111 230.912 403.448 230.335 403.795C223.244 408.064 216.12 412.28 209 416.5C199.276 422.265 189.564 428.05 179.875 433.875C171.544 438.883 163.194 443.856 154.82 448.793C149.186 452.116 143.557 455.448 137.934 458.789C137.228 459.208 136.523 459.627 135.797 460.059C132.972 461.737 130.147 463.416 127.322 465.096C126.66 465.49 125.997 465.884 125.314 466.29C124.662 466.678 124.011 467.065 123.339 467.465C122.056 468.227 120.772 468.987 119.486 469.745C116.498 471.508 113.525 473.288 110.583 475.126C109.014 476.088 109.014 476.088 107.414 477.07C106.509 477.638 105.603 478.205 104.67 478.79C101.45 480.249 99.4925 480.59 96 480C94.1357 477.998 94.1357 477.998 92.5469 475.148C91.9359 474.083 91.3248 473.017 90.6953 471.92C90.0466 470.738 89.3982 469.557 88.75 468.375C88.0676 467.169 87.3826 465.965 86.6953 464.762C85.6088 462.859 84.5242 460.956 83.4476 459.048C80.6983 454.18 77.8521 449.378 74.9531 444.598C74.5381 443.913 74.1231 443.228 73.6955 442.522C72.0592 439.825 70.4209 437.128 68.7797 434.434C67.6407 432.561 66.5073 430.685 65.375 428.809C64.7227 427.734 64.0705 426.66 63.3984 425.552C62 423 62 423 62 421C63.1492 419.976 64.3466 419.006 65.5625 418.062C77.6046 407.725 80.6159 394.225 82 379Z" fill="#FFD6A8"/>
<path d="M416 15.9999C418.051 18.3446 418.051 18.3446 419.883 21.6405C420.219 22.2304 420.556 22.8204 420.903 23.4282C421.998 25.3578 423.061 27.3031 424.125 29.2499C424.874 30.5809 425.626 31.9106 426.38 33.2389C427.889 35.9016 429.389 38.5694 430.882 41.2416C433.734 46.3276 436.73 51.3245 439.75 56.3124C440.214 57.0855 440.678 57.8586 441.157 58.6551C441.595 59.3838 442.033 60.1124 442.484 60.8631C442.895 61.551 443.306 62.2389 443.729 62.9476C444.616 64.3804 445.546 65.7877 446.506 67.1732C447.222 68.2224 447.222 68.2224 447.953 69.2928C448.393 69.9105 448.833 70.5282 449.286 71.1647C450 72.9999 450 72.9999 449.278 75.111C447.58 77.6205 445.364 79.1158 443 80.9999C434.196 92.458 431.943 102.431 430 117C367.96 117 305.92 117 242 117C244.862 114.138 247.28 112.525 250.758 110.515C251.329 110.183 251.901 109.851 252.489 109.509C253.722 108.793 254.955 108.078 256.19 107.366C259.49 105.462 262.782 103.543 266.074 101.625C266.743 101.236 267.413 100.846 268.102 100.445C274.415 96.7694 280.681 93.0201 286.938 89.2499C294.462 84.7204 301.997 80.2114 309.562 75.7499C318.588 70.4247 327.611 65.0947 336.625 59.7499C337.307 59.3458 337.988 58.9418 338.69 58.5255C348.291 52.8306 357.848 47.0673 367.375 41.2499C379.7 33.7252 392.168 26.4786 404.717 19.3341C411.599 15.312 411.599 15.312 416 15.9999Z" fill="#FFD6A8"/>
<path d="M187.562 16.1892C191 17.0017 191 17.0017 193 20.0017C193.342 21.428 193.63 22.868 193.875 24.3142C195.06 29.9305 197.233 33.487 201.625 37.2517C204.76 38.8771 206.773 39.3974 210.188 39.9392C214.724 40.7262 214.724 40.7262 217.25 43.2517C218 46.0017 218 46.0017 217.625 49.1892C216 52.0017 216 52.0017 212.875 53.1892C211.596 53.4574 210.317 53.7255 209 54.0017C202.819 55.6991 199.634 57.6576 196 63.0017C194.501 65.9998 193.788 68.9407 193.062 72.1892C192 76.0017 192 76.0017 189 78.0017C185.438 77.8767 185.438 77.8767 182 77.0017C180.237 74.298 179.628 71.6489 179.062 68.5017C178.334 64.9533 177.429 62.7619 175 60.0017C175 59.3417 175 58.6817 175 58.0017C170.038 55.9124 164.935 54.4852 159.766 53.0017C157 52.0017 157 52.0017 156 50.0017C155.812 46.5017 155.812 46.5017 156 43.0017C158.527 40.4751 160.207 40.4329 163.688 39.7517C169.428 38.3872 173.221 36.5764 177 32.0017C178.376 29.5772 178.906 27.4774 179.445 24.7595C179.689 23.5491 179.689 23.5491 179.938 22.3142C180.07 21.5472 180.203 20.7802 180.34 19.99C181.628 16.1111 183.81 15.9917 187.562 16.1892ZM186 41.0017C184.35 42.9817 182.7 44.9617 181 47.0017C182.623 48.7106 184.293 50.3762 186 52.0017C188.244 52.2302 188.244 52.2302 190.125 50.0017C191.053 49.0117 191.053 49.0117 192 48.0017C190.607 44.6345 189.021 43.0158 186 41.0017Z" fill="#FFD6A8"/>
<path d="M436.875 436.688C440.699 436.769 440.699 436.768 442.875 438.438C443.921 440.819 444.428 442.838 444.937 445.375C445.959 450.354 447.408 454.238 451.793 457.219C456.169 459.589 460.065 460.323 465 461C466.937 462.125 466.937 462.125 468 464C468.437 467.5 468.437 467.5 468 471C465.207 473.698 462.915 474.391 459.125 474.875C453.959 475.803 451.582 477.156 448 481C445.351 485.162 444.383 489.256 443.527 494.047C443 496 443 496 441 498C434.772 498.566 434.772 498.566 432.332 496.777C430.676 494.568 430.472 492.976 430.125 490.25C429.221 485.174 427.675 481.655 424 478C419.886 475.289 415.734 474.381 410.953 473.527C409 473 409 473 407 471C406.434 464.776 406.434 464.776 408.211 462.34C410.456 460.658 412.173 460.399 414.937 460C418.86 459.432 420.909 458.457 424 456C424.66 456 425.32 456 426 456C428.733 450.729 430.371 445.7 431.535 439.891C432.392 436.406 432.959 437.002 436.875 436.688ZM437 462C435.35 463.98 433.7 465.96 432 468C433.98 469.65 435.96 471.3 438 473C439.65 471.02 441.3 469.04 443 467C441.02 465.35 439.04 463.7 437 462Z" fill="#FFD6A8"/>
<path d="M237 452.061C240 452.998 240 452.998 241.75 455.123C243.158 458.363 244.114 461.581 245 464.998C245.654 468.124 245.654 468.124 248.062 469.061C250.435 469.818 252.698 470.359 255.125 470.873C257.797 471.53 258.917 471.928 261.062 473.748C262.369 476.883 261.978 478.786 261 481.998C258.101 483.931 256.375 484.471 253.062 485.248C249.451 486.309 248.192 486.792 245.562 489.623C243.963 493.078 242.752 496.486 241.711 500.143C241 501.998 241 501.998 239 502.998C233.605 503.458 233.605 503.458 231.363 501.756C229.735 499.657 229.491 498.237 229.125 495.623C228.192 491.035 226.948 488.77 223 485.998C220.695 485.338 218.46 484.885 216.086 484.553C213.565 483.883 212.573 483.059 211 480.998C210.575 476.92 210.687 475.468 213 471.998C215.207 471.225 215.207 471.225 217.812 470.623C222.493 469.295 225.116 468.105 228 463.998C228.891 461.418 229.613 458.865 230.227 456.205C231.496 452.583 233.315 451.984 237 452.061ZM235 475.998C235 476.988 235 477.978 235 478.998C235.99 478.998 236.98 478.998 238 478.998C237.67 478.008 237.34 477.018 237 475.998C236.34 475.998 235.68 475.998 235 475.998Z" fill="#FFD6A8"/>
<path d="M54.9374 8.6875C57.9999 9 57.9999 9 59.6015 10.2109C61.3126 12.4 61.7855 14.245 62.4374 16.9375C63.9473 22.3235 63.9473 22.3235 67.9999 26C70.2875 26.602 72.5395 27.0591 74.8788 27.4102C77.4179 28.1162 78.4221 28.9045 79.9999 31C80.4374 34.5 80.4374 34.5 79.9999 38C77.7459 40.7236 75.322 41.2061 71.9999 41.9375C68.1932 42.8344 66.268 43.6399 63.9999 47C63.1874 49.5376 62.4999 52.0625 61.9062 54.6602C60.7933 57.5334 59.6658 58.5035 56.9999 60C53.327 59.7796 51.6303 59.6303 48.9999 57C48.4896 55.3906 48.0378 53.7621 47.6249 52.125C46.0683 46.7112 46.0683 46.7112 41.9999 43C39.433 42.1222 36.8726 41.3744 34.2421 40.7109C31.9999 40 31.9999 40 29.9999 38C29.4327 31.761 29.4327 31.761 31.246 29.3281C33.35 27.7349 34.7745 27.5203 37.3749 27.1875C41.3422 26.3889 43.5562 25.2729 46.0116 21.8555C47.5281 19.0084 48.4643 16.0548 49.3241 12.9531C50.4623 9.66367 51.5024 9.05292 54.9374 8.6875ZM53.9999 33C53.9999 33.99 53.9999 34.98 53.9999 36C54.9899 35.67 55.9799 35.34 56.9999 35C56.6699 34.34 56.3399 33.68 55.9999 33C55.3399 33 54.6799 33 53.9999 33Z" fill="#FFD6A8"/>
<path d="M326 392.001C327.285 394.681 327.285 394.681 328.062 397.876C329.438 402.604 329.438 402.604 332.187 406.626C335.429 408.211 338.464 408.925 342.012 409.509C344 410.001 344 410.001 346 412.001C346.301 413.876 346.301 413.876 346.312 416.001C346.329 416.703 346.346 417.404 346.363 418.126C346.243 418.745 346.123 419.364 346 420.001C343.123 421.919 341.348 422.509 338.062 423.314C334.809 424.275 333.121 424.898 330.5 427.126C328.791 430.402 328.09 433.386 327.492 437.013C327 439.001 327 439.001 325 441.001C323.125 441.267 323.125 441.267 321 441.251C320.299 441.257 319.597 441.262 318.875 441.267C317 441.001 317 441.001 315 439.001C314.512 437.223 314.081 435.428 313.687 433.626C312.762 430.137 312.202 428.245 309.875 425.439C307.209 424.106 305.265 423.599 302.375 423.064C299.084 422.432 298.233 422.241 295.812 419.751C295 417.001 295 417.001 295.437 413.814C297 411.001 297 411.001 299.687 409.814C300.781 409.546 301.874 409.278 303 409.001C309.133 406.852 309.133 406.852 313 402.001C313.311 400.484 313.601 398.963 313.875 397.439C314.538 394.146 314.762 393.233 317.25 390.814C320.927 389.728 322.572 390.357 326 392.001ZM320 414.001C320 414.991 320 415.981 320 417.001C320.99 416.671 321.98 416.341 323 416.001C322.67 415.341 322.34 414.681 322 414.001C321.34 414.001 320.68 414.001 320 414.001Z" fill="#FFD6A8"/>
<path d="M319 282.999C322.316 284.454 324.336 286.556 325.875 289.901C327.269 294.442 327.21 297.675 325 301.999C321.403 306.149 319.202 307.791 313.687 308.311C309.267 307.937 307.373 306.835 304 303.999C301.115 300.537 300.465 297.514 300.644 292.995C301.241 289.644 302.82 287.543 305 284.999C309.432 282.255 313.941 282.241 319 282.999Z" fill="#FFD6A8"/>
<path d="M279.875 200.187C282.988 202.843 284.734 204.995 285.285 209.148C285.465 213.863 285.239 217.329 282 221C277.613 223.892 274.209 224.64 269 224C265.697 222.696 262.772 221.219 260.82 218.137C259.045 213.514 259.317 208.654 261.187 204.125C266.211 198.235 272.827 197.277 279.875 200.187Z" fill="#FFD6A8"/>
</svg>
