<svg width="512" height="512" viewBox="0 0 512 512" fill="none" xmlns="http://www.w3.org/2000/svg">
<path d="M330.277 173.734C331.619 173.733 332.961 173.731 334.303 173.728C337.095 173.725 339.888 173.729 342.68 173.739C346.221 173.75 349.762 173.744 353.303 173.732C356.068 173.724 358.833 173.727 361.599 173.732C363.526 173.734 365.454 173.728 367.382 173.722C383.155 173.804 396.177 175.622 407.961 186.781C417.949 197.649 419.199 209.833 419.07 223.957C419.063 225.553 419.063 225.553 419.055 227.181C419.042 229.787 419.023 232.393 419 235C420.157 234.99 420.157 234.99 421.338 234.979C428.635 234.919 435.931 234.874 443.228 234.844C446.979 234.829 450.729 234.807 454.48 234.773C458.105 234.74 461.729 234.723 465.354 234.715C466.731 234.709 468.109 234.699 469.487 234.682C478.488 234.58 485.892 234.705 493.313 240.312C498.137 245.137 499.582 249.808 500.063 256.476C499.894 263.274 496.695 268.305 492 273C486.473 276.271 482.119 277.126 475.763 277.113C474.502 277.113 473.241 277.113 471.942 277.113C470.57 277.108 469.199 277.103 467.828 277.097C466.421 277.095 465.015 277.094 463.608 277.093C459.912 277.089 456.217 277.079 452.521 277.068C448.747 277.058 444.973 277.053 441.199 277.048C433.8 277.038 426.4 277.021 419 277C419.006 277.658 419.011 278.317 419.017 278.996C419.039 282.013 419.053 285.03 419.066 288.046C419.075 289.083 419.084 290.119 419.093 291.187C419.14 304.861 416.612 315.661 407.117 326.062C394.756 337.673 379.795 338.318 363.59 338.265C362.247 338.267 360.904 338.268 359.562 338.271C356.771 338.274 353.98 338.27 351.189 338.26C347.647 338.249 344.106 338.256 340.563 338.267C337.798 338.275 335.033 338.272 332.268 338.267C330.338 338.265 328.409 338.271 326.479 338.277C311.606 338.199 298.434 336.312 287.125 325.875C279.591 317.793 275.85 308.558 275.902 297.605C275.906 296.403 275.909 295.201 275.912 293.962C275.921 292.717 275.929 291.471 275.938 290.187C275.942 288.922 275.947 287.657 275.951 286.353C275.963 283.235 275.979 280.117 276 277C274.74 277.002 273.479 277.005 272.181 277.008C242.251 277.073 212.321 277.122 182.392 277.153C178.707 277.157 175.022 277.16 171.337 277.164C170.603 277.165 169.87 277.166 169.114 277.167C157.24 277.18 145.367 277.203 133.493 277.231C121.307 277.259 109.121 277.276 96.9349 277.282C89.4172 277.286 81.8996 277.299 74.3819 277.323C68.6145 277.341 62.8471 277.343 57.0797 277.339C54.7158 277.34 52.3519 277.346 49.9881 277.357C46.7589 277.372 43.5303 277.369 40.3012 277.36C38.9004 277.373 38.9004 277.373 37.4713 277.387C28.842 277.328 22.1913 275.191 16.0001 269C12.6796 264.076 11.855 258.855 12.0001 253C13.1354 247.262 15.9114 243.088 20.0001 239C24.7433 236.192 28.857 234.874 34.3341 234.877C35.199 234.875 36.0639 234.873 36.955 234.87C38.3733 234.875 38.3733 234.875 39.8202 234.879C41.3321 234.878 41.3322 234.878 42.8747 234.877C46.2619 234.875 49.649 234.881 53.0362 234.886C55.4604 234.886 57.8846 234.886 60.3088 234.886C65.5329 234.885 70.7571 234.888 75.9812 234.894C83.5344 234.902 91.0876 234.905 98.6408 234.906C110.895 234.908 123.15 234.915 135.404 234.924C147.309 234.933 159.213 234.94 171.117 234.945C172.218 234.945 172.218 234.945 173.341 234.945C177.022 234.947 180.703 234.948 184.384 234.949C214.923 234.96 245.461 234.977 276 235C275.984 234.234 275.969 233.468 275.952 232.68C275.89 229.161 275.851 225.643 275.813 222.125C275.775 220.319 275.775 220.319 275.736 218.476C275.626 204.89 279.048 195.407 288.125 185.312C299.814 174.265 315.058 173.685 330.277 173.734Z" fill="#225D5C"/>
<path d="M132.986 336.596C133.74 336.589 134.494 336.582 135.271 336.575C137.739 336.557 140.207 336.561 142.676 336.566C144.409 336.562 146.143 336.556 147.876 336.55C151.501 336.541 155.127 336.544 158.752 336.554C163.372 336.565 167.991 336.545 172.61 336.516C176.189 336.497 179.767 336.498 183.346 336.504C185.047 336.504 186.749 336.498 188.451 336.485C203.223 336.392 214.204 338.591 225.129 349.035C230.052 354.175 232.923 359.206 235 366C235.266 366.865 235.266 366.865 235.537 367.748C236.131 370.635 236.112 373.349 236.098 376.297C236.095 377.502 236.091 378.707 236.088 379.949C236.08 381.203 236.071 382.458 236.063 383.75C236.058 385.02 236.054 386.289 236.049 387.597C236.037 390.732 236.021 393.866 236 397C237.882 396.996 237.882 396.996 239.801 396.991C269.593 396.926 299.384 396.877 329.175 396.847C332.844 396.843 336.512 396.839 340.181 396.835C340.911 396.834 341.642 396.833 342.394 396.833C354.212 396.82 366.03 396.796 377.848 396.768C389.979 396.74 402.11 396.724 414.24 396.718C421.723 396.713 429.205 396.7 436.687 396.676C442.429 396.658 448.172 396.656 453.914 396.66C456.266 396.66 458.618 396.654 460.97 396.642C464.186 396.627 467.401 396.631 470.617 396.639C471.544 396.63 472.471 396.622 473.426 396.613C480.848 396.663 486.981 398.12 493.313 402.062C497.463 406.599 499.782 411.428 500.16 417.625C499.718 424.708 497.463 429.993 492.125 434.812C485.901 439.169 480.237 439.286 472.902 439.24C471.888 439.242 470.874 439.244 469.829 439.246C466.435 439.249 463.04 439.238 459.645 439.227C457.211 439.226 454.776 439.227 452.342 439.228C447.102 439.228 441.862 439.223 436.622 439.211C429.046 439.195 421.47 439.19 413.894 439.187C401.602 439.183 389.31 439.17 377.018 439.151C365.079 439.132 353.139 439.118 341.2 439.11C340.096 439.109 340.096 439.109 338.969 439.108C335.276 439.105 331.582 439.103 327.889 439.1C297.259 439.08 266.63 439.044 236 439C236.021 439.79 236.042 440.581 236.064 441.396C236.148 445.034 236.199 448.673 236.25 452.312C236.284 453.556 236.317 454.799 236.352 456.08C236.49 469.244 232.859 479.18 224 489C214.716 497.193 204.466 500.105 192.235 500.145C191.263 500.15 191.263 500.15 190.272 500.155C188.145 500.165 186.018 500.167 183.891 500.168C182.399 500.171 180.907 500.174 179.415 500.178C176.291 500.184 173.168 500.186 170.044 500.185C166.066 500.185 162.087 500.199 158.109 500.216C155.027 500.227 151.945 500.229 148.864 500.229C147.398 500.23 145.933 500.234 144.467 500.242C128.65 500.318 115.916 498.466 104.039 487.219C94.0509 476.35 92.8013 464.167 92.9298 450.043C92.9349 448.979 92.94 447.915 92.9452 446.819C92.9583 444.212 92.9768 441.606 93.0001 439C91.8241 439.01 91.8241 439.01 90.6243 439.02C83.2098 439.08 75.7955 439.126 68.3809 439.155C64.5696 439.171 60.7585 439.192 56.9474 439.226C53.2645 439.259 49.5818 439.277 45.8988 439.284C44.4987 439.29 43.0985 439.301 41.6985 439.317C25.3668 439.499 25.3668 439.499 18.7579 434.203C13.9178 428.413 11.6987 423.752 12.0626 416.062C12.8781 409.964 15.117 405.341 19.9337 401.43C25.6148 397.671 30.4669 396.872 37.2591 396.886C38.5001 396.886 39.741 396.886 41.0195 396.887C42.3633 396.892 43.7071 396.897 45.0509 396.902C46.4338 396.904 47.8167 396.905 49.1996 396.906C52.8279 396.91 56.4561 396.92 60.0843 396.931C63.7912 396.941 67.4982 396.946 71.2052 396.951C78.4702 396.962 85.7351 396.979 93.0001 397C92.9903 396.009 92.9903 396.009 92.9803 394.999C92.9541 391.977 92.938 388.955 92.922 385.933C92.9115 384.895 92.901 383.856 92.8903 382.785C92.8609 375.388 93.3285 368.967 96.0001 362C96.2786 361.272 96.557 360.543 96.8439 359.793C101.602 349.065 110.119 342.919 120.671 338.442C124.775 336.927 128.633 336.567 132.986 336.596Z" fill="#225D5C"/>
<path d="M146.43 11.6995C147.911 11.6956 149.393 11.6913 150.874 11.6865C153.966 11.6791 157.057 11.6793 160.148 11.6846C164.077 11.6904 168.005 11.6735 171.934 11.6503C174.99 11.6354 178.046 11.6347 181.102 11.6378C182.55 11.6373 183.997 11.6321 185.444 11.622C199.814 11.5333 213.385 13.4975 224.527 23.3675C234.439 34.3567 236.474 45.2118 236.188 59.5628C236.174 60.8576 236.16 62.1525 236.146 63.4866C236.111 66.6583 236.062 69.829 236 73.0003C237.266 72.9975 238.531 72.9947 239.835 72.9919C269.887 72.9269 299.939 72.8774 329.99 72.8471C333.69 72.8433 337.39 72.8394 341.09 72.8355C342.195 72.8343 342.195 72.8343 343.322 72.8331C355.245 72.8201 367.167 72.7964 379.089 72.7688C391.325 72.7408 403.56 72.7241 415.796 72.718C423.345 72.7139 430.893 72.7009 438.441 72.6765C444.232 72.6588 450.023 72.6569 455.814 72.661C458.188 72.6601 460.561 72.6542 462.935 72.6427C466.177 72.6277 469.419 72.6313 472.661 72.6395C473.599 72.6308 474.536 72.622 475.503 72.613C482.127 72.6582 487.904 73.5192 493.242 77.7971C498.082 83.5868 500.301 88.2481 499.938 95.9378C499.122 102.036 496.883 106.659 492.066 110.571C485.258 115.075 479.059 115.145 471.098 115.121C470.093 115.121 469.088 115.122 468.053 115.123C464.683 115.125 461.312 115.119 457.942 115.114C455.528 115.114 453.113 115.114 450.699 115.114C445.499 115.114 440.298 115.112 435.098 115.106C427.58 115.098 420.061 115.095 412.543 115.094C400.344 115.092 388.146 115.085 375.948 115.076C364.099 115.067 352.25 115.059 340.401 115.055C339.67 115.055 338.94 115.055 338.187 115.054C334.522 115.053 330.857 115.052 327.193 115.051C296.795 115.04 266.398 115.023 236 115C236.021 115.755 236.042 116.51 236.063 117.288C236.148 120.776 236.199 124.262 236.25 127.75C236.284 128.938 236.317 130.125 236.352 131.348C236.496 144.596 233.167 154.644 223.93 164.125C215.765 171.864 207.64 175.126 196.484 175.193C195.733 175.201 194.981 175.21 194.206 175.218C191.721 175.243 189.235 175.259 186.75 175.274C185.897 175.279 185.044 175.284 184.165 175.29C179.645 175.317 175.125 175.336 170.605 175.35C166.882 175.364 163.16 175.391 159.438 175.432C154.927 175.482 150.416 175.507 145.905 175.514C144.196 175.52 142.486 175.535 140.777 175.559C127.407 175.737 116.667 173.907 106.035 165.012C97.8154 156.887 93.272 146.927 92.9195 135.358C92.9017 132.28 92.9129 129.203 92.9375 126.125C92.942 125.055 92.9465 123.985 92.9512 122.883C92.9629 120.255 92.9793 117.628 93 115C92.2432 115.007 91.4865 115.014 90.7068 115.02C83.5429 115.081 76.379 115.126 69.2149 115.156C65.5326 115.171 61.8504 115.192 58.1682 115.227C54.6085 115.259 51.049 115.277 47.4892 115.285C45.4836 115.293 43.478 115.316 41.4725 115.34C32.8262 115.342 26.0829 114.542 18.6875 109.938C14.5368 105.401 12.2179 100.572 11.8398 94.3753C12.2825 87.292 14.537 82.0074 19.875 77.1878C24.9647 73.625 29.4059 72.7489 35.5562 72.7732C37.4775 72.7735 37.4775 72.7735 39.4376 72.7737C40.8204 72.7839 42.2032 72.7943 43.5859 72.805C45.0123 72.8087 46.4386 72.8115 47.8649 72.8135C51.6033 72.8211 55.3416 72.8408 59.08 72.8629C62.9009 72.8835 66.7219 72.8926 70.543 72.9026C78.0287 72.924 85.5143 72.9581 93 73.0003C92.9944 72.3415 92.9889 71.6827 92.9831 71.004C92.9609 67.9871 92.9472 64.9703 92.9336 61.9534C92.9247 60.9172 92.9158 59.8809 92.9066 58.8133C92.8605 45.1384 95.3883 34.3385 104.883 23.9378C116.869 12.6796 130.738 11.6821 146.43 11.6995Z" fill="#225D5C"/>
</svg>
