<svg width="512" height="512" viewBox="0 0 512 512" fill="none" xmlns="http://www.w3.org/2000/svg">
<path d="M201.593 335.458C218.453 341.599 235.383 347.154 252.902 351.129C253.646 351.301 254.389 351.473 255.155 351.65C257.062 352.082 258.976 352.484 260.891 352.883C265.488 354.534 267.863 357.549 270.812 361.312C272.98 366.218 272.597 370.367 270.812 375.25C268.186 379.235 265.531 381.49 261 383C251.173 384.447 241.357 380.764 232 378.187C230.3 377.73 228.599 377.273 226.898 376.818C219.545 374.84 212.204 372.846 204.953 370.516C201.44 369.587 198.619 369.555 195 370C192.764 371.481 192.764 371.481 192 374C191.836 377.096 191.836 377.096 193 380C197.233 383.208 202.084 384.38 207.121 385.777C208.454 386.155 208.454 386.155 209.813 386.54C212.685 387.349 215.561 388.145 218.438 388.937C219.413 389.208 220.389 389.478 221.394 389.756C252.521 398.346 278.412 404.511 308 388C314.411 384.336 320.742 380.539 327.076 376.744C336.005 371.418 345.011 366.223 354 361C355.658 360.035 355.658 360.035 357.35 359.051C363.949 355.214 370.558 351.394 377.186 347.608C378.917 346.619 380.646 345.627 382.373 344.63C393.91 337.994 406.346 332.15 420 334C425.289 335.763 427.8 338.611 431 343C432.795 348.384 432.497 353.344 430.875 358.75C426.595 366.168 418.38 369.996 411.25 374.312C410.092 375.018 408.935 375.725 407.777 376.431C405.377 377.897 402.975 379.361 400.572 380.823C395.035 384.194 389.519 387.599 384 391C381.833 392.333 379.667 393.667 377.5 395C376.428 395.66 375.355 396.32 374.25 397C362.333 404.333 350.417 411.667 338.5 419C337.427 419.66 336.354 420.32 335.249 421.001C333.087 422.331 330.925 423.661 328.763 424.991C323.27 428.371 317.778 431.753 312.289 435.14C306.877 438.48 301.458 441.808 296.036 445.132C293.109 446.933 290.191 448.749 287.273 450.566C285.516 451.649 283.758 452.731 282 453.812C280.845 454.541 280.845 454.541 279.667 455.284C267.814 462.518 255.685 463.723 242.125 460.659C239.671 460.033 237.222 459.387 234.777 458.726C233.405 458.368 232.032 458.011 230.659 457.656C226.098 456.466 221.548 455.236 217 454C215.779 453.669 215.779 453.669 214.534 453.331C208.438 451.675 202.346 450.007 196.254 448.336C195.369 448.093 194.484 447.851 193.573 447.601C190.875 446.86 188.177 446.12 185.479 445.379C184.136 445.01 184.136 445.01 182.767 444.635C178.16 443.369 173.556 442.095 168.955 440.809C164.404 439.537 159.847 438.285 155.287 437.047C153.576 436.578 151.866 436.102 150.16 435.618C138.143 432.022 138.143 432.022 126 434C116.424 417.303 106.924 400.568 97.5425 383.76C95.2446 379.648 92.9359 375.542 90.625 371.437C90.0615 370.436 90.0615 370.436 89.4866 369.415C88.6579 367.943 87.829 366.471 87 365C90.4597 362.107 93.9518 359.75 97.875 357.531C99.0153 356.883 100.156 356.235 101.33 355.567C102.553 354.878 103.777 354.189 105 353.5C106.259 352.787 107.518 352.074 108.777 351.36C110.684 350.279 112.592 349.198 114.5 348.119C118.389 345.919 122.264 343.698 126.129 341.457C127.516 340.654 127.516 340.654 128.932 339.836C130.619 338.859 132.304 337.879 133.986 336.894C158.475 322.772 176.069 326.14 201.593 335.458Z" fill="#FFD6A8"/>
<path d="M271 16C279.025 16 286 16.1552 293.75 17.5625C294.728 17.7381 295.706 17.9138 296.714 18.0947C340.613 26.4106 377.71 47.6152 410 78C410.659 78.6162 411.317 79.2323 411.996 79.8672C448.529 115.135 470.738 168.934 472.089 219.315C472.457 241.454 472.457 241.454 471 251C472.265 250.965 473.529 250.93 474.832 250.895C476.492 250.866 478.152 250.839 479.812 250.812C480.646 250.787 481.479 250.762 482.338 250.736C483.14 250.727 483.943 250.717 484.77 250.707C485.877 250.683 485.877 250.683 487.007 250.659C489.564 251.096 490.448 251.959 492 254C491.984 258.809 489.051 261.906 486.125 265.438C485.117 266.686 484.109 267.935 483.102 269.184C482.585 269.818 482.068 270.452 481.536 271.105C479.155 274.042 476.829 277.022 474.5 280C473.595 281.151 472.69 282.302 471.785 283.453C469.831 285.94 467.881 288.43 465.934 290.922C465.432 291.563 464.931 292.203 464.414 292.863C463.451 294.094 462.488 295.326 461.527 296.559C459.763 298.811 458.025 300.975 456 303C452.87 303.089 450.834 302.746 448.455 300.619C446.8 298.719 445.267 296.762 443.75 294.75C442.901 293.665 442.901 293.665 442.036 292.557C440.341 290.383 438.669 288.193 437 286C436.108 284.845 435.215 283.692 434.32 282.539C432.704 280.448 431.096 278.35 429.496 276.246C427.688 273.877 425.841 271.544 423.973 269.223C423.467 268.591 422.961 267.96 422.44 267.309C421.462 266.091 420.479 264.877 419.49 263.667C415.243 258.36 415.243 258.36 415 255C415.33 254.01 415.66 253.02 416 252C419.003 250.498 421.791 250.907 425.125 250.938C426.406 250.947 427.688 250.956 429.008 250.965C430.489 250.982 430.489 250.982 432 251C432.728 219.278 432.728 219.278 428 188C427.823 187.243 427.647 186.485 427.465 185.705C417.078 142.514 387.719 103.724 350.098 80.5649C325.022 65.523 299.774 58.7957 271 54C271 41.46 271 28.92 271 16Z" fill="#FFD6A8"/>
<path d="M332.875 227.375C348.808 241.139 361.157 261.162 365 282C364.683 285.742 364.485 287.421 362.062 290.313C358.407 293.303 355.472 293.151 350.928 293.154C350.192 293.159 349.455 293.163 348.696 293.168C346.215 293.181 343.734 293.187 341.253 293.193C339.479 293.201 337.705 293.209 335.931 293.218C330.095 293.244 324.258 293.26 318.422 293.274C316.414 293.279 314.406 293.285 312.399 293.29C304.049 293.312 295.698 293.33 287.348 293.342C275.373 293.358 263.399 293.391 251.424 293.448C243.009 293.487 234.593 293.506 226.178 293.512C221.15 293.515 216.122 293.527 211.094 293.56C206.362 293.59 201.632 293.596 196.901 293.584C195.165 293.584 193.429 293.592 191.693 293.61C189.321 293.633 186.951 293.624 184.579 293.608C183.551 293.629 183.551 293.629 182.502 293.65C177.008 293.56 174.711 291.769 171 288C169.145 281.669 171.615 274.739 173.937 268.813C174.251 267.996 174.564 267.178 174.888 266.336C180.24 252.902 187.747 242.122 198 232C198.813 231.188 199.627 230.376 200.465 229.539C236.94 194.896 295.039 195.949 332.875 227.375Z" fill="#FFD6A8"/>
<path d="M299.664 105.004C310.893 114.486 316.893 126.09 318.379 140.734C318.875 156.161 314.194 169.464 303.688 180.812C292.9 190.855 278.984 195.375 264.473 195.211C250.655 194.372 238.329 188.193 229 178C219.588 165.736 216.01 152.662 217.203 137.402C218.886 124.981 225.494 113.126 235 105C255.203 90.7092 279.611 89.9198 299.664 105.004Z" fill="#FFD6A8"/>
<path d="M55.3125 348C56.0511 348.021 56.7898 348.041 57.5508 348.063C64.7325 350.812 68.2817 359.734 71.625 366.125C72.6831 368.105 73.7431 370.084 74.8047 372.063C75.338 373.059 75.8714 374.056 76.4209 375.082C78.7952 379.47 81.2636 383.8 83.75 388.125C84.4785 389.394 84.4785 389.394 85.2217 390.689C86.2536 392.486 87.2862 394.282 88.3193 396.077C91.5124 401.63 94.6947 407.19 97.875 412.75C98.2126 413.34 98.5502 413.931 98.8981 414.539C104.377 424.12 109.814 433.724 115.172 443.374C117.679 447.887 120.203 452.377 122.871 456.797C123.299 457.517 123.727 458.238 124.168 458.98C124.934 460.261 125.714 461.534 126.513 462.794C129.278 467.463 130.031 471.72 129 477C125.353 483.344 119.044 486.36 112.812 489.875C111.822 490.468 110.831 491.061 109.811 491.672C103.588 495.214 98.2125 497.648 91 496C84.2112 492.331 81.3845 485.106 77.875 478.5C77.2131 477.278 76.5498 476.056 75.885 474.835C74.8774 472.984 73.8706 471.132 72.8685 469.278C69.9755 463.928 66.9767 458.644 63.9375 453.375C59.5726 445.779 55.2718 438.149 51 430.5C46.636 422.69 42.2506 414.893 37.8125 407.125C37.3306 406.279 36.8488 405.432 36.3523 404.56C33.8975 400.261 31.4034 395.992 28.8438 391.754C28.3348 390.902 27.8259 390.051 27.3015 389.173C26.342 387.572 25.3716 385.976 24.3879 384.389C21.4656 379.489 20.2267 375.728 20 370C22.6283 360.614 34.6082 356.452 42.5027 351.983C46.8862 349.537 50.2483 347.72 55.3125 348ZM44.5625 374.125C42.7513 376.912 42.7513 376.912 43 380.125C44.1517 383.436 44.8848 384.443 48 386C50.5 386.583 50.5 386.583 53 386C55.437 384.48 55.437 384.48 57 382C57.612 378.328 57.4871 376.712 55.375 373.625C53.0516 371.801 53.0516 371.801 50 371.438C46.8537 371.765 46.8537 371.765 44.5625 374.125Z" fill="#FFD6A8"/>
<path d="M140 51C140.403 51.7207 140.806 52.4413 141.222 53.1838C142.735 55.8882 144.248 58.5925 145.762 61.2966C146.732 63.0303 147.702 64.7642 148.672 66.498C149.291 67.6034 149.909 68.7088 150.547 69.8477C151.144 70.9165 151.742 71.9852 152.357 73.0864C153.7 75.4671 155.068 77.8279 156.453 80.1836C158 83 158 83 158 85C156.297 86.3735 154.535 87.6723 152.75 88.9375C146.027 93.8182 140.011 99.2787 134 105C133.366 105.581 132.732 106.163 132.078 106.762C124.822 113.621 118.947 122.011 113 130C106.642 128.079 101.267 124.927 95.5488 121.605C93.7461 120.56 91.936 119.529 90.125 118.498C88.9855 117.84 87.8459 117.182 86.6719 116.504C85.111 115.604 85.111 115.604 83.5186 114.686C81 113 81 113 79 110C93.5356 88.7052 110.63 70.5821 131.562 55.4375C132.171 54.9953 132.779 54.553 133.406 54.0974C137.758 51 137.758 51 140 51Z" fill="#FFD6A8"/>
<path d="M65 134C71.1079 136.268 76.6405 139.609 82.2852 142.822C84.2529 143.939 86.2278 145.043 88.2031 146.146C89.4536 146.856 90.7036 147.566 91.9531 148.277C93.0891 148.919 94.2251 149.561 95.3955 150.222C98 152 98 152 99 155C98.4744 156.796 98.4744 156.796 97.5586 158.824C97.2249 159.594 96.8912 160.363 96.5474 161.156C95.998 162.409 95.998 162.409 95.4375 163.688C89.0682 178.902 85.0311 194.959 83.3242 211.367C83 214 83 214 82 216C69.46 216 56.92 216 44 216C44 187.469 52.2817 159.437 65 134Z" fill="#FFD6A8"/>
<path d="M44 243C56.54 243 69.08 243 82 243C82.7219 247.104 83.4438 251.209 84.1875 255.438C87.3655 272.84 92.3582 288.635 99 305C96.3405 308.044 93.1787 309.77 89.6875 311.758C89.0774 312.106 88.4672 312.455 87.8386 312.814C86.5523 313.547 85.2645 314.278 83.9756 315.007C82.0038 316.123 80.0368 317.246 78.0703 318.371C68.4335 323.855 68.4335 323.855 65 325C52.0955 299.836 44 271.33 44 243Z" fill="#FFD6A8"/>
<path d="M244 15.9998C244 28.5398 244 41.0798 244 53.9998C238.802 54.7733 238.802 54.7733 233.5 55.5623C215.353 58.4722 197.837 63.6335 181 70.9998C180.383 69.9467 179.765 68.8935 179.129 67.8084C178.274 66.3513 177.418 64.8943 176.562 63.4373C176.116 62.6761 175.67 61.9148 175.209 61.1304C172.942 57.2719 170.66 53.4242 168.332 49.6014C167.918 48.9202 167.504 48.239 167.078 47.5372C166.287 46.2385 165.492 44.942 164.694 43.648C162 39.2206 162 39.2206 162 36.9998C181.898 26.796 203.046 20.8731 225 16.9998C226.133 16.7923 227.266 16.5848 228.434 16.3709C233.596 15.8338 238.81 15.9998 244 15.9998Z" fill="#FFD6A8"/>
</svg>
