<svg width="512" height="512" viewBox="0 0 512 512" fill="none" xmlns="http://www.w3.org/2000/svg">
<path d="M253.456 15.5542C255.863 15.5627 258.268 15.5339 260.676 15.5022C273.824 15.4413 284.183 17.6092 294 27.0002C299.97 33.353 303.724 39.7512 304.188 48.5627C304.126 49.3671 304.064 50.1715 304 51.0002C305.035 50.9654 305.035 50.9654 306.09 50.9299C314.405 50.7702 321.358 50.7991 328.101 56.0408C333.328 59.5966 337.569 59.8348 343.765 59.7256C344.802 59.7314 345.839 59.7372 346.907 59.7432C350.308 59.7559 353.708 59.7273 357.109 59.6994C359.484 59.7031 361.858 59.7098 364.232 59.7194C370.464 59.7384 376.696 59.7245 382.928 59.7009C392.916 59.6664 402.904 59.6723 412.893 59.697C416.379 59.6994 419.864 59.6816 423.351 59.6618C425.485 59.6615 427.619 59.6619 429.753 59.6631C430.721 59.6522 431.69 59.6413 432.688 59.6301C437.585 59.6513 441.068 59.7186 445 63.0002C446.479 65.9582 446.13 68.6007 446.134 71.9038C446.137 72.6258 446.139 73.3478 446.141 74.0918C446.148 76.536 446.148 78.9802 446.147 81.4244C446.151 83.1845 446.154 84.9447 446.158 86.7049C446.168 91.5611 446.172 96.4173 446.175 101.273C446.179 106.503 446.188 111.733 446.197 116.963C446.217 129.601 446.227 142.24 446.236 154.878C446.24 160.824 446.245 166.77 446.251 172.716C446.268 192.47 446.282 212.224 446.289 231.979C446.291 237.108 446.293 242.236 446.295 247.365C446.296 248.64 446.296 249.915 446.297 251.228C446.305 271.896 446.33 292.563 446.363 313.231C446.396 334.43 446.414 355.629 446.417 376.828C446.419 388.738 446.428 400.649 446.454 412.56C446.475 422.7 446.483 432.839 446.474 442.98C446.469 448.157 446.471 453.334 446.49 458.511C446.508 463.246 446.507 467.98 446.491 472.715C446.489 474.432 446.493 476.15 446.505 477.867C446.52 480.193 446.511 482.518 446.495 484.845C446.496 486.139 446.497 487.434 446.498 488.768C446 492 446 492 444.362 494.416C441.295 496.473 439.393 496.501 435.709 496.503C433.757 496.519 433.757 496.519 431.766 496.535C430.318 496.526 428.871 496.517 427.423 496.508C425.888 496.513 424.353 496.519 422.818 496.527C418.594 496.544 414.369 496.535 410.144 496.523C405.591 496.514 401.037 496.528 396.484 496.539C387.561 496.557 378.638 496.553 369.715 496.541C362.465 496.532 355.215 496.531 347.965 496.535C346.418 496.536 346.418 496.536 344.841 496.537C342.747 496.538 340.654 496.54 338.56 496.541C318.914 496.552 299.268 496.539 279.621 496.518C262.753 496.5 245.886 496.503 229.018 496.521C209.443 496.543 189.869 496.551 170.294 496.539C168.208 496.538 166.122 496.536 164.036 496.535C162.496 496.534 162.496 496.534 160.925 496.533C153.681 496.53 146.437 496.536 139.194 496.545C130.369 496.556 121.545 496.553 112.721 496.532C108.216 496.522 103.711 496.517 99.2067 496.531C95.0862 496.543 90.9662 496.536 86.8457 496.515C85.3518 496.51 83.8579 496.513 82.3641 496.522C80.3396 496.534 78.3151 496.52 76.2907 496.503C75.1644 496.503 74.038 496.502 72.8775 496.501C70 496 70 496 67.6382 494.415C65.3931 491.105 65.4998 488.839 65.4995 484.85C65.4912 483.764 65.4912 483.764 65.4828 482.655C65.4691 480.215 65.4841 477.776 65.4988 475.335C65.4949 473.573 65.4893 471.812 65.4821 470.05C65.4673 465.198 65.4775 460.346 65.4918 455.495C65.5029 450.266 65.491 445.038 65.482 439.809C65.468 429.563 65.4756 419.316 65.4906 409.07C65.5075 397.146 65.5043 385.221 65.5005 373.297C65.4947 352.026 65.5089 330.755 65.5335 309.484C65.5574 288.828 65.5645 268.172 65.554 247.516C65.5426 225.041 65.5406 202.566 65.5551 180.091C65.5566 177.696 65.5581 175.301 65.5597 172.905C65.5604 171.727 65.5612 170.548 65.5619 169.334C65.5667 161.016 65.5648 152.698 65.5606 144.379C65.5557 134.247 65.5616 124.114 65.5815 113.981C65.5914 108.808 65.5964 103.635 65.5886 98.4625C65.5816 93.7315 65.5883 89.0006 65.6062 84.2696C65.6103 82.5537 65.6092 80.8377 65.6027 79.1217C65.5946 76.7975 65.6048 74.474 65.6197 72.1498C65.6208 70.8564 65.6218 69.563 65.6228 68.2303C66.0249 64.787 66.5359 63.3932 69 61.0002C71.8014 60.0664 73.4692 59.8774 76.3624 59.8824C77.2538 59.8812 78.1452 59.8801 79.0637 59.879C80.5271 59.8845 80.5271 59.8845 82.0201 59.8901C84.1544 59.8896 86.2886 59.889 88.4229 59.8883C89.5565 59.8898 90.6901 59.8912 91.8581 59.8927C97.8586 59.8962 103.859 59.8704 109.859 59.8498C117.497 59.8255 125.133 59.8098 132.771 59.8252C138.94 59.8368 145.11 59.8194 151.279 59.7827C153.628 59.7741 155.976 59.7762 158.324 59.7892C161.618 59.8062 164.91 59.7859 168.204 59.7573C169.167 59.7711 170.131 59.7849 171.123 59.7991C177.384 59.6942 181.03 58.2704 185.984 54.4204C192.263 49.9976 200.674 50.7537 208 51.0002C207.918 50.0515 207.835 49.1027 207.75 48.1252C207.84 39.1448 212.627 32.4647 218.641 26.1955C228.835 16.7104 240.079 15.4822 253.456 15.5542ZM229 40.0002C224.24 45.5935 224.458 51.5024 224.273 58.5744C224.023 61.7093 223.756 63.4407 222 66.0002C219.579 67.2106 217.977 67.1408 215.273 67.176C213.848 67.2118 213.848 67.2118 212.395 67.2483C210.405 67.2907 208.416 67.3222 206.426 67.342C199.898 67.5309 195.577 68.5359 190 72.0002C188.506 74.9873 188.694 78.0376 188.625 81.3127C188.576 82.6288 188.527 83.945 188.477 85.301C189.118 89.8344 190.483 91.1854 194 94.0002C196.442 95.221 198.026 95.1341 200.756 95.1474C202.262 95.1581 202.262 95.1581 203.798 95.1691C204.903 95.1718 206.009 95.1744 207.148 95.1772C208.309 95.1838 209.47 95.1904 210.666 95.1971C214.522 95.2169 218.378 95.2285 222.234 95.2385C224.206 95.2446 224.206 95.2446 226.218 95.2508C232.458 95.2699 238.697 95.2841 244.937 95.2925C252.136 95.3022 259.335 95.3285 266.535 95.369C272.101 95.3991 277.667 95.4139 283.233 95.4172C286.557 95.4196 289.88 95.4305 293.203 95.4537C296.914 95.478 300.624 95.4771 304.335 95.4702C305.432 95.483 306.53 95.4958 307.66 95.509C313.733 95.4675 317.408 95.1246 322 91.0002C323.501 87.9973 323.266 84.9171 323.313 81.6252C323.342 80.9523 323.371 80.2794 323.4 79.5862C323.443 76.2702 323.262 74.3614 321.293 71.6486C317.281 68.7646 313.713 67.7607 308.805 67.6916C307.842 67.6665 306.879 67.6413 305.887 67.6154C303.871 67.5802 301.856 67.5489 299.84 67.5217C298.88 67.4953 297.919 67.4688 296.93 67.4416C296.056 67.4282 295.181 67.4147 294.281 67.4008C291.546 66.9205 290.693 66.1555 289 64.0002C287.521 61.0414 287.882 58.2327 287.813 54.9377C287.46 47.978 286.218 42.8601 281 38.0002C266.822 28.3459 242.128 28.533 229 40.0002ZM83 77.0002C83 209.99 83 342.98 83 480C197.18 480 311.36 480 429 480C429 347.01 429 214.02 429 77.0002C399.63 77.0002 370.26 77.0002 340 77.0002C339.67 82.2802 339.34 87.5602 339 93.0002C341.703 93.0299 341.703 93.0299 344.46 93.0603C350.412 93.128 356.363 93.2048 362.314 93.2877C365.922 93.3377 369.53 93.384 373.139 93.4221C376.621 93.4589 380.103 93.5053 383.584 93.5583C385.56 93.5859 387.536 93.6036 389.512 93.6212C390.713 93.641 391.914 93.6609 393.152 93.6814C394.74 93.7014 394.741 93.7014 396.361 93.7217C399 94.0002 399 94.0002 402 96.0002C403.055 99.1649 403.127 101.391 403.131 104.715C403.135 105.913 403.139 107.111 403.143 108.346C403.142 109.682 403.141 111.019 403.14 112.355C403.143 113.77 403.146 115.185 403.149 116.599C403.158 120.495 403.159 124.392 403.16 128.288C403.162 132.486 403.169 136.685 403.176 140.883C403.19 150.067 403.196 159.25 403.2 168.434C403.203 174.165 403.207 179.896 403.212 185.627C403.224 201.486 403.234 217.345 403.238 233.204C403.238 234.219 403.238 235.235 403.238 236.281C403.238 237.298 403.239 238.316 403.239 239.365C403.239 241.427 403.24 243.49 403.24 245.552C403.24 246.575 403.241 247.598 403.241 248.652C403.245 265.239 403.262 281.826 403.286 298.413C403.309 315.431 403.322 332.449 403.323 349.467C403.324 359.027 403.33 368.587 403.348 378.147C403.363 386.285 403.368 394.423 403.36 402.561C403.356 406.715 403.357 410.869 403.371 415.024C403.384 418.824 403.383 422.624 403.371 426.424C403.369 427.802 403.372 429.18 403.38 430.557C403.391 432.424 403.382 434.292 403.372 436.159C403.373 437.198 403.373 438.237 403.374 439.307C402.939 442.441 402.247 443.791 400 446C397.087 447.147 394.257 447.126 391.149 447.129C390.169 447.132 389.188 447.135 388.179 447.138C387.104 447.137 386.03 447.135 384.923 447.134C383.78 447.136 382.636 447.138 381.458 447.141C378.285 447.146 375.111 447.147 371.937 447.145C368.514 447.145 365.092 447.151 361.669 447.155C354.963 447.164 348.258 447.166 341.553 447.167C336.103 447.168 330.654 447.17 325.204 447.173C309.759 447.182 294.313 447.186 278.868 447.185C278.035 447.185 277.202 447.185 276.344 447.185C275.093 447.185 275.093 447.185 273.817 447.185C260.299 447.185 246.782 447.194 233.264 447.208C219.388 447.223 205.513 447.23 191.637 447.229C183.845 447.229 176.053 447.231 168.261 447.242C161.628 447.251 154.995 447.253 148.362 447.247C144.977 447.243 141.592 447.244 138.207 447.252C134.54 447.26 130.872 447.255 127.204 447.247C126.132 447.252 125.06 447.258 123.955 447.263C122.972 447.258 121.99 447.254 120.977 447.249C120.13 447.249 119.284 447.249 118.412 447.25C115.598 446.958 113.522 446.277 111 445C108.709 441.564 108.75 440.327 108.748 436.285C108.743 435.087 108.738 433.889 108.733 432.654C108.737 431.318 108.741 429.981 108.746 428.645C108.744 427.23 108.741 425.815 108.737 424.401C108.728 420.505 108.732 416.608 108.739 412.712C108.743 408.514 108.736 404.315 108.731 400.117C108.722 391.888 108.724 383.66 108.729 375.431C108.734 368.745 108.735 362.059 108.732 355.373C108.732 354.422 108.732 353.472 108.731 352.493C108.731 350.562 108.73 348.632 108.73 346.701C108.724 328.583 108.73 310.466 108.741 292.348C108.75 276.793 108.749 261.238 108.739 245.682C108.729 227.632 108.724 209.583 108.731 191.533C108.731 189.609 108.732 187.685 108.732 185.761C108.733 184.814 108.733 183.868 108.733 182.893C108.735 176.213 108.732 169.533 108.727 162.853C108.722 154.715 108.723 146.577 108.734 138.439C108.739 134.285 108.741 130.131 108.735 125.976C108.729 122.176 108.732 118.376 108.743 114.576C108.745 113.198 108.744 111.821 108.739 110.443C108.733 108.576 108.74 106.708 108.748 104.841C108.749 103.802 108.749 102.763 108.749 101.693C109.006 98.9372 109.494 97.3052 111 95.0002C113.644 93.6781 115.682 93.839 118.643 93.7949C119.824 93.7749 121.005 93.755 122.222 93.7345C123.502 93.7177 124.783 93.701 126.102 93.6838C127.408 93.663 128.715 93.6422 130.061 93.6208C133.537 93.5656 137.012 93.5162 140.488 93.468C144.033 93.4178 147.579 93.3621 151.125 93.3069C158.083 93.1993 165.042 93.0983 172 93.0002C172 87.7202 172 82.4402 172 77.0002C142.63 77.0002 113.26 77.0002 83 77.0002ZM158.801 122.619C156.453 125.724 156.497 127.541 156.492 131.414C156.486 132.056 156.48 132.698 156.473 133.359C156.457 135.507 156.47 137.654 156.482 139.803C156.477 141.344 156.47 142.885 156.461 144.425C156.443 148.609 156.45 152.793 156.463 156.977C156.473 161.354 156.463 165.731 156.457 170.108C156.45 177.458 156.46 184.809 156.479 192.16C156.5 200.66 156.493 209.16 156.471 217.66C156.453 224.956 156.451 232.252 156.461 239.548C156.467 243.907 156.468 248.265 156.455 252.624C156.443 256.721 156.451 260.818 156.474 264.916C156.48 266.42 156.478 267.925 156.469 269.429C156.458 271.482 156.472 273.533 156.492 275.586C156.494 276.734 156.495 277.883 156.497 279.067C156.808 282.05 156.808 282.05 158.553 284.369C161.88 286.587 164.8 286.556 168.667 286.508C169.444 286.514 170.22 286.52 171.02 286.527C173.624 286.543 176.228 286.53 178.832 286.518C180.698 286.523 182.564 286.53 184.43 286.539C189.5 286.557 194.57 286.55 199.64 286.537C204.942 286.527 210.244 286.537 215.546 286.543C224.45 286.55 233.355 286.541 242.259 286.521C252.559 286.5 262.858 286.507 273.158 286.529C281.995 286.547 290.833 286.55 299.67 286.539C304.951 286.533 310.231 286.532 315.512 286.545C320.476 286.557 325.44 286.549 330.405 286.526C332.228 286.52 334.052 286.522 335.876 286.531C338.362 286.542 340.847 286.528 343.333 286.508C344.058 286.517 344.783 286.526 345.529 286.535C348.913 286.482 350.712 286.217 353.448 284.156C355.223 282.025 355.223 282.025 355.5 279C354.892 275.349 353.896 274.234 351 272C347.467 270.822 344.688 270.877 340.958 270.88C340.236 270.879 339.515 270.878 338.772 270.877C336.349 270.876 333.926 270.881 331.503 270.886C329.769 270.887 328.034 270.887 326.3 270.886C321.585 270.886 316.871 270.892 312.156 270.899C307.232 270.905 302.307 270.905 297.382 270.907C288.054 270.91 278.725 270.918 269.397 270.928C258.778 270.939 248.159 270.945 237.54 270.95C215.693 270.96 193.847 270.978 172 271C172.003 270.262 172.006 269.525 172.008 268.765C172.075 250.821 172.124 232.877 172.155 214.933C172.171 206.256 172.192 197.578 172.226 188.901C172.256 181.338 172.276 173.774 172.282 166.211C172.286 162.206 172.295 158.202 172.317 154.197C172.338 150.427 172.344 146.657 172.339 142.887C172.34 141.504 172.346 140.121 172.358 138.738C172.373 136.848 172.367 134.958 172.361 133.068C172.365 131.482 172.365 131.482 172.369 129.864C171.906 126.268 170.582 123.582 168 121C163.077 120.489 163.077 120.489 158.801 122.619ZM315.988 152.133C307.456 152.301 307.456 152.301 300 156C298.341 158.809 298.341 158.809 298 162C298.701 164.892 298.701 164.892 301 167C302.974 167.701 302.974 167.701 305.133 168.141C306.409 168.424 307.685 168.708 309 169C305.874 172.151 302.745 175.298 299.613 178.442C298.551 179.509 297.49 180.577 296.43 181.645C290.991 187.129 285.564 192.572 279.646 197.547C277.887 199.1 276.337 200.773 274.75 202.5C272 205 272 205 270.207 204.969C266.981 203.553 264.549 201.311 261.938 199C260.777 197.995 259.615 196.991 258.453 195.988C257.584 195.233 257.584 195.233 256.697 194.463C253.353 191.58 249.935 188.789 246.496 186.02C244.904 184.731 243.331 183.418 241.785 182.074C241.114 181.513 240.442 180.953 239.75 180.375C239.188 179.888 238.626 179.4 238.047 178.898C234.677 177.419 232.508 178.04 229 179C226.37 180.694 224.152 182.738 221.875 184.875C220.555 186.066 219.235 187.256 217.914 188.445C217.258 189.044 216.602 189.642 215.927 190.259C213.09 192.822 210.177 195.291 207.25 197.75C206.717 198.2 206.184 198.651 205.634 199.115C202.282 201.941 198.899 204.73 195.5 207.5C194.626 208.219 193.752 208.939 192.852 209.68C190.738 211.399 188.61 213.085 186.461 214.758C185.265 215.713 184.07 216.669 182.875 217.625C182.306 218.056 181.737 218.487 181.15 218.932C178.142 221.373 177.035 222.871 176.008 226.648C175.689 230.136 175.689 230.136 178 233C180.849 235.301 180.849 235.301 184.242 234.992C189.064 233.719 191.549 231.481 195.125 228.125C196.445 226.934 197.765 225.744 199.086 224.555C200.07 223.657 200.07 223.657 201.073 222.741C203.91 220.178 206.823 217.709 209.75 215.25C210.279 214.804 210.808 214.358 211.353 213.898C226.343 201.275 226.343 201.275 234 196C235.321 197.118 236.642 198.235 237.962 199.353C239.126 200.337 240.29 201.322 241.454 202.305C244.467 204.853 247.477 207.405 250.477 209.969C253.635 212.666 256.813 215.337 260 218C260.786 218.668 261.573 219.335 262.383 220.023C263.061 220.573 263.739 221.122 264.438 221.688C264.993 222.145 265.549 222.603 266.121 223.074C268.9 224.444 270.946 224.353 274 224C276.219 222.732 276.219 222.732 278.188 220.688C279.034 219.879 279.881 219.071 280.754 218.238C281.839 217.161 282.92 216.082 284 215C284.72 214.281 285.441 213.562 286.183 212.822C289.48 209.529 292.777 206.236 296.048 202.917C300.307 198.609 304.64 194.487 309.236 190.541C311.584 188.49 313.764 186.297 315.938 184.063C317.273 182.69 318.622 181.33 320 180C320.33 180 320.66 180 321 180C321.083 181.258 321.165 182.516 321.25 183.813C321.621 186.682 321.783 187.743 323.688 190C326.735 191.318 328.71 191.48 332 191C334.579 188.957 335.829 187.668 336.654 184.454C336.723 183.514 336.792 182.574 336.863 181.605C336.945 180.567 337.027 179.529 337.111 178.459C337.178 177.379 337.244 176.3 337.313 175.188C337.398 174.12 337.484 173.052 337.572 171.951C338.577 162.318 338.577 162.318 335.301 153.582C332.365 151.564 330.729 151.558 327.188 151.688C326.047 151.726 324.906 151.765 323.73 151.805C321.148 151.94 318.573 152.049 315.988 152.133ZM143 321C140.896 325.207 141.691 330.638 141.65 335.266C141.633 336.625 141.606 337.984 141.568 339.343C141.513 341.307 141.494 343.273 141.477 345.238C141.457 346.414 141.437 347.59 141.417 348.802C142.188 353.03 143.571 354.466 147 357C150.01 357.713 150.01 357.713 153.254 357.559C155.03 357.548 155.03 357.548 156.842 357.537C158.07 357.504 159.298 357.471 160.563 357.438C161.794 357.432 163.026 357.426 164.295 357.42C171.493 357.589 171.493 357.589 178 355C181.365 349.952 180.369 344.053 180.375 338.125C180.412 336.205 180.412 336.205 180.449 334.246C180.453 333.012 180.457 331.779 180.461 330.508C180.469 329.38 180.477 328.252 180.486 327.09C179.893 323.318 178.68 321.676 176 319C171.016 317.339 165.843 317.774 160.625 317.75C159.488 317.729 158.351 317.709 157.18 317.688C156.081 317.682 154.983 317.677 153.852 317.672C152.348 317.658 152.348 317.658 150.815 317.644C147.53 318.06 145.659 319.058 143 321ZM264 323C263.579 327.098 263.628 331.203 263.629 335.321C263.625 337.361 263.589 339.398 263.551 341.438C263.547 342.724 263.543 344.01 263.539 345.336C263.531 346.517 263.523 347.698 263.514 348.916C264.095 352.605 265.105 353.727 268 356C272.315 358.157 278.074 357.23 282.813 357.25C284.596 357.281 284.596 357.281 286.416 357.312C288.138 357.32 288.138 357.32 289.895 357.328C290.945 357.337 291.995 357.347 293.077 357.356C296.428 356.948 298.297 355.989 301 354C303.107 349.785 302.268 344.315 302.295 339.679C302.312 337.639 302.356 335.601 302.4 333.562C302.413 331.633 302.413 331.633 302.426 329.664C302.44 328.483 302.455 327.302 302.47 326.084C301.904 322.372 300.95 321.247 298 319C293.156 317.385 288.197 317.774 283.125 317.75C282.036 317.729 280.947 317.709 279.824 317.688C278.245 317.68 278.245 317.68 276.633 317.672C275.673 317.663 274.712 317.653 273.723 317.644C269.552 318.19 266.932 320.068 264 323ZM189 334C187.838 336.394 187.838 336.394 188 339C189.751 342.713 189.751 342.713 193 345C194.76 345.116 196.525 345.17 198.288 345.193C199.393 345.209 200.498 345.225 201.636 345.242C206.692 345.286 211.747 345.327 216.802 345.35C219.471 345.363 222.138 345.394 224.807 345.432C228.649 345.487 232.49 345.509 236.332 345.523C238.121 345.557 238.121 345.557 239.947 345.592C246.646 345.783 246.646 345.783 252.284 342.694C254.306 340.022 254.306 340.022 254.125 336.375C253.326 332.916 253.326 332.916 250.77 331.314C247.762 329.887 245.863 329.615 242.555 329.596C241.49 329.583 240.426 329.571 239.329 329.558C238.189 329.56 237.049 329.563 235.875 329.566C234.106 329.559 234.106 329.559 232.3 329.551C229.809 329.544 227.318 329.545 224.826 329.554C221.014 329.562 217.203 329.534 213.391 329.502C210.969 329.5 208.547 329.501 206.125 329.504C204.416 329.487 204.416 329.487 202.671 329.47C194.959 329.438 194.959 329.438 189 334ZM311 334C310.25 337.5 310.25 337.5 311 341C313.055 343.658 314.243 344.851 317.573 345.508C319.03 345.513 319.03 345.513 320.515 345.518C322.173 345.536 322.173 345.536 323.863 345.556C325.052 345.548 326.24 345.54 327.465 345.531C329.303 345.537 329.303 345.537 331.178 345.543C333.77 345.546 336.361 345.538 338.953 345.521C342.919 345.5 346.883 345.521 350.85 345.547C353.367 345.544 355.885 345.539 358.402 345.531C360.182 345.543 360.182 345.543 361.998 345.556C368.412 345.526 368.412 345.526 374.248 343.15C376.22 341.064 376.22 341.064 376.625 338.062C375.747 333.76 374.573 332.595 371 330C366.889 329.253 362.825 329.324 358.656 329.371C357.454 329.369 356.253 329.366 355.014 329.364C352.476 329.365 349.937 329.378 347.399 329.403C343.514 329.437 339.631 329.424 335.746 329.404C333.279 329.411 330.811 329.421 328.344 329.434C327.182 329.429 326.021 329.424 324.824 329.419C316.993 329.379 316.993 329.379 311 334ZM143 369C140.895 373.209 141.773 378.691 141.76 383.321C141.75 385.36 141.719 387.399 141.688 389.438C141.682 390.724 141.677 392.01 141.672 393.336C141.663 394.517 141.653 395.698 141.644 396.916C142.033 400.284 142.608 401.638 145 404C150.139 405.713 155.559 405.185 160.938 405.188C162.727 405.206 162.727 405.206 164.553 405.225C165.699 405.227 166.846 405.228 168.027 405.23C169.077 405.235 170.126 405.239 171.207 405.243C174.075 404.994 175.657 404.653 178 403C181.48 398.067 180.369 391.322 180.375 385.562C180.412 383.721 180.412 383.721 180.449 381.842C180.453 380.658 180.457 379.474 180.461 378.254C180.473 376.635 180.473 376.635 180.486 374.983C179.887 371.306 178.561 369.654 176 367C171.686 364.843 165.926 365.77 161.188 365.75C159.998 365.729 158.809 365.709 157.584 365.688C156.436 365.682 155.288 365.677 154.106 365.672C153.055 365.663 152.005 365.653 150.923 365.644C147.572 366.052 145.703 367.011 143 369ZM266 368C262.842 372.737 263.628 377.822 263.629 383.397C263.625 385.427 263.589 387.456 263.551 389.486C263.547 390.768 263.543 392.05 263.539 393.371C263.531 394.546 263.523 395.721 263.514 396.931C264.096 400.609 265.115 401.732 268 404C272.315 406.157 278.074 405.23 282.813 405.25C284.596 405.281 284.596 405.281 286.416 405.312C288.138 405.32 288.138 405.32 289.895 405.328C290.945 405.337 291.995 405.347 293.077 405.356C296.428 404.948 298.297 403.989 301 402C303.107 397.785 302.268 392.315 302.295 387.679C302.312 385.639 302.356 383.601 302.4 381.562C302.413 379.633 302.413 379.633 302.426 377.664C302.44 376.483 302.455 375.302 302.47 374.084C301.907 370.387 300.899 369.274 298 367C293.68 364.84 287.87 365.815 283.125 365.812C281.928 365.8 280.73 365.788 279.496 365.775C278.345 365.773 277.194 365.772 276.008 365.77C274.424 365.763 274.424 365.763 272.809 365.757C269.954 366.004 268.365 366.414 266 368ZM189 382C187.999 384.86 187.765 386.314 188.75 389.188C190.036 391.291 190.036 391.291 193 393C195.53 393.324 195.53 393.324 198.402 393.306C199.507 393.322 200.611 393.338 201.75 393.355C203.54 393.363 203.54 393.363 205.367 393.371C207.208 393.385 207.208 393.385 209.085 393.398C211.682 393.413 214.28 393.422 216.877 393.426C220.853 393.437 224.826 393.487 228.801 393.537C231.323 393.547 233.845 393.554 236.367 393.559C237.557 393.578 238.747 393.598 239.972 393.618C246.659 393.784 246.659 393.784 252.286 390.692C254.315 388.022 254.315 388.022 254.063 384.375C252.879 380.615 252.318 379.913 249 378C246.368 377.542 246.368 377.542 243.469 377.596C242.361 377.583 241.253 377.571 240.111 377.558C238.92 377.56 237.728 377.563 236.5 377.566C235.272 377.561 234.044 377.556 232.779 377.551C230.184 377.544 227.588 377.545 224.992 377.554C221.015 377.562 217.039 377.534 213.063 377.502C210.542 377.5 208.021 377.501 205.5 377.504C204.308 377.493 203.117 377.481 201.889 377.47C200.227 377.484 200.227 377.484 198.531 377.498C197.07 377.499 197.07 377.499 195.58 377.499C192.264 378.143 191.09 379.401 189 382ZM311 382C310.167 385.5 310.167 385.5 311 389C313.212 391.735 315.052 392.862 318.545 393.371C321.818 393.531 325.067 393.554 328.344 393.531C329.546 393.535 330.747 393.539 331.986 393.543C334.524 393.546 337.063 393.538 339.601 393.521C343.486 393.5 347.369 393.521 351.254 393.547C353.721 393.544 356.189 393.539 358.656 393.531C359.818 393.539 360.979 393.547 362.176 393.556C368.491 393.516 368.491 393.516 374.232 391.15C376.221 389.067 376.221 389.067 376.625 386.062C375.747 381.76 374.573 380.595 371 378C366.889 377.253 362.825 377.324 358.656 377.371C357.454 377.369 356.253 377.366 355.014 377.364C352.476 377.365 349.937 377.378 347.399 377.403C343.514 377.437 339.631 377.424 335.746 377.404C333.279 377.411 330.811 377.421 328.344 377.434C327.182 377.429 326.021 377.424 324.824 377.419C316.994 377.381 316.994 377.381 311 382Z" fill="#FFD6A8"/>
</svg>
