<svg width="512" height="512" viewBox="0 0 512 512" fill="none" xmlns="http://www.w3.org/2000/svg">
<path d="M346.313 25.3753C347.88 26.8825 349.42 28.4134 350.953 29.9558C352.996 31.9958 355.066 34.0058 357.143 36.0115C359.209 38.0117 361.264 40.0231 363.317 42.0369C364.343 43.0417 365.372 44.0437 366.403 45.0427C377.811 56.1212 386.018 67.814 386.366 84.1782C386.39 90.6776 386.073 96.5992 384.418 102.913C383.3 108.494 384.384 113.428 387.188 118.313C390.246 122.762 393.877 125.292 399 127C400.978 127.095 402.958 127.13 404.938 127.125C405.978 127.128 407.018 127.13 408.09 127.133C410.857 127.107 410.857 127.107 412.901 126.509C424.661 123.658 439.5 125.036 450 131C458.384 136.875 465.589 144.184 472.815 151.39C474.749 153.311 476.7 155.213 478.653 157.115C488.934 167.263 496.759 177.065 497.063 192.094C496.654 202.817 493.787 211.357 486.403 219.254C485.933 219.757 485.463 220.261 484.979 220.779C478.363 227.812 471.576 234.684 464.766 241.53C463.208 243.1 461.654 244.674 460.104 246.253C457.828 248.572 455.539 250.877 453.246 253.18C452.567 253.877 451.887 254.574 451.187 255.292C442.018 264.421 431.822 270.021 418.813 270.438C413.374 270.356 408.858 269.537 403.688 267.875C395.948 265.409 390.892 266.091 383.688 269.625C378.884 273.87 375.295 279.049 374.781 285.629C375.072 288.773 375.99 291.552 376.938 294.563C380.419 305.892 380.642 317.349 375 328C369.861 337.3 362.066 344.364 354.616 351.788C353.144 353.267 351.671 354.746 350.199 356.226C346.217 360.227 342.224 364.218 338.23 368.206C334.89 371.544 331.554 374.885 328.218 378.227C320.347 386.113 312.467 393.991 304.583 401.864C296.462 409.973 288.354 418.096 280.252 426.224C273.282 433.216 266.305 440.2 259.321 447.178C255.156 451.34 250.994 455.504 246.839 459.676C242.931 463.6 239.013 467.513 235.088 471.42C233.654 472.85 232.223 474.285 230.795 475.722C220.213 486.376 210.482 495.991 194.594 496.433C181.234 496.463 172.416 493.332 162.754 483.762C162.191 483.195 161.628 482.629 161.048 482.045C159.005 480.005 156.934 477.995 154.858 475.989C152.792 473.989 150.736 471.977 148.684 469.964C147.657 468.959 146.629 467.957 145.597 466.958C134.19 455.879 125.982 444.187 125.635 427.822C125.61 421.323 125.928 415.401 127.582 409.087C128.7 403.507 127.617 398.572 124.813 393.688C121.755 389.238 118.124 386.708 113 385C111.023 384.906 109.042 384.87 107.063 384.875C105.502 384.871 105.502 384.871 103.91 384.867C101.143 384.894 101.143 384.894 99.0991 385.491C87.3393 388.342 72.5005 386.965 62.0002 381C53.7691 375.221 46.7005 368.073 39.6125 360.983C37.7499 359.125 35.8717 357.283 33.9924 355.442C24.4823 346.023 15.9039 336.707 15.6191 322.631C15.6773 300.547 28.5698 289.128 43.3574 274.353C44.7912 272.913 46.2245 271.473 47.6575 270.032C51.5225 266.15 55.3939 262.273 59.2671 258.399C61.691 255.974 64.1135 253.547 66.5355 251.119C74.997 242.64 83.4636 234.165 91.9351 225.695C99.8144 217.817 107.683 209.927 115.545 202.033C122.316 195.237 129.094 188.448 135.878 181.665C139.921 177.622 143.962 173.576 147.994 169.522C151.785 165.712 155.585 161.912 159.393 158.119C160.784 156.73 162.171 155.338 163.555 153.942C174.603 142.803 185.214 133.246 201.688 132.563C206.594 132.664 211.004 133.692 215.688 135.063C223.22 137.225 228.743 137.882 235.813 134.25C240.596 130.874 243.116 127.5 245 122C245.614 116.735 245.525 111.807 243.5 106.875C239.783 96.9209 241.006 85.2988 245.321 75.8088C249.935 68.0928 255.88 61.8017 262.203 55.4612C263.081 54.5767 263.959 53.6922 264.863 52.7809C266.713 50.9211 268.566 49.0639 270.421 47.2092C273.24 44.3897 276.039 41.5497 278.84 38.7112C280.648 36.8977 282.456 35.0852 284.266 33.2737C285.092 32.4329 285.919 31.5922 286.77 30.7259C303.46 14.1639 327.374 8.46782 346.313 25.3753ZM265.68 159.508C263.072 163.429 262.537 167.046 262.469 171.692C263.893 177.881 269.077 182.414 273.438 186.75C273.998 187.326 274.558 187.903 275.135 188.496C279.464 192.83 282.642 194.772 288.875 195.375C293.354 195.232 296.597 193.912 300 191C303.648 186.847 304.452 182.726 304.531 177.309C303.1 171.09 297.895 166.585 293.5 162.25C292.932 161.674 292.363 161.098 291.778 160.504C291.222 159.951 290.666 159.398 290.094 158.828C289.596 158.332 289.098 157.836 288.584 157.325C284.698 154.074 281.244 153.554 276.313 153.692C271.829 154.29 268.651 156.116 265.68 159.508ZM196.551 205.43C192.317 210.307 191.852 214.063 191.86 220.268C191.857 221.014 191.854 221.759 191.851 222.527C191.842 225.033 191.841 227.539 191.839 230.044C191.834 231.838 191.829 233.632 191.824 235.425C191.811 240.304 191.804 245.182 191.8 250.06C191.797 253.107 191.793 256.154 191.789 259.201C191.775 268.731 191.765 278.262 191.761 287.793C191.757 298.799 191.739 309.805 191.71 320.811C191.689 329.316 191.679 337.82 191.677 346.325C191.676 351.405 191.67 356.486 191.652 361.567C191.636 366.346 191.634 371.126 191.643 375.905C191.643 377.659 191.639 379.412 191.629 381.166C191.616 383.561 191.622 385.956 191.633 388.352C191.625 389.044 191.617 389.737 191.608 390.45C191.662 395.682 192.941 399.743 196.5 403.645C201.464 407.51 204.718 408.426 211 408C216.259 406.107 218.79 403.402 222 399C223.166 395.504 223.145 392.369 223.141 388.732C223.144 387.987 223.147 387.241 223.15 386.473C223.158 383.967 223.16 381.462 223.161 378.956C223.166 377.162 223.171 375.369 223.176 373.575C223.19 368.697 223.196 363.819 223.2 358.941C223.203 355.894 223.207 352.847 223.212 349.8C223.226 340.269 223.235 330.738 223.239 321.208C223.244 310.202 223.261 299.196 223.29 288.189C223.312 279.685 223.322 271.18 223.323 262.676C223.324 257.595 223.33 252.514 223.348 247.434C223.364 242.654 223.367 237.875 223.358 233.095C223.357 231.342 223.361 229.588 223.371 227.835C223.384 225.439 223.378 223.045 223.368 220.649C223.376 219.956 223.384 219.264 223.392 218.55C223.339 213.318 222.059 209.257 218.5 205.356C211.514 199.916 203.345 198.727 196.551 205.43ZM318.625 214.625C316.476 219.089 315.991 223.13 317 228C319.666 232.676 323.04 236.406 326.813 240.188C327.308 240.708 327.804 241.228 328.315 241.764C332.411 245.892 336.47 248.582 342.406 249.285C348.418 248.646 352.058 246.604 356 242C358.322 238.063 358.396 234.516 358 230C355.814 224.424 352.27 220.849 348.063 216.75C347.442 216.126 346.821 215.502 346.182 214.86C341.778 210.508 338.547 207.725 332.125 207.625C325.869 207.772 322.78 210.033 318.625 214.625ZM268.563 281.75C266.468 286.107 265.06 290.086 266.601 294.861C269.412 300.653 273.234 304.836 277.813 309.313C278.499 310.015 279.186 310.717 279.893 311.44C284.559 316.071 288.671 319.557 295.442 320.25C300.971 319.599 304.119 318.252 308 314C310.774 309.348 311.612 305.516 310.742 300.239C309.294 295.87 306.228 293.165 303 290C301.938 288.896 300.878 287.789 299.821 286.68C298.673 285.494 297.525 284.309 296.375 283.125C295.825 282.553 295.275 281.981 294.708 281.392C290.847 277.503 287.75 275.367 282.188 274.625C276.473 275.298 272.376 277.448 268.563 281.75ZM106.688 295.625C104.485 298.726 103.809 300.492 103.688 304.25C103.65 304.998 103.613 305.746 103.574 306.516C104.745 313.344 111.084 318.483 115.75 323.188C116.428 323.899 117.106 324.61 117.805 325.342C122.749 330.337 127.222 333.809 134.539 334.102C140.567 332.725 143.607 330.138 147 325C148.201 322.6 148.236 320.929 148.313 318.25C148.35 317.41 148.388 316.569 148.426 315.703C147.313 308.638 140.903 303.568 136.063 298.75C135.36 298.031 134.656 297.312 133.932 296.571C133.244 295.882 132.556 295.194 131.848 294.485C131.229 293.863 130.611 293.241 129.973 292.601C126.027 289.399 122.05 288.541 116.989 288.684C112.425 289.41 109.629 292.286 106.688 295.625Z" fill="#225D5C"/>
</svg>
