<svg width="512" height="512" viewBox="0 0 512 512" fill="none" xmlns="http://www.w3.org/2000/svg">
<g clip-path="url(#clip0_300_212)">
<path d="M109.055 -0.273962C110.371 -0.281817 110.371 -0.281817 111.714 -0.289831C114.637 -0.30476 117.56 -0.305535 120.482 -0.306204C122.586 -0.313831 124.689 -0.322259 126.792 -0.331427C132.495 -0.353335 138.198 -0.362166 143.901 -0.367253C147.47 -0.370902 151.039 -0.377145 154.607 -0.384255C167.075 -0.40874 179.542 -0.421798 192.01 -0.425345C203.602 -0.428975 215.194 -0.458839 226.787 -0.500749C236.761 -0.535535 246.735 -0.550895 256.709 -0.551591C262.656 -0.552381 268.603 -0.561003 274.551 -0.589588C280.152 -0.615909 285.753 -0.617896 291.354 -0.601933C293.398 -0.600129 295.443 -0.606709 297.487 -0.622751C314.478 -0.74784 329.068 1.3351 343 12.0002C343.851 12.646 344.702 13.2918 345.578 13.9572C355.498 22.1575 362.746 33.5227 366 46.0002C366.166 46.6186 366.333 47.2371 366.504 47.8742C368.465 56.1791 368.253 64.4736 368.195 72.9455C368.192 74.5679 368.189 76.1903 368.187 77.8127C368.179 82.0508 368.16 86.2888 368.137 90.5269C368.117 94.8643 368.108 99.2018 368.098 103.539C368.076 112.026 368.042 120.513 368 129C366.904 129.002 365.808 129.003 364.679 129.005C337.978 129.041 311.277 129.101 284.576 129.184C271.664 129.224 258.751 129.256 245.839 129.271C234.581 129.284 223.323 129.311 212.065 129.355C206.107 129.377 200.15 129.393 194.192 129.392C188.576 129.391 182.962 129.409 177.347 129.441C175.293 129.45 173.239 129.452 171.185 129.446C154.339 129.406 140.138 131.064 126.973 142.809C117.426 152.856 113.686 165.38 113.733 178.91C113.726 180.364 113.726 180.364 113.719 181.848C113.706 185.082 113.708 188.316 113.709 191.55C113.703 193.875 113.697 196.2 113.689 198.524C113.671 204.83 113.667 211.136 113.665 217.442C113.664 221.386 113.66 225.329 113.654 229.272C113.637 242.33 113.628 255.387 113.629 268.444C113.629 269.498 113.629 269.498 113.629 270.574C113.63 271.63 113.63 271.63 113.63 272.707C113.63 284.105 113.611 295.502 113.583 306.9C113.554 318.624 113.541 330.348 113.542 342.073C113.543 348.646 113.537 355.22 113.516 361.794C113.497 367.98 113.496 374.166 113.511 380.353C113.513 382.616 113.508 384.879 113.496 387.143C113.408 404.781 114.682 420.217 127.312 433.813C136.637 442.56 148.293 446.144 160.801 446.158C161.688 446.163 162.574 446.168 163.487 446.173C166.457 446.189 169.426 446.197 172.396 446.206C174.525 446.215 176.653 446.225 178.782 446.236C184.563 446.263 190.343 446.284 196.124 446.304C202.164 446.325 208.205 446.353 214.245 446.38C225.684 446.429 237.124 446.474 248.563 446.518C261.586 446.567 274.608 446.622 287.631 446.677C314.421 446.791 341.21 446.898 368 447C368.018 448.418 368.031 449.835 368.042 451.253C368.049 452.042 368.057 452.832 368.065 453.645C367.605 470.354 358.456 486.041 346.621 497.254C330.919 510.537 314.857 512.453 295.145 512.404C293.038 512.41 290.931 512.417 288.824 512.425C283.126 512.443 277.428 512.442 271.729 512.436C266.96 512.433 262.192 512.439 257.423 512.445C246.167 512.459 234.91 512.458 223.654 512.446C212.068 512.435 200.482 512.449 188.895 512.476C178.924 512.498 168.953 512.504 158.981 512.499C153.036 512.495 147.091 512.498 141.146 512.515C135.552 512.53 129.959 512.526 124.365 512.508C122.321 512.504 120.278 512.507 118.234 512.517C97.7876 512.615 81.6032 508.88 66.2461 494.309C51.6601 479.317 47.527 462.565 47.619 442.225C47.6156 440.548 47.6108 438.872 47.6049 437.195C47.5924 432.616 47.5985 428.038 47.6078 423.459C47.6146 418.51 47.6041 413.561 47.5959 408.612C47.5826 398.928 47.5854 389.244 47.5941 379.56C47.6009 371.688 47.6018 363.815 47.5986 355.943C47.5981 354.821 47.5976 353.7 47.5972 352.544C47.5962 350.265 47.5952 347.986 47.5942 345.707C47.5857 324.352 47.5955 302.998 47.6116 281.643C47.625 263.331 47.6227 245.02 47.6089 226.708C47.5928 205.428 47.5865 184.148 47.5957 162.869C47.5967 160.598 47.5976 158.328 47.5986 156.057C47.599 154.94 47.5995 153.823 47.6 152.673C47.6025 144.812 47.5982 136.952 47.5911 129.092C47.5827 119.509 47.585 109.926 47.601 100.343C47.6088 95.4566 47.612 90.5701 47.602 85.6836C47.593 81.2053 47.598 76.7273 47.6139 72.2491C47.6173 70.6341 47.6156 69.0192 47.6083 67.4043C47.5312 48.9486 51.68 32.7672 64.6721 19.1328C76.8817 6.92317 91.6968 -0.325958 109.055 -0.273962ZM179.688 70.7502C177.086 75.7609 176.463 79.1683 178.062 84.6252C180.43 88.7501 183.053 91.924 187.692 93.6181C191.113 94.1844 194.526 94.204 197.984 94.2385C199.146 94.2506 199.146 94.2506 200.331 94.2629C201.968 94.2767 203.606 94.2875 205.243 94.2954C206.907 94.3069 208.571 94.3273 210.235 94.3569C212.652 94.3998 215.067 94.4158 217.484 94.426C218.585 94.4522 218.585 94.4522 219.707 94.479C225.204 94.4563 229.405 93.0439 234 90.0002C237.172 86.5908 238.248 83.9995 238.438 79.4377C238.187 74.2984 236.378 71.5509 233 67.7502C228.948 64.2045 224.262 64.8228 219.168 64.7971C218.299 64.7914 217.429 64.7857 216.534 64.7798C214.694 64.7703 212.853 64.7638 211.013 64.76C208.209 64.7503 205.404 64.7192 202.6 64.6877C200.81 64.6812 199.02 64.6759 197.23 64.6721C196.396 64.6597 195.561 64.6474 194.701 64.6347C188.357 64.6587 183.947 65.6853 179.688 70.7502Z" fill="#225D5C"/>
<path d="M142 219C143.846 219.487 143.846 219.487 145.729 219.984C151.608 221.281 157.342 221.279 163.342 221.258C165.17 221.264 165.17 221.264 167.035 221.269C170.397 221.278 173.759 221.277 177.121 221.273C180.755 221.27 184.389 221.279 188.023 221.287C194.314 221.299 200.605 221.304 206.895 221.305C215.999 221.306 225.103 221.321 234.208 221.34C248.991 221.371 263.775 221.395 278.559 221.413C279.443 221.414 280.327 221.415 281.238 221.417C291.103 221.428 300.968 221.439 310.834 221.447C314.413 221.45 317.992 221.453 321.572 221.456C322.896 221.457 322.896 221.457 324.248 221.459C338.979 221.472 353.71 221.496 368.441 221.53C377.522 221.55 386.603 221.561 395.683 221.558C401.904 221.557 408.125 221.567 414.346 221.585C417.934 221.595 421.522 221.6 425.11 221.592C429.002 221.583 432.893 221.598 436.785 221.615C437.915 221.609 439.045 221.602 440.21 221.596C447.173 221.651 453.525 222.039 459.059 226.754C459.514 227.351 459.969 227.948 460.438 228.562C460.911 229.162 461.384 229.761 461.871 230.379C464.639 234.354 464.126 238.271 464.098 242.945C464.096 244.273 464.096 244.273 464.093 245.627C464.088 248.46 464.075 251.292 464.062 254.125C464.057 256.043 464.053 257.961 464.049 259.879C464.038 264.586 464.021 269.293 464 274C463.1 274.004 462.199 274.007 461.271 274.011C452.74 274.049 444.208 274.106 435.677 274.184C431.292 274.223 426.907 274.255 422.521 274.271C418.281 274.286 414.041 274.321 409.8 274.368C408.191 274.383 406.582 274.391 404.973 274.392C389.402 274.408 376.974 277.429 365.312 288.25C355.581 298.546 352.327 310.346 352.652 324.289C353.823 336.786 359.813 348.169 369.445 356.18C382.063 365.171 394.41 366.301 409.41 366.414C410.989 366.433 412.568 366.452 414.147 366.473C418.275 366.524 422.403 366.564 426.531 366.601C430.754 366.641 434.978 366.692 439.201 366.742C447.467 366.839 455.734 366.923 464 367C464.099 372.426 464.172 377.851 464.22 383.278C464.24 385.122 464.267 386.966 464.302 388.809C464.351 391.468 464.373 394.126 464.391 396.785C464.411 397.602 464.432 398.419 464.453 399.261C464.455 405.004 463.289 408.269 460 413C455.774 416.917 452.693 418.122 446.999 418.137C445.96 418.142 444.921 418.147 443.85 418.152C442.705 418.153 441.56 418.153 440.38 418.154C438.559 418.16 438.559 418.16 436.702 418.167C433.326 418.178 429.951 418.185 426.575 418.189C422.937 418.195 419.299 418.207 415.661 418.218C406.871 418.242 398.082 418.257 389.293 418.27C386.81 418.273 384.328 418.277 381.846 418.281C366.432 418.307 351.019 418.329 335.605 418.341C332.035 418.344 328.464 418.347 324.894 418.35C323.563 418.351 323.563 418.351 322.205 418.352C307.829 418.365 293.453 418.398 279.077 418.44C264.319 418.482 249.561 418.506 234.803 418.511C226.516 418.515 218.229 418.526 209.943 418.559C202.885 418.587 195.828 418.598 188.771 418.587C185.171 418.582 181.571 418.585 177.971 418.609C174.066 418.636 170.161 418.624 166.255 418.608C165.121 418.622 163.987 418.636 162.818 418.65C156.087 418.582 150.939 417.871 146 413C142.318 408.037 141.417 403.093 141.519 396.977C141.516 396.21 141.512 395.444 141.509 394.654C141.502 392.108 141.524 389.563 141.546 387.018C141.547 385.184 141.546 383.35 141.544 381.517C141.543 376.554 141.566 371.592 141.594 366.63C141.619 361.438 141.622 356.247 141.627 351.055C141.639 341.231 141.672 331.407 141.712 321.583C141.757 310.395 141.779 299.208 141.799 288.02C141.84 265.014 141.911 242.007 142 219Z" fill="#225D5C"/>
<path d="M161.077 157.866C162.108 157.862 163.138 157.857 164.2 157.853C165.331 157.853 166.462 157.853 167.627 157.853C168.829 157.85 170.031 157.846 171.27 157.842C174.609 157.833 177.948 157.828 181.287 157.826C184.888 157.822 188.488 157.812 192.089 157.804C200.785 157.784 209.48 157.774 218.176 157.765C222.271 157.76 226.366 157.755 230.462 157.75C244.076 157.733 257.69 157.718 271.304 157.711C274.836 157.709 278.368 157.707 281.9 157.705C283.217 157.705 283.217 157.705 284.56 157.704C298.784 157.696 313.008 157.67 327.232 157.638C341.836 157.605 356.441 157.587 371.045 157.583C379.245 157.581 387.444 157.573 395.644 157.547C402.626 157.525 409.608 157.517 416.59 157.527C420.152 157.532 423.713 157.53 427.274 157.51C431.138 157.489 435.002 157.5 438.866 157.513C439.987 157.502 441.109 157.491 442.265 157.479C449.66 157.54 455.164 158.572 460.864 163.666C464.92 169.989 464.574 176.182 464.312 183.5C464.29 184.704 464.267 185.908 464.244 187.149C464.186 190.101 464.104 193.05 464 196C457.28 195.06 457.28 195.06 454.504 194.473C449.355 193.779 444.247 193.865 439.057 193.876C437.845 193.874 436.632 193.873 435.383 193.872C432.726 193.869 430.069 193.869 427.412 193.871C423.088 193.875 418.764 193.872 414.44 193.869C408.976 193.865 403.511 193.863 398.047 193.862C387.309 193.862 376.571 193.85 365.833 193.833C364.142 193.83 362.451 193.828 360.759 193.825C358.196 193.821 355.633 193.817 353.07 193.813C343.412 193.798 333.753 193.785 324.095 193.772C322.771 193.771 322.771 193.771 321.42 193.769C307.112 193.751 292.804 193.749 278.496 193.75C263.801 193.752 249.106 193.734 234.411 193.699C225.35 193.679 216.289 193.673 207.228 193.688C201.018 193.696 194.808 193.686 188.598 193.662C185.017 193.649 181.435 193.644 177.853 193.66C173.968 193.678 170.083 193.657 166.197 193.633C165.069 193.644 163.94 193.656 162.778 193.667C156.049 193.585 151.067 192.675 146 188C142.244 182.809 141.297 178.326 142 172C143.75 166.031 146.825 162.317 152 159C155.072 158.035 157.867 157.873 161.077 157.866Z" fill="#225D5C"/>
<path d="M400.312 302.546C401.006 302.545 401.699 302.544 402.414 302.544C404.681 302.547 406.948 302.578 409.215 302.609C410.797 302.617 412.378 302.622 413.96 302.626C418.105 302.641 422.249 302.681 426.394 302.725C431.376 302.773 436.359 302.792 441.342 302.815C448.895 302.854 456.447 302.93 464 303C464 314.55 464 326.1 464 338C446.771 338.12 446.771 338.12 439.41 338.146C434.393 338.164 429.377 338.185 424.36 338.226C420.314 338.259 416.268 338.277 412.222 338.284C410.681 338.29 409.139 338.301 407.598 338.317C405.434 338.339 403.271 338.342 401.107 338.34C399.877 338.347 398.646 338.354 397.379 338.36C391.988 337.785 388.095 335.688 384.687 331.5C384.196 330.912 383.705 330.324 383.199 329.718C380.151 325.349 380.343 320.093 381 315C383.069 309.553 385.952 306.701 391.053 303.858C394.152 302.492 396.953 302.522 400.312 302.546Z" fill="#225D5C"/>
</g>
<defs>
<clipPath id="clip0_300_212">
<rect width="512" height="512" fill="white"/>
</clipPath>
</defs>
</svg>
