<svg width="512" height="512" viewBox="0 0 512 512" fill="none" xmlns="http://www.w3.org/2000/svg">
<path d="M178 262C185.182 265.659 188.149 271.864 191.223 279.02C191.52 279.699 191.818 280.378 192.125 281.078C192.77 282.55 193.413 284.022 194.054 285.496C195.806 289.521 197.578 293.536 199.352 297.551C199.725 298.396 200.098 299.24 200.482 300.111C205.591 311.639 210.933 323.061 216.264 334.488C221.607 345.949 226.839 357.456 232 369C232.99 369 233.98 369 235 369C236.163 366.674 236.303 364.927 236.557 362.339C236.653 361.371 236.75 360.403 236.85 359.405C236.951 358.356 237.052 357.308 237.156 356.227C237.263 355.152 237.371 354.076 237.481 352.968C237.824 349.521 238.163 346.073 238.5 342.625C238.838 339.184 239.176 335.744 239.519 332.304C239.732 330.16 239.943 328.017 240.15 325.873C240.247 324.899 240.344 323.924 240.443 322.921C240.569 321.637 240.569 321.637 240.697 320.328C240.98 318.154 241.419 316.112 242 314C241.299 313.815 240.597 313.629 239.875 313.438C235.004 311.002 231.888 307.182 229.844 302.16C227.757 294.344 228.448 286.237 230.953 278.61C232 277 232 277 233.813 276.342C236.251 275.961 237.682 276.252 240.043 276.922C245.489 278.245 250.729 278.302 256.312 278.25C257.321 278.246 258.33 278.243 259.369 278.239C266.421 278.157 273.123 277.657 280 276C283.32 281.363 283.487 285.826 283.437 291.938C283.457 292.806 283.477 293.674 283.498 294.569C283.493 300.573 282.478 304.085 279 309C276.725 311.058 274.733 312.634 272 314C272.614 326.571 273.733 339.049 275.062 351.563C275.251 353.364 275.439 355.166 275.627 356.967C276.081 361.312 276.539 365.656 277 370C278.32 370 279.64 370 281 370C281.26 369.165 281.52 368.33 281.788 367.47C283.107 363.695 284.7 360.1 286.387 356.481C286.72 355.758 287.054 355.035 287.398 354.29C288.117 352.733 288.837 351.177 289.559 349.621C291.096 346.308 292.625 342.99 294.155 339.673C294.943 337.965 295.731 336.257 296.52 334.549C300.015 326.976 303.487 319.393 306.941 311.802C307.871 309.759 308.804 307.717 309.737 305.676C312.621 299.35 315.442 293.008 318.133 286.598C318.62 285.448 319.108 284.298 319.61 283.113C320.502 280.994 321.38 278.869 322.238 276.736C325.239 269.629 328.736 265.288 335.562 261.625C340.78 260.287 344.501 260.861 349.168 263.457C350.134 263.987 351.099 264.517 352.094 265.063C353.115 265.641 354.136 266.218 355.187 266.813C356.255 267.402 357.323 267.992 358.424 268.599C364.107 271.752 369.722 275.006 375.3 278.341C388.556 286.232 402.508 292.192 416.926 297.637C418.084 298.075 419.242 298.512 420.435 298.963C422.663 299.797 424.896 300.619 427.133 301.426C433.754 303.88 439.306 306.833 445 311C445.866 311.578 446.732 312.155 447.625 312.75C463.965 328.23 465.314 352.88 466.117 374.097C466.273 380.754 466.285 387.409 466.261 394.067C466.25 397.524 466.261 400.981 466.273 404.438C466.272 406.677 466.27 408.917 466.266 411.156C466.27 412.169 466.274 413.182 466.278 414.225C466.157 432.908 460.64 447.839 447.937 461.625C404.727 502.399 301.225 501.347 245.75 500.11C198.74 498.739 152.519 493.036 107 481C105.877 480.705 104.754 480.409 103.598 480.105C87.1211 475.707 74.3067 471.263 62 459C61.4354 458.459 60.8707 457.917 60.289 457.36C44.7845 441.117 45.4819 418.651 45.625 397.813C45.6286 396.66 45.6323 395.508 45.636 394.32C45.8659 332.67 45.8659 332.67 62.8125 314.625C70.9081 307.292 80.4548 303.413 90.5423 299.622C114.903 290.434 137.713 279.034 160.016 265.586C166.223 261.963 170.921 259.392 178 262Z" fill="#225D5C"/>
<path d="M308.715 28.1676C311.234 30.3683 313.633 32.6369 316 34.9996C316.625 35.6132 317.25 36.2268 317.895 36.859C331.451 51.1804 341.287 75.4236 342.133 95.0856C342.067 96.033 342.067 96.033 342 96.9996C342.928 96.9378 343.856 96.8759 344.812 96.8121C348 96.9996 348 96.9996 349.812 98.3121C353.466 103.504 352.184 110.769 352.187 116.812C352.2 118.064 352.212 119.317 352.225 120.607C352.26 143.371 352.26 143.371 347.187 150.562C343.842 155.48 342.747 160.398 341.5 166.125C335.529 193.236 321.627 219.523 297.891 235.273C280.081 245.911 261.385 251.821 240.48 247.121C216.884 240.724 197.451 223.636 185.098 202.923C178.63 191.59 173.788 179.27 170.98 166.523C170.814 165.769 170.648 165.016 170.477 164.239C170.17 162.795 169.878 161.348 169.607 159.897C168.674 155.396 167.208 152.442 164.219 148.933C160.074 142.358 160.525 134.272 160.312 126.776C160.25 124.702 160.167 122.63 160.082 120.556C159.566 105.946 159.566 105.946 162 98.9996C164.565 96.4342 166.477 96.4592 170 95.9996C170.15 95.3209 170.301 94.6421 170.456 93.9427C176.484 67.0225 184.523 40.8086 208.484 24.5231C237.425 6.34467 281.589 6.50569 308.715 28.1676Z" fill="#225D5C"/>
</svg>
