<svg width="512" height="512" viewBox="0 0 512 512" fill="none" xmlns="http://www.w3.org/2000/svg">
<g clip-path="url(#clip0_307_135)">
<path d="M120.131 -0.454179C122.862 -0.450813 125.593 -0.453512 128.324 -0.455949C134.178 -0.458035 140.032 -0.445611 145.885 -0.422998C154.348 -0.390326 162.811 -0.380056 171.275 -0.375046C185.009 -0.366317 198.744 -0.339767 212.479 -0.301836C225.811 -0.265053 239.144 -0.236772 252.477 -0.219804C253.712 -0.218228 253.712 -0.218228 254.972 -0.21662C259.104 -0.211399 263.235 -0.206345 267.367 -0.201372C301.578 -0.159985 335.789 -0.0896024 370 -7.78139e-05C369.587 0.618521 369.174 1.23712 368.748 1.87446C368.207 2.6856 367.665 3.49673 367.108 4.33244C366.571 5.13667 366.034 5.94089 365.481 6.76948C352.057 26.99 347.879 46.3945 347.811 70.4179C347.803 71.9644 347.794 73.5109 347.785 75.0573C347.767 78.3705 347.752 81.6836 347.74 84.9967C347.719 90.2317 347.692 95.4666 347.663 100.702C347.598 112.747 347.542 124.793 347.487 136.838C347.436 147.903 347.383 158.969 347.322 170.034C347.294 175.243 347.27 180.452 347.251 185.661C347.237 188.889 347.22 192.118 347.201 195.346C347.193 196.849 347.187 198.351 347.183 199.854C347.177 201.896 347.165 203.938 347.151 205.98C347.146 207.125 347.141 208.27 347.136 209.45C347 212 347 212 346 213C344.407 213.168 342.807 213.276 341.207 213.359C306.993 215.414 275.597 225.311 248 246C247.114 246.661 246.229 247.323 245.316 248.004C211.702 274.326 189.892 312.749 183.774 354.988C178.495 398.541 189.888 442.487 216.766 477.242C224.214 486.436 232.586 494.703 241 503C239.294 506.75 237.386 508.605 234 511C231.288 511.904 229.496 512.192 226.688 512.25C225.949 512.276 225.21 512.302 224.449 512.328C218.91 511.586 215.062 508.433 211.258 504.551C210.42 503.703 209.582 502.856 208.719 501.982C207.863 501.101 207.007 500.22 206.125 499.312C205.246 498.42 204.367 497.527 203.461 496.607C201.3 494.411 199.147 492.209 197 490C193.569 491.471 191.422 493.379 188.848 496.062C188.071 496.859 187.294 497.656 186.494 498.476C184.875 500.157 183.258 501.839 181.643 503.523C180.865 504.32 180.087 505.117 179.285 505.937C178.231 507.034 178.231 507.034 177.156 508.152C173.68 511.131 170.164 512.293 165.625 512.375C164.916 512.403 164.207 512.432 163.477 512.461C155.365 510.951 150.044 504.404 144.562 498.75C143.322 497.489 143.322 497.489 142.057 496.203C140.031 494.142 138.012 492.074 136 490C130.313 494.748 125.13 499.816 119.986 505.141C119.399 505.739 118.812 506.337 118.207 506.953C117.686 507.491 117.165 508.029 116.628 508.583C113.345 511.44 110.432 512.308 106.125 512.375C105.303 512.403 104.48 512.432 103.633 512.461C95.8726 511.102 90.3644 503.592 85.125 498.25C84.2459 497.362 83.3667 496.474 82.4609 495.559C80.3027 493.377 78.1492 491.191 76 489C70.0763 493.935 64.7016 499.25 59.3418 504.785C58.3934 505.75 58.3934 505.75 57.4258 506.734C56.8629 507.314 56.2999 507.894 55.72 508.491C51.5712 512.13 47.8218 512.427 42.4727 512.324C37.7134 511.7 33.9986 508.63 31 505C29.8424 501.527 29.858 498.428 29.8658 494.817C29.8634 494.076 29.8611 493.336 29.8586 492.574C29.8519 490.074 29.8524 487.574 29.8528 485.074C29.8495 483.271 29.8458 481.469 29.8417 479.666C29.8317 474.696 29.8279 469.727 29.8253 464.757C29.8214 459.403 29.8118 454.049 29.8031 448.695C29.7833 435.754 29.7732 422.814 29.7644 409.873C29.76 403.779 29.7546 397.685 29.7494 391.591C29.7323 371.333 29.7179 351.074 29.7106 330.815C29.7087 325.556 29.7068 320.296 29.7048 315.037C29.7043 313.729 29.7039 312.422 29.7034 311.075C29.6951 289.911 29.6697 268.747 29.6372 247.582C29.6042 225.853 29.5862 204.124 29.583 182.395C29.5808 170.195 29.5721 157.995 29.5465 145.795C29.5248 135.402 29.5168 125.009 29.5265 114.615C29.531 109.315 29.5292 104.015 29.5097 98.7154C29.492 93.8554 29.4931 88.9958 29.5086 84.1358C29.511 82.3853 29.5067 80.6348 29.4948 78.8843C29.4067 65.0777 31.109 52.2805 37.5625 39.8124C37.8984 39.1537 38.2343 38.495 38.5803 37.8163C42.3292 30.8439 47.3407 25.4629 53 19.9999C53.7064 19.2626 54.4128 18.5252 55.1406 17.7655C59.4883 13.4843 64.2434 10.5331 69.625 7.74992C70.2272 7.43249 70.8295 7.11506 71.4499 6.78801C87.2079 -0.907899 102.971 -0.5539 120.131 -0.454179ZM186 80.9999C185.423 81.4124 184.845 81.8249 184.25 82.2499C179.377 89.072 180.775 99.1118 180.875 107C180.885 108.361 180.894 109.721 180.902 111.082C180.926 114.388 180.959 117.694 181 121C179.692 120.984 179.692 120.984 178.357 120.968C175.094 120.934 171.831 120.909 168.567 120.89C167.16 120.88 165.753 120.866 164.345 120.849C162.312 120.825 160.279 120.813 158.246 120.805C156.416 120.789 156.416 120.789 154.549 120.773C149.963 121.066 145.623 121.629 142.039 124.656C141.572 125.265 141.106 125.873 140.625 126.5C140.143 127.108 139.661 127.717 139.164 128.344C136.571 132.032 136.395 135.611 137 140C138.692 143.331 138.692 143.331 141 146C141.433 146.577 141.866 147.155 142.312 147.75C146.906 151.153 152.746 151.242 158.246 151.195C159.23 151.191 159.23 151.191 160.234 151.187C162.302 151.176 164.37 151.151 166.438 151.125C167.851 151.115 169.264 151.106 170.678 151.098C174.119 151.076 177.559 151.041 181 151C180.976 152.247 180.976 152.247 180.952 153.519C180.901 156.645 180.863 159.77 180.835 162.896C180.813 164.897 180.775 166.899 180.736 168.9C180.426 180.521 180.426 180.521 185.453 190.609C189.579 194.174 192.444 195.348 197.902 195.289C201.288 194.822 203.398 193.118 206 191C206.577 190.587 207.155 190.175 207.75 189.75C212.623 182.928 211.225 172.888 211.125 165C211.115 163.639 211.106 162.279 211.098 160.918C211.074 157.612 211.041 154.306 211 151C211.867 151.016 212.734 151.031 213.627 151.048C216.877 151.099 220.127 151.136 223.378 151.165C224.778 151.18 226.179 151.2 227.579 151.226C239.905 151.868 239.905 151.868 250.541 146.547C254.144 142.394 255.361 139.613 255.281 134.094C254.669 129.537 251.771 126.732 248.562 123.687C243.964 120.659 239.342 120.879 233.949 120.902C232.961 120.904 232.961 120.904 231.953 120.907C229.864 120.912 227.776 120.925 225.688 120.937C224.265 120.942 222.842 120.947 221.42 120.951C217.947 120.962 214.473 120.979 211 121C211.016 120.169 211.031 119.337 211.048 118.481C211.099 115.355 211.137 112.23 211.165 109.104C211.187 107.102 211.225 105.101 211.264 103.1C211.574 91.4784 211.574 91.4784 206.547 81.3908C202.421 77.8261 199.556 76.6514 194.098 76.7109C190.712 77.1774 188.602 78.8818 186 80.9999ZM93.125 233.125C91.4352 237.443 91.3404 241.427 92 246C94.1994 250.48 96.5013 252.863 101 255C103.839 255.851 106.38 256.129 109.337 256.14C110.628 256.149 110.628 256.149 111.945 256.158C112.882 256.159 113.818 256.16 114.782 256.161C116.271 256.168 116.271 256.168 117.789 256.176C121.073 256.191 124.357 256.198 127.641 256.203C129.925 256.209 132.209 256.215 134.494 256.22C139.285 256.231 144.077 256.237 148.869 256.24C155 256.246 161.131 256.27 167.262 256.298C171.982 256.317 176.702 256.322 181.422 256.323C183.682 256.327 185.942 256.335 188.201 256.348C191.368 256.365 194.534 256.363 197.7 256.356C198.628 256.366 199.556 256.375 200.513 256.384C206.351 256.347 210.688 255.48 216 253C220.545 248.222 221.355 244.967 221.281 238.543C220.77 233.922 218.509 231.247 215.022 228.365C210.502 226.323 206.244 226.574 201.338 226.596C200.264 226.589 199.191 226.582 198.084 226.575C194.537 226.557 190.989 226.561 187.441 226.566C184.974 226.562 182.507 226.556 180.04 226.55C174.869 226.542 169.699 226.544 164.528 226.554C157.902 226.565 151.277 226.545 144.652 226.516C139.557 226.498 134.462 226.498 129.367 226.504C126.924 226.504 124.481 226.498 122.038 226.485C118.622 226.47 115.207 226.481 111.791 226.498C110.783 226.489 109.774 226.479 108.735 226.469C101.663 226.543 97.9153 227.696 93.125 233.125ZM94 292C91.7728 295.091 90.8939 298.309 91.1328 302.117C92.0547 306.559 93.6171 309.884 97 313C104.252 316.575 111.084 316.436 119.062 316.398C120.422 316.4 121.781 316.403 123.141 316.407C125.978 316.411 128.816 316.405 131.653 316.391C135.271 316.374 138.888 316.384 142.506 316.402C145.31 316.413 148.113 316.409 150.917 316.401C152.893 316.398 154.87 316.407 156.846 316.417C164.562 316.357 171.421 316.297 177.375 310.812C179.423 307.267 180.749 304.115 181 300C179.482 294.733 177.106 291.58 173 288C170.136 286.568 167.66 286.841 164.458 286.807C163.786 286.799 163.115 286.791 162.423 286.782C160.194 286.757 157.966 286.741 155.738 286.726C154.977 286.721 154.215 286.716 153.43 286.71C149.396 286.684 145.361 286.664 141.326 286.65C137.992 286.636 134.659 286.609 131.325 286.568C127.297 286.518 123.268 286.494 119.239 286.487C117.707 286.48 116.175 286.465 114.643 286.441C103.284 286.129 103.284 286.129 94 292ZM94.625 351.187C92.1996 355.385 90.5196 359.243 91.375 364.152C92.8851 368.76 94.8387 371.332 99 374C101.648 375.324 103.674 375.149 106.64 375.177C107.821 375.19 109.003 375.203 110.221 375.216C111.504 375.223 112.787 375.231 114.109 375.238C115.424 375.246 116.739 375.254 118.093 375.263C120.881 375.278 123.668 375.288 126.456 375.295C130.018 375.306 133.58 375.341 137.142 375.38C140.548 375.413 143.953 375.417 147.359 375.426C149.272 375.452 149.272 375.452 151.224 375.479C159.933 375.511 159.933 375.511 167 371C169.685 367.482 170.826 364.427 171 360C170.08 355.755 168.731 352.75 165.688 349.625C159.07 345.624 152.844 345.693 145.32 345.699C143.63 345.693 143.63 345.693 141.906 345.686C139.527 345.68 137.149 345.68 134.77 345.684C131.145 345.687 127.52 345.664 123.895 345.639C121.578 345.636 119.262 345.636 116.945 345.637C115.868 345.627 114.791 345.618 113.681 345.609C106.489 345.653 100.155 346.094 94.625 351.187Z" fill="#225D5C"/>
<path d="M383 246C383.665 246.182 384.331 246.364 385.017 246.552C403.552 251.719 420.386 261.63 435 274C435.835 274.7 436.671 275.4 437.531 276.122C463.913 298.962 479.051 332.572 482 367C484.213 406.715 470.781 440.878 445 470.688C423.83 494.065 391.156 510.579 359.493 512.177C342.615 512.458 326.376 512.699 310 508C309.334 507.819 308.669 507.637 307.983 507.449C274.504 498.116 245.621 474.514 228.43 444.586C210.013 411.509 205.994 373.593 216.312 337.188C218.548 329.793 221.436 322.862 225 316C225.33 315.362 225.66 314.724 226 314.066C230.805 304.877 236.064 296.768 243 289C243.731 288.15 244.462 287.299 245.215 286.422C278.545 248.23 334.173 231.992 383 246ZM334.187 307.75C332.418 311.102 332.314 314.234 332 318C331.42 318.113 330.84 318.225 330.242 318.34C323.136 320.433 317.625 326.801 314 333C309.515 342.165 308.443 350.753 311.437 360.563C316.397 372.745 326.39 379.12 337.941 384.188C338.832 384.58 339.723 384.972 340.641 385.375C342.435 386.155 344.236 386.919 346.044 387.667C350.816 389.709 354.326 391.305 357 396C356.938 399.583 356.768 401.953 354.625 404.875C350.059 408.037 344.293 407.521 339 407C336.345 406.179 333.887 405.158 331.348 404.032C326.853 402.057 322.826 400.672 317.875 401.563C313.576 403.712 310.174 406.162 307.562 410.25C306.435 415.762 307.028 420.292 309.812 425.188C315.355 430.973 324.064 434.64 332 435C332.103 436.052 332.206 437.104 332.312 438.188C333.124 442.687 333.902 445.478 337.695 448.231C341.84 450.612 345.301 451.659 350.043 450.743C354.694 448.979 358.032 445.726 360.437 441.438C361.029 438.873 361.15 436.624 361 434C361.804 433.815 362.609 433.629 363.437 433.438C372.243 429.885 378.553 423.296 383 415C388.075 402.508 388.18 393.49 383 381C375.902 368.81 364.34 363.446 351.997 357.91C347.938 356.062 343.97 354.029 340 352C340 349.69 340 347.38 340 345C344.549 343.545 348.942 343.026 353.359 345.118C354.189 345.574 355.02 346.03 355.875 346.5C360.693 349.07 364.586 350.131 370 349C375.118 346.347 378.177 343.469 380 338C380.541 332.26 379.669 329.442 376 325C371.671 320.954 367.151 317 361 317C360.938 315.969 360.876 314.938 360.812 313.875C359.794 309.018 358.473 307.474 355 304C347.319 299.36 340.292 301.857 334.187 307.75Z" fill="#225D5C"/>
<path d="M428.313 -0.437219C429.228 -0.428921 430.144 -0.420622 431.087 -0.412072C445.699 -0.0499313 457.218 5.30225 467.813 15.3128C479.646 27.8437 482.617 42.195 482.518 58.9766C482.523 60.5353 482.53 62.0939 482.539 63.6526C482.557 67.8444 482.55 72.0358 482.537 76.2275C482.527 80.6303 482.537 85.033 482.543 89.4357C482.55 96.8184 482.541 104.201 482.522 111.584C482.5 120.111 482.507 128.637 482.529 137.164C482.547 144.506 482.55 151.847 482.539 159.188C482.533 163.565 482.532 167.941 482.545 172.317C482.557 176.425 482.549 180.533 482.526 184.642C482.52 186.147 482.522 187.652 482.531 189.157C482.542 191.215 482.528 193.272 482.508 195.33C482.506 196.48 482.505 197.63 482.503 198.815C481.782 203.378 479.808 206.55 476.198 209.445C470.835 212.065 466.295 212.553 460.371 212.454C459.443 212.455 458.516 212.456 457.56 212.456C454.519 212.453 451.479 212.422 448.438 212.391C446.319 212.383 444.201 212.378 442.082 212.374C436.525 212.359 430.969 212.319 425.412 212.275C419.735 212.234 414.057 212.216 408.379 212.196C397.252 212.153 386.126 212.085 375 212C374.953 191.233 374.918 170.466 374.896 149.698C374.886 140.055 374.872 130.411 374.849 120.768C374.829 112.358 374.816 103.948 374.812 95.5377C374.809 91.0889 374.803 86.6401 374.789 82.1913C374.775 77.9946 374.771 73.798 374.774 69.6013C374.773 68.07 374.769 66.5387 374.762 65.0074C374.674 46.8469 376.53 30.9854 389 17.0003C389.522 16.3854 390.044 15.7705 390.582 15.137C400.416 4.3461 413.983 -0.606384 428.313 -0.437219Z" fill="#225D5C"/>
</g>
<defs>
<clipPath id="clip0_307_135">
<rect width="512" height="512" fill="white"/>
</clipPath>
</defs>
</svg>
