<svg width="512" height="512" viewBox="0 0 512 512" fill="none" xmlns="http://www.w3.org/2000/svg">
<path d="M420.688 66.3744C422.47 67.903 424.24 69.4451 426 70.9994C426.976 71.8308 427.952 72.6623 428.957 73.5189C454.951 96.0636 470.567 129.428 473.539 163.499C476.197 202.028 464.068 239.534 439 268.999C429.518 279.713 419.262 288.63 407 295.999C406.334 296.402 405.668 296.805 404.982 297.221C385.584 308.735 363.514 315.007 341 315.999C339.627 316.061 339.627 316.061 338.227 316.124C307.365 316.801 270.086 306.978 247.141 285.238C241.775 282.134 233.411 284.343 227.496 285.163C225.686 285.401 223.875 285.638 222.064 285.874C219.244 286.248 216.424 286.626 213.606 287.014C210.862 287.389 208.117 287.746 205.371 288.101C204.535 288.221 203.7 288.34 202.839 288.464C197.628 289.121 193.923 288.908 189 286.999C185.703 284.125 185.071 282.543 184.5 278.187C184.976 269.766 191.2 262.588 195.938 255.999C197.747 253.467 199.55 250.932 201.33 248.379C202.406 246.846 203.507 245.33 204.639 243.837C206.016 241.912 207.144 240.206 208 237.999C207.494 234.425 207.494 234.425 205.625 231.062C205.022 229.756 204.426 228.448 203.836 227.136C203.526 226.461 203.217 225.786 202.897 225.091C201.401 221.602 200.314 218.014 199.25 214.374C198.953 213.41 198.953 213.41 198.651 212.425C195.331 201.036 194.637 189.557 194.688 177.749C194.689 177.07 194.691 176.39 194.693 175.69C194.741 165.139 195.357 155.241 198 144.999C198.249 143.986 198.249 143.986 198.504 142.952C203.949 121.135 214.234 100.988 229 83.9994C229.77 83.0971 230.539 82.1947 231.332 81.265C278.405 27.5947 365.403 22.0677 420.688 66.3744ZM314.41 93.9916C311.017 98.8222 310.026 104.195 311 109.999C313.408 117.235 317.115 122.539 324 125.999C330.486 128.309 335.566 128.358 342 125.999C348.342 122.518 352.685 117.925 355 110.999C355.788 104.87 355.53 99.2049 352.402 93.7846C348.89 89.3135 343.56 85.3232 338 83.9994C327.536 82.8347 320.994 85.863 314.41 93.9916ZM289.562 151.687C287.657 155.727 287.177 158.619 288 162.999C289.941 167.588 292.165 169.329 296.625 171.187C298.407 171.818 300.2 172.422 302 172.999C302.914 173.3 303.828 173.6 304.77 173.91C309.79 175.511 309.79 175.511 315 175.999C314.892 176.554 314.784 177.109 314.672 177.681C312.972 186.697 311.613 195.762 310.286 204.84C310.013 206.686 309.736 208.532 309.454 210.377C305.053 234.036 305.053 234.036 312 255.999C312.557 256.907 313.114 257.814 313.688 258.749C321.638 266.485 330.516 269.025 341.312 269.374C354.376 269.141 363.724 263.85 373.141 254.984C377.888 249.917 381 244.882 381 237.812C379.686 234.116 378.089 232.402 375 229.999C371.623 228.874 369.859 228.699 366.5 229.874C364.021 231.982 362.775 233.768 361.062 236.499C358.505 240.485 356.737 242.699 352 243.999C348.868 244.112 345.972 244.035 343 242.999C339.624 239.286 339.635 236.772 339.787 231.944C340.195 226.296 340.962 220.707 341.75 215.101C341.93 213.776 342.11 212.452 342.288 211.127C342.946 206.256 343.618 201.387 344.292 196.518C344.862 192.39 345.427 188.261 345.983 184.132C346.242 182.221 346.511 180.312 346.78 178.403C349.342 164.624 349.342 164.624 345.5 151.937C341.641 147.725 335.576 145.905 329.99 145.611C328.596 145.592 327.202 145.589 325.809 145.601C325.06 145.598 324.311 145.595 323.539 145.592C321.969 145.59 320.398 145.596 318.827 145.608C316.44 145.624 314.054 145.608 311.666 145.589C310.13 145.591 308.594 145.595 307.059 145.601C306.354 145.595 305.65 145.589 304.924 145.583C298.65 145.671 293.862 146.947 289.562 151.687Z" fill="#225D5C"/>
<path d="M140.281 103.51C147.439 109.28 149.295 115.962 150.534 124.744C150.661 125.591 150.788 126.437 150.919 127.309C151.335 130.089 151.736 132.869 152.137 135.651C152.423 137.595 152.71 139.538 152.998 141.482C153.598 145.549 154.192 149.616 154.78 153.685C155.533 158.886 156.3 164.084 157.07 169.283C157.664 173.294 158.252 177.307 158.838 181.32C159.119 183.237 159.401 185.153 159.684 187.069C160.08 189.753 160.468 192.438 160.854 195.123C160.971 195.906 161.088 196.689 161.208 197.496C163.217 211.67 163.217 211.67 159.552 217.346C156.202 220.913 151.704 222.848 147.375 224.998C133.005 232.311 121.539 239.178 116 254.998C114.98 259.044 114.77 262.958 114.687 267.123C114.65 268.343 114.613 269.562 114.574 270.819C115.181 281.819 121.994 292.254 127 301.811C127.762 303.275 128.523 304.739 129.284 306.203C131.51 310.475 133.752 314.738 136 318.998C136.317 319.601 136.635 320.203 136.962 320.824C138.854 324.412 140.764 327.99 142.687 331.561C143.143 332.415 143.599 333.268 144.068 334.148C151.442 347.665 159.564 355.704 174.285 360.787C191.263 365.409 205.763 355.719 220.074 347.966C224.205 345.89 227.418 345.481 232 345.998C238.299 349.01 243.047 353.83 247.84 358.795C249.706 360.699 251.601 362.455 253.625 364.186C257.648 367.637 261.509 371.248 265.375 374.873C270.357 379.543 275.372 384.165 280.465 388.713C284.139 392.025 287.762 395.391 291.38 398.764C294.153 401.34 296.952 403.792 299.937 406.123C305.124 410.534 308.952 416.752 310.062 423.498C310.529 433.711 305.24 442.931 298.879 450.534C285.192 465.074 266.252 474.43 246.25 475.213C197.361 476.443 157.07 448.327 122.625 416.311C121.971 415.705 121.317 415.1 120.643 414.476C116.12 410.223 112.038 405.708 108 400.998C106.968 399.841 105.933 398.686 104.894 397.534C88.2546 378.878 74.4437 357.718 63.9999 334.998C63.6743 334.292 63.3486 333.586 63.0131 332.858C53.7372 312.452 47.2884 290.978 42.9999 268.998C42.8469 268.219 42.6938 267.44 42.5361 266.637C34.2322 223.018 34.2794 171.636 58.9999 132.998C71.0814 115.793 89.3184 103.006 110.203 99.3148C120.426 98.1582 131.402 97.6259 140.281 103.51Z" fill="#225D5C"/>
</svg>
