<svg width="512" height="512" viewBox="0 0 512 512" fill="none" xmlns="http://www.w3.org/2000/svg">
<path d="M371.437 231.125C374.761 233.557 376.219 235.241 378 239C378.105 240.77 378.16 242.544 378.184 244.317C378.71 251.509 381.481 257.246 384.741 263.55C385.78 265.559 386.795 267.58 387.805 269.605C388.851 271.703 389.898 273.8 390.952 275.894C394.259 282.469 397.367 289.124 400.437 295.813C404.943 305.581 409.497 315.324 414.088 325.053C419.213 335.917 424.33 346.786 429.375 357.688C429.821 358.643 430.267 359.598 430.727 360.581C436.741 373.647 438.156 386.116 433.324 399.934C426.698 415.278 416.188 423.907 401 430C396.737 431.223 392.467 431.15 388.062 431.125C387.372 431.129 386.682 431.133 385.971 431.137C382.76 431.131 379.904 430.978 376.769 430.242C373.913 429.69 373.913 429.69 371.726 431.625C370.686 432.801 370.686 432.801 369.625 434C366.948 436.968 364.238 439.71 361.211 442.313C356.926 446.008 352.96 449.963 349 454C344.403 458.687 339.735 463.172 334.759 467.455C332.679 469.283 330.77 471.233 328.875 473.25C323.69 478.405 319.998 480.158 312.625 480.438C304.687 480.221 300.023 478.072 294.25 472.75C288.801 466.978 285.999 460.331 285.672 452.426C286.766 444.337 290.442 439.852 296.187 434.438C296.868 433.777 297.548 433.117 298.25 432.436C301.448 429.351 304.686 426.328 308.062 423.438C310.667 421.201 313.161 418.903 315.59 416.477C316.554 415.515 316.554 415.515 317.537 414.534C320.364 411.695 323.185 408.851 326 406C323.111 403.715 320.193 401.959 316.914 400.285C315.411 399.513 315.411 399.513 313.877 398.724C312.267 397.902 312.267 397.902 310.625 397.063C302.237 392.742 293.896 388.354 285.625 383.813C284.731 383.325 283.836 382.838 282.915 382.335C278.524 379.94 274.148 377.522 269.793 375.063C259.133 369.014 259.133 369.014 247.168 367.11C243.523 366.926 241.585 365.456 239 363C235.549 357.019 235.091 351.814 236.656 345.246C242.709 325.234 258.162 307.303 273.048 292.955C274.885 291.115 276.569 289.217 278.25 287.235C281.858 283.083 285.718 279.299 289.75 275.563C290.45 274.91 291.15 274.258 291.872 273.586C296.572 269.239 301.362 265.085 306.375 261.102C309.225 258.82 311.98 256.442 314.75 254.063C329.303 241.954 351.514 224.605 371.437 231.125ZM318 274C317.018 274.798 316.035 275.596 315.023 276.418C306.979 283.02 299.557 290.229 292.187 297.563C291.7 298.045 291.212 298.528 290.709 299.026C284.01 305.668 277.849 312.595 272 320C271.072 321.143 270.144 322.285 269.215 323.426C259.114 335.188 259.114 335.188 254 349C269.73 346.662 285.269 331.898 297 322C298.495 320.784 298.495 320.784 300.019 319.543C307.856 313.093 315.121 306.092 322.312 298.938C323.231 298.028 324.15 297.118 325.097 296.181C331.156 290.095 336.672 283.732 342 277C342.928 275.858 343.856 274.716 344.785 273.575C354.886 261.813 354.886 261.813 360 248C345.913 248 328.042 265.44 318 274Z" fill="#225D5C"/>
<path d="M199 137C202.506 139.837 205.779 142.845 209 146C209.628 146.592 210.256 147.184 210.902 147.793C224.721 161.988 229.313 183.33 229.313 202.405C229.044 221.011 221.508 238.29 209 252C208.483 252.609 207.966 253.217 207.434 253.844C194.794 267.782 175.349 274.973 157.016 276.286C135.177 277.03 116.246 269.766 99.7501 255.688C84.8392 241.707 76.256 222.506 75.5804 202.159C75.4074 179.996 82.6844 160.039 97.6876 143.75C124.969 118.096 168.543 115.461 199 137ZM145 163C139.405 170.215 138.711 176.547 138.875 185.375C138.884 186.302 138.893 187.229 138.902 188.184C138.926 190.456 138.959 192.728 139 195C137.337 194.931 137.337 194.931 135.641 194.86C134.177 194.822 132.714 194.786 131.25 194.75C130.156 194.7 130.156 194.7 129.039 194.649C125.492 194.584 123.432 194.688 120.52 196.797C118.28 200.044 118.382 202.156 119 206C121.901 209.123 123.492 209.948 127.77 210.391C129.118 210.365 130.466 210.317 131.813 210.25C132.505 210.232 133.198 210.214 133.912 210.196C135.609 210.149 137.305 210.077 139 210C138.969 211.423 138.969 211.423 138.937 212.874C138.868 216.401 138.818 219.926 138.78 223.453C138.76 224.977 138.733 226.502 138.698 228.027C138.65 230.221 138.627 232.415 138.609 234.61C138.578 236.589 138.578 236.589 138.546 238.609C138.727 242.043 138.727 242.043 140.806 244.427C144.035 246.742 146.132 246.622 150 246C152.916 243.235 153.92 241.6 154.454 237.587C154.433 236.315 154.412 235.042 154.391 233.731C154.382 232.709 154.382 232.709 154.374 231.667C154.351 229.507 154.301 227.348 154.25 225.188C154.23 223.717 154.212 222.246 154.195 220.776C154.151 217.183 154.082 213.592 154 210C155.241 210.058 156.483 210.116 157.762 210.176C159.404 210.223 161.046 210.269 162.688 210.313C163.913 210.376 163.913 210.376 165.162 210.44C169.577 210.529 171.427 210.428 175.078 207.707C177.34 205.061 177.34 205.061 177.063 201.375C176.276 198.085 176.276 198.085 174.512 196.301C170.668 194.311 167.006 194.683 162.75 194.813C161.489 194.833 161.489 194.833 160.203 194.854C158.135 194.889 156.068 194.943 154 195C154.088 192.124 154.194 189.251 154.313 186.375C154.335 185.567 154.358 184.759 154.381 183.926C154.604 178.94 155.234 175.309 158 171C162.727 167.702 166.436 167.559 172 168C173.269 168.526 173.269 168.526 174.563 169.063C178.083 170.417 180.405 169.999 184 169C186.287 166.427 186.977 164.935 187.063 161.5C185.155 157.013 181.579 154.79 177.375 152.688C164.025 149.968 154.337 153.282 145 163Z" fill="#225D5C"/>
<path d="M199.313 322.875C200.894 324.229 202.457 325.604 204 327C204.758 327.665 205.516 328.331 206.297 329.016C219.93 341.708 228.521 359.567 229.336 378.227C229.74 402.564 223.113 422.617 206.375 440.684C194.449 452.315 176.702 460.296 160 461C158.926 461.052 157.852 461.103 156.746 461.157C134.744 461.707 113.583 454.962 97.3751 439.559C81.9812 422.975 75.0343 401.818 75.7149 379.364C76.8277 358.119 87.054 340.29 102.234 325.879C129.241 302.634 171.048 301.047 199.313 322.875ZM155.188 345.75C151.936 349.095 151.875 351.763 151.858 356.234C151.851 357.302 151.844 358.37 151.837 359.471C151.833 360.624 151.829 361.777 151.824 362.965C151.801 365.398 151.777 367.831 151.752 370.264C151.717 374.107 151.688 377.949 151.674 381.792C151.659 385.496 151.619 389.199 151.574 392.903C151.576 394.054 151.578 395.205 151.58 396.391C151.564 397.462 151.547 398.533 151.53 399.637C151.524 400.578 151.518 401.52 151.512 402.489C150.846 405.753 149.582 406.959 147 409C144.238 409.426 144.238 409.426 141.313 409.313C139.853 409.276 139.853 409.276 138.363 409.239C136 409 136 409 135 408C134.928 406.481 134.916 404.959 134.938 403.438C134.947 402.612 134.956 401.785 134.965 400.934C134.977 400.296 134.988 399.658 135 399C136.64 398.846 136.64 398.846 138.313 398.688C141.849 398.278 141.849 398.278 143.875 396.75C145.353 394.451 145.801 392.727 146 390C144.86 386.675 144.033 386.022 141 384C135.102 383.306 130.734 384.541 126 388C120.319 394.112 118.687 398.997 118.785 407.278C119.17 412.152 121.128 414.954 124.188 418.625C130.767 424.181 136.135 425.672 144.809 425.391C149.438 424.824 153.026 423.388 157 421C157.908 420.464 158.815 419.928 159.75 419.375C168.584 410.05 167.607 399.381 167.313 387.375C167.287 385.59 167.265 383.805 167.244 382.02C167.19 377.679 167.103 373.34 167 369C167.869 369.687 168.738 370.374 169.633 371.082C170.797 371.993 171.961 372.903 173.125 373.813C173.695 374.265 174.265 374.716 174.852 375.182C179.057 378.456 183.232 381.46 188.563 382.5C192.288 381.736 193.734 379.979 196 377C196.75 373.957 196.75 373.957 196 371C193.596 367.73 190.618 366.232 187.109 364.313C179.452 359.548 172.808 353.03 166.387 346.75C162.449 343.863 159.382 343.14 155.188 345.75Z" fill="#225D5C"/>
<path d="M365.519 44.6562C367.789 46.3414 369.897 48.1114 372 49.9999C373.232 51.0924 373.232 51.0924 374.488 52.207C390.014 66.7907 396.669 85.8858 398.285 106.668C398.835 127.834 390.891 148.237 376.466 163.698C361.543 178.907 341.564 186.703 320.5 187.25C299.46 187.047 279.879 179.318 264.598 164.719C253.269 152.862 246.07 139.114 243 123C242.773 121.845 242.546 120.69 242.312 119.5C240.896 103.641 243.369 88.4973 250 73.9999C250.419 73.0679 250.838 72.1359 251.269 71.1757C259.509 54.5295 275.132 41.8769 292.476 35.7773C317.217 27.9866 343.683 30.3019 365.519 44.6562ZM283 72.3749C282.464 72.9395 281.927 73.5042 281.375 74.0859C278.514 78.0682 277.748 81.7535 277.709 86.5971C277.697 87.6953 277.684 88.7935 277.671 89.9249C277.668 91.1021 277.666 92.2793 277.664 93.4921C277.657 94.7114 277.651 95.9307 277.644 97.187C277.634 99.7641 277.629 102.341 277.629 104.918C277.625 108.854 277.589 112.788 277.551 116.723C277.545 119.229 277.541 121.736 277.539 124.242C277.525 125.415 277.51 126.588 277.495 127.797C277.539 135.545 278.44 140.156 283.816 145.961C284.392 146.428 284.969 146.894 285.562 147.375C286.141 147.857 286.72 148.339 287.316 148.836C290.587 151.097 293.539 151.134 297.386 151.161C298.487 151.171 299.589 151.18 300.724 151.19C301.915 151.194 303.105 151.199 304.332 151.203C305.556 151.209 306.781 151.214 308.043 151.22C310.636 151.23 313.229 151.236 315.822 151.24C319.786 151.25 323.749 151.281 327.713 151.312C330.232 151.319 332.751 151.324 335.269 151.328C336.454 151.34 337.639 151.353 338.859 151.365C346.297 151.345 350.904 150.664 356.687 145.687C361.233 140.404 363.104 135.146 363.161 128.282C363.171 127.351 363.18 126.419 363.19 125.459C363.194 124.458 363.199 123.457 363.203 122.426C363.209 121.387 363.214 120.349 363.22 119.279C363.23 117.081 363.236 114.883 363.24 112.685C363.25 109.342 363.281 106 363.312 102.658C363.319 100.518 363.324 98.3782 363.328 96.2382C363.347 94.7518 363.347 94.7518 363.365 93.2354C363.342 85.7186 362.544 79.0009 357.562 73.1249C356.294 72.0731 356.294 72.0731 355 70.9999C354.381 70.4431 353.762 69.8862 353.125 69.3124C347.006 65.5333 340.349 65.6925 333.387 65.6992C332.377 65.6949 331.367 65.6906 330.327 65.6862C328.198 65.6804 326.069 65.6799 323.941 65.6843C320.708 65.6874 317.476 65.664 314.244 65.6386C312.167 65.6363 310.089 65.6356 308.012 65.6367C307.057 65.6274 306.103 65.6182 305.119 65.6087C297.482 65.6606 288.431 66.3736 283 72.3749Z" fill="#225D5C"/>
<path d="M296.094 81.8799C297.016 81.8821 297.938 81.8843 298.887 81.8866C299.928 81.8867 300.969 81.8868 302.042 81.8868C303.174 81.892 304.306 81.8972 305.473 81.9025C306.625 81.9039 307.778 81.9053 308.966 81.9068C312.665 81.9124 316.364 81.9249 320.063 81.9376C322.563 81.9426 325.064 81.9472 327.564 81.9513C333.71 81.9624 339.855 81.9791 346 82.0001C347.726 85.0022 348.252 87.1626 348.259 90.6134C348.265 91.5212 348.271 92.4289 348.278 93.3642C348.274 94.3372 348.27 95.3102 348.266 96.3126C348.269 97.8214 348.269 97.8214 348.271 99.3607C348.273 101.486 348.269 103.611 348.261 105.735C348.25 108.988 348.261 112.24 348.273 115.492C348.272 117.557 348.27 119.623 348.266 121.688C348.27 122.661 348.274 123.634 348.278 124.636C348.272 125.544 348.265 126.452 348.259 127.387C348.257 128.183 348.256 128.979 348.254 129.8C347.972 132.243 347.218 133.88 346 136C338.613 136.025 331.225 136.043 323.838 136.055C321.323 136.06 318.808 136.067 316.292 136.076C312.686 136.088 309.079 136.093 305.473 136.098C303.774 136.106 303.774 136.106 302.042 136.113C301.001 136.114 299.96 136.114 298.887 136.114C297.505 136.117 297.505 136.117 296.094 136.12C294 136 294 136 293 135C292.901 133.379 292.872 131.753 292.871 130.129C292.867 129.091 292.864 128.053 292.861 126.984C292.863 125.855 292.865 124.726 292.867 123.563C292.866 121.837 292.866 121.837 292.864 120.077C292.864 117.639 292.865 115.201 292.87 112.763C292.875 109.016 292.87 105.27 292.863 101.524C292.864 99.1616 292.865 96.7996 292.867 94.4376C292.865 93.3085 292.863 92.1794 292.861 91.016C292.864 89.9782 292.867 88.9405 292.871 87.8712C292.871 86.9527 292.872 86.0342 292.873 85.0878C293.045 82.257 293.262 82.0425 296.094 81.8799ZM303.125 95.9376C299.42 101.277 298.068 106.522 299 113C301.144 120.563 305.238 125.099 311.859 129.133C316.92 131.183 323.318 131.023 328.387 129.09C333.618 125.991 337.252 121.997 340.313 116.75C341.98 110.079 341.775 103.859 338.34 97.8204C335.173 93.5177 330.97 90.0043 326 88.0001C316.234 86.6747 309.721 88.6916 303.125 95.9376Z" fill="#225D5C"/>
<path d="M218 278C219.397 278.081 219.397 278.081 220.822 278.165C223.904 278.358 226.983 278.579 230.062 278.812C231.062 278.882 232.061 278.952 233.091 279.023C242.027 279.785 242.027 279.785 246 283C247.929 285.542 248.009 286.783 247.875 290C246.848 293.52 245.851 294.732 243 297C238.389 297.803 233.66 297.286 229 297C228.069 296.945 227.137 296.89 226.178 296.834C223.096 296.641 220.017 296.42 216.937 296.187C215.938 296.117 214.939 296.047 213.909 295.976C204.885 295.207 204.885 295.207 201 292C199.435 288.87 199.303 285.389 200 282C204.556 275.853 211.098 277.576 218 278Z" fill="#225D5C"/>
<path d="M301.098 190.61C304.068 191.22 305.303 192.556 307 195C308.264 198.708 308.274 202.555 308.422 206.434C308.464 207.506 308.464 207.506 308.506 208.6C308.563 210.109 308.616 211.618 308.667 213.127C308.75 215.427 308.853 217.726 308.957 220.026C309.009 221.495 309.06 222.964 309.109 224.434C309.144 225.117 309.178 225.801 309.213 226.505C309.328 230.892 308.66 233.502 306 237C303.458 238.929 302.217 239.009 299 238.875C295.388 237.822 294.111 237.127 292 234C290.83 226.612 290.749 219.194 290.705 211.724C290.693 210.357 290.673 208.991 290.643 207.625C290.601 205.629 290.587 203.633 290.574 201.637C290.56 200.458 290.545 199.28 290.53 198.065C291.495 191.775 295.356 190.31 301.098 190.61Z" fill="#225D5C"/>
<path d="M251 227C253.278 228.816 255.065 230.442 257 232.562C257.516 233.103 258.032 233.645 258.564 234.203C260.062 235.785 261.535 237.387 263 239C263.733 239.803 264.467 240.606 265.223 241.433C272.851 250.001 272.851 250.001 273.438 253.937C272.884 257.808 271.868 259.358 269 262C266.062 263 266.062 263 263 263C259.314 261.107 256.555 258.801 253.645 255.875C252.858 255.086 252.071 254.297 251.26 253.484C250.048 252.254 250.048 252.254 248.812 251C247.993 250.18 247.174 249.36 246.33 248.515C238.118 240.243 238.118 240.243 237.625 235.062C237.695 231.9 237.863 231.178 239.875 228.562C243.926 225.583 246.074 225.804 251 227Z" fill="#225D5C"/>
<path d="M324 103C326.062 105.125 326.062 105.125 327 108C325.8 113.2 325.8 113.2 324 115C317.792 115.46 317.792 115.46 315.062 113.875C313.496 111.11 313.61 109.118 314 106C316.274 101.987 319.797 102.399 324 103Z" fill="#225D5C"/>
</svg>
