<svg width="683" height="683" viewBox="0 0 683 683" fill="none" xmlns="http://www.w3.org/2000/svg">
<path d="M164.4 20.1347C153.867 21.468 138.533 28.5347 130.133 36.1347C121.467 43.868 113.867 55.7347 110.533 67.068C106.8 79.068 107.467 98.268 111.867 109.602C118.267 126.135 133.867 141.735 150.4 148.135C160.933 152.269 180.667 153.202 191.467 150.002C210.533 144.535 225.867 131.735 234 114.402C256.8 66.4014 217.867 13.6014 164.4 20.1347Z" fill="#FFD6A8"/>
<path d="M332.667 20.1318C296 24.5318 269.6 59.8651 275.734 96.3985C279.6 119.465 294.667 138.132 317.334 147.999C323.734 150.799 326.667 151.332 340.667 151.332C359.467 151.332 367.867 148.799 380.134 139.599C393.867 129.332 402.267 116.799 406 101.065C416.667 55.8651 379.2 14.6651 332.667 20.1318Z" fill="#FFD6A8"/>
<path d="M498.8 20.133C482.4 22.2664 463.067 34.3997 453.467 48.6664C435.6 75.0664 439.067 110 461.733 132.667C475.067 146 489.733 152 508.8 152C545.867 152 574.667 123.2 574.667 85.9997C574.667 45.0664 540.133 14.933 498.8 20.133Z" fill="#FFD6A8"/>
<path d="M160.4 166.801C129.6 169.734 100.933 184.001 78.5333 207.734C69.4667 217.201 56 236.268 56 239.334C56 239.734 88.4 240.001 127.867 240.001H199.733L202 234.268C206.8 222.134 219.067 204.401 231.867 190.668C235.6 186.668 238.667 183.201 238.667 182.934C238.667 181.734 217.867 173.068 209.067 170.668C201.2 168.534 174.933 164.934 172 165.601C171.6 165.601 166.4 166.134 160.4 166.801Z" fill="#FFD6A8"/>
<path d="M327.333 166.801C286.267 170.801 247.333 196.534 226 233.601L222.4 240.001H341.333H460.267L456.667 233.601C450.8 223.468 438.933 208.534 430.933 201.068C421.733 192.668 404.933 181.734 393.6 176.801C374.667 168.534 349.067 164.668 327.333 166.801Z" fill="#FFD6A8"/>
<path d="M495.067 166.799C481.333 168.132 466.533 172.132 453.867 177.999C448.4 180.399 444 182.666 444 182.932C444 183.199 447.067 186.666 450.8 190.666C463.6 204.266 476.267 223.066 481.333 235.599L482.933 239.999H554.8C594.4 239.999 626.667 239.732 626.667 239.332C626.667 238.932 624.133 234.399 621.067 229.066C613.067 215.466 591.867 194.399 577.333 185.466C552.4 170.266 524.4 163.999 495.067 166.799Z" fill="#FFD6A8"/>
<path d="M29.0667 263.465C20.9334 267.865 21.3334 257.732 21.3334 437.332C21.3334 619.332 20.8001 607.599 30.0001 611.465C33.8667 613.065 62.8001 613.332 220.133 613.332C396.267 613.332 405.6 613.199 404.933 610.932C398.267 590.665 398.267 590.265 398.133 568.665C398 551.865 398.533 545.465 400.4 538.665C403.333 528.399 411.333 511.065 417.067 502.665L421.2 496.665L365.467 495.999C305.733 495.332 306.533 495.332 303.867 488.399C302.533 484.665 304.8 477.732 308 475.999C309.6 475.199 336 474.665 376.667 474.665H442.8L451.6 469.465C473.467 456.132 492.533 451.332 519.2 452.265C534.267 452.799 538.4 453.465 549.333 457.199C566.8 463.065 579.867 470.799 592.933 483.065C617.867 506.665 629.867 534.532 629.733 568.665C629.6 581.332 628.933 587.199 626.4 596.665C624.533 603.199 622.667 609.732 622.133 610.932C621.2 613.199 622.133 613.332 634.533 613.332C643.2 613.332 649.733 612.665 652.667 611.465C661.867 607.599 661.333 619.332 661.333 437.332C661.333 257.065 661.867 267.732 653.333 263.332C649.867 261.599 614.133 261.332 341.067 261.332C70.9334 261.465 32.2667 261.732 29.0667 263.465ZM191.333 318.532C229.733 326.399 260 349.865 276.8 384.665C285.867 403.199 288.4 414.532 288.4 436.665C288.533 452.132 288 457.332 285.6 466.532C273.6 510.932 240.133 544.132 196.4 554.932C180.133 558.932 156 558.932 139.733 554.932C96.4001 544.265 62.2667 510.799 50.5334 467.332C46.4001 451.999 46.4001 422.532 50.4001 407.332C65.0667 353.332 112.133 316.665 167.333 316.132C174.267 316.132 184.4 317.065 191.333 318.532ZM569.6 342.265C571.733 344.132 572 346.665 572 361.065C572 374.799 571.6 378.265 569.733 380.265C567.733 382.532 562 382.665 443.333 382.665C338.267 382.665 318.8 382.399 316.533 380.799C314.4 379.199 314 376.932 313.6 364.665C313.067 349.199 313.6 345.199 316.8 342.132C318.667 340.265 332 339.999 442.933 339.999C556.667 339.999 567.333 340.132 569.6 342.265ZM542.667 424.665C546.933 429.199 546.667 435.732 542 439.599L538.533 442.665H424.933C300.8 442.665 306.933 443.065 304 435.199C302.533 431.465 304.4 425.465 307.6 422.932C309.333 421.732 334.933 421.332 424.667 421.332H539.6L542.667 424.665Z" fill="#FFD6A8"/>
<path d="M159.6 357.331C146.667 360.664 135.2 370.798 131.2 382.931C128.4 391.598 129.2 405.198 133.067 412.664C136.4 419.331 146.4 428.798 153.067 431.731C159.6 434.531 176.4 434.531 182.934 431.731C189.6 428.798 199.6 419.331 202.934 412.664C206.8 405.198 207.6 391.598 204.8 382.931C198.8 365.064 177.467 352.931 159.6 357.331Z" fill="#FFD6A8"/>
<path d="M148.133 454.001C127.6 459.735 108.4 475.468 99.2 494.001L94 504.401L102.4 512.136C112.4 521.202 127.467 529.469 142.133 533.469C156.933 537.736 179.067 537.736 194 533.469C208.267 529.469 223.867 520.936 233.867 511.869L242 504.401L237.067 494.535C228.267 476.935 212.8 463.201 194 456.001C183.6 452.001 159.067 450.935 148.133 454.001Z" fill="#FFD6A8"/>
<path d="M490 476C471.067 480.934 458 488.8 444.267 503.2C426.267 522.134 417.867 545.334 418.933 572.4C420.133 598.8 429.6 619.2 449.333 637.734C467.6 654.934 488.267 662.934 514 662.934C551.067 662.8 582.267 643.334 598.667 610C606 595.2 608.4 584.8 608.4 568C608.533 523.734 578.933 486.134 535.867 475.467C523.867 472.534 502.133 472.8 490 476ZM522.8 528.267L530 547.334L549.333 548.4C569.467 549.334 572 549.734 572 551.867C572 552.534 564.8 558.8 556.133 565.867L540.133 578.534L541.467 583.6C542.267 586.4 544.667 595.2 546.8 603.2C549.467 612.8 550.4 618.134 549.467 619.067C548.667 619.867 542.4 616.667 531.333 609.467C522.133 603.6 514.133 598.667 513.467 598.667C512.8 598.667 504.933 603.467 496 609.467C484.133 617.2 479.2 619.734 478.133 618.667C477.2 617.734 478 612.534 481.2 600.267C483.733 590.934 486 582.134 486.267 580.667C486.667 578.534 483.467 575.334 471.467 566C463.067 559.334 456.133 553.067 456 551.867C456 550.134 458.267 549.6 468.267 548.8C474.933 548.4 483.867 548 488 548C492.533 548 496.267 547.334 496.933 546.267C497.733 545.467 500.8 537.734 504 529.334C510.933 510.8 511.6 509.334 513.867 509.334C514.8 509.334 518.667 517.6 522.8 528.267Z" fill="#FFD6A8"/>
</svg>
