<svg width="512" height="512" viewBox="0 0 512 512" fill="none" xmlns="http://www.w3.org/2000/svg">
<path d="M279 36.0004C280.355 36.6017 280.355 36.6017 281.738 37.2152C298.4 45.3459 308.541 59.8442 315.223 76.6722C316 79.0004 316 79.0004 316 81.0004C317.176 81.3304 318.351 81.6604 319.562 82.0004C348.133 91.6283 371.569 114.565 385.032 141.024C397.817 167.116 400.293 194.669 401 223.313C402.045 265.438 407.262 299.552 434.505 332.84C443.482 343.829 449.398 352.239 449 367C447.789 377.278 443.231 385.185 435.812 392.313C426.796 399.199 417.282 400.735 406.217 400.629C404.865 400.634 403.514 400.641 402.163 400.65C398.483 400.669 394.803 400.657 391.123 400.639C387.141 400.626 383.16 400.641 379.178 400.653C371.391 400.671 363.605 400.663 355.818 400.645C349.488 400.631 343.157 400.627 336.826 400.63C335.472 400.631 335.472 400.631 334.091 400.632C332.257 400.633 330.422 400.634 328.588 400.635C312.389 400.644 296.189 400.627 279.99 400.597C264.286 400.568 248.583 400.561 232.88 400.577C215.76 400.594 198.641 400.598 181.521 400.58C179.694 400.578 177.867 400.576 176.04 400.575C175.141 400.574 174.242 400.573 173.316 400.572C166.996 400.566 160.676 400.569 154.355 400.576C146.649 400.584 138.943 400.577 131.237 400.552C127.308 400.539 123.38 400.533 119.452 400.544C115.85 400.555 112.248 400.546 108.647 400.523C106.739 400.515 104.831 400.527 102.923 400.54C91.8568 400.434 82.1515 397.773 74 390C65.549 380.835 63.0153 372.42 63 360C63.9001 349.445 69.8503 341.969 76.5615 334.216C106.756 299.204 110.233 260.312 111.338 215.695C111.999 189.395 115.373 164.826 127 141C127.483 140.005 127.967 139.01 128.465 137.985C142.132 111.484 166.55 91.8866 194 81.0004C194.66 81.0004 195.32 81.0004 196 81.0004C196.147 80.4061 196.294 79.8118 196.445 79.1996C200.496 64.2311 210.232 48.9258 223.849 40.9125C240.785 31.6273 260.735 27.1855 279 36.0004Z" fill="#225D5C"/>
<path d="M191.428 431.873C192.606 431.87 193.784 431.867 194.998 431.864C196.302 431.866 197.606 431.868 198.949 431.871C200.327 431.869 201.705 431.867 203.083 431.865C206.835 431.861 210.587 431.862 214.339 431.866C218.257 431.868 222.175 431.866 226.093 431.864C232.673 431.862 239.254 431.865 245.835 431.87C253.454 431.875 261.073 431.873 268.692 431.868C275.222 431.863 281.752 431.863 288.282 431.865C292.187 431.867 296.092 431.867 299.997 431.864C303.668 431.861 307.338 431.863 311.009 431.869C313.007 431.871 315.004 431.868 317.002 431.864C318.18 431.867 319.358 431.87 320.572 431.873C321.602 431.873 322.632 431.874 323.693 431.874C326 432 326 432 327 433C327.6 440.285 324.338 444.418 320 450C306.065 466.204 287.568 478.218 265.837 480.303C262.614 480.436 259.413 480.468 256.188 480.437C255.047 480.428 253.907 480.419 252.733 480.41C234.449 480.036 216.618 473.477 203 461C202.096 460.176 201.193 459.353 200.262 458.504C185.388 444.315 185.388 444.315 184.762 435.738C185.176 430.977 187.107 431.875 191.428 431.873Z" fill="#225D5C"/>
</svg>
