<svg width="683" height="683" viewBox="0 0 683 683" fill="none" xmlns="http://www.w3.org/2000/svg">
<mask id="mask0_300_459" style="mask-type:luminance" maskUnits="userSpaceOnUse" x="0" y="0" width="683" height="683">
<path d="M682.667 0H0V682.667H682.667V0Z" fill="white"/>
</mask>
<g mask="url(#mask0_300_459)">
<path d="M260.668 38.4013C245.334 49.3346 226.134 62.8013 218.134 68.4013L203.468 78.668H252.534H301.468L337.734 50.5346C357.734 35.068 374.934 21.468 376.001 20.5346C377.601 18.9346 371.334 18.668 333.334 18.668H288.668L260.668 38.4013Z" fill="#FFD6A8"/>
<path d="M379.467 48.668L341.067 78.668H383.467C422.4 78.8014 430.134 79.2014 440 81.868C443.067 82.668 447.334 79.468 478 52.668C497.067 36.0014 513.6 21.6014 514.667 20.5347C516.267 18.9347 509.467 18.668 467.334 18.668H418L379.467 48.668Z" fill="#FFD6A8"/>
<path d="M498 67.468C471.067 91.068 460.8 100.801 461.334 102.401C461.6 103.601 462 157.335 462.267 221.601C462.534 286.001 463.2 338.668 463.734 338.668C464.267 338.668 480.8 322.535 500.4 302.935L536 267.201V150.935C536 86.9346 535.867 34.668 535.734 34.668C535.467 34.668 518.534 49.468 498 67.468Z" fill="#FFD6A8"/>
<path d="M163.868 105.734C158.668 109.734 158.668 109.334 158.668 238.534V363.867L161.868 367.601L165.068 371.334H298.668H432.268L435.468 367.601L438.668 363.867V238.534C438.668 109.334 438.668 109.734 433.468 105.734C430.401 103.334 166.935 103.334 163.868 105.734ZM264.935 276.134C270.001 278.001 276.001 283.734 278.135 288.934C279.468 291.867 280.001 298.934 280.001 311.467C280.001 327.867 279.735 330.134 277.068 334.934C275.201 338.134 271.601 341.734 268.001 343.734L262.001 347.334H232.668C216.535 347.334 201.735 346.934 199.735 346.401C194.401 344.801 187.868 338.801 185.201 332.667C183.201 328.401 182.668 324.001 182.668 310.667C182.668 288.801 185.201 282.934 196.668 276.934C200.001 275.201 206.001 274.801 230.935 274.667C249.201 274.667 262.668 275.201 264.935 276.134ZM410.935 278.667C414.401 282.267 414.935 283.467 414.268 287.734C413.735 290.667 412.001 293.867 410.001 295.601C406.668 298.534 405.468 298.667 384.001 298.667C362.535 298.667 361.335 298.534 358.001 295.601C356.001 293.867 354.268 290.667 353.735 287.734C353.068 283.467 353.601 282.267 357.068 278.667L361.068 274.667H384.001H406.935L410.935 278.667ZM407.335 324.267C411.201 326.001 414.668 331.601 414.668 335.867C414.668 337.467 412.935 340.534 410.801 342.934L406.935 347.334L389.335 347.867C368.535 348.401 361.335 347.467 357.601 343.867C351.601 338.401 352.801 328.534 359.868 324.667C364.401 322.267 402.135 321.867 407.335 324.267Z" fill="#FFD6A8"/>
<path d="M206.668 310.668V322.668H231.335H256.001V310.668V298.668H231.335H206.668V310.668Z" fill="#FFD6A8"/>
<path d="M88.1346 340.933L44.9346 371.333L90.0013 371.733C114.801 371.866 135.068 371.866 135.201 371.733C135.335 371.466 135.068 357.866 134.668 341.466C134.268 323.066 133.468 311.333 132.668 311.066C131.868 310.8 111.868 324.266 88.1346 340.933Z" fill="#FFD6A8"/>
<path d="M496.667 341.334L466 372.001H522.667C566.667 372.134 580.4 372.534 584.4 373.868L589.333 375.734L623.067 346.401C641.467 330.268 658.133 315.601 660 313.868L663.333 310.668H595.333H527.333L496.667 341.334Z" fill="#FFD6A8"/>
<path d="M644.668 359.601C614.801 385.868 607.468 393.068 607.868 395.201C608.134 396.801 608.801 450.668 609.201 515.068L610.001 632.001L646.401 595.601L682.668 559.201V442.934C682.668 378.934 682.534 326.668 682.401 326.801C682.134 326.801 665.201 341.601 644.668 359.601Z" fill="#FFD6A8"/>
<path d="M7.2007 397.333C-0.399302 400.4 0.00069843 393.6 0.00069843 530.4V656.267L3.86737 660.133L7.73403 664H140.667H273.467L276.667 660.667L280 657.467V530.667V403.733L276.134 399.867L272.267 396L141.067 396.133C68.934 396.133 8.66737 396.667 7.2007 397.333ZM107.467 569.2C110.534 570.533 114.667 574 116.8 576.8C120.534 581.6 120.667 582.267 121.067 599.733C121.6 621.2 121.067 625.2 116.4 630.8C109.334 639.067 105.334 640 72.934 640C40.534 640 38.0007 639.467 31.0674 631.6C25.4674 625.2 24.0007 619.333 24.0007 603.333C24.0007 587.733 25.4674 581.733 30.2674 575.867C37.334 567.6 41.334 566.667 73.334 566.667C98.5341 566.667 102.667 567.067 107.467 569.2ZM252.8 571.067C256.267 575.2 256.934 579.867 254.4 584.4C251.334 590.267 249.734 590.533 225.2 590.667C202.667 590.667 201.734 590.533 199.067 587.6C195.2 583.467 194.134 579.067 196 574.533C199.067 567.467 202.267 566.667 227.067 567.067L249.6 567.333L252.8 571.067ZM252.534 620.133C257.2 625.6 257.067 631.2 252.134 636.133L248.267 640H226.8C215.067 640 204 639.467 202.134 638.667C194.4 635.733 192.934 624 199.6 618.667C202.8 616.267 204.934 616 226 616H249.067L252.534 620.133Z" fill="#FFD6A8"/>
<path d="M49.334 603.334V616.001H73.334H97.334V603.334V590.668H73.334H49.334V603.334Z" fill="#FFD6A8"/>
<path d="M309.468 399.468L305.334 402.934V530.134V657.468L308.668 660.668L311.868 664.001H444.535H577.201L580.935 660.801L584.668 657.601L585.068 532.401C585.335 440.001 584.935 406.401 583.868 403.601C580.535 395.601 586.801 396.001 444.135 396.001H313.601L309.468 399.468ZM415.601 570.934C418.935 573.068 422.135 576.801 424.001 580.534C426.668 586.001 426.801 588.268 426.401 605.068C426.001 622.534 425.868 623.868 422.401 628.934C420.268 632.134 416.535 635.468 413.068 637.201C407.601 639.734 404.935 640.001 378.268 640.001C342.268 640.001 337.601 638.534 331.868 626.001C328.268 618.268 328.268 588.401 331.868 580.534C334.401 574.801 340.134 569.868 346.401 568.001C348.401 567.334 363.601 566.934 380.134 567.068L410.268 567.334L415.601 570.934ZM553.735 568.134C560.935 571.468 562.535 581.601 556.668 587.334C553.468 590.668 553.068 590.668 530.001 590.668H506.535L503.335 587.201C497.735 581.201 499.868 570.934 507.201 568.001C511.468 566.268 550.001 566.401 553.735 568.134ZM554.935 617.468C559.068 619.734 561.601 626.934 559.868 631.868C557.335 638.934 553.468 640.001 529.335 640.001H507.735L503.868 636.134C498.401 630.668 498.935 622.534 505.201 617.734C508.001 615.601 550.935 615.334 554.935 617.468Z" fill="#FFD6A8"/>
<path d="M354.268 591.467C353.734 592 353.334 597.733 353.334 604.267V616H378.001H402.801L402.401 603.6L402.001 591.333L378.534 590.933C365.734 590.8 354.801 591.067 354.268 591.467Z" fill="#FFD6A8"/>
</g>
</svg>
