<svg width="683" height="683" viewBox="0 0 683 683" fill="none" xmlns="http://www.w3.org/2000/svg">
<mask id="mask0_300_260" style="mask-type:luminance" maskUnits="userSpaceOnUse" x="0" y="0" width="683" height="683">
<path d="M682.667 0H0V682.667H682.667V0Z" fill="white"/>
</mask>
<g mask="url(#mask0_300_260)">
<path d="M260.667 38.4013C245.333 49.3346 226.133 62.8013 218.133 68.4013L203.467 78.668H252.533H301.467L337.733 50.5346C357.733 35.068 374.933 21.468 376 20.5346C377.6 18.9346 371.333 18.668 333.333 18.668H288.667L260.667 38.4013Z" fill="#225D5C"/>
<path d="M379.467 48.668L341.067 78.668H383.467C422.4 78.8014 430.134 79.2014 440 81.868C443.067 82.668 447.334 79.468 478 52.668C497.067 36.0014 513.6 21.6014 514.667 20.5347C516.267 18.9347 509.467 18.668 467.334 18.668H418L379.467 48.668Z" fill="#225D5C"/>
<path d="M498 67.468C471.067 91.068 460.8 100.801 461.334 102.401C461.6 103.601 462 157.335 462.267 221.601C462.534 286.001 463.2 338.668 463.734 338.668C464.267 338.668 480.8 322.535 500.4 302.935L536 267.201V150.935C536 86.9346 535.867 34.668 535.734 34.668C535.467 34.668 518.534 49.468 498 67.468Z" fill="#225D5C"/>
<path d="M163.867 105.734C158.667 109.734 158.667 109.334 158.667 238.534V363.867L161.867 367.601L165.067 371.334H298.667H432.267L435.467 367.601L438.667 363.867V238.534C438.667 109.334 438.667 109.734 433.467 105.734C430.4 103.334 166.934 103.334 163.867 105.734ZM264.934 276.134C270 278.001 276 283.734 278.134 288.934C279.467 291.867 280 298.934 280 311.467C280 327.867 279.734 330.134 277.067 334.934C275.2 338.134 271.6 341.734 268 343.734L262 347.334H232.667C216.534 347.334 201.734 346.934 199.734 346.401C194.4 344.801 187.867 338.801 185.2 332.667C183.2 328.401 182.667 324.001 182.667 310.667C182.667 288.801 185.2 282.934 196.667 276.934C200 275.201 206 274.801 230.934 274.667C249.2 274.667 262.667 275.201 264.934 276.134ZM410.934 278.667C414.4 282.267 414.934 283.467 414.267 287.734C413.734 290.667 412 293.867 410 295.601C406.667 298.534 405.467 298.667 384 298.667C362.534 298.667 361.334 298.534 358 295.601C356 293.867 354.267 290.667 353.734 287.734C353.067 283.467 353.6 282.267 357.067 278.667L361.067 274.667H384H406.934L410.934 278.667ZM407.334 324.267C411.2 326.001 414.667 331.601 414.667 335.867C414.667 337.467 412.934 340.534 410.8 342.934L406.934 347.334L389.334 347.867C368.534 348.401 361.334 347.467 357.6 343.867C351.6 338.401 352.8 328.534 359.867 324.667C364.4 322.267 402.134 321.867 407.334 324.267Z" fill="#225D5C"/>
<path d="M206.667 310.668V322.668H231.334H256V310.668V298.668H231.334H206.667V310.668Z" fill="#225D5C"/>
<path d="M88.1336 340.933L44.9336 371.333L90.0003 371.733C114.8 371.866 135.067 371.866 135.2 371.733C135.334 371.466 135.067 357.866 134.667 341.466C134.267 323.066 133.467 311.333 132.667 311.066C131.867 310.8 111.867 324.266 88.1336 340.933Z" fill="#225D5C"/>
<path d="M496.667 341.334L466 372.001H522.667C566.667 372.134 580.4 372.534 584.4 373.868L589.333 375.734L623.067 346.401C641.467 330.268 658.133 315.601 660 313.868L663.333 310.668H595.333H527.333L496.667 341.334Z" fill="#225D5C"/>
<path d="M644.667 359.601C614.8 385.868 607.467 393.068 607.867 395.201C608.133 396.801 608.8 450.668 609.2 515.068L610 632.001L646.4 595.601L682.667 559.201V442.934C682.667 378.934 682.533 326.668 682.4 326.801C682.133 326.801 665.2 341.601 644.667 359.601Z" fill="#225D5C"/>
<path d="M7.20021 397.333C-0.39979 400.4 0.000210148 393.6 0.000210148 530.4V656.267L3.86688 660.133L7.73354 664H140.667H273.467L276.667 660.667L280 657.467V530.667V403.733L276.134 399.867L272.267 396L141.067 396.133C68.9335 396.133 8.66688 396.667 7.20021 397.333ZM107.467 569.2C110.534 570.533 114.667 574 116.8 576.8C120.534 581.6 120.667 582.267 121.067 599.733C121.6 621.2 121.067 625.2 116.4 630.8C109.334 639.067 105.334 640 72.9335 640C40.5335 640 38.0002 639.467 31.0669 631.6C25.4669 625.2 24.0002 619.333 24.0002 603.333C24.0002 587.733 25.4669 581.733 30.2669 575.867C37.3335 567.6 41.3335 566.667 73.3335 566.667C98.5336 566.667 102.667 567.067 107.467 569.2ZM252.8 571.067C256.267 575.2 256.934 579.867 254.4 584.4C251.334 590.267 249.734 590.533 225.2 590.667C202.667 590.667 201.734 590.533 199.067 587.6C195.2 583.467 194.134 579.067 196 574.533C199.067 567.467 202.267 566.667 227.067 567.067L249.6 567.333L252.8 571.067ZM252.534 620.133C257.2 625.6 257.067 631.2 252.134 636.133L248.267 640H226.8C215.067 640 204 639.467 202.134 638.667C194.4 635.733 192.934 624 199.6 618.667C202.8 616.267 204.934 616 226 616H249.067L252.534 620.133Z" fill="#225D5C"/>
<path d="M49.3335 603.334V616.001H73.3335H97.3335V603.334V590.668H73.3335H49.3335V603.334Z" fill="#225D5C"/>
<path d="M309.467 399.468L305.333 402.934V530.134V657.468L308.667 660.668L311.867 664.001H444.534H577.2L580.934 660.801L584.667 657.601L585.067 532.401C585.334 440.001 584.934 406.401 583.867 403.601C580.534 395.601 586.8 396.001 444.134 396.001H313.6L309.467 399.468ZM415.6 570.934C418.934 573.068 422.134 576.801 424 580.534C426.667 586.001 426.8 588.268 426.4 605.068C426 622.534 425.867 623.868 422.4 628.934C420.267 632.134 416.534 635.468 413.067 637.201C407.6 639.734 404.934 640.001 378.267 640.001C342.267 640.001 337.6 638.534 331.867 626.001C328.267 618.268 328.267 588.401 331.867 580.534C334.4 574.801 340.133 569.868 346.4 568.001C348.4 567.334 363.6 566.934 380.133 567.068L410.267 567.334L415.6 570.934ZM553.734 568.134C560.934 571.468 562.534 581.601 556.667 587.334C553.467 590.668 553.067 590.668 530 590.668H506.534L503.334 587.201C497.734 581.201 499.867 570.934 507.2 568.001C511.467 566.268 550 566.401 553.734 568.134ZM554.934 617.468C559.067 619.734 561.6 626.934 559.867 631.868C557.334 638.934 553.467 640.001 529.334 640.001H507.734L503.867 636.134C498.4 630.668 498.934 622.534 505.2 617.734C508 615.601 550.934 615.334 554.934 617.468Z" fill="#225D5C"/>
<path d="M354.267 591.467C353.733 592 353.333 597.733 353.333 604.267V616H378H402.8L402.4 603.6L402 591.333L378.533 590.933C365.733 590.8 354.8 591.067 354.267 591.467Z" fill="#225D5C"/>
</g>
</svg>
