<svg width="512" height="512" viewBox="0 0 512 512" fill="none" xmlns="http://www.w3.org/2000/svg">
<g clip-path="url(#clip0_307_173)">
<path d="M0.000183925 288C32.8418 287.702 65.6831 287.473 98.5258 287.336C102.405 287.32 106.284 287.303 110.163 287.286C110.935 287.283 111.707 287.279 112.503 287.276C125 287.219 137.497 287.117 149.993 286.997C162.82 286.875 175.647 286.803 188.474 286.777C196.387 286.759 204.298 286.703 212.211 286.597C218.282 286.52 224.352 286.512 230.424 286.53C232.912 286.526 235.4 286.5 237.887 286.45C256.242 286.101 256.242 286.101 260.865 289.284C264.238 292.705 266.073 296.617 268 301C269.483 303.133 269.483 303.133 271.039 304.867C272.368 306.413 273.696 307.958 275.024 309.504C278.509 313.526 282.148 317.332 286 321C291 326 291 326 292.594 327.699C298.257 333.614 304.577 338.578 311.072 343.529C313.009 345.006 314.936 346.495 316.863 347.984C329.336 357.552 342.423 365.984 355.938 374C356.694 374.457 357.451 374.914 358.23 375.385C366.406 380.15 374.404 382.531 383.875 382.438C384.588 382.458 385.301 382.477 386.035 382.498C397.039 382.488 406.577 377.566 415.75 371.938C416.7 371.365 417.649 370.792 418.628 370.201C426.978 365.115 435.086 359.74 443 354C444.001 353.275 444.001 353.275 445.022 352.536C454.354 345.739 463.308 338.595 472 331C472.918 330.206 473.836 329.412 474.781 328.594C479.26 324.655 483.399 320.635 487.238 316.07C489.176 313.793 491.211 311.625 493.25 309.438C497.689 304.556 501.521 299.323 505.282 293.914C508.685 289.105 508.685 289.105 512 288C512.094 309.749 512.164 331.498 512.207 353.247C512.228 363.346 512.256 373.445 512.302 383.544C512.342 392.348 512.368 401.152 512.377 409.956C512.382 414.616 512.394 419.276 512.423 423.936C512.45 428.326 512.459 432.716 512.453 437.107C512.454 438.714 512.462 440.321 512.477 441.928C512.554 450.332 512.507 457.644 508 465C507.622 465.65 507.244 466.3 506.854 466.97C502.673 473.867 495.607 477.871 488 480C485.311 480.183 482.728 480.273 480.041 480.257C478.859 480.263 478.859 480.263 477.654 480.268C475.01 480.277 472.367 480.272 469.724 480.267C467.811 480.271 465.899 480.276 463.986 480.281C458.727 480.293 453.467 480.293 448.208 480.291C442.537 480.29 436.866 480.301 431.195 480.311C420.084 480.328 408.972 480.333 397.861 480.334C388.83 480.335 379.799 480.339 370.769 480.346C349.339 480.36 327.909 480.373 306.479 480.372C305.794 480.372 305.109 480.371 304.403 480.371C300.929 480.371 297.456 480.371 293.982 480.371C293.292 480.371 292.603 480.371 291.892 480.371C290.497 480.371 289.102 480.371 287.707 480.371C266.002 480.369 244.297 480.384 222.592 480.412C198.206 480.442 173.82 480.46 149.434 480.458C136.523 480.457 123.611 480.463 110.699 480.484C99.7068 480.502 88.7144 480.507 77.7218 480.493C72.1126 480.487 66.5036 480.486 60.8945 480.504C55.7592 480.519 50.6243 480.517 45.489 480.499C43.6317 480.496 41.7744 480.5 39.9171 480.511C22.1995 480.61 22.1995 480.61 15.0002 476C14.3529 475.622 13.7056 475.244 13.0386 474.854C6.11691 470.678 2.16133 463.607 0.000183925 456C-0.245912 452.638 -0.245912 452.638 -0.240325 448.901C-0.242034 448.209 -0.243743 447.518 -0.245503 446.806C-0.248783 444.503 -0.23782 442.2 -0.226867 439.897C-0.226302 438.241 -0.22662 436.585 -0.227752 434.929C-0.228325 430.442 -0.216576 425.955 -0.202604 421.468C-0.190092 416.775 -0.188926 412.083 -0.186553 407.39C-0.18034 398.508 -0.163931 389.626 -0.143854 380.744C-0.12149 370.63 -0.110501 360.516 -0.100463 350.403C-0.0795648 329.602 -0.0443917 308.801 0.000183925 288ZM68.0002 358.063C64.573 363.096 64.3425 366.979 65.0002 373C67.3481 377.876 70.2878 380.403 75.0002 383C78.7951 383.983 82.3892 384.137 86.3 384.161C87.5519 384.171 88.8038 384.18 90.0936 384.19C91.4531 384.195 92.8126 384.199 94.1721 384.203C95.2075 384.207 95.2075 384.207 96.2638 384.212C99.9181 384.227 103.572 384.236 107.227 384.24C110.98 384.246 114.733 384.27 118.486 384.298C121.391 384.317 124.296 384.322 127.201 384.324C128.584 384.327 129.966 384.335 131.349 384.348C143.77 384.765 143.77 384.765 154.611 379.548C158.69 374.82 159.356 371.599 159.278 365.539C158.866 361.775 157.517 359.782 155 357C149.319 352.528 144.774 351.883 137.7 351.839C135.823 351.824 135.823 351.824 133.907 351.81C132.547 351.805 131.188 351.801 129.828 351.797C128.793 351.793 128.793 351.793 127.737 351.788C124.082 351.773 120.428 351.764 116.774 351.76C113.02 351.754 109.267 351.73 105.514 351.702C102.609 351.683 99.7041 351.678 96.799 351.676C95.4165 351.673 94.0339 351.665 92.6515 351.652C79.0568 351.252 79.0568 351.252 68.0002 358.063Z" fill="#FFD6A8"/>
<path d="M401.453 36.406C403.065 37.1078 403.065 37.1078 404.711 37.8238C408.233 39.3622 411.741 40.9305 415.25 42.4997C417.71 43.5849 420.173 44.6634 422.636 45.7414C426.478 47.4237 430.318 49.1078 434.154 50.8022C442.705 54.5765 451.288 58.2693 459.9 61.9003C461.845 62.7202 463.788 63.5417 465.732 64.3638C473.191 67.5188 473.191 67.5188 480.658 70.6577C484.089 72.0974 487.513 73.5509 490.937 75.0075C491.943 75.4254 492.949 75.8433 493.986 76.2738C500.287 78.9729 507.041 81.9475 511.197 87.6394C512.433 91.2726 512.286 94.9074 512.274 98.7019C512.282 100.02 512.282 100.02 512.29 101.365C512.304 104.28 512.303 107.194 512.301 110.109C512.304 112.153 512.309 114.198 512.314 116.242C512.321 120.543 512.321 124.843 512.315 129.144C512.311 133.512 512.318 137.88 512.336 142.248C512.531 189.12 512.531 189.12 509 208C508.786 209.237 508.572 210.474 508.352 211.749C507.797 214.695 507.159 217.59 506.437 220.5C506.188 221.516 505.938 222.533 505.68 223.58C498.204 252.299 483.279 276.642 463 298C462.528 298.498 462.057 298.997 461.572 299.51C454.164 307.294 446.399 314.232 437.791 320.661C436.002 321.998 434.225 323.352 432.449 324.707C423.353 331.576 413.854 337.715 404.138 343.668C402.246 344.846 400.393 346.064 398.547 347.312C397.562 347.952 396.577 348.591 395.562 349.25C394.759 349.791 393.956 350.333 393.129 350.89C387.235 352.98 381.116 353.182 375.227 350.947C372.468 349.484 369.866 347.891 367.25 346.187C366.302 345.598 365.355 345.008 364.379 344.401C361.563 342.633 358.778 340.826 356 339C355.224 338.493 354.449 337.987 353.65 337.466C308.171 307.556 271.574 268.351 260.144 213.688C255.311 190.026 255.5 166.411 255.554 142.358C255.565 136.911 255.545 131.464 255.516 126.017C255.497 121.791 255.498 117.566 255.503 113.34C255.504 111.329 255.498 109.319 255.485 107.309C255.47 104.515 255.481 101.723 255.498 98.9289C255.488 98.1092 255.479 97.2895 255.469 96.445C255.537 91.1767 256.492 88.1643 260 83.9997C265.287 79.4654 272.267 76.9745 278.625 74.3239C279.661 73.8851 280.697 73.4462 281.764 72.9941C285.173 71.5517 288.586 70.1189 292 68.6872C296.237 66.9039 300.473 65.1184 304.708 63.331C305.965 62.8007 307.222 62.2706 308.479 61.741C317.577 57.9061 326.635 53.9866 335.668 50.0003C339.474 48.323 343.285 46.6571 347.095 44.9905C350.149 43.6534 353.197 42.3061 356.24 40.9449C359.644 39.4236 363.058 37.9299 366.476 36.4411C367.468 35.9891 368.46 35.5371 369.481 35.0715C381.093 30.0844 390.161 31.2624 401.453 36.406ZM415.812 138.875C415.342 139.443 414.871 140.011 414.386 140.596C410.603 145.189 406.923 149.862 403.267 154.556C399.736 159.086 396.132 163.551 392.5 168C387.831 173.719 383.224 179.482 378.689 185.308C377.466 186.877 376.233 188.439 375 190C374.331 190.856 374.331 190.856 373.648 191.729C372.478 193.191 371.244 194.6 370 196C369.34 196 368.68 196 368 196C366.444 193.89 365.015 191.783 363.605 189.578C362.723 188.229 361.841 186.88 360.959 185.531C359.574 183.395 358.192 181.258 356.812 179.119C355.479 177.059 354.136 175.006 352.793 172.953C352.185 171.999 352.185 171.999 351.564 171.027C348.694 166.649 345.716 163.358 341 161C336.075 160.459 332.13 160.455 327.625 162.625C323.452 166.4 320.811 169.695 320.125 175.375C320.437 180.466 322.524 183.981 325.254 188.148C325.695 188.838 326.137 189.527 326.592 190.237C328.048 192.5 329.522 194.751 331 197C331.505 197.771 332.01 198.542 332.531 199.336C335.71 204.177 338.924 208.993 342.161 213.795C343.835 216.284 345.499 218.78 347.162 221.277C348.239 222.878 349.316 224.478 350.394 226.078C350.884 226.816 351.374 227.555 351.878 228.316C354.961 232.855 357.981 236.49 363 239C365.235 239.274 365.235 239.274 367.75 239.312C368.59 239.35 369.431 239.387 370.297 239.425C376.521 238.445 380.395 233.8 384.187 229.125C384.658 228.557 385.129 227.989 385.614 227.403C389.396 222.811 393.077 218.137 396.733 213.444C400.263 208.914 403.867 204.448 407.5 200C412.006 194.479 416.446 188.914 420.829 183.295C424.385 178.748 428.029 174.278 431.687 169.812C443.081 157.173 443.081 157.173 447.277 141.539C446.726 136.494 443.995 133.9 440.375 130.625C429.906 125.584 422.578 130.533 415.812 138.875Z" fill="#FFD6A8"/>
<path d="M32.3143 127.76C33.5471 127.757 33.5471 127.757 34.8047 127.754C37.5501 127.751 40.2952 127.762 43.0405 127.773C45.0118 127.774 46.9831 127.773 48.9544 127.772C54.3011 127.772 59.6476 127.783 64.9942 127.797C70.5836 127.81 76.173 127.811 81.7624 127.813C92.3445 127.82 102.927 127.836 113.509 127.856C125.557 127.879 137.605 127.889 149.653 127.9C174.436 127.92 199.218 127.956 224 128C224.018 128.644 224.037 129.288 224.056 129.951C224.254 136.801 224.468 143.649 224.69 150.498C224.77 153.036 224.847 155.574 224.919 158.113C225.493 178.093 226.283 198.256 230.617 217.836C231 220 231 220 231 224C154.77 224 78.54 224 0 224C0 145.5 0 145.5 9 136C16.3233 130.114 22.8819 127.687 32.3143 127.76Z" fill="#FFD6A8"/>
</g>
<defs>
<clipPath id="clip0_307_173">
<rect width="512" height="512" fill="white"/>
</clipPath>
</defs>
</svg>
