<svg width="683" height="683" viewBox="0 0 683 683" fill="none" xmlns="http://www.w3.org/2000/svg">
<path d="M334 12.6674C330.667 15.8674 330.667 15.8674 330.667 44.6674C330.667 73.4674 330.667 73.4674 334 76.6674C336 78.8007 338.8 80.0007 341.334 80.0007C343.867 80.0007 346.667 78.8007 348.667 76.6674C352 73.4674 352 73.4674 352 44.6674C352 15.8674 352 15.8674 348.667 12.6674C346.667 10.534 343.867 9.33398 341.334 9.33398C338.8 9.33398 336 10.534 334 12.6674Z" fill="#225D5C"/>
<path d="M224.133 40.803C222.533 42.803 221.333 45.603 221.333 47.203C221.333 48.6696 227.867 61.0696 235.733 74.6696C251.2 101.469 253.2 103.336 261.067 100.136C265.6 98.2696 268.667 92.2696 267.467 88.2696C266.133 84.003 242.667 43.7363 239.6 40.2696C235.6 36.003 227.733 36.1363 224.133 40.803Z" fill="#225D5C"/>
<path d="M442.933 42.2662C441.6 43.5996 434.533 54.7996 427.467 67.0662C413.2 91.9996 412 96.3996 418.133 101.2C422.4 104.533 426.267 104.8 430.267 102C434.667 98.9329 460 54.3996 460 49.7329C460 41.7329 449.067 36.9329 442.933 42.2662Z" fill="#225D5C"/>
<path d="M147.067 116.669C140.533 119.469 139.067 128.136 144.4 132.936C149.867 138.136 191.467 161.336 195.2 161.336C202.667 161.336 208.133 150.803 203.733 144.936C201.733 142.536 158.133 116.803 153.867 115.736C152.267 115.336 149.2 115.736 147.067 116.669Z" fill="#225D5C"/>
<path d="M316.667 122.267C263.334 133.601 224.134 182.134 224 236.934C223.867 311.467 292 367.201 364.934 352.134C413.067 342.134 449.6 303.867 457.467 255.467C459.467 242.934 458.4 220.001 455.334 208.001C446.134 172.401 418.4 141.067 384 127.601C364.934 120.134 337.067 117.867 316.667 122.267ZM409.6 183.734C415.067 189.067 416.134 198.001 412.267 204.267C410.667 206.667 390.134 228.001 366.4 251.601C329.334 288.401 322.667 294.534 318.4 295.334C310.134 296.934 304.8 293.201 290.934 276.001C266.134 245.467 262.667 240.401 262.667 234.534C262.667 223.867 269.2 217.334 279.867 217.334C286.667 217.334 290.934 220.934 304.667 238.667C310.4 246.001 315.734 252.001 316.534 252.001C317.334 252.001 333.867 236.001 353.334 216.534C372.8 197.067 389.867 180.534 391.334 179.867C396.534 177.601 405.334 179.467 409.6 183.734Z" fill="#225D5C"/>
<path d="M502.667 133.333C489.867 140.666 478.267 147.866 477.067 149.466C472.134 155.333 475.334 164.4 482.8 166C486.267 166.8 490 165.066 509.734 153.733C535.6 138.933 538.667 136.533 538.667 130.666C538.667 125.733 533.467 120 529.067 120C527.334 120 515.467 126 502.667 133.333Z" fill="#225D5C"/>
<path d="M113.6 227.068C108.667 232.268 109.867 240.135 116.134 243.335C121.6 246.268 170.4 246.268 175.867 243.335C182.267 240.135 183.467 231.735 178.267 226.935C175.334 224.135 174.134 224.002 145.867 224.002C116.8 224.002 116.4 224.002 113.6 227.068Z" fill="#225D5C"/>
<path d="M499.467 232.136C494.533 236.002 494.533 244.002 499.467 247.869C502.8 250.536 504.667 250.669 531.6 250.669C560.133 250.669 560.133 250.669 563.333 247.336C565.467 245.336 566.667 242.536 566.667 240.002C566.667 237.469 565.467 234.669 563.333 232.669C560.133 229.336 560.133 229.336 531.6 229.336C504.667 229.336 502.8 229.469 499.467 232.136Z" fill="#225D5C"/>
<path d="M171.6 304.668C150.4 313.068 132.934 320.001 132.667 320.268C131.867 321.201 338.134 400.668 341.334 400.668C343.2 400.668 390.934 382.668 447.6 360.668C536.4 326.135 550 320.401 547.6 319.201C542.534 316.668 470.534 289.068 470.134 289.601C469.867 289.735 468.4 292.935 466.8 296.535C462.267 307.068 449.867 324.668 440.267 334.401C385.734 389.601 296.934 389.601 242.4 334.401C232.667 324.535 218.8 304.535 215.2 295.201C214 292.001 212.267 289.335 211.467 289.468C210.667 289.468 192.667 296.401 171.6 304.668Z" fill="#225D5C"/>
<path d="M85.3334 370.935C73.4667 391.469 64.1334 408.535 64.5334 408.935C64.9334 409.335 113.6 428.535 172.933 451.602C239.867 477.602 281.333 493.069 282.4 492.402C285.067 490.669 325.6 419.602 324.4 418.535C323.867 418.002 277.733 399.869 222 378.269C166.267 356.535 117.6 337.735 113.867 336.135L106.933 333.469L85.3334 370.935Z" fill="#225D5C"/>
<path d="M467.067 375.871C407.6 399.071 358.533 418.404 358 418.804C357.333 419.604 397.067 489.604 399.867 492.404C400.8 493.337 436.667 480.137 508.933 452.004C568.267 429.071 617.2 409.737 617.733 409.204C618.667 408.537 579.333 338.004 576.133 334.537C575.733 334.004 526.667 352.671 467.067 375.871Z" fill="#225D5C"/>
<path d="M113.333 520.533C113.333 574.133 113.733 589.2 115.067 589.733C138 599.066 329.867 673.2 330.267 672.933C330.534 672.666 330.534 623.333 330.4 563.333L330 454.133L313.467 482.666C304.534 498.4 295.867 512.666 294.267 514.266C292.534 516.266 290 517.333 287.467 517.333C285.2 517.333 245.6 502.666 199.334 484.666C153.2 466.666 114.933 452 114.4 452C113.867 452 113.333 482.8 113.333 520.533Z" fill="#225D5C"/>
<path d="M482.667 484.802C436.8 502.669 397.467 517.336 395.2 517.336C392.667 517.336 390.133 516.136 388.4 514.269C386.8 512.669 378.133 498.402 369.2 482.669L352.667 454.136L352.267 563.336C352.133 623.336 352.267 672.669 352.533 672.936C352.8 673.202 401.467 654.536 460.8 631.469L568.667 589.469L569.067 520.802C569.333 466.136 569.067 452.002 567.733 452.136C566.8 452.269 528.533 466.936 482.667 484.802Z" fill="#225D5C"/>
</svg>
