<svg width="512" height="512" viewBox="0 0 512 512" fill="none" xmlns="http://www.w3.org/2000/svg">
<path d="M125.227 15.7543C126.527 15.7483 126.527 15.7483 127.852 15.7422C128.805 15.748 129.757 15.7538 130.738 15.7598C131.749 15.7581 132.761 15.7564 133.802 15.7547C137.207 15.7514 140.611 15.7624 144.015 15.7733C146.449 15.7739 148.883 15.7735 151.317 15.7724C156.565 15.772 161.813 15.7776 167.061 15.7889C174.649 15.8051 182.237 15.8104 189.825 15.8129C202.135 15.8172 214.446 15.8306 226.757 15.8495C238.716 15.8678 250.676 15.882 262.635 15.8905C263.372 15.891 264.109 15.8915 264.869 15.8921C268.566 15.8947 272.263 15.8972 275.961 15.8997C306.64 15.9204 337.32 15.9558 368 16.0004C368.009 17.12 368.009 17.12 368.018 18.2623C368.076 25.3238 368.148 32.3849 368.236 39.4461C368.281 43.0756 368.32 46.7051 368.347 50.3348C368.373 53.8429 368.413 57.3505 368.464 60.8582C368.488 62.8366 368.498 64.8151 368.508 66.7936C368.67 76.7943 370.092 83.743 377.028 91.2386C382.463 96.0931 388.756 98.102 395.941 98.2057C397.772 98.2356 397.772 98.2356 399.641 98.2661C400.96 98.2828 402.278 98.2995 403.637 98.3168C405 98.3373 406.364 98.3583 407.727 98.3797C411.313 98.4349 414.898 98.4843 418.484 98.5326C422.144 98.5828 425.803 98.6385 429.463 98.6937C436.642 98.8012 443.821 98.9027 451 99.0004C451.092 141.686 451.162 184.371 451.205 227.056C451.21 232.094 451.215 237.132 451.22 242.171C451.221 243.174 451.222 244.177 451.223 245.21C451.241 261.456 451.272 277.701 451.309 293.947C451.346 310.613 451.369 327.28 451.377 343.947C451.382 354.233 451.4 364.519 451.432 374.805C451.453 381.856 451.46 388.908 451.454 395.959C451.452 400.029 451.456 404.098 451.477 408.168C451.497 411.894 451.498 415.621 451.484 419.347C451.481 421.332 451.499 423.318 451.517 425.303C451.471 432.07 451.182 436.558 447 442C442.391 445.458 438.297 446.124 432.642 446.132C431.549 446.136 430.456 446.139 429.329 446.143C428.128 446.143 426.928 446.142 425.691 446.141C424.415 446.144 423.139 446.147 421.824 446.15C418.28 446.158 414.736 446.16 411.191 446.16C407.37 446.162 403.548 446.17 399.727 446.177C391.369 446.19 383.012 446.196 374.654 446.201C369.436 446.203 364.218 446.208 358.999 446.212C344.552 446.224 330.104 446.235 315.656 446.238C314.731 446.238 313.807 446.238 312.854 446.239C311.927 446.239 311 446.239 310.045 446.239C308.167 446.24 306.288 446.24 304.41 446.241C303.013 446.241 303.013 446.241 301.587 446.241C286.49 446.245 271.393 446.263 256.296 446.286C240.797 446.31 225.297 446.322 209.798 446.323C201.095 446.324 192.393 446.33 183.69 446.348C176.28 446.363 168.87 446.369 161.459 446.36C157.679 446.356 153.899 446.357 150.119 446.371C146.018 446.386 141.919 446.378 137.818 446.368C136.626 446.376 135.435 446.384 134.207 446.392C126.817 446.348 120.255 446.084 114.625 440.75C111.448 435.374 110.75 430.059 110.749 423.896C110.746 423.213 110.743 422.53 110.74 421.826C110.733 419.545 110.74 417.264 110.746 414.982C110.744 413.327 110.741 411.672 110.737 410.017C110.729 405.474 110.733 400.931 110.739 396.389C110.743 391.488 110.736 386.586 110.731 381.685C110.722 372.086 110.724 362.486 110.73 352.887C110.734 345.086 110.735 337.285 110.733 329.484C110.732 328.374 110.732 327.264 110.732 326.12C110.731 323.866 110.731 321.611 110.73 319.356C110.724 298.209 110.731 277.062 110.741 255.915C110.75 237.766 110.749 219.618 110.74 201.47C110.729 180.399 110.725 159.328 110.731 138.256C110.732 136.01 110.732 133.763 110.733 131.517C110.733 130.412 110.733 129.306 110.734 128.167C110.735 120.375 110.733 112.582 110.728 104.79C110.722 95.2948 110.724 85.7995 110.734 76.3042C110.74 71.4588 110.742 66.6135 110.735 61.7681C110.729 57.3331 110.732 52.8983 110.743 48.4633C110.745 46.8584 110.744 45.2535 110.739 43.6487C110.733 41.4672 110.739 39.2861 110.749 37.1047C110.749 35.893 110.749 34.6813 110.75 33.4329C111.135 28.164 111.947 24.2157 115.438 20.1878C118.826 17.2959 120.79 15.7498 125.227 15.7543ZM164 99.0004C162.414 101.257 162.414 101.257 162 104C163.118 106.342 164.164 108.164 166 110C167.74 110.103 169.483 110.136 171.226 110.141C172.359 110.147 173.491 110.152 174.659 110.158C176.54 110.16 176.54 110.16 178.459 110.161C180.427 110.169 180.427 110.169 182.435 110.177C186.044 110.19 189.654 110.196 193.263 110.201C195.517 110.203 197.77 110.208 200.023 110.212C207.067 110.226 214.111 110.235 221.156 110.239C229.297 110.244 237.439 110.261 245.581 110.29C251.867 110.312 258.153 110.322 264.439 110.323C268.197 110.324 271.955 110.33 275.712 110.348C279.903 110.368 284.093 110.363 288.283 110.357C290.158 110.371 290.158 110.371 292.071 110.385C293.21 110.379 294.348 110.374 295.521 110.368C296.513 110.369 297.504 110.371 298.526 110.372C301.036 110.191 301.036 110.191 302.819 108.665C304.657 106.075 304.385 104.079 304 101C302.455 98.9637 301.279 98.1396 299 97.0004C297.274 96.903 295.543 96.8697 293.814 96.8666C292.165 96.8602 292.165 96.8602 290.483 96.8537C289.271 96.8542 288.06 96.8546 286.811 96.8551C285.54 96.8517 284.268 96.8484 282.958 96.8449C279.464 96.8361 275.97 96.8337 272.477 96.8331C269.562 96.8322 266.647 96.8285 263.732 96.8249C256.854 96.8168 249.977 96.8143 243.1 96.815C236.003 96.8156 228.906 96.8051 221.809 96.7893C215.719 96.7762 209.629 96.7709 203.539 96.7715C199.9 96.7718 196.261 96.7689 192.623 96.7583C188.565 96.7469 184.506 96.7514 180.448 96.7574C179.241 96.7518 178.033 96.7462 176.789 96.7404C175.132 96.7467 175.132 96.7467 173.441 96.7531C172.481 96.7526 171.522 96.752 170.533 96.7515C167.854 97.0148 166.253 97.5468 164 99.0004ZM163 134C161.915 135.843 161.915 135.843 162 138C163.769 141.698 163.769 141.698 167 144C169.45 144.119 171.873 144.179 174.324 144.193C175.079 144.201 175.833 144.21 176.611 144.218C179.113 144.243 181.615 144.259 184.118 144.274C184.971 144.279 185.825 144.284 186.705 144.29C191.222 144.317 195.739 144.336 200.257 144.35C204.927 144.367 209.596 144.412 214.266 144.463C217.853 144.496 221.441 144.508 225.029 144.514C226.75 144.52 228.472 144.536 230.193 144.56C232.602 144.591 235.009 144.591 237.418 144.584C238.486 144.608 238.486 144.608 239.575 144.634C243.305 144.586 244.74 144.251 247.474 141.628C249.22 139.128 249.22 139.128 249 136.375C247.747 133.399 246.803 132.605 244 131C241.432 130.711 239.108 130.59 236.541 130.612C235.796 130.607 235.051 130.602 234.283 130.596C231.824 130.583 229.366 130.592 226.907 130.602C225.196 130.6 223.485 130.597 221.773 130.593C218.189 130.589 214.605 130.595 211.02 130.609C206.427 130.626 201.834 130.616 197.24 130.599C193.708 130.588 190.175 130.591 186.642 130.599C184.948 130.601 183.255 130.598 181.561 130.591C179.194 130.584 176.827 130.595 174.459 130.612C173.41 130.603 173.41 130.603 172.34 130.594C168.285 130.647 165.906 131.094 163 134ZM332.313 140.313C331.077 140.622 329.842 140.93 328.569 141.248C326.797 141.708 326.797 141.708 324.989 142.176C323.911 142.454 322.834 142.731 321.724 143.017C318.995 144.002 317.697 144.677 316 147C315.606 150.154 315.418 152.111 317.188 154.813C320.402 156.918 323.15 157.164 326.895 156.442C327.858 156.152 328.821 155.862 329.813 155.563C330.789 155.275 331.765 154.988 332.77 154.692C333.874 154.35 333.874 154.35 335 154C298.311 206.876 241.226 234.976 179.194 246.523C178.301 246.691 177.408 246.859 176.489 247.032C175.29 247.249 175.29 247.249 174.068 247.471C171.781 247.939 171.781 247.939 169.313 249.75C167.752 252.007 167.752 252.007 167.938 255.063C168.767 258.052 168.767 258.052 170.899 259.77C175.683 261.668 179.725 260.562 184.688 259.625C185.741 259.436 186.794 259.247 187.879 259.052C238.991 249.444 284.234 226.539 322 191C322.659 190.384 323.318 189.768 323.996 189.133C331.515 181.875 337.848 173.421 344 165C344.098 165.76 344.196 166.519 344.297 167.301C344.522 168.792 344.522 168.792 344.75 170.313C344.89 171.299 345.029 172.285 345.172 173.301C346.157 176.512 347.072 177.428 350 179C353.127 179.007 353.127 179.007 356 178C358.464 174.305 358.265 171.519 358.188 167.25C358.179 166.5 358.171 165.751 358.162 164.978C358.125 162.651 358.067 160.326 358 158C357.981 157.28 357.962 156.559 357.942 155.817C357.895 146.35 357.895 146.35 354 138C347.549 134.774 338.8 138.615 332.313 140.313ZM360.339 212.123C358.372 214.881 358.62 217.042 358.613 220.408C358.607 221.062 358.602 221.715 358.596 222.388C358.582 224.58 358.589 226.772 358.596 228.965C358.591 230.535 358.584 232.106 358.576 233.676C358.558 237.944 358.559 242.213 358.564 246.481C358.568 250.043 358.561 253.604 358.555 257.165C358.541 265.566 358.543 273.966 358.554 282.366C358.566 291.037 358.552 299.708 358.525 308.38C358.503 315.82 358.496 323.26 358.502 330.701C358.505 335.146 358.503 339.592 358.486 344.038C358.47 348.218 358.474 352.398 358.493 356.579C358.497 358.114 358.494 359.649 358.483 361.184C358.47 363.278 358.481 365.371 358.499 367.465C358.499 368.638 358.5 369.81 358.5 371.018C359.107 374.633 360.105 375.815 363 378C365.941 378.581 365.941 378.581 369.192 378.461C370.384 378.457 371.575 378.454 372.803 378.45C374.044 378.425 375.285 378.401 376.563 378.375C377.807 378.374 379.052 378.373 380.334 378.371C387.047 378.563 387.047 378.563 393 376C393.456 373.083 393.456 373.083 393.375 369.585C393.381 368.586 393.381 368.586 393.387 367.567C393.396 365.325 393.384 363.084 393.373 360.842C393.375 359.239 393.379 357.636 393.384 356.033C393.393 351.672 393.384 347.31 393.37 342.949C393.359 338.392 393.363 333.835 393.365 329.279C393.366 321.625 393.355 313.972 393.337 306.318C393.315 297.46 393.312 288.602 393.318 279.744C393.324 271.235 393.318 262.727 393.307 254.218C393.302 250.591 393.301 246.964 393.304 243.338C393.305 239.069 393.297 234.802 393.281 230.533C393.277 228.964 393.276 227.394 393.279 225.824C393.282 223.688 393.273 221.552 393.261 219.416C393.259 218.218 393.257 217.02 393.255 215.786C393.287 212.861 393.287 212.861 391 211C386.883 210.602 382.76 210.671 378.624 210.685C376.574 210.688 374.525 210.664 372.475 210.639C370.54 210.638 370.54 210.638 368.567 210.637C367.38 210.634 366.194 210.631 364.971 210.628C362.082 210.762 362.082 210.763 360.339 212.123ZM296 245C295.399 247.455 295.399 247.455 295.492 250.276C295.481 251.37 295.47 252.463 295.458 253.59C295.466 254.79 295.474 255.99 295.483 257.227C295.476 258.49 295.469 259.754 295.462 261.056C295.443 264.523 295.45 267.99 295.463 271.457C295.473 275.083 295.464 278.709 295.458 282.335C295.45 288.425 295.46 294.514 295.479 300.604C295.501 307.647 295.494 314.69 295.472 321.733C295.453 327.777 295.451 333.822 295.461 339.866C295.468 343.477 295.468 347.088 295.455 350.699C295.442 354.724 295.46 358.749 295.483 362.774C295.475 363.974 295.467 365.174 295.458 366.41C295.47 367.504 295.481 368.598 295.492 369.724C295.494 370.676 295.495 371.628 295.497 372.609C295.797 375.139 295.797 375.139 297.859 376.806C300.672 378.375 302.725 378.388 305.938 378.399C307.08 378.403 308.222 378.407 309.399 378.41C310.587 378.399 311.776 378.387 313 378.375C314.783 378.393 314.783 378.393 316.602 378.41C317.744 378.407 318.886 378.403 320.063 378.399C321.106 378.395 322.149 378.392 323.223 378.389C326.464 377.935 327.667 377.267 330 375C330.602 372.546 330.602 372.546 330.508 369.724C330.52 368.631 330.531 367.537 330.543 366.41C330.534 365.21 330.526 364.01 330.518 362.774C330.525 361.51 330.532 360.247 330.539 358.945C330.557 355.478 330.55 352.011 330.538 348.544C330.528 344.918 330.537 341.292 330.543 337.666C330.551 331.576 330.541 325.487 330.522 319.397C330.5 312.354 330.507 305.311 330.529 298.268C330.547 292.223 330.55 286.179 330.539 280.135C330.533 276.524 330.532 272.913 330.546 269.301C330.559 265.276 330.54 261.252 330.518 257.227C330.526 256.027 330.534 254.827 330.543 253.59C330.531 252.497 330.52 251.403 330.508 250.276C330.506 248.848 330.506 248.848 330.504 247.391C330.204 244.862 330.204 244.862 328.142 243.195C325.329 241.626 323.276 241.612 320.063 241.602C318.921 241.598 317.779 241.594 316.602 241.59C314.819 241.608 314.819 241.608 313 241.625C311.812 241.614 310.623 241.602 309.399 241.59C307.686 241.596 307.686 241.596 305.938 241.602C304.895 241.605 303.852 241.609 302.778 241.612C299.536 242.065 298.333 242.734 296 245ZM233 276C232.693 279.153 232.581 282.111 232.596 285.268C232.589 286.229 232.583 287.19 232.576 288.18C232.557 291.369 232.561 294.557 232.567 297.746C232.562 299.956 232.557 302.166 232.551 304.375C232.542 309.011 232.544 313.648 232.554 318.284C232.566 324.234 232.546 330.183 232.516 336.134C232.498 340.698 232.498 345.263 232.504 349.828C232.504 352.022 232.498 354.216 232.486 356.41C232.471 359.475 232.481 362.539 232.499 365.604C232.489 366.515 232.479 367.427 232.469 368.367C232.403 373.163 232.403 373.163 234.858 377.062C239.58 379.13 244.938 378.468 250 378.438C251.189 378.458 252.377 378.478 253.602 378.498C255.315 378.497 255.315 378.497 257.063 378.496C258.627 378.499 258.627 378.499 260.223 378.502C263.883 377.841 264.807 377.011 267 374C267.596 370.9 267.536 367.839 267.502 364.69C267.508 363.748 267.513 362.806 267.518 361.835C267.531 358.722 267.514 355.61 267.496 352.496C267.497 350.335 267.498 348.173 267.501 346.011C267.502 341.481 267.49 336.951 267.467 332.421C267.439 326.607 267.441 320.794 267.454 314.981C267.461 310.518 267.453 306.054 267.441 301.591C267.436 299.447 267.436 297.303 267.44 295.159C267.443 292.166 267.426 289.174 267.404 286.182C267.409 285.292 267.413 284.402 267.418 283.485C267.408 282.67 267.398 281.856 267.388 281.017C267.386 280.309 267.383 279.602 267.381 278.873C266.881 276.411 265.972 275.516 264 274C261.048 273.553 261.048 273.553 257.688 273.637C256.448 273.638 255.208 273.638 253.93 273.639C252.633 273.655 251.336 273.671 250 273.688C248.704 273.685 247.407 273.681 246.071 273.678C239.149 273.423 239.149 273.423 233 276ZM170.341 307.641C168.615 310.679 168.613 312.777 168.596 316.266C168.584 317.534 168.571 318.802 168.558 320.109C168.56 321.489 168.563 322.87 168.567 324.25C168.562 325.67 168.557 327.09 168.551 328.509C168.542 331.482 168.544 334.454 168.554 337.426C168.566 341.233 168.546 345.039 168.516 348.845C168.498 351.776 168.498 354.706 168.504 357.637C168.504 359.04 168.498 360.444 168.486 361.847C168.471 363.81 168.484 365.772 168.499 367.735C168.499 368.851 168.499 369.967 168.499 371.117C169.115 374.662 170.17 375.842 173 378C175.941 378.581 175.941 378.581 179.192 378.461C180.384 378.457 181.575 378.454 182.803 378.45C184.044 378.425 185.285 378.401 186.563 378.375C187.807 378.374 189.052 378.373 190.334 378.371C197.047 378.563 197.047 378.563 203 376C204.083 372.752 204.14 370.358 204.162 366.94C204.171 365.692 204.181 364.444 204.191 363.158C204.195 361.794 204.2 360.43 204.204 359.067C204.209 357.668 204.215 356.27 204.221 354.871C204.231 351.94 204.237 349.008 204.241 346.077C204.246 342.323 204.27 338.57 204.299 334.816C204.317 331.927 204.322 329.039 204.324 326.15C204.327 324.767 204.335 323.383 204.348 321.999C204.365 320.063 204.361 318.126 204.357 316.19C204.36 315.089 204.364 313.988 204.368 312.853C203.954 309.644 203.287 308.263 201 306C197.958 305.382 197.958 305.382 194.469 305.469C192.541 305.461 192.541 305.461 190.575 305.453C189.572 305.466 189.572 305.466 188.549 305.479C186.507 305.5 184.468 305.479 182.426 305.453C181.141 305.459 179.856 305.464 178.532 305.469C177.352 305.474 176.171 305.478 174.955 305.483C171.973 305.716 171.973 305.716 170.341 307.641Z" fill="#FFD6A8"/>
<path d="M79.6407 65.9015C81.2456 65.9063 81.2456 65.9063 82.8829 65.9113C83.9941 65.9196 85.1052 65.928 86.2501 65.9367C87.94 65.9434 87.94 65.9434 89.6641 65.9503C92.4428 65.9621 95.2214 65.9785 98.0001 65.9992C98.0021 67.1488 98.0021 67.1488 98.0042 68.3216C98.0848 113.749 98.1758 159.176 98.2801 204.603C98.2926 210.058 98.3051 215.513 98.3175 220.967C98.3199 222.053 98.3224 223.139 98.3249 224.258C98.3647 241.84 98.3974 259.423 98.4276 277.005C98.4587 295.047 98.4973 313.088 98.5429 331.13C98.5707 342.262 98.5928 353.395 98.6073 364.527C98.6179 372.161 98.6357 379.796 98.6592 387.43C98.6726 391.834 98.6828 396.238 98.6843 400.642C98.6857 404.678 98.6964 408.714 98.7142 412.749C98.719 414.206 98.7206 415.662 98.7184 417.119C98.7041 428.339 98.7036 439.815 106 448.999C115.002 457.118 123.791 458.299 135.478 458.278C136.616 458.283 137.754 458.289 138.927 458.295C142.73 458.312 146.533 458.315 150.336 458.318C153.066 458.326 155.796 458.337 158.527 458.348C164.399 458.371 170.272 458.386 176.145 458.396C184.636 458.41 193.127 458.436 201.618 458.464C215.396 458.51 229.173 458.546 242.951 458.577C256.331 458.607 269.712 458.642 283.092 458.682C283.918 458.684 284.743 458.687 285.593 458.689C289.734 458.702 293.874 458.714 298.015 458.727C332.343 458.83 366.672 458.919 401 458.999C401.059 462.687 401.094 466.374 401.125 470.062C401.142 471.1 401.159 472.138 401.176 473.208C401.26 486.392 401.26 486.392 396.563 491.812C392.682 495.124 390.693 496.249 385.647 496.254C384.53 496.259 383.412 496.265 382.261 496.271C381.028 496.268 379.795 496.264 378.525 496.26C376.566 496.266 376.566 496.266 374.568 496.271C370.936 496.282 367.304 496.28 363.671 496.275C359.757 496.273 355.843 496.282 351.929 496.289C344.257 496.302 336.586 496.304 328.914 496.301C322.68 496.3 316.446 496.301 310.212 496.306C309.326 496.306 308.439 496.307 307.526 496.308C305.726 496.309 303.926 496.31 302.125 496.311C285.23 496.322 268.334 496.32 251.439 496.314C235.974 496.309 220.51 496.32 205.046 496.339C189.177 496.358 173.308 496.367 157.439 496.363C148.526 496.361 139.613 496.363 130.7 496.377C123.111 496.389 115.523 496.391 107.935 496.379C104.062 496.373 100.189 496.372 96.3159 496.384C92.1203 496.396 87.9251 496.386 83.7296 496.373C82.5011 496.381 81.2726 496.388 80.0069 496.396C78.8841 496.389 77.7613 496.381 76.6045 496.374C75.6359 496.374 74.6674 496.374 73.6695 496.374C69.2211 495.749 66.6663 493.758 63.7501 490.437C60.9019 486.47 60.8729 484.274 60.8659 479.385C60.8635 478.694 60.8611 478.004 60.8587 477.292C60.852 474.954 60.8525 472.616 60.8529 470.279C60.8496 468.595 60.8459 466.911 60.8418 465.227C60.8317 460.582 60.828 455.937 60.8254 451.292C60.8215 446.289 60.8119 441.286 60.8032 436.283C60.7834 424.192 60.7733 412.1 60.7644 400.009C60.7601 394.319 60.7547 388.629 60.7494 382.94C60.7324 364.032 60.7179 345.124 60.7107 326.217C60.7088 321.307 60.7069 316.398 60.7049 311.489C60.7044 310.269 60.7039 309.049 60.7034 307.792C60.6951 288.019 60.6698 268.246 60.6373 248.473C60.6043 228.185 60.5862 207.898 60.5831 187.611C60.5809 176.215 60.5721 164.819 60.5466 153.423C60.5249 143.719 60.5168 134.015 60.5266 124.311C60.5311 119.358 60.5291 114.406 60.5098 109.453C60.4922 104.92 60.4931 100.387 60.5087 95.8536C60.5111 94.2129 60.5067 92.5722 60.4949 90.9315C60.4798 88.7013 60.4894 86.4725 60.5051 84.2424C60.5041 83.0037 60.5031 81.765 60.5021 80.4888C61.1344 76.0581 62.5103 73.7064 65.0001 69.9992C69.7162 66.4621 73.8566 65.8707 79.6407 65.9015Z" fill="#FFD6A8"/>
<path d="M381 17C390.666 21.4539 398.058 30.9097 405.489 38.3555C406.681 39.5467 407.873 40.7378 409.065 41.9288C411.548 44.4108 414.03 46.8946 416.51 49.3796C419.686 52.5606 422.865 55.7369 426.046 58.912C428.503 61.3646 430.956 63.8195 433.409 66.2752C434.581 67.4477 435.754 68.6195 436.927 69.7905C438.564 71.4245 440.197 73.0618 441.83 74.7C442.758 75.6293 443.687 76.5586 444.643 77.516C450 83.1616 450 83.1616 450 86C442.412 86.0929 434.823 86.1639 427.233 86.2073C423.709 86.2281 420.185 86.2563 416.661 86.3018C412.605 86.3537 408.549 86.373 404.493 86.3906C403.233 86.4113 401.973 86.4319 400.676 86.4532C389.563 86.456 389.563 86.456 385 82C380.361 77.2499 380.546 72.6259 380.547 66.3247C380.568 65.0652 380.589 63.8056 380.61 62.5078C380.615 61.2067 380.621 59.9057 380.627 58.5652C380.642 55.1224 380.681 51.6803 380.726 48.2379C380.767 44.7186 380.785 41.1992 380.805 37.6797C380.848 30.7862 380.916 23.8931 381 17Z" fill="#FFD6A8"/>
</svg>
