<svg width="683" height="683" viewBox="0 0 683 683" fill="none" xmlns="http://www.w3.org/2000/svg">
<path d="M325.067 1.3322C306.4 4.66553 290 13.0656 275.867 26.3989C263.6 37.8656 255.067 50.9321 249.733 65.9988C246.267 75.8655 246 78.1322 246 96.6656C246 115.199 246.267 117.465 249.733 127.332C255.067 142.399 263.6 155.465 275.867 166.932C287.467 177.865 299.2 184.799 314.667 189.599C323.067 192.132 327.333 192.665 342 192.532C356.8 192.399 360.8 191.999 369.6 189.065C397.467 179.865 420.667 158.265 431.067 131.999C435.733 120.132 437.333 112.532 437.6 100.532C437.733 91.9988 437.333 90.1322 434.933 87.7322C431.6 84.2656 424.933 83.9989 421.467 87.1989C419.733 88.7989 418.667 92.1321 418.133 98.3988C416.8 112.132 414.8 119.732 409.867 130.132C405.867 138.799 394.667 153.332 392 153.332C391.467 153.332 390.667 150.932 390.267 148.132C389.2 140.132 382.533 131.465 374.4 127.465C367.6 124.132 366.8 123.999 341.467 123.999C313.067 123.999 308.933 124.932 301.067 132.265C296.667 136.532 292 145.465 292 149.999C292 154.799 290.4 154.132 283.467 146.532C271.6 133.332 265.333 116.132 265.333 96.6656C265.333 74.7989 272.133 58.3989 287.2 43.1989C311.2 19.0656 345.2 13.3322 375.867 28.3989C384.133 32.3989 396.667 43.4656 406.8 55.7322C411.2 60.9322 416.8 61.4656 421.067 56.9322C426.8 50.7989 423.333 42.1322 409.333 27.9989C397.867 16.6656 385.333 9.19887 368.667 3.99887C358.133 0.798863 335.467 -0.667804 325.067 1.3322ZM367.733 146.665C370.8 149.599 372.4 155.865 371.733 162.799C371.333 166.932 370.8 167.465 364 169.865C354 173.332 330.533 173.599 319.733 170.265L312 167.865V158.665C312 144.132 312.4 143.999 341.333 143.999C362.933 143.999 365.067 144.265 367.733 146.665Z" fill="#225D5C"/>
<path d="M328 42.1328C322 44.7994 315.2 51.3328 311.6 57.9994C307.6 65.4661 307.6 79.8661 311.6 87.4661C314.933 93.7328 322.533 100.933 328.8 103.467C334.667 106 348.267 105.867 354.4 103.2C365.6 98.5328 374.667 84.9328 374.667 72.6661C374.667 60.3994 365.6 46.7994 354.4 42.1328C348.133 39.4661 334.133 39.4661 328 42.1328ZM350.8 63.8661C362.533 75.7328 345.067 93.0661 332.4 82.1328C329.333 79.4661 328.667 77.8661 328.667 72.6661C328.667 67.4661 329.333 65.8661 332.4 63.1994C337.867 58.5328 345.6 58.7994 350.8 63.8661Z" fill="#225D5C"/>
<path d="M108 124.801C103.333 125.734 94.5335 128.934 88.6668 131.734C53.4668 148.801 33.3335 180.668 33.3335 219.201C33.3335 234.668 35.6002 245.601 41.3335 258.134C55.6002 289.601 84.0002 310.401 118.8 314.801C148.4 318.668 179.067 306.934 200.4 284.001C226.667 255.601 233.334 213.468 216.8 178.268C197.867 137.334 152.534 115.068 108 124.801ZM153.867 146.401C178.134 155.201 196.134 174.534 203.467 199.334C206.134 208.668 206.4 226.668 204.134 236.668C201.6 247.068 194.134 261.334 186.934 269.334L180.267 276.668L179.334 272.668C177.067 262.001 170.934 253.601 162.267 249.468C156.934 246.934 154.134 246.668 129.6 246.668C104.933 246.668 102.133 246.934 96.6668 249.468C87.3335 253.868 80.0002 264.134 80.0002 272.801C80.0002 277.734 77.7335 276.401 70.2668 267.201C58.6668 252.801 53.3335 237.601 53.3335 218.668C53.3335 197.201 60.2668 180.934 75.8668 165.201C86.6668 154.401 97.8668 147.868 111.067 144.534C121.467 141.868 144 142.934 153.867 146.401ZM156.134 269.201C158.934 271.468 159.334 272.934 159.334 280.801V289.868L151.334 292.401C140.267 296.001 118.267 296.001 108 292.534L100.667 290.001L100.267 281.068C100 273.468 100.267 271.734 102.667 269.334C105.2 266.801 106.933 266.668 129.2 266.668C150.667 266.668 153.334 266.934 156.134 269.201Z" fill="#225D5C"/>
<path d="M122 162.533C103.333 167.467 92 187.2 97.8667 204.933C104.267 224 125.333 233.333 143.333 224.8C162.933 215.6 168.667 191.6 155.333 174.133C148.667 165.333 132.667 159.733 122 162.533ZM139.2 186.8C142.4 190.4 142.8 191.867 142.267 196.533C140.4 209.867 123.6 212.4 117.333 200.133C114.267 194.133 118.4 184.933 125.333 182.267C129.333 180.667 135.333 182.667 139.2 186.8Z" fill="#225D5C"/>
<path d="M532.667 124.667C476.133 137.067 442.933 196.8 462.133 250.934C469.333 271.067 486.133 291.734 504.267 302.4C521.733 312.8 545.2 317.6 564.8 314.8C587.867 311.6 605.6 302.667 622 286.134C630.667 277.467 634 272.934 639.067 262.667C647.6 245.2 649.733 235.2 649.067 215.334C648.533 202.267 647.733 197.2 644.667 188.134C635.6 161.467 614.533 139.334 588 128.934C571.867 122.534 549.733 120.934 532.667 124.667ZM571.333 144.667C598.267 151.6 620.267 173.334 627.333 200C631.467 215.6 629.333 237.2 622 252.4C618.667 259.467 607.2 274.8 604.533 275.6C603.6 275.867 602.667 273.734 602.267 270.534C601.2 262.534 595.333 254.8 586.8 250.4C579.733 246.667 579.6 246.667 552.933 246.667C528.533 246.667 525.733 246.934 520.4 249.467C513.333 252.934 507.067 260.267 505.2 267.334C504.4 270.267 503.467 273.6 503.067 274.667C502.133 277.467 490.667 264.534 485.6 254.934C474.267 233.467 474.133 206.267 485.333 184C494.8 165.2 514.533 149.6 535.067 144.534C544.8 142.267 562 142.267 571.333 144.667ZM580 269.334C582.133 271.467 582.667 273.734 582.667 281.2V290.267L574.4 292.8C562.933 296.134 542.267 295.867 531.333 292.4L523.333 289.867V280.8C523.333 266.934 523.867 266.667 553.467 266.667C575.6 266.667 577.467 266.8 580 269.334Z" fill="#225D5C"/>
<path d="M545.734 162.534C539.334 164.134 530.4 169.868 526.934 174.534C510.534 196.934 525.867 228.001 553.334 228.001C582.534 228.001 597.067 193.734 576.8 172.268C569.067 164.001 556.134 159.868 545.734 162.534ZM562.267 185.601C566.4 189.468 567.467 196.001 564.8 201.068C558.8 212.534 542.134 209.468 540.4 196.668C538.8 184.401 553.2 177.068 562.267 185.601Z" fill="#225D5C"/>
<path d="M306 220.665C303.2 223.332 302.667 225.199 302.667 232.265V240.665L296.8 243.065C293.6 244.399 287.067 248.132 282.133 251.332L273.333 257.065L265.467 253.065C258.133 249.332 257.6 249.199 253.2 251.065C249.333 252.665 246.533 256.532 233.733 279.065C224.133 295.732 218.667 306.532 218.667 309.065C218.667 313.465 222.267 317.732 229.067 321.199L234 323.732L233.867 341.332V358.799L228 362.132C215.067 369.465 215.333 371.599 233.733 403.599C246.533 426.132 249.333 429.999 253.2 431.599C257.6 433.465 258.133 433.332 265.6 429.465L273.467 425.465L282.133 431.332C287.067 434.532 293.6 438.265 296.8 439.599L302.667 441.999V450.399C302.667 457.465 303.2 459.332 306 461.999L309.2 465.332H341.333H373.467L376.667 461.999C379.467 459.332 380 457.465 380 450.399V441.999L385.867 439.599C389.067 438.265 395.6 434.532 400.533 431.332L409.2 425.465L417.067 429.465C424.533 433.332 425.067 433.465 429.467 431.599C433.333 429.999 436.133 426.132 449.067 403.599C458.533 386.932 464 376.132 464 373.599C464 369.199 460.8 365.332 453.733 361.332L448.667 358.532V341.332V324.132L453.733 321.332C460.8 317.332 464 313.465 464 309.065C464 306.532 458.533 295.732 449.067 279.065C436.133 256.532 433.333 252.665 429.467 251.065C425.067 249.199 424.533 249.332 417.067 253.199L409.2 257.199L400.533 251.332C395.6 248.132 389.067 244.399 385.867 243.065L380 240.665V232.265C380 225.199 379.467 223.332 376.667 220.665L373.467 217.332H341.333H309.2L306 220.665ZM360 243.465C360 246.799 360.667 250.665 361.333 252.132C362.133 253.465 368.667 257.465 375.733 260.799C382.8 264.132 392 269.465 396.267 272.665C404.8 279.465 410 280.265 417.067 275.999C419.467 274.532 421.6 273.332 421.867 273.332C422.8 273.332 440 303.332 440 304.799C440 305.599 437.733 307.465 434.8 309.065C428 312.932 426.267 317.332 428 326.532C428.667 330.532 429.333 337.199 429.333 341.332C429.333 345.465 428.667 352.132 428 356.132C426.267 365.332 428 369.732 434.8 373.599C437.733 375.199 440 377.065 440 377.732C440 379.199 422.667 409.332 421.867 409.332C421.6 409.332 419.467 408.132 417.067 406.665C410 402.399 404.8 403.199 396.267 409.999C392 413.199 382.8 418.532 375.733 421.865C368.667 425.199 362.133 429.199 361.333 430.532C360.667 431.999 360 435.865 360 439.199V445.332H341.333H322.667V439.199C322.667 435.865 322 431.999 321.333 430.532C320.533 429.199 313.733 425.065 306.267 421.599C298.8 417.999 289.733 412.532 286 409.599C278.4 403.199 272.667 402.399 265.6 406.665C263.2 408.132 261.067 409.332 260.8 409.332C259.867 409.332 242.667 379.332 242.667 377.865C242.667 377.199 244.8 375.465 247.467 373.999C254.533 370.265 256.4 365.599 254.667 356.399C252.933 346.799 252.933 335.865 254.667 326.265C256.4 317.065 254.533 312.399 247.467 308.665C244.8 307.199 242.667 305.465 242.667 304.799C242.667 303.332 259.867 273.332 260.8 273.332C261.067 273.332 263.2 274.532 265.6 275.999C272.667 280.265 278.4 279.465 286 273.065C289.733 270.132 298.8 264.665 306.267 261.065C313.733 257.599 320.533 253.465 321.333 252.132C322 250.665 322.667 246.799 322.667 243.465V237.332H341.333H360V243.465Z" fill="#225D5C"/>
<path d="M321.6 281.2C304.4 287.6 292.133 298.666 284.267 314.533C279.333 324.533 279.333 324.8 279.333 341.333C279.333 357.866 279.333 358.133 284.267 368.133C290.8 381.6 301.067 391.866 314.533 398.4C324.533 403.333 324.8 403.333 341.333 403.333C356.934 403.333 358.534 403.066 366.4 399.466C371.067 397.333 375.734 394.266 376.8 392.8C381.2 386.4 377.067 377.333 369.734 377.333C367.734 377.333 363.467 378.666 360.134 380.266C355.867 382.4 350.8 383.466 343.733 383.733C328.8 384.533 321.467 381.733 311.2 371.466C301.733 361.866 298.667 354.666 298.667 341.333C298.667 328 301.733 320.8 311.2 311.2C320.8 301.733 328 298.666 341.333 298.666C354.667 298.666 361.867 301.733 371.467 311.2C381.2 320.933 384 328 384 342.266C384 350.933 384.4 352.533 387.334 355.333C391.467 359.6 396.534 359.6 400.934 355.2C404.134 352 404.267 351.333 403.734 338.266C403.334 325.866 402.8 323.733 398.267 314.533C391.867 301.2 381.734 290.933 368.267 284.4C358.667 279.6 357.467 279.333 343.467 278.933C331.467 278.666 327.333 279.066 321.6 281.2Z" fill="#225D5C"/>
<path d="M112.267 368.667C96.1334 371.6 83.6001 377.2 81.3334 382.667C79.3334 387.467 80.5334 391.468 84.8001 394.135C88.5334 396.668 91.4668 396.268 105.333 391.201C113.6 388.135 117.6 387.601 128.667 387.468C151.067 387.468 167.467 394.134 183.333 410C193.6 420.134 200.933 433.334 204.133 446.667C206.4 456.667 206.133 474.135 203.333 483.468C197.467 503.601 178.667 528.401 178.667 515.868C178.667 507.601 166.667 494.668 156.667 492.135C149.067 490.268 109.6 490.268 102 492.135C90.9334 494.935 80.1334 507.601 80.0001 518.001L79.8668 522.001L72.9334 514.667C51.7334 492.134 47.0668 457.067 61.3334 428.8C63.6001 424.534 65.3334 419.201 65.3334 417.201C65.3334 409.868 57.3334 405.735 50.5334 409.335C46.9334 411.335 38.9334 427.868 35.8668 439.735C32.4001 453.335 32.4001 473.468 36.0001 487.201C43.2001 515.335 60.8001 536.934 87.3334 550.134C103.2 558 115.2 560.4 134 559.6C216 556.134 255.867 458.135 199.733 398.001C184.4 381.601 164.667 371.201 143.2 368.001C131.333 366.401 124.267 366.534 112.267 368.667ZM155.467 513.735C158.533 516.401 159.2 518.268 159.733 525.068C160.267 532.801 160.133 533.201 156.533 535.068C145.867 540.535 119.733 541.334 106.4 536.667L100 534.401V525.334C100 517.067 100.267 516 103.467 513.467C106.8 510.934 108.8 510.667 129.467 510.667C151.067 510.667 152 510.801 155.467 513.735Z" fill="#225D5C"/>
<path d="M535.6 368.666C472.4 380.666 438.133 450.399 467.333 507.866C489.2 551.066 542.934 571.466 588 553.732C614.534 543.332 635.6 521.199 644.667 494.532C649.6 479.599 650.8 456.799 647.334 442.266C640.534 413.866 622 390.266 596.667 377.866C590.134 374.666 581.2 371.066 576.8 369.999C564.934 367.066 547.6 366.399 535.6 368.666ZM576.534 390.799C599.2 398.399 615.734 414.132 624.667 436.666C627.734 444.132 628.534 448.666 629.067 459.999C630 482.532 624 499.466 609.734 514.666C602.934 521.732 602.8 521.866 602.667 518.266C602.534 509.332 595.734 499.466 586 494.266C581.2 491.599 578.134 491.332 557.334 490.932C529.467 490.266 522.667 491.466 514.8 498.266C508.933 503.199 504 511.332 504 515.866C504 528.666 485.2 503.866 479.2 483.332C476.533 473.866 476.267 456.932 478.667 446.666C485.467 417.066 510.4 393.466 540.4 387.999C550.134 386.266 566.934 387.599 576.534 390.799ZM579.2 513.466C582.4 515.999 582.667 517.066 582.667 525.332V534.399L576.4 536.666C562.934 541.332 536.8 540.532 526.133 535.066C522.533 533.199 522.4 532.799 522.933 525.066C523.467 518.266 524.133 516.399 527.2 513.732C530.667 510.799 531.6 510.666 553.2 510.666C573.867 510.666 575.867 510.932 579.2 513.466Z" fill="#225D5C"/>
<path d="M539.333 409.867C514.4 421.6 513.467 455.334 537.6 468.8C558 480 583.467 466.4 586.267 442.8C589.2 418 562.133 399.067 539.333 409.867ZM560.8 429.067C571.067 437.334 566 452.667 553.067 452.667C546 452.667 540 446.4 540 439.2C540 429.2 553.2 422.8 560.8 429.067Z" fill="#225D5C"/>
<path d="M114.534 410.268C94.267 420.668 90.0003 445.735 105.867 462.402C112.4 469.468 119.334 472.535 129.334 472.535C153.734 472.535 169.734 447.735 159.467 426.002C151.334 408.668 131.6 401.735 114.534 410.268ZM138 429.735C140.267 431.602 141.734 434.535 142.267 438.135C142.934 442.935 142.4 444.268 138.934 448.135C133.867 453.868 126.134 454.402 120.8 449.468C114.534 443.602 115.467 432.135 122.267 428.135C126.534 425.735 134.267 426.402 138 429.735Z" fill="#225D5C"/>
<path d="M325.067 490.668C298.8 495.334 273.467 512.668 259.467 535.068C240.267 566.001 240.267 606.001 259.467 636.934C267.067 649.068 283.6 664.668 295.467 670.934C311.334 679.201 322.4 682.001 340.667 682.001C359.6 682.001 368.667 679.868 385.334 671.734C400.934 664.001 418.4 646.801 426.267 631.334C432.134 619.868 436 608.401 436 602.401C436 593.868 424.267 589.868 418.934 596.668C417.467 598.534 415.867 602.268 415.334 604.934C413.867 613.068 405.867 628.401 399.2 635.868C392.267 643.468 390.667 644.134 390.667 639.334C390.667 634.801 386 625.868 381.6 621.601C373.734 614.268 369.6 613.334 341.2 613.334C315.867 613.334 315.067 613.468 308.267 616.801C300.134 620.801 293.467 629.468 292.4 637.468C292 640.268 291.2 642.668 290.667 642.668C288.534 642.668 277.734 629.334 273.6 621.734C267.867 610.801 265.334 600.134 265.2 586.534C265.2 564.534 271.867 548.134 287.467 532.401C317.6 501.868 364.934 501.868 395.334 532.401C402 539.201 406.267 544.801 409.334 551.334C411.867 556.401 415.067 562.001 416.534 563.601C419.734 567.334 425.334 567.601 429.067 564.401C434.267 560.001 434 556.134 427.2 542.668C422 532.001 419.067 528.134 408.8 518.001C389.734 499.068 371.2 490.934 344.667 490.001C337.334 489.734 328.534 490.001 325.067 490.668ZM367.734 636.001C370.134 638.401 370.667 640.268 370.667 647.868V656.934L363.067 659.468C352.4 662.934 329.067 662.801 318.667 659.201C311.867 656.801 311.334 656.268 310.934 652.134C310.267 645.201 311.867 638.934 314.934 636.001C317.6 633.601 319.734 633.334 341.334 633.334C363.2 633.334 365.067 633.468 367.734 636.001Z" fill="#225D5C"/>
<path d="M328 531.468C316.933 536.268 308 549.868 308 562.002C308 574.268 317.067 587.868 328.267 592.535C334.4 595.202 348 595.335 353.867 592.802C360.133 590.268 367.733 583.068 371.067 576.802C373.2 572.668 373.867 568.935 373.867 562.002C373.867 555.068 373.2 551.335 371.067 547.202C367.733 540.935 360.133 533.735 353.867 531.202C348 528.802 333.867 528.935 328 531.468ZM350.267 552.535C353.333 555.202 354 556.802 354 562.002C354 567.202 353.333 568.802 350.267 571.468C341.733 578.802 328 572.935 328 562.002C328 551.068 341.733 545.202 350.267 552.535Z" fill="#225D5C"/>
</svg>
