<svg width="512" height="512" viewBox="0 0 512 512" fill="none" xmlns="http://www.w3.org/2000/svg">
<path d="M80.8981 15.7543C81.9143 15.7503 82.9304 15.7463 83.9774 15.7422C85.097 15.7481 86.2167 15.7539 87.3702 15.7599C88.557 15.7582 89.7438 15.7565 90.9666 15.7547C94.2663 15.752 97.5659 15.7583 100.866 15.7683C104.422 15.7769 107.978 15.774 111.534 15.7725C117.697 15.7714 123.861 15.7777 130.024 15.7889C138.935 15.8052 147.846 15.8104 156.757 15.8129C171.214 15.8173 185.671 15.8306 200.128 15.8495C214.173 15.8679 228.218 15.882 242.263 15.8905C243.129 15.8911 243.994 15.8916 244.886 15.8921C249.227 15.8947 253.569 15.8973 257.911 15.8998C293.94 15.9205 329.97 15.9557 366 16.0004C366.001 16.7468 366.003 17.4933 366.004 18.2624C366.022 25.3239 366.064 32.3849 366.132 39.4461C366.166 43.0758 366.191 46.705 366.195 50.3349C366.2 53.8431 366.228 57.3504 366.273 60.8583C366.293 62.8366 366.287 64.8152 366.281 66.7936C366.399 74.1328 367.032 79.3802 372 85.0004C373.904 86.8597 373.904 86.8597 375.937 87.9379C376.565 88.3182 377.193 88.6984 377.84 89.0902C382.298 90.9685 387.037 91.1299 391.822 91.2057C392.942 91.2257 394.063 91.2456 395.218 91.2662C396.412 91.2829 397.606 91.2996 398.836 91.3168C400.07 91.3376 401.305 91.3584 402.577 91.3798C406.509 91.445 410.442 91.504 414.375 91.5629C417.045 91.6056 419.716 91.6497 422.387 91.6938C428.924 91.8007 435.462 91.9025 442 92.0004C442.069 142.346 442.121 192.692 442.153 243.038C442.157 248.978 442.161 254.919 442.165 260.86C442.165 262.043 442.166 263.225 442.167 264.444C442.18 283.607 442.204 302.769 442.231 321.932C442.259 341.587 442.276 361.243 442.282 380.898C442.286 393.032 442.299 405.165 442.324 417.298C442.339 425.613 442.344 433.928 442.34 442.242C442.338 447.043 442.342 451.843 442.358 456.644C442.372 461.037 442.373 465.43 442.363 469.824C442.361 471.415 442.365 473.006 442.375 474.597C442.387 476.757 442.38 478.917 442.369 481.077C442.371 482.878 442.371 482.878 442.373 484.716C441.95 488.437 440.963 490.824 439 494C435.509 496.328 434.147 496.253 430.022 496.26C428.766 496.267 427.509 496.274 426.214 496.281C424.811 496.279 423.408 496.277 422.006 496.274C420.522 496.279 419.038 496.284 417.554 496.29C413.466 496.304 409.378 496.306 405.29 496.305C400.885 496.307 396.48 496.32 392.075 496.332C382.438 496.354 372.802 496.362 363.166 496.367C357.152 496.371 351.138 496.377 345.124 496.384C328.482 496.404 311.84 496.42 295.198 496.423C294.133 496.424 293.067 496.424 291.969 496.424C289.809 496.424 287.649 496.425 285.489 496.425C283.881 496.425 283.881 496.425 282.24 496.426C281.166 496.426 280.092 496.426 278.986 496.426C261.582 496.43 244.178 496.457 226.773 496.494C208.916 496.532 191.058 496.551 173.2 496.552C163.169 496.552 153.138 496.561 143.107 496.59C134.567 496.614 126.028 496.622 117.488 496.607C113.129 496.599 108.77 496.6 104.411 496.623C100.422 496.643 96.4341 496.641 92.4455 496.62C91.0007 496.617 89.5558 496.622 88.111 496.636C86.1505 496.654 84.1896 496.638 82.229 496.621C80.5939 496.622 80.5939 496.622 78.9258 496.623C75.0085 495.789 73.505 494.053 70.9999 491C69.8022 487.407 69.8595 484.14 69.8685 480.401C69.8665 479.616 69.8644 478.831 69.8623 478.022C69.8566 475.37 69.8581 472.717 69.8595 470.064C69.8569 468.152 69.8539 466.24 69.8505 464.328C69.8424 459.056 69.8406 453.784 69.8399 448.512C69.838 442.833 69.8305 437.154 69.8238 431.475C69.8102 419.049 69.8041 406.624 69.7997 394.198C69.797 386.444 69.7927 378.69 69.7882 370.937C69.776 349.481 69.7657 328.026 69.7624 306.57C69.7621 305.182 69.7619 303.795 69.7617 302.407C69.7615 301.016 69.7613 299.625 69.761 298.234C69.7606 295.443 69.7601 292.652 69.7597 289.861C69.7596 289.169 69.7595 288.477 69.7594 287.764C69.7557 265.321 69.7398 242.878 69.7165 220.436C69.6919 196.715 69.6782 172.994 69.677 149.274C69.6761 136.34 69.6703 123.407 69.6522 110.474C69.6368 99.4627 69.6316 88.4514 69.6399 77.4401C69.6438 71.8192 69.6428 66.1984 69.6289 60.5774C69.6162 55.4349 69.6173 50.2925 69.6294 45.1499C69.6314 43.2865 69.6283 41.4231 69.6196 39.5597C69.6086 37.0318 69.616 34.5046 69.628 31.9768C69.6204 31.249 69.6128 30.5212 69.605 29.7713C69.653 25.1244 70.5107 21.9288 72.9999 18.0004C76.2554 15.8301 77.1382 15.7511 80.8981 15.7543ZM135 69.0004C134.08 69.6559 134.08 69.6559 133.141 70.3246C119.24 80.9412 113.256 98.3653 111 115C109.135 131.32 116.177 147.63 125.812 160.438C137.085 173.512 152.647 182.504 170 184C189.837 185.219 205.735 178.732 220.687 166.188C232.846 155.013 239.669 139.339 241 123C241.729 104.689 235.36 88.5155 223.547 74.641C210.978 61.6096 194.682 54.8808 176.746 53.9379C161.156 54.198 147.284 59.487 135 69.0004ZM272.656 102.691C269.937 108.124 270.321 113.519 270.437 119.5C270.426 120.723 270.416 121.947 270.404 123.207C270.322 129.804 270.322 129.804 272.623 135.849C275.735 138.665 277.436 138.631 281.594 138.629C282.871 138.631 284.149 138.633 285.465 138.635C286.458 138.616 286.458 138.616 287.472 138.597C289.495 138.563 291.513 138.576 293.535 138.596C300.315 138.846 300.315 138.846 306.379 136.377C308.518 133.241 308.517 131.187 308.531 127.406C308.536 126.129 308.542 124.851 308.547 123.535C308.538 122.873 308.53 122.21 308.521 121.528C308.5 119.506 308.521 117.487 308.547 115.465C308.539 113.549 308.539 113.549 308.531 111.594C308.527 110.425 308.522 109.257 308.518 108.053C308.212 104.951 308.212 104.951 306.363 102.623C301.622 99.3666 295.618 100.39 290.062 100.438C288.787 100.414 287.511 100.39 286.197 100.365C281.138 100.373 277.208 100.389 272.656 102.691ZM325 106C324.746 109.638 324.746 109.638 326 113C328.341 115.397 329.716 115.965 333.067 116.381C334.269 116.383 335.47 116.386 336.709 116.388C337.707 116.396 337.707 116.396 338.725 116.404C340.92 116.417 343.114 116.409 345.309 116.398C346.838 116.4 348.367 116.403 349.896 116.407C353.1 116.412 356.303 116.405 359.507 116.391C363.607 116.374 367.707 116.384 371.807 116.402C374.965 116.413 378.123 116.409 381.281 116.401C382.792 116.399 384.304 116.402 385.815 116.409C387.931 116.417 390.046 116.405 392.162 116.388C393.364 116.386 394.567 116.383 395.806 116.381C399.334 115.96 401.219 115.189 404 113C405.337 109.644 405.337 109.644 405 106C402.441 102.689 400.926 101.182 396.775 100.365C395.557 100.361 394.34 100.357 393.086 100.353C392.41 100.344 391.735 100.336 391.039 100.326C388.817 100.305 386.597 100.319 384.375 100.336C382.825 100.333 381.274 100.328 379.724 100.321C376.479 100.314 373.235 100.325 369.99 100.348C365.837 100.377 361.685 100.36 357.532 100.33C354.332 100.312 351.132 100.318 347.932 100.331C346.401 100.334 344.87 100.33 343.339 100.319C341.197 100.306 339.057 100.325 336.914 100.353C335.697 100.357 334.479 100.361 333.225 100.365C329.074 101.182 327.556 102.687 325 106ZM326 126C324.58 128.841 324.685 130.855 325 134C327.212 137.01 328.42 137.905 332.143 138.515C333.38 138.521 334.617 138.527 335.892 138.533C336.577 138.542 337.262 138.551 337.968 138.56C340.228 138.582 342.486 138.575 344.746 138.566C346.32 138.572 347.894 138.578 349.468 138.585C352.766 138.596 356.064 138.591 359.361 138.576C363.583 138.559 367.803 138.583 372.025 138.618C375.275 138.64 378.526 138.638 381.776 138.63C383.332 138.629 384.889 138.636 386.445 138.651C388.623 138.668 390.8 138.654 392.978 138.631C394.216 138.63 395.454 138.629 396.73 138.628C400.895 137.828 402.385 136.269 405 133C405.75 130.456 405.75 130.456 405 128C403.13 125.756 401.611 124.306 399 123C396.872 122.893 394.741 122.851 392.61 122.839C391.955 122.834 391.299 122.829 390.624 122.824C388.451 122.809 386.278 122.802 384.105 122.797C382.596 122.791 381.086 122.785 379.576 122.78C376.408 122.769 373.239 122.763 370.071 122.76C366.016 122.754 361.961 122.73 357.905 122.702C354.785 122.683 351.665 122.678 348.545 122.676C347.05 122.673 345.555 122.665 344.061 122.652C341.966 122.635 339.873 122.637 337.778 122.644C336.587 122.64 335.396 122.636 334.169 122.633C330.676 123.038 328.797 123.904 326 126ZM272.623 159.637C269.366 164.378 270.39 170.382 270.437 175.938C270.414 177.213 270.39 178.489 270.365 179.803C270.373 184.843 270.401 188.792 272.656 193.344C278.253 196.116 283.915 195.677 290.062 195.562C291.342 195.573 292.621 195.584 293.939 195.596C300.507 195.82 300.507 195.82 306.363 193.377C308.522 190.241 308.517 188.197 308.531 184.406C308.536 183.129 308.542 181.851 308.547 180.535C308.538 179.873 308.53 179.21 308.521 178.528C308.5 176.506 308.521 174.487 308.547 172.465C308.539 170.549 308.539 170.549 308.531 168.594C308.527 167.425 308.522 166.257 308.518 165.053C308.21 161.953 308.21 161.953 306.379 159.621C303.242 157.483 301.187 157.483 297.406 157.469C296.129 157.464 294.851 157.458 293.535 157.453C292.873 157.462 292.21 157.47 291.528 157.479C289.506 157.5 287.487 157.479 285.465 157.453C284.187 157.458 282.91 157.463 281.594 157.469C280.425 157.473 279.257 157.478 278.053 157.482C274.951 157.788 274.951 157.788 272.623 159.637ZM325 162C324.333 165 324.333 165 325 168C326.867 170.303 328.356 171.678 331 173C333.128 173.112 335.259 173.159 337.39 173.177C338.373 173.187 338.373 173.187 339.376 173.197C341.549 173.217 343.722 173.228 345.894 173.238C347.008 173.244 347.008 173.244 348.143 173.251C352.072 173.272 356 173.286 359.929 173.295C363.984 173.306 368.039 173.341 372.095 173.38C375.215 173.407 378.335 173.415 381.455 173.418C382.95 173.423 384.444 173.435 385.939 173.453C388.034 173.478 390.127 173.477 392.222 173.47C393.413 173.476 394.604 173.482 395.831 173.488C399.654 172.899 401.295 171.72 404 169C405.247 166.103 405.247 166.103 405 163C403.516 160.219 403.516 160.219 401 158C397.73 157.249 397.73 157.249 394 157.369C393.303 157.362 392.607 157.355 391.89 157.347C389.592 157.33 387.297 157.35 385 157.371C383.401 157.37 381.802 157.368 380.203 157.364C376.854 157.361 373.505 157.376 370.156 157.403C365.865 157.437 361.575 157.431 357.284 157.412C353.983 157.402 350.682 157.411 347.381 157.426C345.799 157.431 344.217 157.431 342.635 157.424C340.422 157.419 338.212 157.439 336 157.467C334.742 157.473 333.484 157.479 332.187 157.485C328.434 158.091 327.238 158.975 325 162ZM325 185C324.746 188.638 324.746 188.638 326 192C328.35 194.412 329.738 194.967 333.105 195.394C334.324 195.403 335.544 195.411 336.8 195.42C337.476 195.428 338.151 195.437 338.847 195.446C341.074 195.469 343.3 195.47 345.527 195.469C347.079 195.476 348.631 195.484 350.182 195.492C353.433 195.505 356.684 195.507 359.934 195.501C364.095 195.495 368.255 195.526 372.416 195.566C375.62 195.592 378.824 195.595 382.029 195.591C383.562 195.593 385.096 195.603 386.63 195.62C388.777 195.643 390.922 195.633 393.07 195.615C394.29 195.617 395.511 195.619 396.768 195.621C400.931 194.821 402.441 193.321 405 190C405.254 186.362 405.254 186.362 404 183C401.65 180.588 400.262 180.033 396.895 179.606C395.676 179.597 394.456 179.589 393.199 179.58C392.524 179.572 391.849 179.563 391.153 179.554C388.926 179.531 386.7 179.53 384.473 179.531C382.921 179.524 381.369 179.516 379.817 179.508C376.567 179.495 373.316 179.493 370.066 179.499C365.905 179.505 361.745 179.474 357.584 179.434C354.38 179.408 351.176 179.405 347.971 179.409C346.437 179.407 344.904 179.397 343.37 179.38C341.223 179.357 339.077 179.367 336.93 179.385C335.709 179.383 334.489 179.381 333.232 179.379C329.069 180.179 327.558 181.679 325 185ZM325.125 222.75C323.553 225.895 324.011 227.679 325 231C326.719 233.292 327.643 233.926 330.48 234.512C331.374 234.57 332.267 234.628 333.187 234.688C334.088 234.753 334.99 234.819 335.918 234.887C336.605 234.924 337.292 234.961 338 235C333.245 239.854 328.445 244.569 323.289 248.996C320.35 251.569 317.489 254.22 314.625 256.875C309.831 261.315 305.033 265.746 300.144 270.082C298.826 271.261 297.527 272.463 296.262 273.699C294.75 275.125 294.75 275.125 292 277C286.247 276.727 281.203 274.114 276.019 271.809C275.052 271.385 274.085 270.962 273.088 270.525C269.993 269.169 266.903 267.804 263.812 266.438C261.785 265.546 259.757 264.654 257.728 263.764C256.732 263.326 255.736 262.888 254.709 262.438C250.76 260.706 246.809 258.979 242.857 257.254C240.05 256.022 237.251 254.775 234.451 253.528C232.742 252.78 231.033 252.032 229.324 251.285C228.552 250.935 227.779 250.586 226.983 250.225C222.983 248.497 220.281 247.352 216 249C213.562 250.62 211.296 252.261 209 254.062C208.314 254.589 207.627 255.116 206.92 255.658C205.415 256.813 203.913 257.972 202.414 259.133C199.019 261.759 195.602 264.356 192.186 266.956C190.387 268.325 188.588 269.696 186.79 271.068C181.462 275.133 176.118 279.175 170.75 283.187C165.104 287.411 159.48 291.661 153.875 295.937C152.826 296.735 152.826 296.735 151.757 297.55C149.83 299.023 147.913 300.509 146 302C145.117 302.675 145.117 302.675 144.216 303.364C141.203 305.741 140.065 306.795 138.875 310.562C138.694 314.006 138.694 314.006 140.625 316.375C143.326 318.223 144.715 319 148 319C153.604 315.631 158.696 311.478 163.875 307.5C165.768 306.052 167.661 304.604 169.555 303.156C170.484 302.446 171.413 301.736 172.37 301.004C176.522 297.84 180.702 294.716 184.884 291.593C188.721 288.724 192.537 285.829 196.34 282.914C197.267 282.204 198.195 281.494 199.15 280.762C200.954 279.379 202.756 277.993 204.557 276.605C205.393 275.965 206.228 275.324 207.09 274.664C207.821 274.102 208.551 273.539 209.304 272.959C210.194 272.313 211.083 271.666 212 271C212.636 270.441 213.272 269.882 213.928 269.306C219.466 264.86 219.466 264.86 223.543 265.231C226.442 266.188 229.109 267.367 231.859 268.691C232.884 269.145 233.909 269.598 234.966 270.065C238.246 271.526 241.497 273.042 244.75 274.562C246.89 275.529 249.032 276.492 251.176 277.451C255.403 279.349 259.624 281.261 263.838 283.188C269.802 285.912 275.768 288.627 281.766 291.277C283.059 291.868 283.059 291.868 284.379 292.47C288.998 294.514 288.998 294.514 293.966 294.808C296.277 293.89 297.682 292.885 299.5 291.187C300.525 290.246 300.525 290.246 301.57 289.285C302.372 288.531 303.174 287.777 304 287C305.017 286.06 306.035 285.121 307.055 284.184C309.296 282.12 311.534 280.051 313.769 277.98C317.302 274.713 320.878 271.497 324.465 268.289C326.325 266.609 328.17 264.919 330.004 263.211C335.455 258.143 340.924 253.324 347 249C346.732 250.052 346.464 251.104 346.187 252.188C345.617 256.071 345.617 256.071 348 259C350.902 261.325 350.902 261.325 354.625 261.062C358.412 259.87 359.016 259.294 361 256C361.857 253.329 361.857 253.329 362.387 250.387C362.711 248.762 362.711 248.762 363.041 247.104C363.254 245.976 363.468 244.849 363.687 243.688C363.912 242.572 364.137 241.456 364.369 240.307C365.971 232.207 365.971 232.207 366 224C363.781 221.093 362.48 220.16 359 219C354.545 218.764 350.085 218.815 345.625 218.812C344.393 218.8 343.16 218.788 341.891 218.775C340.702 218.773 339.514 218.772 338.289 218.77C337.203 218.765 336.117 218.761 334.998 218.757C330.961 219.084 328.1 219.973 325.125 222.75ZM349 279C348.252 282.051 348.252 282.051 348.372 285.528C348.365 286.182 348.358 286.836 348.35 287.51C348.333 289.7 348.351 291.888 348.369 294.078C348.364 295.649 348.356 297.219 348.347 298.789C348.329 303.054 348.342 307.318 348.361 311.583C348.378 316.044 348.369 320.505 348.364 324.966C348.359 332.458 348.375 339.949 348.403 347.441C348.435 356.105 348.435 364.769 348.418 373.433C348.402 381.764 348.409 390.096 348.426 398.427C348.433 401.974 348.432 405.521 348.424 409.068C348.417 413.244 348.429 417.42 348.456 421.597C348.463 423.13 348.463 424.663 348.456 426.197C348.447 428.289 348.463 430.38 348.485 432.472C348.488 433.643 348.491 434.814 348.494 436.02C349.107 439.627 350.12 440.81 353 443C355.726 443.611 355.726 443.611 358.719 443.531C359.816 443.536 360.913 443.542 362.043 443.547C363.754 443.524 363.754 443.524 365.5 443.5C366.641 443.515 367.782 443.531 368.957 443.547C370.602 443.539 370.602 443.539 372.281 443.531C373.282 443.527 374.283 443.522 375.314 443.518C378.806 442.845 379.816 441.782 382 439C382.604 435.941 382.604 435.941 382.515 432.472C382.522 431.818 382.528 431.164 382.536 430.49C382.554 428.3 382.544 426.112 382.533 423.922C382.54 422.351 382.549 420.781 382.559 419.211C382.582 414.946 382.579 410.682 382.57 406.417C382.565 402.859 382.572 399.3 382.58 395.741C382.597 387.347 382.593 378.953 382.576 370.559C382.559 361.895 382.575 353.231 382.608 344.567C382.634 337.131 382.642 329.695 382.633 322.259C382.628 317.816 382.63 313.374 382.651 308.932C382.669 304.756 382.663 300.58 382.639 296.403C382.634 294.87 382.637 293.336 382.65 291.803C382.666 289.711 382.651 287.621 382.628 285.528C382.627 283.772 382.627 283.772 382.626 281.98C382.244 278.811 382.244 278.811 379.623 276.624C376.684 274.804 375.083 274.486 371.656 274.469C370.158 274.461 370.158 274.461 368.629 274.453C367.08 274.476 367.08 274.476 365.5 274.5C364.467 274.485 363.435 274.469 362.371 274.453C361.372 274.458 360.373 274.463 359.344 274.469C357.985 274.476 357.985 274.476 356.6 274.482C353.089 275.181 351.525 276.476 349 279ZM203 324C202.233 327.638 202.328 331.241 202.369 334.947C202.362 336.063 202.355 337.179 202.347 338.329C202.33 342.022 202.35 345.713 202.371 349.406C202.37 351.969 202.368 354.532 202.364 357.095C202.361 362.469 202.375 367.842 202.403 373.215C202.435 379.425 202.435 385.635 202.418 391.845C202.402 397.822 202.409 403.798 202.426 409.775C202.431 412.317 202.43 414.86 202.424 417.402C202.419 420.953 202.439 424.502 202.466 428.053C202.46 429.107 202.453 430.162 202.447 431.249C202.44 436.809 202.44 436.809 204.865 441.652C207.626 443.396 209.462 443.517 212.719 443.531C213.816 443.536 214.913 443.542 216.043 443.547C217.754 443.524 217.754 443.524 219.5 443.5C220.641 443.515 221.782 443.531 222.957 443.547C224.602 443.539 224.602 443.539 226.281 443.531C227.282 443.527 228.283 443.522 229.314 443.518C232.963 442.814 233.845 442.063 236 439C236.619 435.358 236.556 431.739 236.533 428.053C236.542 426.937 236.551 425.821 236.559 424.671C236.582 420.979 236.575 417.287 236.566 413.594C236.572 411.031 236.578 408.468 236.585 405.905C236.596 400.531 236.591 395.158 236.576 389.785C236.559 383.575 236.575 377.365 236.608 371.155C236.637 365.178 236.639 359.202 236.63 353.225C236.629 350.683 236.636 348.14 236.651 345.598C236.668 342.047 236.654 338.498 236.631 334.947C236.643 333.893 236.654 332.838 236.666 331.751C236.69 326.005 236.69 326.005 233.623 321.348C230.726 319.859 228.9 319.485 225.656 319.469C224.158 319.461 224.158 319.461 222.629 319.453C221.08 319.476 221.08 319.476 219.5 319.5C218.467 319.485 217.435 319.469 216.371 319.453C215.372 319.458 214.373 319.463 213.344 319.469C211.985 319.476 211.985 319.476 210.6 319.482C206.905 320.218 205.539 321.167 203 324ZM276 348C275.605 351.036 275.453 353.709 275.482 356.744C275.475 357.626 275.468 358.508 275.461 359.416C275.444 362.33 275.455 365.243 275.469 368.156C275.466 370.181 275.462 372.206 275.457 374.231C275.451 378.475 275.46 382.718 275.478 386.961C275.501 392.403 275.488 397.843 275.464 403.284C275.45 407.465 275.454 411.646 275.465 415.828C275.467 417.834 275.464 419.84 275.455 421.847C275.445 424.65 275.46 427.452 275.482 430.256C275.47 431.501 275.47 431.501 275.458 432.772C275.511 436.401 275.671 438.556 277.864 441.514C280.625 443.435 282.371 443.516 285.719 443.531C286.816 443.536 287.913 443.542 289.043 443.547C290.754 443.524 290.754 443.524 292.5 443.5C293.641 443.515 294.782 443.531 295.957 443.547C297.602 443.539 297.602 443.539 299.281 443.531C300.282 443.527 301.283 443.522 302.314 443.518C305.879 442.831 306.837 441.919 309 439C309.389 435.963 309.537 433.291 309.502 430.256C309.507 429.374 309.512 428.492 309.518 427.584C309.531 424.67 309.514 421.757 309.496 418.844C309.496 416.819 309.498 414.794 309.5 412.769C309.502 408.525 309.489 404.282 309.466 400.039C309.438 394.598 309.441 389.157 309.454 383.716C309.461 379.535 309.453 375.354 309.44 371.172C309.436 369.166 309.435 367.16 309.439 365.153C309.442 362.35 309.426 359.547 309.404 356.744C309.411 355.499 309.411 355.499 309.418 354.228C309.375 350.902 309.239 348.442 307.641 345.486C305.22 343.294 303.384 343.483 300.16 343.469C298.442 343.461 298.442 343.461 296.689 343.453C294.894 343.476 294.894 343.476 293.062 343.5C291.869 343.485 290.676 343.469 289.447 343.453C288.301 343.458 287.154 343.463 285.973 343.469C284.923 343.473 283.874 343.478 282.793 343.482C279.149 344.158 278.202 345.019 276 348ZM130 382C129.398 384.665 129.398 384.665 129.482 387.623C129.47 388.751 129.457 389.879 129.444 391.041C129.452 392.255 129.46 393.468 129.469 394.719C129.465 395.969 129.461 397.219 129.457 398.507C129.454 401.15 129.46 403.792 129.478 406.435C129.501 409.818 129.488 413.2 129.464 416.583C129.446 419.816 129.459 423.048 129.469 426.281C129.461 427.495 129.452 428.708 129.444 429.959C129.457 431.087 129.469 432.215 129.482 433.377C129.486 434.369 129.489 435.36 129.492 436.382C130.141 439.726 131.355 440.918 134 443C136.726 443.611 136.726 443.611 139.719 443.531C140.816 443.536 141.913 443.542 143.043 443.547C144.754 443.524 144.754 443.524 146.5 443.5C147.641 443.515 148.782 443.531 149.957 443.547C151.602 443.539 151.602 443.539 153.281 443.531C154.282 443.527 155.283 443.522 156.314 443.518C159.78 442.85 160.805 441.729 163 439C163.608 436.335 163.608 436.335 163.533 433.377C163.557 431.685 163.557 431.685 163.581 429.959C163.576 428.745 163.571 427.532 163.566 426.281C163.573 425.031 163.579 423.781 163.585 422.493C163.592 419.85 163.591 417.208 163.576 414.565C163.559 411.182 163.583 407.8 163.618 404.417C163.645 401.184 163.635 397.952 163.629 394.719C163.642 393.505 163.655 392.292 163.669 391.041C163.746 384.653 163.746 384.653 160.81 379.238C157.775 377.901 155.711 377.484 152.402 377.469C151.354 377.464 150.305 377.458 149.225 377.453C148.14 377.469 147.055 377.484 145.937 377.5C144.849 377.485 143.76 377.469 142.639 377.453C141.591 377.458 140.544 377.463 139.465 377.469C138.036 377.476 138.036 377.476 136.578 377.482C133.197 378.161 132.151 379.335 130 382Z" fill="#225D5C"/>
<path d="M182 71C184.29 74.4352 184.178 75.9853 184 80C184.733 80.1147 185.467 80.2295 186.223 80.3477C192.981 81.935 197.882 86.2138 201.625 91.9375C203.445 95.309 203.998 96.9628 204.187 100.875C202.718 104.743 201.697 106.112 198 108C193.02 108.402 193.02 108.402 190 107C187.867 104.812 186.163 102.556 184.445 100.031C183.155 97.8822 183.155 97.8822 181 97C178.696 96.764 178.696 96.764 176.125 96.75C174.829 96.7113 174.829 96.7113 173.508 96.6719C170.371 97.0822 169.091 97.607 167 100C166.666 103.626 166.666 103.626 167 107C168.016 107.231 169.031 107.461 170.078 107.699C195.252 113.589 195.252 113.589 202.242 122.602C206.077 128.817 205.954 135.943 205 143C202.311 150.163 197.098 154.123 190.312 157.25C186.308 159 186.308 159 184 159C184.155 160.361 184.155 160.361 184.312 161.75C184 165 184 165 181.875 167.375C178.481 169.293 176.837 169.639 173 169C170.187 167.438 170.187 167.438 168 165C167.187 161.25 167.187 161.25 167 158C166.268 157.889 165.536 157.778 164.781 157.664C158.769 156.229 153.619 152.268 150 147.313C147.114 142.533 146.421 138.521 147 133C148 130.563 148 130.563 150 129C152.718 128.1 155.143 127.771 158 128C162.453 130.474 163.82 133.545 166 138C168.953 141.293 172.368 141.71 176.605 142.082C180.51 141.948 183.463 140.608 187 139C187.334 136.126 187.334 136.126 187 133C183.076 128.767 176.656 128.273 171.262 127.07C162.599 124.984 156.184 121.319 151 114C148.111 107.947 147.89 101.158 149.617 94.6875C152.016 89.252 156.126 85.3089 161 82C162.114 81.6906 163.227 81.3813 164.375 81.0625C165.241 80.7119 166.107 80.3613 167 80C167.678 77.9915 168.011 76.0012 168.394 73.918C169 72 169 72 171.687 69.875C175.859 68.7731 178.058 69.3321 182 71Z" fill="#225D5C"/>
<path d="M381 16C385.293 18.7055 388.812 21.5593 392.423 25.1641C392.928 25.6654 393.433 26.1668 393.953 26.6833C395.604 28.3256 397.247 29.975 398.891 31.625C400.043 32.7758 401.195 33.9264 402.348 35.0767C404.755 37.4808 407.159 39.8885 409.56 42.2988C412.635 45.3858 415.72 48.4636 418.807 51.5388C421.185 53.9098 423.558 56.2856 425.93 58.6628C427.066 59.7997 428.203 60.9352 429.342 62.0692C430.931 63.6533 432.514 65.2437 434.095 66.8359C434.996 67.7388 435.897 68.6416 436.826 69.5718C438.722 71.6894 439.923 73.3957 441 76C433.472 76.0463 425.945 76.0819 418.417 76.1036C414.922 76.1141 411.426 76.1282 407.931 76.1509C403.915 76.1767 399.899 76.1865 395.883 76.1953C393.995 76.2108 393.995 76.2108 392.07 76.2266C390.909 76.2267 389.748 76.2269 388.551 76.2271C387.525 76.2315 386.499 76.2359 385.442 76.2405C383 76 383 76 381 74C380.76 71.5576 380.76 71.5576 380.773 68.4487C380.773 67.2877 380.773 66.1266 380.773 64.9304C380.784 63.672 380.794 62.4137 380.805 61.1172C380.808 59.8326 380.81 58.5481 380.813 57.2246C380.821 53.8084 380.841 50.3923 380.863 46.9761C380.883 43.4906 380.892 40.0051 380.902 36.5195C380.924 29.6796 380.958 22.8398 381 16Z" fill="#225D5C"/>
</svg>
