<svg width="512" height="512" viewBox="0 0 512 512" fill="none" xmlns="http://www.w3.org/2000/svg">
<path d="M201.078 30.558C218.31 47.3499 227.285 69.4371 227.992 93.4221C228.254 116.527 219.956 138.276 204.01 154.997C202.686 156.344 201.344 157.673 200 159C199.018 159.998 199.018 159.998 198.016 161.016C180.456 177.675 156.538 182.896 133.137 182.34C112.916 181.467 95.1574 173.165 80 160C79.2536 159.354 78.5072 158.709 77.7382 158.043C62.0089 143.365 52.7465 122.098 51.5859 100.809C50.7746 75.9409 56.912 53.6537 74 35.0002C74.6509 34.2577 75.3019 33.5152 75.9726 32.7502C91.1162 16.4461 112.735 7.43 134.781 6.06659C159.672 5.55306 182.732 13.4021 201.078 30.558ZM133.562 34.0002C131.483 37.9925 131.698 40.5411 132 45.0002C131.382 45.1355 130.765 45.2709 130.129 45.4103C122.362 47.3845 116.035 50.6403 111.363 57.3517C107.133 64.7938 105.719 71.7367 107.461 80.2541C110.102 88.1917 115.324 93.2148 122.672 96.9494C129.563 100.06 136.784 101.774 144.153 103.379C149.433 104.608 154.887 106.427 158.437 110.75C159.31 114.239 159.661 117.471 159 121C155.514 126.061 150.826 127.805 145 129C138.394 129.757 131.914 129.218 126 126C121.781 122.353 119.337 118.025 117 113C115.066 110.66 115.066 110.66 111.625 110.563C107.933 110.678 107.933 110.678 105.5 113.063C103.496 116.987 103.852 118.767 105 123C108.432 132.356 114.712 137.918 123.621 142.067C126.395 143.155 129.028 143.766 132 144C131.897 145.217 131.794 146.434 131.687 147.688C131.694 151.224 131.956 151.939 134.125 155C136.856 157.181 136.856 157.181 140.062 157.625C143.123 157.215 143.123 157.215 145.375 155C147.54 151.002 147.305 148.5 147 144C147.907 143.959 148.815 143.918 149.75 143.875C157.008 142.811 164.639 139.015 169.562 133.563C174.611 126.727 176.002 120.36 175 112C172.972 103.353 168.206 97.2909 160.738 92.5705C153.903 89.1153 146.511 87.4644 139.081 85.7866C133.56 84.5191 128.444 83.1994 124.125 79.3127C122.453 75.8769 122.373 72.6959 123 69.0002C124.849 65.0804 126.369 63.3867 130.062 61.1252C136.34 58.8754 143.365 58.9009 149.437 61.6877C153.373 63.9672 155.582 66.9395 158.137 70.6525C160.263 73.5026 161.483 74.8817 165 75.6877C169.049 74.7597 170.591 73.3585 173 70.0002C173.242 64.5539 170.247 60.1658 167 56.0002C162.165 50.8074 156.791 47.1567 150 45.0002C149.01 45.0002 148.02 45.0002 147 45.0002C147.046 44.3969 147.093 43.7936 147.141 43.1721C147.4 38.0544 147.4 38.0544 145.437 33.4377C141.085 30.871 137.511 30.7601 133.562 34.0002Z" fill="#FFD6A8"/>
<path d="M406.738 148.823C407.722 148.81 408.707 148.798 409.722 148.784C410.789 148.777 411.857 148.77 412.957 148.762C414.052 148.754 415.147 148.746 416.276 148.738C418.597 148.724 420.918 148.713 423.239 148.705C426.788 148.688 430.336 148.644 433.885 148.6C436.138 148.59 438.391 148.581 440.645 148.575C441.706 148.557 442.768 148.54 443.862 148.521C451.244 148.543 451.244 148.543 455.147 150.902C457.899 154.019 458.126 155.708 458.137 159.777C458.142 160.792 458.147 161.806 458.152 162.852C458.153 163.975 458.153 165.098 458.154 166.255C458.161 168.034 458.161 168.034 458.167 169.85C458.178 173.154 458.185 176.457 458.189 179.761C458.195 183.32 458.207 186.879 458.218 190.438C458.242 199.038 458.257 207.638 458.27 216.238C458.273 218.666 458.277 221.094 458.282 223.522C458.307 238.592 458.329 253.661 458.341 268.731C458.344 272.222 458.347 275.714 458.35 279.205C458.351 280.073 458.352 280.941 458.352 281.835C458.365 295.899 458.398 309.964 458.44 324.028C458.482 338.46 458.506 352.891 458.511 367.323C458.515 375.429 458.526 383.535 458.559 391.641C458.587 398.543 458.598 405.445 458.587 412.347C458.582 415.87 458.585 419.392 458.61 422.915C458.636 426.732 458.624 430.548 458.608 434.365C458.629 436.039 458.629 436.04 458.65 437.748C458.573 445.249 458.573 445.249 455.587 449.165C452.219 451.554 450.597 452.127 446.538 452.161C445.613 452.171 444.689 452.181 443.736 452.191C442.233 452.197 442.233 452.197 440.699 452.203C439.671 452.209 438.642 452.215 437.583 452.221C435.403 452.23 433.223 452.237 431.043 452.241C427.712 452.25 424.38 452.281 421.049 452.313C418.932 452.319 416.816 452.325 414.699 452.328C413.205 452.347 413.205 452.347 411.681 452.366C402.896 452.338 402.896 452.338 399 449C396.281 445.954 395.624 444.056 395.62 439.993C395.611 438.978 395.603 437.963 395.594 436.917C395.603 435.247 395.603 435.247 395.612 433.543C395.607 432.359 395.602 431.175 395.596 429.955C395.584 426.667 395.586 423.38 395.593 420.092C395.598 416.546 395.585 413.001 395.575 409.456C395.558 402.51 395.557 395.564 395.562 388.617C395.566 382.972 395.565 377.328 395.56 371.683C395.559 370.88 395.558 370.077 395.557 369.25C395.556 367.619 395.554 365.988 395.553 364.357C395.539 349.056 395.544 333.755 395.556 318.455C395.566 304.452 395.553 290.449 395.529 276.446C395.505 262.073 395.495 247.7 395.502 233.328C395.505 225.256 395.503 217.185 395.485 209.114C395.471 202.242 395.47 195.372 395.487 188.501C395.496 184.994 395.498 181.488 395.483 177.981C395.47 174.182 395.481 170.384 395.499 166.584C395.489 165.473 395.48 164.362 395.47 163.217C395.542 155.761 395.542 155.761 397.906 151.839C400.999 149.123 402.708 148.869 406.738 148.823Z" fill="#FFD6A8"/>
<path d="M292.738 206.823C293.723 206.81 294.707 206.798 295.722 206.784C296.79 206.777 297.857 206.77 298.957 206.762C300.052 206.754 301.148 206.746 302.276 206.738C304.597 206.724 306.918 206.713 309.239 206.705C312.788 206.688 316.336 206.644 319.885 206.6C322.138 206.59 324.392 206.581 326.645 206.575C327.706 206.557 328.768 206.54 329.862 206.521C337.244 206.543 337.244 206.543 341.147 208.902C344.735 212.965 344.143 216.844 344.134 222.022C344.136 222.968 344.139 223.914 344.141 224.889C344.147 228.08 344.146 231.27 344.146 234.461C344.149 236.74 344.152 239.02 344.156 241.299C344.165 247.506 344.167 253.712 344.168 259.919C344.168 265.093 344.172 270.267 344.176 275.441C344.183 286.947 344.186 298.453 344.186 309.959C344.186 310.65 344.186 311.341 344.186 312.053C344.186 312.744 344.185 313.436 344.185 314.148C344.185 325.359 344.195 336.569 344.209 347.779C344.223 359.282 344.23 370.786 344.229 382.29C344.229 388.751 344.232 395.212 344.242 401.673C344.252 407.749 344.252 413.824 344.245 419.899C344.244 422.133 344.246 424.366 344.252 426.599C344.26 429.641 344.255 432.683 344.247 435.725C344.253 436.615 344.258 437.505 344.263 438.421C344.256 439.643 344.256 439.643 344.249 440.89C344.249 441.593 344.25 442.295 344.25 443.018C343.951 445.396 343.253 446.964 342 449C336.775 452.646 331.689 452.438 325.563 452.399C324.564 452.402 323.566 452.404 322.538 452.407C320.433 452.409 318.328 452.404 316.224 452.391C313.011 452.375 309.799 452.391 306.586 452.41C304.537 452.408 302.487 452.405 300.438 452.399C299.481 452.405 298.525 452.411 297.54 452.417C292.327 452.362 288.421 452.084 284 449C282.295 446.226 281.749 444.134 281.743 440.899C281.737 440.086 281.73 439.273 281.723 438.435C281.727 437.548 281.73 436.66 281.733 435.745C281.728 434.798 281.724 433.851 281.719 432.875C281.706 429.693 281.708 426.511 281.71 423.329C281.704 421.051 281.697 418.772 281.689 416.494C281.672 410.3 281.667 404.106 281.666 397.912C281.664 392.745 281.656 387.578 281.649 382.412C281.634 370.922 281.628 359.431 281.629 347.941C281.629 347.252 281.63 346.562 281.63 345.852C281.63 345.162 281.63 344.472 281.63 343.76C281.631 332.57 281.612 321.381 281.583 310.191C281.555 298.702 281.541 287.213 281.543 275.724C281.543 269.273 281.537 262.823 281.516 256.372C281.497 250.307 281.497 244.243 281.511 238.178C281.513 235.95 281.509 233.722 281.497 231.494C281.481 228.456 281.49 225.42 281.506 222.382C281.495 221.497 281.485 220.611 281.475 219.699C281.521 215.597 281.67 213.524 283.906 209.976C286.964 207.091 288.638 206.87 292.738 206.823Z" fill="#FFD6A8"/>
<path d="M186.472 270.601C187.473 270.599 188.474 270.596 189.505 270.593C191.614 270.591 193.722 270.596 195.831 270.609C199.055 270.625 202.278 270.609 205.502 270.59C207.555 270.592 209.607 270.596 211.66 270.601C213.102 270.592 213.102 270.592 214.574 270.583C219.5 270.635 223.075 270.683 227 274C230.301 277.464 230.375 280.091 230.374 284.794C230.378 285.476 230.382 286.159 230.386 286.862C230.396 289.149 230.384 291.434 230.372 293.721C230.375 295.36 230.378 296.999 230.383 298.639C230.393 303.091 230.383 307.543 230.37 311.996C230.359 316.653 230.363 321.31 230.365 325.968C230.365 333.789 230.354 341.611 230.336 349.432C230.315 358.477 230.311 367.523 230.318 376.568C230.323 385.266 230.318 393.964 230.306 402.662C230.302 406.365 230.301 410.068 230.303 413.771C230.305 418.132 230.297 422.491 230.281 426.852C230.277 428.453 230.276 430.054 230.279 431.655C230.282 433.839 230.273 436.022 230.261 438.206C230.258 439.428 230.256 440.651 230.254 441.911C230.008 444.895 229.661 446.543 228 449C222.775 452.645 217.688 452.437 211.562 452.398C210.564 452.401 209.566 452.404 208.537 452.407C206.433 452.409 204.328 452.404 202.223 452.391C199.01 452.375 195.799 452.391 192.586 452.41C190.536 452.408 188.487 452.404 186.437 452.398C185.481 452.404 184.525 452.41 183.539 452.417C178.327 452.362 174.42 452.084 170 449C167.637 445.507 167.748 442.345 167.746 438.206C167.743 437.523 167.74 436.841 167.736 436.137C167.728 433.851 167.735 431.565 167.741 429.279C167.738 427.64 167.735 426 167.73 424.361C167.721 419.909 167.725 415.456 167.731 411.004C167.736 406.347 167.732 401.689 167.728 397.032C167.725 389.211 167.73 381.389 167.739 373.568C167.75 364.522 167.746 355.477 167.735 346.431C167.726 338.668 167.725 330.905 167.73 323.142C167.733 318.504 167.734 313.866 167.727 309.228C167.721 304.868 167.725 300.508 167.737 296.148C167.74 294.547 167.739 292.946 167.734 291.345C167.729 289.161 167.736 286.978 167.746 284.794C167.747 283.571 167.747 282.349 167.748 281.089C167.991 278.103 168.338 276.457 170 274C175.231 270.347 180.338 270.563 186.472 270.601Z" fill="#FFD6A8"/>
<path d="M51.1 480.871C52.1785 480.869 52.1785 480.869 53.2788 480.866C55.7006 480.861 58.1223 480.864 60.5441 480.866C62.2929 480.864 64.0417 480.862 65.7905 480.859C70.6061 480.853 75.4216 480.853 80.2372 480.855C85.4268 480.855 90.6164 480.849 95.806 480.844C105.977 480.836 116.147 480.833 126.318 480.833C134.582 480.832 142.846 480.83 151.11 480.827C174.524 480.818 197.938 480.814 221.352 480.815C223.247 480.815 223.247 480.815 225.179 480.815C227.076 480.815 227.076 480.815 229.011 480.815C249.513 480.815 270.015 480.806 290.516 480.791C311.552 480.777 332.587 480.77 353.622 480.771C365.438 480.771 377.254 480.769 389.071 480.758C399.129 480.749 409.188 480.747 419.247 480.753C424.381 480.757 429.516 480.757 434.651 480.748C439.348 480.74 444.045 480.742 448.742 480.75C450.444 480.752 452.147 480.75 453.849 480.744C456.158 480.737 458.466 480.743 460.774 480.751C462.058 480.751 463.342 480.751 464.665 480.75C469.124 481.084 471.896 482.075 475.313 484.937C477.858 489.556 477.883 493.846 477 499C475.489 502.075 473.597 504.408 470.272 505.64C467.13 506.138 464.082 506.127 460.9 506.129C459.822 506.131 459.822 506.131 458.721 506.134C456.299 506.139 453.878 506.136 451.456 506.134C449.707 506.136 447.958 506.138 446.21 506.141C441.394 506.147 436.578 506.146 431.763 506.145C426.573 506.145 421.384 506.151 416.194 506.155C406.023 506.164 395.853 506.166 385.682 506.167C377.418 506.167 369.154 506.17 360.89 506.173C337.476 506.181 314.062 506.186 290.648 506.185C289.385 506.185 288.122 506.185 286.821 506.185C284.924 506.185 284.924 506.185 282.989 506.185C262.487 506.185 241.985 506.194 221.484 506.208C200.448 506.223 179.413 506.23 158.378 506.229C146.562 506.228 134.746 506.231 122.929 506.242C112.871 506.251 102.812 506.253 92.7535 506.246C87.6188 506.243 82.4841 506.243 77.3494 506.252C72.6523 506.26 67.9552 506.258 63.2581 506.25C61.5556 506.248 59.8531 506.25 58.1506 506.255C55.8422 506.262 53.5342 506.257 51.2259 506.249C49.9419 506.249 48.658 506.249 47.3351 506.249C42.8759 505.916 40.1043 504.925 36.6875 502.062C34.1425 497.444 34.1171 493.154 35 488C36.5109 484.924 38.4028 482.592 41.7282 481.36C44.8703 480.862 47.9182 480.873 51.1 480.871Z" fill="#FFD6A8"/>
<path d="M465 26.9999C468.183 33.3664 465.619 43.1337 464.609 49.8984C464.463 50.8957 464.317 51.8931 464.167 52.9207C463.858 55.0104 463.546 57.0994 463.229 59.1879C462.748 62.3847 462.294 65.5845 461.84 68.7851C461.535 70.8231 461.229 72.8608 460.922 74.8984C460.723 76.3296 460.723 76.3296 460.52 77.7898C459.903 81.7131 459.488 84.3418 457.095 87.5688C454.015 89.673 451.709 89.9999 448 89.9999C445.198 88.2335 443.485 86.9694 442 83.9999C442.21 74.6566 443.789 65.261 445 55.9999C444.622 56.4008 444.244 56.8017 443.855 57.2148C439.534 61.6778 434.915 65.5961 430.078 69.4882C426.726 72.2235 423.456 75.0414 420.187 77.8749C414.439 82.8382 408.545 87.5736 402.547 92.2304C400.162 94.0836 397.799 95.9607 395.453 97.8632C386.284 105.298 376.878 112.36 367.33 119.3C365.195 120.857 363.071 122.428 360.949 124.004C346.262 134.845 330.961 144.81 315.728 154.859C314.25 155.835 312.774 156.812 311.299 157.79C289.502 172.231 266.922 185.44 244 198C243.031 198.536 242.062 199.072 241.064 199.624C209.49 217.078 177.106 232.985 143.985 247.274C140.352 248.843 136.735 250.445 133.121 252.055C112.279 261.262 90.9211 269.197 69.5414 277.057C67.055 277.979 64.5787 278.925 62.1029 279.876C60.5935 280.441 59.0839 281.006 57.5741 281.57C56.5716 281.965 56.5716 281.965 55.5489 282.368C51.0006 284.038 47.7034 284.08 42.9998 283C41.1248 281.875 41.1248 281.875 39.9998 280C38.606 274.103 38.606 274.103 39.7501 270.899C41.2509 268.618 42.2963 268.067 44.8084 267.047C46.0244 266.549 46.0244 266.549 47.265 266.041C52.508 264.045 57.7802 262.139 63.0623 260.25C120.726 239.384 177.545 214.373 231.166 184.573C234.089 182.95 237.019 181.34 239.949 179.73C269.442 163.453 298.394 145.784 325.969 126.423C328.224 124.843 330.486 123.275 332.75 121.707C359.237 103.32 384.854 83.8001 409.406 62.893C413.678 59.2573 418.009 55.6995 422.367 52.1679C425.618 49.491 428.811 46.7502 432 43.9999C430.858 44.0313 430.858 44.0313 429.692 44.0634C426.233 44.1467 422.773 44.1986 419.312 44.2499C418.114 44.2834 416.916 44.3169 415.681 44.3515C413.946 44.3708 413.946 44.3708 412.176 44.3905C411.113 44.4115 410.049 44.4324 408.954 44.454C405.247 43.8842 403.622 42.6392 401 39.9999C399.834 35.9919 399.567 33.9471 401.312 30.1249C403 27.9999 403 27.9999 405 26.9999C406.879 26.7881 408.765 26.6307 410.652 26.4999C412.393 26.3769 412.393 26.3769 414.169 26.2514C415.412 26.1684 416.656 26.0854 417.937 25.9999C419.2 25.9131 420.463 25.8262 421.764 25.7367C429.09 25.2403 436.418 24.7719 443.75 24.3749C444.479 24.335 445.209 24.295 445.961 24.2538C460.577 23.5149 460.577 23.5149 465 26.9999Z" fill="#FFD6A8"/>
<path d="M65.5537 332.839C66.4984 332.83 67.4432 332.82 68.4165 332.81C69.9524 332.804 69.9524 332.804 71.5193 332.797C73.0954 332.789 73.0954 332.789 74.7033 332.78C76.9301 332.77 79.157 332.764 81.3838 332.76C84.788 332.75 88.1915 332.719 91.5955 332.688C93.7576 332.681 95.9197 332.676 98.0818 332.672C99.6086 332.654 99.6086 332.654 101.166 332.635C110.252 332.663 110.252 332.663 114 336C115.748 338.9 116.253 341.06 116.274 344.427C116.289 345.748 116.289 345.748 116.304 347.095C116.305 348.053 116.305 349.011 116.306 349.998C116.315 351.013 116.323 352.028 116.331 353.074C116.356 356.432 116.364 359.79 116.371 363.149C116.38 365.483 116.389 367.817 116.398 370.151C116.415 375.045 116.422 379.939 116.425 384.833C116.431 391.104 116.468 397.374 116.514 403.644C116.544 408.465 116.551 413.286 116.552 418.108C116.556 420.419 116.569 422.731 116.59 425.043C116.616 428.277 116.612 431.51 116.599 434.744C116.614 435.698 116.629 436.652 116.644 437.635C116.596 442.017 116.426 445.066 113.65 448.579C110.225 451.709 107.893 452.124 103.424 452.161C102.499 452.171 101.575 452.181 100.622 452.191C99.1269 452.197 99.1269 452.197 97.6013 452.203C96.5742 452.209 95.5471 452.215 94.4889 452.221C92.3151 452.23 90.1413 452.237 87.9676 452.241C84.6447 452.25 81.3225 452.281 77.9998 452.313C75.8878 452.319 73.7758 452.325 71.6638 452.328C70.671 452.341 69.6781 452.353 68.6552 452.366C59.9208 452.338 59.9208 452.338 55.9998 449C53.9166 445.876 53.7468 445.165 53.7256 441.611C53.7157 440.714 53.7057 439.817 53.6954 438.892C53.6947 437.91 53.6941 436.928 53.6934 435.917C53.6851 434.881 53.6767 433.845 53.6682 432.777C53.644 429.344 53.6353 425.91 53.6287 422.477C53.6197 420.094 53.6106 417.711 53.6013 415.329C53.5848 410.33 53.5771 405.332 53.5742 400.333C53.5689 393.925 53.5312 387.517 53.4855 381.109C53.4558 376.186 53.4485 371.264 53.4475 366.341C53.4433 363.979 53.4308 361.616 53.41 359.253C53.3832 355.949 53.3879 352.647 53.4004 349.343C53.3856 348.365 53.3708 347.387 53.3555 346.379C53.4058 341.724 53.4646 339.684 56.4122 335.916C59.805 333.404 61.4096 332.873 65.5537 332.839Z" fill="#FFD6A8"/>
</svg>
