<svg width="683" height="683" viewBox="0 0 683 683" fill="none" xmlns="http://www.w3.org/2000/svg">
<path d="M193.2 30.2697C192.4 32.2697 189.067 41.203 185.733 50.003C182.533 58.803 179.2 66.6697 178.533 67.4697C177.733 68.5363 169.467 69.4697 156 70.003C135.333 70.9363 130.8 72.003 133.067 75.4697C133.6 76.2697 141.333 82.6697 150.4 89.8697C159.333 97.0697 166.667 103.603 166.667 104.403C166.667 105.203 164.267 114.936 161.2 125.736C156.133 144.536 155.6 149.336 158.533 149.336C159.2 149.336 166.933 144.669 175.733 138.803C184.4 133.069 192.8 127.603 194.4 126.803C196.8 125.469 199.6 126.803 215.867 137.469C226.133 144.136 235.2 149.203 236 148.669C238 147.336 237.733 145.469 232 124.669C229.067 114.003 226.667 104.803 226.667 104.269C226.667 103.603 234.533 96.9363 244 89.3363C254.933 80.6697 261.333 74.6697 261.067 73.4697C260.667 71.7363 256.8 71.0697 238.4 70.003C226.267 69.203 215.733 68.1363 215.2 67.603C214.533 67.0697 210.8 57.7363 206.667 46.9363C198.8 26.2697 196.133 22.803 193.2 30.2697Z" fill="#225D5C"/>
<path d="M442 58.1353L436.667 72.1353L424.667 76.1353C418.133 78.402 408.267 82.5353 402.933 85.3353L393.067 90.402L382.133 85.3353C364 77.0687 367.2 76.2687 348.667 94.6687L332.267 110.936L338.4 124.802L344.533 138.669L338.933 149.736C335.867 155.869 331.867 165.736 330 171.602L326.533 182.269L312.933 187.469L299.333 192.669L298.933 216.269L298.667 239.736L311.6 244.802C318.8 247.469 325.333 250.402 326.133 251.202C326.933 252.002 328.533 256.269 329.867 260.669C331.067 265.069 334.933 274.536 338.267 281.602L344.4 294.536L338.267 308.269L332.267 322.002L348.667 338.536L365.067 355.069L379.067 348.802L393.067 342.536L402.933 347.602C408.267 350.269 418 354.402 424.533 356.669L436.533 360.802L442 374.669L447.467 388.669H470.667H494L499.467 374.669L505.067 360.669L516 357.069C522.133 355.069 531.867 350.936 537.867 348.002L548.533 342.536L562.4 348.802L576.4 354.936L592.8 338.536L609.2 322.002L603.067 308.269L596.933 294.402L602.533 282.936C605.6 276.536 609.733 266.669 611.733 260.802L615.333 250.402L628.667 245.336L642 240.269V216.536V192.669L628.4 187.469L614.8 182.269L612 172.802C610.4 167.602 606.4 157.736 603.067 150.936L597.067 138.536L603.067 124.936L609.067 111.336L592.667 94.6687L576.133 78.1353L562.133 84.2687L548.133 90.402L537.733 84.9353C532.133 82.002 522.267 77.8686 516.133 75.8686L504.8 72.2687L499.467 58.1353L494 44.002H470.667H447.333L442 58.1353ZM497.333 127.336C511.467 131.736 522.667 138.669 534.667 150.669C553.467 169.336 561.333 188.536 561.333 215.202C561.333 231.469 559.067 240.936 552 255.336C540.267 279.336 519.467 296.402 493.333 303.469C479.467 307.202 456.933 306.669 443.333 302.269C428.667 297.469 417.2 290.402 406.133 279.336C395.067 268.402 388 256.936 383.067 242.002C378.667 228.402 378 205.736 381.733 192.002C390.133 161.202 412.933 137.469 443.733 127.336C458 122.669 482 122.669 497.333 127.336Z" fill="#225D5C"/>
<path d="M506 172.535C503.867 173.602 491.867 184.669 479.333 197.202L456.8 219.869L446.667 210.135C435.733 199.469 431.067 197.469 423.333 200.002C416 202.402 412.533 208.802 413.067 218.535C413.467 223.069 445.467 255.469 451.6 257.469C461.067 260.535 462.533 259.469 495.867 226.135C526.933 195.069 527.067 194.935 527.6 188.535C528.4 180.802 525.067 175.602 517.867 172.535C512.4 170.269 511.067 170.269 506 172.535Z" fill="#225D5C"/>
<path d="M193.467 214.935C192.8 216.668 189.467 225.468 186 234.668C182.533 243.868 179.067 252.002 178.533 252.802C177.733 253.735 168.8 254.668 155.733 255.202C135.333 256.135 130.933 257.068 132.8 260.268C133.2 260.802 140.933 267.335 150 274.802C159.2 282.135 166.667 288.802 166.667 289.602C166.667 290.268 164.133 300.135 161.067 311.468C157.067 326.535 156 332.535 157.067 333.602C158.133 334.668 163.6 331.735 177.333 322.802C187.6 316.135 196.533 310.668 197.067 310.668C197.467 310.668 206.133 316.135 216.133 322.802C226.267 329.468 235.067 334.535 235.867 334.002C238 332.802 237.733 331.202 232 309.735C229.067 298.935 226.667 289.602 226.667 289.068C226.667 288.668 234.267 282.135 243.733 274.668C253.067 267.068 260.667 260.135 260.667 258.935C260.667 257.068 258.667 256.535 249.333 255.735C243.067 255.335 233.067 254.935 227.067 254.802C219.867 254.668 215.733 254.135 215.067 252.935C214.533 252.135 210.667 242.668 206.667 232.002C199.067 212.002 196.133 208.135 193.467 214.935Z" fill="#225D5C"/>
<path d="M251.2 396.001C242.4 397.334 236.133 399.334 224.933 404.801C210.667 411.734 132 457.601 132 458.934C132 461.201 189.867 562.667 191.2 562.667C191.867 562.667 195.2 560.934 198.533 558.801C202 556.801 206.133 554.534 207.733 554.134C209.6 553.467 233.2 559.201 276.267 570.801C390 601.201 380.267 598.934 394.667 598.267C404 597.867 409.467 596.934 415.467 594.401C422.667 591.467 642.4 457.334 648.533 452.134C658.267 443.867 658.133 423.601 648.4 413.867C639.333 404.801 621.6 405.201 598.933 414.934C593.2 417.467 558.267 437.067 521.333 458.667C481.067 482.001 450.267 499.201 444.667 501.067C432 505.601 412 506.534 393.867 503.467C369.2 499.334 303.867 481.467 299.867 477.867C295.867 474.267 296.533 466.134 300.8 462.801C302.8 461.201 305.467 460.001 306.933 460.001C308.267 460.001 322.267 463.601 337.867 468.001C388.8 482.267 395.067 483.201 404.933 478.667C418.8 472.401 421.2 452.934 409.467 442.267C403.733 437.201 402.8 436.801 377.333 430.801C360.533 426.801 335.467 418.934 294 404.267C270.267 396.001 262.4 394.534 251.2 396.001Z" fill="#225D5C"/>
<path d="M69.3332 428.935C50.6665 438.935 34.3998 448.802 31.1998 452.135C27.8665 455.602 27.3332 457.202 27.4665 463.068C27.4665 469.735 29.8665 474.135 77.8665 558.668C105.467 607.468 129.867 649.068 132 651.202C134.8 654.135 137.333 655.202 142.267 655.602C148.267 656.135 149.867 655.468 169.067 644.535C183.6 636.135 190.133 631.602 192 628.668C197.733 619.335 198.8 621.468 143.067 523.068C110 464.668 90.2665 431.202 88.1332 429.735C83.0665 426.402 74.7998 426.135 69.3332 428.935ZM79.8665 464.802C91.3332 474.402 77.7332 491.735 65.5998 483.202C56.2665 476.668 61.3332 461.602 72.9332 461.335C74.5332 461.335 77.5998 462.935 79.8665 464.802Z" fill="#225D5C"/>
</svg>
