<svg width="683" height="683" viewBox="0 0 683 683" fill="none" xmlns="http://www.w3.org/2000/svg">
<path d="M208.933 47.0648C207.6 47.9981 199.333 67.5981 190.533 90.6648C178.267 123.064 174.8 133.331 175.733 135.331C176.667 137.331 187.467 141.998 218.133 153.731C240.8 162.264 260.933 169.331 263.067 169.331C265.6 169.331 267.2 168.398 268.133 166.131C269.333 163.464 268.8 161.064 264.133 150.664C256.4 133.331 256.533 132.798 268.4 127.331C336.533 96.1314 422.133 101.198 489.467 140.664C495.067 143.998 500.267 146.664 501.067 146.664C503.333 146.664 508 141.731 508 139.331C508 134.264 481.333 110.531 459.733 96.3981C435.333 80.3981 405.6 68.2648 374.8 61.7314C359.467 58.3981 355.333 58.1314 328 57.9981C293.467 57.9981 279.733 59.9981 250.933 69.5981C239.067 73.5981 233.867 74.6648 231.867 73.8648C230.267 73.0648 227.067 67.8648 223.867 60.6648C217.333 45.8648 214.267 43.0648 208.933 47.0648Z" fill="#225D5C"/>
<path d="M317.866 204.533C296.666 208.533 281.6 214.667 264.133 226.267C235.866 245.067 214.933 275.067 206.4 308.8C202.133 325.867 202.133 356.8 206.4 373.867C219.2 424.667 258.266 463.467 309.333 476.4C325.6 480.533 357.066 480.533 373.333 476.4C424.533 463.467 463.466 424.533 476.4 373.333C480.533 357.067 480.533 325.6 476.4 309.333C463.6 258.4 424.4 219.067 374 206.533C360.133 203.067 331.066 202 317.866 204.533ZM365.333 242.267C392.666 248.667 419.6 269.867 432 294.667C460.4 351.467 432.4 418.8 372 438.533C347.866 446.533 318.533 444 294.666 432C284.933 427.2 270 415.2 262.666 406.267C254.533 396.4 245.066 377.467 242 364.667C240.533 359.067 239.733 350 239.733 341.333C239.733 323.867 242.4 312.667 250 296.667C270.8 253.6 318.266 231.2 365.333 242.267Z" fill="#225D5C"/>
<path d="M333.6 280.399C330.8 283.466 330.667 284.532 330.667 314.532V345.466L334 348.666L337.2 351.999H368.4C399.2 351.999 399.6 351.999 402.4 348.932C406.4 344.666 406.266 337.332 402.266 333.599C399.333 330.799 398 330.666 375.6 330.666H352V306.932C352 283.732 351.867 283.066 348.933 280.266C344.667 276.266 337.333 276.399 333.6 280.399Z" fill="#225D5C"/>
<path d="M102.267 221.333C51.3332 230.533 12.7999 267.866 2.53322 318C-4.53344 352 5.33322 391.866 27.1999 417.866L31.4666 423.066L35.9999 415.2C48.3999 393.066 76.2666 376.133 100.8 375.866C107.733 375.866 108.267 375.6 105.333 374.266C103.467 373.466 99.4666 371.6 96.2666 370.266C86.5332 365.866 76.6666 355.6 71.0666 344.266C66.2666 334.533 65.9999 333.6 65.9999 320.8C66.1332 310 66.6666 305.866 69.1999 299.6C74.9332 285.2 86.6666 273.6 101.867 267.6C111.467 263.733 131.2 263.733 140.8 267.6C156 273.6 167.733 285.2 173.467 299.6C176 305.866 176.533 310 176.667 320.8C176.667 333.6 176.4 334.533 171.6 344.266C166 355.6 156.133 365.866 146.4 370.266C143.2 371.6 139.2 373.466 137.333 374.266C134.4 375.6 134.933 375.866 141.867 375.866C155.467 376.133 172.533 381.866 183.6 390.133C185.867 391.866 188.133 393.333 188.4 393.333C188.667 393.333 187.467 388.133 185.733 381.6C175.333 342.533 180.933 298.666 200.933 262.933C205.467 254.666 205.467 254.4 203.067 251.733C199.067 247.2 185.2 237.866 175.2 232.8C159.2 224.8 144.4 221.2 125.333 220.666C116.133 220.4 105.733 220.666 102.267 221.333Z" fill="#225D5C"/>
<path d="M539.466 222.131C527.2 224.531 518.533 227.464 507.333 233.064C497.333 237.997 483.6 247.197 479.6 251.731C477.2 254.397 477.2 254.664 481.733 262.931C501.733 299.064 507.333 342.664 496.933 381.597C495.2 388.131 494 393.331 494.266 393.331C494.533 393.331 496.8 391.864 499.066 390.131C510.133 381.864 527.2 376.131 540.8 375.864C547.733 375.864 548.266 375.597 545.333 374.264C543.466 373.464 539.466 371.597 536.266 370.264C526.533 365.864 516.666 355.597 511.066 344.264C506.266 334.531 506 333.597 506 320.797C506.133 309.997 506.666 305.864 509.2 299.597C514.933 285.197 526.666 273.597 541.866 267.597C551.6 263.597 571.2 263.731 581.333 267.731C612 279.864 625.866 315.464 611.466 344.664C606 355.597 596 365.864 586.4 370.264C583.2 371.597 579.2 373.464 577.333 374.264C574.4 375.597 574.933 375.864 581.866 375.864C606.266 376.131 634.266 393.064 646.666 415.064C648.933 419.197 651.466 422.397 652.133 421.997C654.933 420.131 665.733 403.597 670.666 393.197C679.333 374.797 681.733 363.864 681.733 341.331C681.733 325.597 681.2 319.997 678.8 311.331C668.533 273.464 641.733 242.931 606 228.664C585.733 220.664 559.733 217.997 539.466 222.131Z" fill="#225D5C"/>
<path d="M107.333 289.198C89.6001 297.198 82.1335 319.331 91.6001 336.131C105.2 360.398 137.467 360.398 151.067 336.131C160.533 319.331 153.067 297.198 135.333 289.198C131.867 287.598 126.933 286.664 121.333 286.664C115.733 286.664 110.8 287.598 107.333 289.198Z" fill="#225D5C"/>
<path d="M547.333 289.201C529.733 297.201 522.267 319.068 531.467 336.001C544.533 360.401 577.467 360.535 591.067 336.135C600.533 319.335 593.067 297.201 575.333 289.201C571.867 287.601 566.933 286.668 561.333 286.668C555.733 286.668 550.8 287.601 547.333 289.201Z" fill="#225D5C"/>
<path d="M91.3334 399.202C74.6667 403.202 60.2667 414.935 53.2001 430.002C48.2667 440.535 47.3334 439.335 67.3334 449.335C86.9334 459.202 97.8667 461.735 120.667 461.868C148.8 461.868 168 456.135 191.867 440.135C193.467 439.068 193.067 437.468 189.467 430.135C181.6 414.135 166.8 402.535 149.6 398.802C140.267 396.802 99.8667 397.068 91.3334 399.202Z" fill="#225D5C"/>
<path d="M531.333 399.202C514.667 403.202 500.267 414.935 493.2 430.002C488.267 440.535 487.333 439.335 507.333 449.335C526.933 459.202 537.867 461.735 560.667 461.868C588.8 461.868 608.133 456.002 631.867 440.135C633.333 439.202 632.933 437.335 629.6 430.002C622.267 414.402 606.933 402.535 589.6 398.802C580.267 396.802 539.867 397.068 531.333 399.202Z" fill="#225D5C"/>
<path d="M414.533 516.532C413.333 519.199 413.866 521.599 418.533 531.999C426.266 549.332 426.133 549.865 414.4 555.332C393.333 564.932 367.466 571.732 341.066 574.532C291.466 579.999 238 568.265 193.2 541.865C187.6 538.665 182.4 535.999 181.6 535.999C179.333 535.999 174.667 540.932 174.667 543.332C174.667 548.265 201.067 571.999 222 585.732C238 596.265 262.666 607.999 280.666 613.732C303.6 621.065 321.733 624.132 346.8 624.932C379.6 625.999 401.866 622.932 431.733 613.065C443.6 609.065 448.8 607.999 450.8 608.799C452.4 609.599 455.6 614.799 458.8 621.999C463.866 633.465 466.666 637.332 470 637.332C474.133 637.332 477.2 630.799 492.133 591.999C504.4 559.732 507.866 549.332 506.933 547.332C506 545.332 494.933 540.532 464.533 528.932C441.866 520.399 421.733 513.332 419.6 513.332C417.066 513.332 415.466 514.265 414.533 516.532Z" fill="#225D5C"/>
</svg>
