<svg width="512" height="512" viewBox="0 0 512 512" fill="none" xmlns="http://www.w3.org/2000/svg">
<path d="M110.157 101.88C111.425 101.878 111.425 101.878 112.719 101.876C113.644 101.879 114.568 101.883 115.52 101.886C116.984 101.886 116.984 101.886 118.477 101.886C121.707 101.887 124.938 101.894 128.168 101.902C130.406 101.904 132.643 101.906 134.881 101.907C140.775 101.91 146.668 101.92 152.562 101.931C158.575 101.942 164.587 101.946 170.6 101.951C182.4 101.962 194.2 101.979 206 102C206.389 103.085 206.778 104.169 207.178 105.287C207.706 106.732 208.234 108.176 208.762 109.621C209.016 110.333 209.27 111.046 209.532 111.78C214.503 125.291 223.798 133.982 236.672 140.004C249.115 145.328 262.439 144.862 275.062 140.375C288.537 134.504 297.439 124.408 303 111C303.533 109.446 304.056 107.888 304.571 106.328C304.973 105.112 304.973 105.112 305.384 103.872C305.689 102.945 305.689 102.945 306 102C318.935 101.93 331.869 101.877 344.804 101.845C350.81 101.829 356.817 101.808 362.823 101.774C368.619 101.741 374.416 101.723 380.212 101.715C382.424 101.71 384.635 101.699 386.846 101.683C389.944 101.661 393.041 101.658 396.139 101.659C397.053 101.649 397.966 101.638 398.907 101.627C404.032 101.652 407.571 102.133 412 105C417.489 110.613 419.248 115.62 419.254 123.385C419.26 124.657 419.266 125.928 419.272 127.238C419.268 128.642 419.265 130.045 419.261 131.449C419.264 132.945 419.268 134.442 419.272 135.939C419.282 140.049 419.28 144.158 419.276 148.268C419.274 152.702 419.283 157.135 419.29 161.569C419.303 170.254 419.305 178.939 419.302 187.623C419.3 194.682 419.302 201.741 419.306 208.8C419.307 209.804 419.308 210.808 419.308 211.843C419.309 213.883 419.311 215.924 419.312 217.964C419.323 237.102 419.321 256.239 419.315 275.377C419.309 292.885 419.321 310.394 419.34 327.903C419.359 345.879 419.367 363.856 419.363 381.832C419.362 391.925 419.364 402.018 419.378 412.111C419.39 420.704 419.392 429.296 419.379 437.889C419.374 442.272 419.372 446.656 419.384 451.04C419.395 455.054 419.392 459.068 419.378 463.083C419.376 464.534 419.378 465.985 419.386 467.435C419.47 483.926 419.47 483.927 414.246 490.059C413.649 490.514 413.052 490.969 412.437 491.438C411.838 491.911 411.239 492.384 410.621 492.871C407.605 494.971 405.696 495.127 402.054 495.134C400.476 495.141 400.476 495.141 398.865 495.148C397.118 495.147 397.118 495.147 395.335 495.147C394.104 495.151 392.873 495.154 391.605 495.158C388.178 495.167 384.751 495.172 381.324 495.175C377.632 495.179 373.94 495.188 370.248 495.197C361.326 495.217 352.404 495.227 343.482 495.236C339.283 495.24 335.084 495.245 330.885 495.251C316.929 495.268 302.974 495.282 289.019 495.289C285.396 495.291 281.773 495.293 278.15 495.295C277.25 495.296 276.349 495.296 275.422 495.297C260.831 495.305 246.24 495.33 231.649 495.363C216.677 495.396 201.704 495.414 186.731 495.417C178.321 495.419 169.912 495.428 161.502 495.453C154.341 495.475 147.18 495.483 140.019 495.474C136.364 495.469 132.71 495.471 129.056 495.49C125.095 495.511 121.134 495.501 117.173 495.488C115.439 495.504 115.439 495.504 113.669 495.521C107.44 495.471 103.748 495.155 98.9997 491C98.2572 490.402 97.5147 489.804 96.7497 489.188C93.1254 484.657 92.7497 479.121 92.7452 473.492C92.7394 472.218 92.7336 470.945 92.7276 469.633C92.7312 468.232 92.735 466.832 92.739 465.431C92.736 463.934 92.7321 462.436 92.7274 460.938C92.7171 456.831 92.7193 452.723 92.7236 448.616C92.7261 444.183 92.717 439.75 92.7096 435.317C92.6968 426.636 92.695 417.954 92.6974 409.273C92.6991 402.217 92.6974 395.161 92.6931 388.105C92.6925 387.101 92.6919 386.097 92.6913 385.062C92.6901 383.022 92.6889 380.982 92.6877 378.942C92.6768 359.811 92.679 340.681 92.6851 321.55C92.6902 304.047 92.679 286.545 92.66 269.043C92.6406 251.071 92.6323 233.099 92.6361 215.127C92.638 205.037 92.6355 194.948 92.6214 184.858C92.6095 176.269 92.608 167.681 92.6202 159.092C92.6261 154.71 92.6271 150.328 92.6152 145.947C92.6043 141.934 92.6074 137.922 92.6214 133.909C92.6241 132.459 92.6217 131.009 92.6137 129.559C92.5295 113.156 92.5295 113.156 97.7184 106.941C98.3063 106.486 98.8941 106.031 99.4997 105.562C100.382 104.853 100.382 104.853 101.281 104.129C104.215 102.202 106.747 101.875 110.157 101.88ZM233 167C232.072 167.401 231.144 167.802 230.187 168.215C214.634 175.837 204.775 188.864 198.933 204.895C197.704 208.984 197.216 212.742 197 217C196.278 217.227 195.556 217.454 194.812 217.687C191.405 219.278 189.519 221.222 187 224C186.299 224.763 185.597 225.526 184.875 226.312C179.753 233.654 178.773 241.22 180 250C182.558 257.813 186.808 264.718 194 269C196.648 269.699 196.648 269.699 199 270C199.206 271.237 199.412 272.475 199.625 273.75C200.98 279.999 203.99 285.406 207 291C205.675 291.329 205.675 291.329 204.324 291.664C187.704 296.056 174.603 304.364 165 319C162.638 323.214 160.529 327.414 159 332C157.463 332.056 157.463 332.056 155.894 332.113C154.534 332.179 153.173 332.245 151.812 332.312C151.139 332.335 150.465 332.358 149.771 332.381C145.391 332.616 142.489 333.315 139 336C136.655 338.885 136.655 338.885 137.125 342.5C137.695 345.912 137.695 345.912 139.486 347.694C143.297 349.673 146.868 349.42 151.103 349.394C152.034 349.4 152.965 349.407 153.924 349.413C157.051 349.43 160.177 349.425 163.304 349.42C165.543 349.427 167.782 349.436 170.021 349.446C176.107 349.468 182.194 349.471 188.281 349.469C193.358 349.469 198.435 349.477 203.512 349.486C216.173 349.506 228.834 349.507 241.495 349.5C252.491 349.494 263.486 349.515 274.482 349.548C285.772 349.582 297.062 349.597 308.353 349.592C314.691 349.59 321.03 349.596 327.369 349.62C333.329 349.643 339.288 349.641 345.248 349.62C347.437 349.617 349.627 349.622 351.816 349.636C354.801 349.654 357.785 349.642 360.77 349.621C361.64 349.634 362.509 349.646 363.406 349.659C367.743 349.595 369.501 349.375 373.077 346.688C375.351 344.059 375.351 344.059 375 340.375C373.867 336.518 373.867 336.518 371 334C367.439 332.813 364.027 332.649 360.312 332.437C359.611 332.394 358.909 332.351 358.185 332.307C356.457 332.201 354.729 332.1 353 332C352.781 331.466 352.562 330.933 352.336 330.383C345.213 313.646 334.796 301.945 317.875 294.625C313.251 292.891 308.916 292.317 304 292C304.566 290.915 305.132 289.829 305.715 288.711C306.456 287.266 307.197 285.82 307.937 284.375C308.311 283.662 308.684 282.949 309.068 282.215C311.148 278.131 312.54 274.63 313 270C313.744 269.893 314.487 269.786 315.254 269.676C320.956 268.273 324.596 264.034 327.848 259.324C332.466 251.08 333.706 243.324 331.226 234.133C328.375 226.446 324.116 221.119 317 217C316.34 217 315.68 217 315 217C314.917 215.742 314.835 214.484 314.75 213.187C313.02 198.07 304.119 184.584 292.586 174.992C275.308 162.322 253.002 158.33 233 167ZM115.594 386.684C111.481 392.662 110.354 399.418 111.562 406.5C113.338 413.446 118.066 419.092 124 423C128.871 425.483 133.365 426.57 138.766 427.375C141.345 428.096 142.353 428.917 144 431C145.031 434.015 145.11 435.604 144.25 438.688C143 441 143 441 140 443C136.625 443.438 136.625 443.438 133 443C130.25 440.625 130.25 440.625 128 438C124.482 435.655 123.142 435.42 119 436C115.788 438.374 114.284 439.934 113.25 443.812C114.542 449.305 118.378 453.136 122.918 456.363C129.313 460.113 134.743 460.541 142 460C148.712 458.066 154.318 453.784 158.359 448.082C161.942 441.578 162.775 435.138 161 427.938C158.716 421.293 154.53 416.136 148.375 412.688C143.725 410.601 138.745 409.74 133.758 408.809C131 408 131 408 129 405C128.339 398.058 128.339 398.058 130.562 394.5C133.991 392.39 136.042 392.375 140 393C142.5 395.312 142.5 395.312 145 398C147.396 399.57 149.165 400.19 152 401C155.028 399.721 156.69 398.31 159 396C159.762 392.268 159.586 389.946 157.562 386.68C152.337 380.295 146.862 376.952 138.715 375.629C128.836 375.054 121.812 379.356 115.594 386.684ZM172 380C170.753 382.897 170.753 382.897 171 386C172.77 388.747 174.063 390.531 177 392C178.874 392.07 180.75 392.084 182.625 392.062C183.628 392.053 184.631 392.044 185.664 392.035C186.82 392.018 186.82 392.018 188 392C187.993 393.152 187.993 393.152 187.986 394.327C187.946 401.566 187.916 408.805 187.896 416.044C187.886 419.766 187.872 423.487 187.849 427.209C187.827 430.801 187.815 434.393 187.81 437.985C187.806 439.355 187.799 440.725 187.788 442.095C187.774 444.015 187.773 445.935 187.773 447.854C187.766 449.493 187.766 449.493 187.759 451.165C188.003 454.034 188.401 455.628 190 458C193.518 460.345 194.858 460.58 199 460C202.129 457.493 203.801 455.992 204.601 452.007C204.585 450.345 204.585 450.345 204.568 448.649C204.567 447.388 204.567 446.127 204.566 444.828C204.541 443.462 204.515 442.096 204.488 440.73C204.479 439.325 204.472 437.92 204.467 436.514C204.448 432.827 204.399 429.14 204.343 425.452C204.292 421.685 204.269 417.918 204.244 414.15C204.191 406.766 204.105 399.383 204 392C204.828 392.025 205.657 392.049 206.511 392.075C208.137 392.103 208.137 392.103 209.797 392.133C210.873 392.157 211.949 392.182 213.058 392.208C216.234 392.224 216.234 392.224 219.25 389.875C221.336 386.448 221.819 384.933 221 381C219.008 378.345 217.407 376.338 214.076 375.537C211.755 375.355 209.484 375.333 207.156 375.371C206.309 375.369 205.463 375.366 204.59 375.364C202.805 375.365 201.02 375.378 199.235 375.403C196.508 375.437 193.785 375.424 191.058 375.404C189.32 375.411 187.582 375.421 185.844 375.434C185.032 375.429 184.22 375.424 183.384 375.419C178.367 375.522 175.593 376.167 172 380ZM237 384C232.668 389.693 230.768 394.877 230.693 402.018C230.678 403.182 230.662 404.347 230.645 405.547C230.64 406.791 230.634 408.035 230.629 409.316C230.62 410.606 230.611 411.895 230.601 413.223C230.585 415.944 230.577 418.665 230.574 421.385C230.569 424.865 230.531 428.343 230.486 431.822C230.449 435.154 230.447 438.485 230.441 441.816C230.422 443.062 230.402 444.308 230.382 445.592C230.17 452.493 230.17 452.493 233.347 458.285C236.642 460.415 238.152 460.802 242 460C244.921 457.926 246.764 456.344 247.401 452.715C247.492 450.023 247.436 447.378 247.312 444.688C247.29 443.756 247.267 442.825 247.244 441.865C247.185 439.576 247.096 437.288 247 435C252.94 435 258.88 435 265 435C264.913 437.079 264.913 437.079 264.824 439.199C264.777 441.029 264.732 442.858 264.687 444.688C264.625 446.056 264.625 446.055 264.56 447.451C264.476 452.113 264.456 454.276 267.332 458.105C269.882 460.184 269.882 460.184 273 460.625C276.076 459.984 277.789 459.19 279.95 456.897C282.412 452.448 281.682 446.861 281.629 441.922C281.631 440.641 281.634 439.36 281.636 438.04C281.639 435.329 281.624 432.62 281.597 429.91C281.563 426.459 281.569 423.009 281.587 419.558C281.601 416.242 281.582 412.926 281.566 409.609C281.571 408.381 281.576 407.152 281.581 405.887C281.454 396.54 279.683 388.88 273 382C261.453 373.214 247.521 373.78 237 384ZM300 380C298.54 382.919 298.856 385.497 298.839 388.757C298.834 389.452 298.829 390.146 298.824 390.862C298.809 393.164 298.802 395.467 298.797 397.77C298.791 399.369 298.785 400.968 298.779 402.568C298.769 405.924 298.763 409.281 298.76 412.638C298.754 416.935 298.73 421.233 298.702 425.53C298.683 428.835 298.678 432.141 298.676 435.446C298.673 437.03 298.665 438.614 298.652 440.198C298.635 442.417 298.637 444.636 298.643 446.855C298.64 448.117 298.636 449.379 298.632 450.679C299.029 454.263 299.837 456.145 302 459C304.889 460.444 306.796 460.377 310 460C313.295 457.412 314.833 455.951 315.568 451.77C315.528 449.987 315.528 449.987 315.488 448.168C315.472 446.876 315.456 445.583 315.439 444.252C315.398 442.897 315.355 441.542 315.312 440.188C315.287 438.813 315.264 437.439 315.244 436.064C315.185 432.708 315.103 429.355 315 426C315.828 426.025 316.657 426.049 317.511 426.075C318.595 426.094 319.679 426.113 320.797 426.133C322.411 426.17 322.411 426.17 324.058 426.208C327.234 426.224 327.234 426.224 330.25 423.875C332.305 420.499 332.661 418.881 332 415C330.22 411.864 329.477 411.159 326 410C324.105 409.931 322.208 409.915 320.312 409.938C318.559 409.958 316.806 409.979 315 410C315 404.06 315 398.12 315 392C316.386 392.046 317.771 392.093 319.199 392.141C321.029 392.178 322.858 392.215 324.687 392.25C325.599 392.284 326.511 392.317 327.451 392.352C331.777 392.414 334.293 392.421 338.078 390.168C340.566 387.361 341.076 385.747 341 382C339.229 379.253 337.937 377.469 335 376C330.772 375.742 326.541 375.729 322.306 375.705C320.205 375.688 318.106 375.644 316.006 375.6C314.664 375.589 313.322 375.581 311.98 375.574C310.762 375.56 309.545 375.545 308.29 375.53C304.392 376.087 302.773 377.263 300 380ZM359 381C358.247 384.444 358.247 384.444 358.353 388.281C358.344 388.996 358.335 389.71 358.326 390.446C358.304 392.798 358.319 395.148 358.336 397.5C358.332 399.14 358.328 400.78 358.321 402.42C358.314 405.853 358.325 409.286 358.348 412.719C358.377 417.114 358.36 421.508 358.33 425.903C358.312 429.289 358.318 432.673 358.331 436.059C358.334 437.679 358.33 439.299 358.318 440.92C358.306 443.187 358.325 445.452 358.353 447.719C358.357 449.007 358.361 450.296 358.365 451.623C359.164 455.873 360.643 457.357 364 460C367 460.833 367 460.833 370 460C373.275 457.397 374.833 455.948 375.568 451.77C375.528 449.987 375.528 449.987 375.488 448.168C375.472 446.876 375.456 445.583 375.439 444.252C375.398 442.897 375.355 441.542 375.312 440.188C375.287 438.813 375.264 437.439 375.244 436.064C375.185 432.708 375.103 429.355 375 426C376.242 426.036 376.242 426.036 377.508 426.072C378.592 426.091 379.676 426.11 380.793 426.129C382.406 426.165 382.406 426.165 384.051 426.201C387.231 426.216 387.231 426.216 390.312 423.938C392.276 421.049 392.276 421.049 392.125 417.438C391.208 413.991 391.208 413.991 389.125 411.562C384.363 409.182 380.286 409.745 375 410C375 404.06 375 398.12 375 392C376.386 392.046 377.771 392.093 379.199 392.141C381.029 392.178 382.858 392.215 384.687 392.25C385.599 392.284 386.511 392.317 387.451 392.352C391.743 392.414 394.312 392.391 398.105 390.234C400.084 387.901 400.684 387.008 400.625 384C400.638 383.34 400.651 382.68 400.664 382C399.619 378.853 397.732 377.799 395 376C391.61 375.372 391.61 375.372 387.906 375.434C387.237 375.427 386.568 375.421 385.878 375.415C384.47 375.408 383.061 375.411 381.653 375.424C379.505 375.437 377.362 375.403 375.215 375.365C373.841 375.364 372.467 375.366 371.094 375.371C369.853 375.37 368.612 375.37 367.334 375.369C363.005 376.188 361.732 377.584 359 381Z" fill="#FFD6A8"/>
<path d="M274 222C277.261 223.06 280.439 224.18 283.613 225.48C289.004 227.512 294.512 228.1 300.197 228.816C306.246 229.659 310.948 231.137 315 236C316.755 241.266 316.772 246.087 314.688 251.25C311.808 254.196 310.425 254.577 306.625 255.812C303.697 257.001 301.622 257.909 300.021 260.718C298.553 264.317 297.499 268.029 296.387 271.75C293.534 281.12 286.977 288.533 278.582 293.402C266.958 299.469 254.292 301.256 241.625 297.438C229.677 292.827 221.683 285.102 216.121 273.754C214.915 270.79 214.21 267.852 213.438 264.75C212.249 260.882 211.568 259.387 208.188 257.082C204.988 255.534 204.988 255.534 201.777 254.379C198.433 252.718 197.489 251.387 196 248C195.273 243.835 195.557 240.108 197.125 236.188C199.587 233.315 201.609 231.743 205 230C208.237 229.937 211.276 230.604 214.438 231.25C231.167 234.114 251.986 236.292 267.461 227.621C269.546 226.17 269.546 226.17 272 224C272.66 224 273.32 224 274 224C274 223.34 274 222.68 274 222Z" fill="#FFD6A8"/>
<path d="M231.671 50.71C233.454 50.6909 233.454 50.6909 235.272 50.6714C236.562 50.6692 237.851 50.6669 239.18 50.6646C241.159 50.6546 241.159 50.6546 243.178 50.6445C245.974 50.6325 248.77 50.6288 251.566 50.63C255.146 50.6302 258.726 50.6029 262.306 50.5684C265.06 50.5462 267.814 50.5421 270.568 50.5432C272.528 50.5397 274.489 50.518 276.45 50.4961C278.242 50.5053 278.242 50.5053 280.07 50.5147C281.121 50.5119 282.172 50.509 283.255 50.5061C286.708 51.1282 287.86 52.2716 290 55.0006C291.283 58.8503 291.163 62.4961 291.168 66.5084C291.173 67.7685 291.173 67.7685 291.178 69.054C291.183 70.8344 291.186 72.6147 291.185 74.3951C291.188 77.0945 291.206 79.7934 291.225 82.4928C291.228 84.2271 291.23 85.9615 291.231 87.6959C291.238 88.4931 291.245 89.2903 291.252 90.1117C291.21 100.772 288.618 111.177 281 119.001C270.456 127.186 261.171 129.183 248 128.001C244.345 127.119 241.266 125.849 238 124.001C237.357 123.639 236.714 123.277 236.051 122.903C228.858 118.3 224.166 111.197 222 103.001C220.983 97.9854 220.824 93.1532 220.797 88.0592C220.788 86.7912 220.788 86.7912 220.78 85.4977C220.77 83.7184 220.764 81.9392 220.76 80.16C220.75 77.4431 220.719 74.727 220.688 72.0103C220.681 70.2766 220.676 68.5429 220.672 66.8092C220.66 66.0007 220.647 65.1923 220.635 64.3593C220.666 56.3842 223.051 50.7727 231.671 50.71ZM250.125 87.6256C246.688 93.0839 247.073 98.7381 248 105.001C249.84 108.515 249.84 108.515 253 110.001C256.868 110.807 258.446 110.314 261.875 108.376C265.312 102.918 264.927 97.263 264 91.0006C262.16 87.4869 262.16 87.4869 259 86.0006C255.133 85.1948 253.555 85.6872 250.125 87.6256Z" fill="#FFD6A8"/>
<path d="M236.262 310.71C242.549 313.67 248.773 314.388 255.625 314.374C256.791 314.373 256.791 314.373 257.981 314.371C266.339 314.203 274.487 312.574 281.82 308.39C286.018 306.554 289.591 306.504 294.125 306.561C295.388 306.574 295.388 306.574 296.676 306.587C309.184 306.924 319.03 311.318 328.07 319.983C332.071 324.302 333.536 327.249 336 332.999C283.2 332.999 230.4 332.999 176 332.999C182.141 320.716 189.459 313 202.438 308.124C213.48 305.228 226.079 305.426 236.262 310.71Z" fill="#FFD6A8"/>
<path d="M448 17.0002C451.167 19.0304 451.855 20.5975 453.125 24.1252C452.847 32.7373 446.491 39.1083 440.582 44.8871C405.372 77.8606 353.109 84.4441 307 86.0002C307 80.0602 307 74.1202 307 68.0002C309.561 66.7196 311.577 66.7572 314.441 66.6056C337.992 65.2269 360.526 62.3682 383 55.0002C383.725 54.7657 384.45 54.5313 385.197 54.2897C399.391 49.6124 412.604 42.7378 424 33.0002C424.61 32.5219 425.219 32.0437 425.848 31.551C430.111 28.1308 433.295 24.2615 436.52 19.8556C439.497 16.1234 443.552 16.3836 448 17.0002Z" fill="#FFD6A8"/>
<path d="M71.9995 17.0003C75.6746 19.0619 77.7196 21.9279 80.187 25.2503C99.9263 51.1872 139.828 60.2336 170.259 64.3636C179.371 65.5177 188.466 66.3668 197.646 66.7102C202.816 66.9083 202.816 66.9083 205 68.0003C205 73.9403 205 79.8803 205 86.0003C156.75 84.7598 102.911 76.9239 67.7144 40.6448C58.9453 31.1437 58.9453 31.1437 59.062 24.3753C60.9968 17.4103 65.0011 15.6653 71.9995 17.0003Z" fill="#FFD6A8"/>
<path d="M282.938 187.311C290.358 193.383 295.702 201.208 297.812 210.624C297.874 211.408 297.936 212.191 298 212.999C292.137 212.58 286.666 211.845 282 207.999C280.632 205.688 279.676 203.457 278.789 200.925C278.169 198.809 278.169 198.809 276 197.999C271.949 197.74 270.457 197.695 267 199.999C266.165 202.512 266.165 202.512 265.625 205.374C264.737 208.829 264.228 210.722 261.938 213.499C254.237 217.431 246.746 218.475 238.188 218.311C237.233 218.303 236.278 218.295 235.294 218.286C228.055 218.164 221.096 217.499 214 215.999C214.483 206.026 218.104 198.204 224.922 190.882C241.515 175.848 264.647 174.247 282.938 187.311Z" fill="#FFD6A8"/>
<path d="M259 392C261.7 393.8 263.542 395.084 265 398C265.084 399.594 265.107 401.192 265.098 402.789C265.094 403.73 265.091 404.671 265.088 405.641C265.079 406.625 265.071 407.61 265.062 408.625C265.058 409.618 265.053 410.61 265.049 411.633C265.037 414.089 265.019 416.544 265 419C259.06 419 253.12 419 247 419C246.892 415.603 246.813 412.21 246.75 408.813C246.716 407.853 246.683 406.893 246.648 405.904C246.549 398.742 246.549 398.742 248.891 394.887C252.29 391.846 254.466 391.555 259 392Z" fill="#FFD6A8"/>
</svg>
