<svg width="512" height="512" viewBox="0 0 512 512" fill="none" xmlns="http://www.w3.org/2000/svg">
<path d="M461 277C461.99 277.33 462.98 277.66 464 278C464.117 296.819 464.205 315.638 464.259 334.458C464.285 343.196 464.32 351.934 464.378 360.672C464.427 368.288 464.46 375.904 464.471 383.52C464.477 387.553 464.493 391.585 464.529 395.618C464.563 399.414 464.573 403.21 464.566 407.006C464.567 408.399 464.577 409.792 464.596 411.185C464.752 423.031 464.752 423.031 461.62 426.265C459.068 427.955 456.578 429.598 453.887 431.059C452.899 431.602 451.911 432.145 450.893 432.705C449.835 433.277 448.778 433.848 447.688 434.438C445.419 435.686 443.15 436.936 440.883 438.188C439.732 438.822 438.582 439.456 437.396 440.109C432.242 442.979 427.15 445.951 422.063 448.938C420.072 450.104 418.081 451.271 416.09 452.438C415.094 453.021 414.097 453.605 413.07 454.207C407.767 457.304 402.446 460.371 397.125 463.438C396.052 464.056 394.978 464.675 393.872 465.313C389.447 467.863 385.022 470.412 380.597 472.96C378.325 474.268 376.055 475.576 373.784 476.885C371.578 478.156 369.371 479.426 367.164 480.696C362.344 483.473 357.535 486.265 352.766 489.129C351.983 489.598 351.2 490.067 350.393 490.55C348.978 491.4 347.567 492.256 346.16 493.12C342.76 495.163 339.957 496.598 336 497C333.711 496.228 333.711 496.228 331.375 494.961C330.503 494.493 329.63 494.024 328.731 493.542C327.83 493.033 326.929 492.524 326 492C325.13 491.509 324.26 491.018 323.364 490.513C320.563 488.905 317.78 487.269 315 485.625C312.873 484.376 310.746 483.127 308.618 481.879C307.527 481.238 306.436 480.598 305.312 479.938C299.93 476.789 294.528 473.675 289.125 470.562C288.046 469.941 286.968 469.319 285.856 468.678C283.665 467.416 281.474 466.153 279.283 464.891C272.78 461.144 266.279 457.393 259.779 453.641C254.204 450.423 248.626 447.209 243.043 444.004C211.417 425.832 211.417 425.832 210 423C209.907 421.315 209.878 419.626 209.88 417.938C209.879 416.867 209.877 415.795 209.876 414.692C209.88 413.511 209.883 412.331 209.887 411.115C209.887 409.876 209.887 408.637 209.886 407.36C209.887 403.958 209.892 400.555 209.899 397.152C209.905 393.598 209.906 390.044 209.907 386.49C209.91 379.757 209.918 373.025 209.928 366.292C209.94 358.629 209.945 350.965 209.95 343.301C209.961 327.534 209.978 311.767 210 296C211.93 296.96 213.859 297.921 215.787 298.882C216.862 299.417 217.936 299.952 219.043 300.503C222.118 302.06 225.109 303.709 228.071 305.473C229.07 306.062 230.069 306.652 231.098 307.26C232.597 308.152 232.597 308.152 234.125 309.062C241.296 313.327 248.477 317.388 256 321C255.857 322.708 255.857 322.708 255.711 324.45C253.371 345.148 253.371 345.148 259.242 364.172C264.684 368.791 270.91 371.52 277.678 373.668C282.441 375.577 286.661 378.282 291 381C290.957 380.317 290.914 379.634 290.87 378.93C287.911 329.107 287.911 329.107 294.227 320.087C299.824 314.83 306.43 312.747 313.771 310.925C318.681 309.519 322.629 306.957 326.875 304.188C333.471 300.176 333.471 300.176 337 299C339.68 300.074 339.68 300.074 342.875 301.688C367.369 313.391 394.141 313.971 419.625 305.312C435.945 299.426 449.088 289.527 461 277Z" fill="#FFD6A8"/>
<path d="M263 15.9998C265.676 17.2753 268.241 18.7142 270.813 20.1873C271.574 20.6178 272.335 21.0484 273.119 21.492C274.807 22.4508 276.494 23.4138 278.178 24.3802C280.178 25.528 282.181 26.6711 284.186 27.8108C287.505 29.6981 290.816 31.5971 294.125 33.4998C295.199 34.111 296.272 34.7223 297.379 35.3521C298.37 35.9268 299.362 36.5014 300.383 37.0935C301.274 37.6059 302.165 38.1183 303.083 38.6463C303.716 39.0929 304.348 39.5396 305 39.9998C305 40.6598 305 41.3198 305 41.9998C304.429 42.3203 303.858 42.6408 303.27 42.971C291.233 49.7331 279.25 56.5762 267.338 63.555C259.589 68.0889 251.802 72.5552 244 76.9998C234.298 82.5286 224.629 88.1105 214.991 93.7503C203.358 100.554 191.677 107.273 180 114C180 132.81 180 151.62 180 171C188.99 176.131 188.99 176.131 197.98 181.261C199.104 181.903 200.229 182.545 201.387 183.207C201.966 183.537 202.545 183.867 203.142 184.207C206.452 186.099 209.734 188.033 213 190C212.936 188.994 212.936 188.994 212.87 187.968C209.921 139.231 209.921 139.231 216.115 130.199C221.622 124.963 228.32 122.995 235.54 121.069C241.213 119.316 245.938 116.199 250.938 113.062C252.925 111.889 254.916 110.722 256.911 109.562C257.907 108.978 258.904 108.394 259.931 107.793C265.234 104.695 270.554 101.629 275.875 98.5623C276.954 97.9405 278.033 97.3187 279.144 96.678C283.526 94.1527 287.909 91.6285 292.291 89.1043C294.482 87.8426 296.672 86.5805 298.861 85.3179C301.022 84.0731 303.184 82.8304 305.347 81.5899C310.856 78.4237 316.328 75.2099 321.758 71.9099C322.849 71.2539 323.939 70.5978 325.062 69.9219C327.138 68.6707 329.205 67.4062 331.263 66.1265C332.656 65.2903 332.656 65.2903 334.079 64.4373C334.887 63.941 335.696 63.4447 336.529 62.9334C339.81 61.694 341.638 62.0701 345 62.9998C347.83 64.3474 347.83 64.3474 350.746 66.0623C351.825 66.6887 352.903 67.3151 354.015 67.9605C356.326 69.3372 358.634 70.7176 360.939 72.1035C368.282 76.5322 368.282 76.5322 376.043 80.1521C380.186 81.899 383.139 83.378 386 86.9998C387.73 94.8767 386.918 103.056 386 111C384.803 111.098 383.605 111.196 382.371 111.297C352.456 113.951 327.997 124.726 307.938 147.562C289.828 170.021 284.28 195.594 286 224C287.946 242.04 295.754 262.803 308.797 275.789C310 277 310 277 310 279C309.358 279.356 308.716 279.712 308.055 280.079C304.993 281.778 301.934 283.482 298.875 285.187C297.754 285.811 296.632 286.435 295.476 287.078C289.815 290.243 284.195 293.454 278.653 296.824C277.667 297.421 276.682 298.018 275.667 298.634C273.799 299.773 271.938 300.924 270.084 302.086C269.238 302.602 268.392 303.117 267.52 303.648C266.789 304.104 266.058 304.559 265.304 305.029C262.317 306.288 260.22 306.325 257 306C254.405 304.937 254.405 304.937 251.789 303.429C250.805 302.87 249.82 302.311 248.805 301.734C247.756 301.121 246.707 300.507 245.625 299.875C244.521 299.242 243.417 298.61 242.279 297.959C238.845 295.986 235.422 293.995 232 292C229.978 290.826 227.956 289.653 225.934 288.48C221.981 286.182 218.034 283.875 214.09 281.562C207.785 277.868 201.457 274.211 195.125 270.562C194.048 269.941 192.971 269.32 191.861 268.68C186.36 265.509 180.856 262.342 175.352 259.176C168.896 255.46 162.445 251.735 156 248C154.925 247.377 153.849 246.754 152.74 246.112C149.636 244.31 146.536 242.5 143.438 240.687C142.497 240.142 141.557 239.596 140.587 239.034C139.732 238.532 138.877 238.029 137.996 237.512C137.246 237.073 136.495 236.634 135.721 236.182C134 235 134 235 133 233C132.896 231.096 132.857 229.188 132.846 227.281C132.838 226.064 132.829 224.847 132.82 223.593C132.816 222.238 132.812 220.882 132.808 219.526C132.8 218.103 132.791 216.681 132.783 215.259C132.757 210.581 132.741 205.904 132.727 201.226C132.722 199.617 132.716 198.008 132.711 196.399C132.689 189.708 132.67 183.017 132.659 176.326C132.643 166.729 132.61 157.133 132.553 147.537C132.514 140.793 132.495 134.049 132.489 127.305C132.486 123.275 132.474 119.245 132.441 115.215C132.411 111.424 132.405 107.635 132.417 103.844C132.417 102.452 132.408 101.061 132.391 99.6691C132.368 97.7703 132.379 95.8711 132.392 93.9721C132.389 92.9091 132.386 91.8461 132.382 90.7509C133.219 87.0289 134.876 86.0558 138 83.9998C139.877 82.8399 141.779 81.7207 143.7 80.6365C144.813 80.0048 145.926 79.3731 147.073 78.7222C147.956 78.2255 147.956 78.2255 148.856 77.7188C151.367 76.3048 153.873 74.8813 156.38 73.4584C157.677 72.7225 158.974 71.9871 160.271 71.2522C166.575 67.6802 172.852 64.0635 179.125 60.4373C180.72 59.5163 180.72 59.5163 182.347 58.5767C184.492 57.3376 186.637 56.0982 188.783 54.8587C194.187 51.7365 199.594 48.6184 205 45.4998C212.789 41.0066 220.578 36.5126 228.365 32.0154C230.591 30.7309 232.819 29.4483 235.048 28.1678C239.578 25.5643 244.1 22.9563 248.567 20.2459C249.216 19.8571 249.866 19.4684 250.535 19.0679C252.151 18.0973 253.758 17.1118 255.364 16.1248C258.614 14.738 259.691 14.8067 263 15.9998Z" fill="#FFD6A8"/>
<path d="M118 136C118 153.49 118 170.98 118 189C104.187 196.875 104.187 196.875 99.8402 199.351C98.7107 199.996 97.5812 200.64 96.4175 201.305C95.8283 201.64 95.2391 201.975 94.632 202.321C92.0263 203.809 89.4983 205.334 86.9996 207C86.5607 209.462 86.5607 209.462 86.659 212.368C86.6592 213.489 86.6595 214.61 86.6597 215.765C86.6752 216.979 86.6907 218.194 86.7066 219.445C86.713 221.306 86.713 221.306 86.7195 223.203C86.7334 226.501 86.7604 229.799 86.7936 233.097C86.8243 236.462 86.838 239.826 86.8531 243.191C86.8862 249.794 86.9365 256.397 86.9996 263C90.537 265.046 94.0751 267.09 97.6136 269.134C98.8133 269.827 100.013 270.52 101.212 271.214C102.952 272.22 104.693 273.225 106.433 274.23C107.996 275.134 107.996 275.134 109.591 276.055C113.708 278.404 117.856 280.698 122 283C122 270.46 122 257.92 122 245C126.368 246.747 130.184 248.779 134.187 251.188C141.61 255.604 149.075 259.942 156.562 264.25C165.572 269.441 174.575 274.644 183.562 279.875C184.597 280.476 185.632 281.077 186.699 281.696C187.645 282.248 188.591 282.799 189.566 283.367C190.818 284.096 190.818 284.096 192.096 284.839C194 286 194 286 195 287C195.185 289.959 195.306 292.896 195.383 295.859C195.41 296.789 195.438 297.719 195.466 298.678C195.706 307.286 195.849 315.895 195.963 324.506C196.04 330.292 196.15 336.074 196.337 341.858C196.517 347.448 196.613 353.035 196.651 358.629C196.68 360.756 196.739 362.883 196.828 365.009C197.476 381.235 197.476 381.235 193.332 385.861C189.251 389.086 184.787 391.22 179.987 393.161C177.418 394.245 175.136 395.655 172.812 397.188C170.305 398.766 169.223 399.01 166.214 398.871C162.3 397.81 159.16 395.996 155.75 393.875C154.234 392.958 152.717 392.043 151.199 391.129C149.956 390.377 149.956 390.377 148.689 389.61C143.684 386.613 138.619 383.719 133.562 380.812C131.313 379.517 129.065 378.221 126.816 376.926C125.687 376.276 124.558 375.625 123.395 374.956C117.928 371.807 112.464 368.653 107 365.5C104.833 364.25 102.666 363 100.5 361.75C96.1662 359.25 91.8329 356.75 87.4996 354.25C86.4251 353.63 85.3506 353.01 84.2435 352.372C82.0968 351.133 79.9504 349.894 77.8045 348.654C72.7047 345.707 67.6009 342.769 62.4831 339.854C60.0519 338.469 57.6229 337.08 55.1942 335.69C53.4681 334.705 51.7387 333.726 50.0093 332.746C48.9736 332.153 47.9378 331.56 46.8707 330.949C45.9521 330.427 45.0336 329.904 44.0872 329.366C41.9996 328 41.9996 328 40.9996 326C40.8867 324.088 40.8381 322.172 40.8188 320.257C40.8044 319.035 40.79 317.812 40.7752 316.552C40.7644 315.19 40.7537 313.828 40.7432 312.466C40.7288 311.037 40.714 309.608 40.699 308.179C40.5687 295.133 40.5028 282.085 40.4511 269.038C40.4122 259.393 40.3438 249.749 40.2366 240.104C40.1637 233.323 40.1253 226.543 40.1121 219.762C40.1032 215.711 40.079 211.662 40.0174 207.612C39.9602 203.8 39.9455 199.989 39.9633 196.177C39.9624 194.779 39.9462 193.382 39.9133 191.985C39.6775 181.433 39.6775 181.433 42.9676 177.867C45.2564 176.317 47.481 175.128 49.9996 174C51.4825 173.099 51.4825 173.099 52.9954 172.18C53.8721 171.678 54.7487 171.177 55.6519 170.66C57.1683 169.789 57.1683 169.789 58.7154 168.901C59.7786 168.294 60.8417 167.687 61.9371 167.062C63.6543 166.077 65.3715 165.092 67.0885 164.107C68.8661 163.087 70.6445 162.069 72.4229 161.051C77.0893 158.377 81.7456 155.687 86.4022 152.996C89.6677 151.11 92.935 149.226 96.2027 147.344C99.6967 145.33 103.187 143.311 106.671 141.281C107.947 140.542 109.224 139.802 110.5 139.062C111.541 138.455 112.583 137.848 113.656 137.223C116 136 116 136 118 136Z" fill="#FFD6A8"/>
<path d="M432.375 125.562C434.815 129.223 434.415 131.638 434 136C433.34 136.99 432.68 137.98 432 139C432.69 139.473 433.379 139.946 434.09 140.434C450.758 152.163 461.62 166.712 468 186C468.339 186.975 468.678 187.949 469.027 188.953C475.326 210.666 471.062 235.185 460.512 254.762C449.12 273.821 430.439 288.9 408.812 294.5C406.551 295.039 404.28 295.542 402 296C401.064 296.191 400.128 296.382 399.164 296.578C376.575 299.59 353.383 294.738 335 281C331.496 278.158 328.216 275.163 325 272C324.227 271.239 323.453 270.479 322.656 269.695C307.847 254.227 300.141 233.088 299.688 211.812C300.522 186.298 310.461 164.816 328.648 147.098C332.509 143.653 336.639 140.772 341 138C341.776 137.491 342.552 136.982 343.352 136.457C348.461 133.323 352.003 132.085 358 133C361.065 135.043 361.822 136.441 362.938 139.937C363.016 143.762 362.298 144.959 360 148C357.657 149.556 355.398 150.917 352.938 152.25C336.71 161.551 325.294 175.546 320.188 193.75C316.218 212.004 317.742 230.447 327.633 246.68C329.339 249.197 331.129 251.604 333 254C333.51 254.687 334.021 255.374 334.547 256.082C345.052 269.266 361.618 276.77 378 279C395.352 280.43 413.625 276.709 427.328 265.348C430.358 262.695 433.185 259.879 436 257C436.593 256.439 437.186 255.878 437.797 255.301C449.722 243.087 453.508 225.082 453.348 208.711C452.866 191.045 445.89 176.176 433.711 163.551C430.894 160.9 427.999 158.441 425 156C424.041 157.454 424.041 157.454 423.062 158.937C421 162 421 162 420 163C418.074 163.273 418.074 163.273 415.688 163.375C414.908 163.424 414.128 163.473 413.324 163.523C409.806 162.731 408.961 160.982 407 158C405.463 155.261 404.09 152.465 402.75 149.625C402.386 148.895 402.023 148.166 401.648 147.414C399.472 142.832 398.138 139.161 399 134C402.728 128.59 407.903 127.321 413.938 125.625C415.259 125.217 415.259 125.217 416.607 124.801C422.392 123.111 427.041 122.053 432.375 125.562Z" fill="#FFD6A8"/>
<path d="M415.625 173.043C425.424 181.515 434.098 192.579 435.161 206.039C435.536 225.257 435.536 225.257 432 233C431.61 233.887 431.219 234.773 430.817 235.687C424.717 248.128 414.298 257.222 401.25 261.812C387.698 265.819 374.021 264.778 361.375 258.375C349.437 251.374 340.528 241.452 336.508 228.07C333.08 214.096 334.6 200.271 341.367 187.547C349.334 175.12 360.046 168.113 374 164C388.37 161.077 403.964 163.967 415.625 173.043ZM402.313 193.937C401.624 194.579 400.936 195.221 400.227 195.882C399.125 196.93 399.125 196.93 398 198C396.399 199.441 394.795 200.878 393.188 202.312C387.778 207.192 382.387 212.094 377 217C372.957 215.204 370.195 212.56 367 209.558C364.909 207.928 363.622 207.283 361 207C357.555 208.64 356.143 209.785 354 213C353.828 217.52 355.448 219.822 358.352 223.05C359.763 224.484 361.188 225.904 362.625 227.312C363.325 228.04 364.025 228.768 364.746 229.517C367.991 232.747 370.29 234.762 374.68 236.23C378.88 235.939 380.382 234.787 383.5 232C384.445 231.167 385.39 230.334 386.363 229.476C389.08 226.924 391.748 224.346 394.34 221.668C396.079 219.92 397.887 218.302 399.75 216.687C400.406 216.114 401.062 215.54 401.738 214.949C403.449 213.475 405.179 212.023 406.918 210.582C408.413 209.304 408.413 209.304 409.938 208C410.875 207.216 411.812 206.432 412.778 205.625C415.542 202.359 415.936 200.24 416 196C414.021 192.937 414.021 192.937 411 191C406.948 190.483 405.229 191.147 402.313 193.937Z" fill="#FFD6A8"/>
</svg>
