<svg width="512" height="512" viewBox="0 0 512 512" fill="none" xmlns="http://www.w3.org/2000/svg">
<path d="M183.19 7.36849C185.213 7.36335 187.236 7.35606 189.26 7.34681C194.725 7.32838 200.189 7.34119 205.654 7.3609C211.389 7.37735 217.124 7.36847 222.859 7.36338C232.486 7.35887 242.114 7.37469 251.741 7.40267C262.853 7.43473 273.965 7.4347 285.077 7.41746C295.792 7.40157 306.507 7.40835 317.222 7.4254C321.771 7.43225 326.319 7.43125 330.868 7.42385C336.229 7.41616 341.589 7.42841 346.95 7.4557C348.911 7.46256 350.872 7.46271 352.834 7.45549C367.382 7.40806 378.972 8.47205 390 18.9996C401.326 30.8637 402.152 44.6698 402.145 60.3055C402.15 62.1074 402.15 62.1074 402.155 63.9456C402.163 67.2165 402.167 70.4873 402.167 73.7581C402.168 75.8084 402.17 77.8587 402.173 79.909C402.182 87.0811 402.186 94.2531 402.185 101.426C402.185 108.08 402.195 114.735 402.211 121.389C402.224 127.129 402.229 132.868 402.229 138.608C402.229 142.024 402.231 145.441 402.242 148.857C402.252 152.673 402.249 156.49 402.243 160.306C402.249 161.417 402.254 162.529 402.26 163.674C402.204 177.699 400.172 190.726 390.312 201.375C379.973 210.846 368.755 213.328 355.156 213.227C353.589 213.228 353.589 213.228 351.99 213.228C348.565 213.227 345.14 213.211 341.715 213.195C339.329 213.192 336.943 213.189 334.557 213.187C328.298 213.179 322.039 213.16 315.781 213.137C309.386 213.117 302.991 213.108 296.596 213.098C284.064 213.076 271.532 213.043 259 213C258.553 213.914 258.553 213.914 258.097 214.847C255.888 219.182 252.984 223.121 250.256 227.142C248.886 229.169 247.527 231.204 246.168 233.238C245.196 234.68 244.223 236.121 243.25 237.563C242.791 238.253 242.331 238.944 241.858 239.655C237.576 245.952 237.576 245.952 234 248C230.497 248.522 228.716 248.455 225.707 246.543C222.007 243.067 219.414 239.097 216.625 234.875C215.478 233.165 214.331 231.455 213.184 229.746C212.637 228.927 212.09 228.109 211.527 227.265C209.119 223.693 206.605 220.201 204.074 216.715C203 215 203 215 203 213C201.978 213.021 200.955 213.042 199.902 213.064C196.046 213.137 192.19 213.182 188.333 213.22C186.676 213.24 185.019 213.267 183.362 213.302C168.615 213.605 155.513 212.256 144 202C136.426 194.164 131.9 184.339 131.853 173.405C131.846 172.266 131.839 171.127 131.831 169.953C131.828 168.706 131.826 167.46 131.823 166.176C131.816 164.86 131.81 163.544 131.803 162.188C131.782 157.825 131.772 153.461 131.762 149.098C131.758 147.591 131.754 146.084 131.749 144.578C131.73 137.493 131.716 130.408 131.708 123.323C131.698 115.171 131.672 107.019 131.631 98.8661C131.601 92.5499 131.586 86.2338 131.583 79.9176C131.581 76.1529 131.572 72.3884 131.547 68.6237C131.523 65.0736 131.519 61.524 131.529 57.9739C131.53 56.0715 131.511 54.1691 131.491 52.2669C131.56 40.6492 133.802 29.6193 142 20.9996C142.648 20.3113 143.297 19.6229 143.965 18.9137C155.54 7.65275 167.965 7.2697 183.19 7.36849ZM212.207 62.4684C209.077 66.0583 205.818 69.5237 202.562 72.9996C201.922 73.6835 201.282 74.3673 200.623 75.0719C199.083 76.7154 197.542 78.358 196 79.9996C192.386 76.9369 188.847 73.8518 185.438 70.5621C182.889 68.3906 182.301 68.0173 178.812 67.8121C175.288 69.3 173.887 70.6788 172 73.9996C171.896 78.041 173.79 80.4447 176.422 83.402C178.795 85.8044 181.306 88.0116 183.891 90.1832C186 91.9996 186 91.9996 188.047 94.0348C189.045 95.0074 189.045 95.0074 190.062 95.9996C190.652 96.5978 191.241 97.1959 191.848 97.8121C194.084 99.2646 194.084 99.2646 197.379 99.0582C201.837 97.755 203.992 95.5122 206.875 92.0621C207.393 91.4724 207.91 90.8826 208.443 90.275C209.49 89.0813 210.529 87.8816 211.562 86.6759C213.502 84.4147 215.499 82.2076 217.5 79.9996C218.552 78.8143 218.552 78.8143 219.625 77.6051C221.447 75.6065 223.294 73.666 225.188 71.7379C225.736 71.1701 226.284 70.6022 226.85 70.0172C227.922 68.9091 229.006 67.812 230.104 66.7281C233.694 62.9868 234.963 60.1933 235 54.9996C233.02 51.9366 233.02 51.9366 230 49.9996C222.048 48.9674 216.886 56.9459 212.207 62.4684ZM262 52.9996C260.829 55.8592 260.829 55.8592 261 58.9996C262.77 61.7468 264.063 63.5311 267 64.9996C269.75 65.1085 272.475 65.157 275.226 65.1608C276.076 65.1657 276.927 65.1707 277.803 65.1758C280.625 65.1904 283.447 65.1972 286.27 65.2028C288.228 65.2085 290.186 65.2143 292.144 65.22C296.254 65.2305 300.364 65.2364 304.474 65.2399C309.74 65.2453 315.006 65.2694 320.272 65.2978C324.318 65.3165 328.365 65.3217 332.411 65.3232C334.353 65.3262 336.294 65.3343 338.235 65.3474C340.952 65.3644 343.669 65.3626 346.386 65.3561C347.589 65.3699 347.589 65.3699 348.816 65.384C353.361 65.35 356.455 64.9514 360 61.9996C361.254 58.6379 361.254 58.6379 361 54.9996C359.647 52.1509 359.647 52.1509 357 49.9996C353.901 49.507 351.353 49.3349 348.256 49.3844C347.374 49.3788 346.492 49.3733 345.584 49.3676C342.67 49.3558 339.758 49.3801 336.844 49.4059C334.819 49.4076 332.794 49.4075 330.769 49.4058C326.525 49.4074 322.282 49.4261 318.039 49.4576C312.598 49.4973 307.157 49.5017 301.716 49.4942C297.535 49.4911 293.354 49.5032 289.172 49.5203C287.166 49.5273 285.16 49.5305 283.153 49.5296C280.35 49.5314 277.547 49.5528 274.744 49.5797C273.914 49.5768 273.084 49.5738 272.228 49.5708C267.935 49.6345 264.994 49.7342 262 52.9996ZM263 86.9996C261.295 89.3535 260.979 90.588 261.125 93.4996C262.252 96.7206 263.261 97.9307 266 99.9996C269.001 100.4 271.636 100.557 274.636 100.533C275.942 100.546 275.942 100.546 277.274 100.56C280.15 100.582 283.026 100.575 285.902 100.566C287.902 100.572 289.903 100.578 291.903 100.585C296.095 100.596 300.287 100.591 304.479 100.576C309.851 100.559 315.221 100.583 320.593 100.618C324.724 100.64 328.854 100.638 332.985 100.63C334.965 100.629 336.946 100.636 338.926 100.651C341.696 100.668 344.464 100.654 347.234 100.631C348.46 100.649 348.46 100.649 349.711 100.667C353.935 100.596 355.565 100.33 359.044 97.6867C361.346 95.065 361.346 95.065 361.062 91.3746C359.859 87.5509 359.462 86.84 356 84.9996C353.074 84.714 350.364 84.5998 347.439 84.6273C346.577 84.6237 345.715 84.62 344.827 84.6163C341.978 84.6082 339.13 84.6218 336.281 84.6363C334.301 84.6369 332.321 84.6364 330.341 84.6348C326.192 84.6349 322.042 84.6454 317.893 84.6634C312.573 84.6861 307.254 84.6867 301.934 84.6799C297.845 84.6766 293.757 84.6832 289.668 84.6931C287.706 84.6969 285.745 84.6981 283.783 84.6965C281.042 84.6961 278.301 84.7087 275.561 84.725C274.749 84.7225 273.937 84.72 273.101 84.7175C267.735 84.7492 267.735 84.7492 263 86.9996ZM173 124C171.838 126.394 171.838 126.394 172 129C173.751 132.713 173.751 132.713 177 135C179.359 135.104 181.688 135.148 184.047 135.147C185.148 135.153 185.148 135.153 186.271 135.158C188.743 135.169 191.215 135.173 193.687 135.177C195.454 135.183 197.221 135.19 198.989 135.197C203.798 135.214 208.608 135.225 213.418 135.233C216.421 135.238 219.424 135.244 222.427 135.251C231.815 135.27 241.204 135.284 250.593 135.292C261.443 135.302 272.293 135.328 283.143 135.369C291.521 135.399 299.9 135.414 308.279 135.417C313.287 135.419 318.295 135.428 323.303 135.454C328.013 135.477 332.722 135.481 337.432 135.471C339.162 135.47 340.892 135.477 342.623 135.49C344.982 135.508 347.34 135.501 349.699 135.488C350.386 135.499 351.074 135.51 351.782 135.521C355.088 135.476 356.762 135.181 359.425 133.157C361.226 131.03 361.226 131.03 361.5 128C360.894 124.367 359.844 123.259 357 121C354.038 119.519 351.38 119.864 348.074 119.853C346.992 119.847 346.992 119.847 345.889 119.842C343.461 119.831 341.032 119.827 338.604 119.823C336.868 119.817 335.132 119.81 333.396 119.803C328.671 119.786 323.946 119.775 319.22 119.767C316.27 119.762 313.319 119.756 310.369 119.749C301.142 119.73 291.915 119.716 282.688 119.708C272.028 119.698 261.368 119.672 250.709 119.631C242.475 119.601 234.242 119.586 226.008 119.583C221.088 119.581 216.167 119.572 211.247 119.547C206.619 119.523 201.991 119.519 197.362 119.529C195.663 119.53 193.964 119.523 192.265 119.51C189.945 119.492 187.627 119.499 185.307 119.512C184.009 119.51 182.711 119.508 181.374 119.505C177.426 120.084 175.784 121.194 173 124ZM173 159C171.912 161.357 171.912 161.357 172 164C173.201 166.718 174.191 168.453 176.67 170.129C179.88 171.329 182.664 171.252 186.091 171.254C187.163 171.259 187.163 171.259 188.256 171.263C190.651 171.271 193.045 171.265 195.439 171.259C197.156 171.262 198.872 171.265 200.589 171.269C205.252 171.279 209.915 171.275 214.579 171.269C219.457 171.264 224.335 171.268 229.214 171.271C237.407 171.275 245.601 171.27 253.795 171.261C263.269 171.25 272.743 171.253 282.216 171.264C290.348 171.273 298.48 171.275 306.611 171.27C311.469 171.266 316.327 171.266 321.184 171.273C325.752 171.278 330.32 171.274 334.887 171.263C336.564 171.26 338.241 171.261 339.917 171.265C342.206 171.271 344.494 171.264 346.782 171.254C348.063 171.253 349.343 171.252 350.663 171.252C353.936 171.005 356.122 170.551 359 169C361.327 165.509 361.503 164.108 361 160C359.488 157.697 359.488 157.697 357 156C353.605 155.399 353.605 155.399 349.712 155.499C348.977 155.493 348.241 155.488 347.483 155.482C345.017 155.468 342.552 155.483 340.086 155.498C338.318 155.495 336.551 155.489 334.784 155.482C329.982 155.468 325.181 155.479 320.379 155.496C315.357 155.51 310.336 155.503 305.314 155.5C296.88 155.497 288.447 155.51 280.014 155.533C270.259 155.56 260.505 155.562 250.751 155.55C241.373 155.539 231.995 155.545 222.617 155.56C218.623 155.565 214.629 155.565 210.636 155.561C205.934 155.556 201.233 155.566 196.532 155.588C194.805 155.593 193.078 155.594 191.351 155.589C188.996 155.583 186.642 155.595 184.288 155.612C182.31 155.616 182.31 155.616 180.292 155.62C176.821 156.021 175.428 156.541 173 159Z" fill="#FFD6A8"/>
<path d="M484.055 288.301C488.281 291.694 490.581 294.538 491.246 300.031C491.578 305.913 490.222 310.06 487 315C484.811 317.108 482.398 318.672 479.824 320.273C478.378 321.22 476.932 322.166 475.486 323.112C474.371 323.828 474.371 323.828 473.233 324.557C469.662 326.865 466.158 329.27 462.645 331.664C461.204 332.638 459.763 333.611 458.321 334.583C457.588 335.078 456.855 335.573 456.099 336.082C455.345 336.591 454.59 337.1 453.812 337.625C452.197 338.716 450.581 339.806 448.966 340.897C445.628 343.151 442.289 345.405 438.95 347.658C432.708 351.871 426.469 356.088 420.229 360.305C414.869 363.928 409.509 367.549 404.148 371.171C400.087 373.914 396.027 376.657 391.968 379.402C391.123 379.973 390.279 380.544 389.409 381.132C387.694 382.291 385.979 383.451 384.264 384.61C380.01 387.486 375.753 390.358 371.492 393.223C369.833 394.339 368.174 395.455 366.516 396.57C365.708 397.114 364.9 397.657 364.067 398.217C358.863 401.725 353.697 405.282 348.547 408.867C334.898 418.332 322.079 426.308 306 431C304.617 431.418 303.235 431.838 301.853 432.259C289.298 436.07 276.669 439.589 264 443C262.906 443.295 261.813 443.589 260.686 443.893C253.752 445.755 246.809 447.58 239.856 449.368C237.605 449.949 235.356 450.536 233.108 451.13C217.475 455.246 204.133 457.358 188 455C171.066 453.88 154.601 455.623 138.602 461.328C135.745 462.066 134.686 462.143 132 461C130.622 458.887 130.622 458.887 129.363 456.043C128.635 454.432 128.635 454.432 127.891 452.789C127.37 451.6 126.849 450.412 126.312 449.187C125.455 447.278 124.592 445.372 123.728 443.465C123.115 442.108 122.503 440.751 121.893 439.392C118.611 432.093 115.189 424.862 111.758 417.632C109.961 413.843 108.17 410.052 106.379 406.262C105.654 404.728 104.929 403.195 104.204 401.662C100.858 394.585 97.5168 387.507 94.1803 380.426C93.4847 378.95 92.7885 377.475 92.0919 375.999C91.1252 373.952 90.1601 371.904 89.1953 369.855C88.6489 368.697 88.1025 367.538 87.5396 366.344C87.0315 365.241 86.5234 364.137 86 363C85.7146 362.381 85.4292 361.762 85.1352 361.124C83.8424 358.236 83 356.201 83 353C85.1138 351.351 87.1771 349.923 89.4375 348.5C90.1113 348.065 90.7851 347.63 91.4792 347.182C92.9175 346.254 94.3584 345.33 95.8018 344.41C97.9316 343.044 100.042 341.652 102.148 340.25C136.447 317.513 178.676 296.082 221.188 304.125C226.354 305.253 231.072 306.672 235.984 308.672C236.624 308.932 237.263 309.192 237.922 309.46C246.061 312.799 254.084 316.416 262.096 320.046C287.284 331.437 312.133 334.512 339 327C342.425 326.062 345.851 325.132 349.282 324.215C351.613 323.589 353.94 322.947 356.261 322.287C364.29 320.102 374.116 317.58 381.938 321.625C386.096 324.85 389.297 327.89 391 333C391.949 345.649 391.949 345.649 388 351C383.025 356.268 378.125 358.374 371.207 360.176C370.191 360.456 369.175 360.737 368.128 361.026C365.12 361.85 362.107 362.654 359.092 363.448C356.859 364.037 354.628 364.632 352.397 365.229C337.935 369.094 323.455 372.893 308.973 376.683C304.328 377.9 299.684 379.121 295.04 380.345C293.294 380.804 291.548 381.262 289.801 381.717C276.106 385.009 276.106 385.009 263 390C261.601 392.799 261.747 394.905 262 398C262.936 400.019 262.936 400.019 265 401C270.614 401.367 275.325 400.374 280.676 398.908C281.516 398.685 282.356 398.462 283.222 398.233C285.993 397.496 288.76 396.746 291.527 395.996C293.477 395.474 295.428 394.953 297.378 394.432C301.474 393.337 305.569 392.236 309.662 391.131C314.836 389.733 320.013 388.346 325.19 386.962C335.832 384.117 346.465 381.244 357.09 378.34C360.125 377.51 363.161 376.686 366.199 375.871C369.576 374.963 372.947 374.035 376.316 373.098C377.209 372.862 378.102 372.626 379.022 372.383C389.927 369.278 397.556 362.876 403.098 353.055C404.752 349.129 405.108 346.161 404.363 341.992C403.614 337.107 403.123 332.681 405 328C410.23 321.949 417.699 318.119 424.508 314.102C430.008 310.835 435.267 307.199 440.563 303.616C443.339 301.746 446.134 299.904 448.926 298.059C453.644 294.932 458.278 291.708 462.862 288.387C469.562 284.041 477.304 284.027 484.055 288.301Z" fill="#FFD6A8"/>
<path d="M60 346C63.9255 349.32 66.1224 352.672 68.3125 357.285C68.6027 357.889 68.893 358.494 69.192 359.116C70.1384 361.093 71.0693 363.078 72 365.063C72.6667 366.464 73.3342 367.866 74.0024 369.267C76.0181 373.504 78.0125 377.75 80 382C80.5578 383.193 81.1157 384.385 81.6904 385.614C84.3272 391.267 86.9476 396.927 89.5625 402.59C93.0969 410.23 96.6892 417.843 100.289 425.452C101.369 427.738 102.447 430.024 103.525 432.31C106.766 439.185 110.018 446.054 113.326 452.897C114.743 455.834 116.15 458.775 117.556 461.717C118.22 463.099 118.888 464.479 119.562 465.856C120.493 467.759 121.406 469.669 122.316 471.582C122.837 472.657 123.357 473.732 123.893 474.839C125.187 478.534 125.476 481.112 125 485C122.377 489.524 118.823 491.465 114.188 493.551C113.537 493.854 112.886 494.158 112.216 494.471C110.847 495.106 109.475 495.735 108.101 496.359C106 497.313 103.91 498.288 101.82 499.268C100.485 499.884 99.1491 500.499 97.8125 501.113C96.878 501.549 96.878 501.549 95.9246 501.994C92.6244 503.478 90.7066 504 87 504C86.5507 503.026 86.5507 503.026 86.0923 502.033C79.2004 487.11 72.233 472.226 65.1875 457.375C64.8071 456.573 64.4268 455.771 64.0349 454.945C63.6526 454.139 63.2703 453.334 62.8765 452.503C62.1038 450.875 61.3312 449.246 60.5586 447.617C60.1769 446.813 59.7952 446.008 59.402 445.179C50.3089 426.003 41.2922 406.791 32.3125 387.563C32.0257 386.949 31.7389 386.335 31.4435 385.703C29.6227 381.805 27.8097 377.903 26 374C25.2563 372.408 25.2563 372.408 24.4976 370.785C23.8085 369.296 23.8085 369.296 23.1055 367.777C22.6984 366.902 22.2913 366.027 21.8718 365.125C21 363 21 363 21 361C25.074 359.022 29.1491 357.047 33.2253 355.073C34.6117 354.402 35.9978 353.73 37.3835 353.057C39.376 352.09 41.3695 351.125 43.3633 350.16C44.2916 349.709 44.2916 349.709 45.2386 349.248C50.3869 346.762 54.2142 345.401 60 346Z" fill="#FFD6A8"/>
<path d="M395 263C397.67 264.051 398.855 264.968 401 267C401.648 269.141 401.648 269.141 402 271C395.305 276.404 388.318 281.223 381.125 285.937C372.118 291.852 363.169 297.835 354.75 304.574C343.086 313.538 327.747 317.212 313.125 317.062C311.973 317.053 310.82 317.044 309.633 317.035C308.764 317.024 307.895 317.012 307 317C311.699 311.684 317.526 308.16 323.438 304.312C331.174 299.219 338.811 294.062 346.312 288.629C353.054 283.782 359.957 279.162 366.84 274.52C369.839 272.492 372.798 270.438 375.691 268.262C382.062 263.586 387.026 261.251 395 263Z" fill="#FFD6A8"/>
<path d="M440.027 271.728C443.94 273.763 446.208 275.994 448 280.001C448 280.661 448 281.321 448 282.001C446.587 283.181 446.587 283.181 444.579 284.504C443.83 285.001 443.082 285.499 442.31 286.012C441.489 286.549 440.667 287.085 439.82 287.638C438.978 288.195 438.136 288.753 437.269 289.328C434.559 291.121 431.842 292.905 429.125 294.688C426.45 296.453 423.777 298.219 421.104 299.986C419.384 301.122 417.662 302.255 415.939 303.387C410.785 306.778 405.754 310.261 400.871 314.035C399 315.001 399 315.001 396.898 314.748C394.442 313.782 392.35 312.481 390.125 311.063C386.493 308.823 383.16 307.096 379 306.001C379 305.341 379 304.681 379 304.001C381.062 302.442 381.062 302.442 384 300.563C385.098 299.849 386.197 299.135 387.328 298.399C387.924 298.012 388.521 297.625 389.135 297.227C392.375 295.098 395.56 292.891 398.75 290.688C399.417 290.23 400.084 289.771 400.771 289.298C404.311 286.862 407.843 284.416 411.367 281.958C412.08 281.463 412.794 280.968 413.528 280.457C414.887 279.514 416.243 278.567 417.597 277.617C424.663 272.718 431.302 268.601 440.027 271.728Z" fill="#FFD6A8"/>
<path d="M338 267.001C341.125 269.001 341.125 269.001 343 271.001C342.816 272.778 342.816 272.778 342 275.001C339.84 276.755 339.84 276.755 336.938 278.563C335.848 279.26 334.759 279.956 333.637 280.673C333.047 281.047 332.457 281.422 331.849 281.808C328.6 283.904 325.429 286.113 322.25 288.313C320.886 289.254 319.521 290.194 318.156 291.134C316.771 292.089 315.385 293.045 314 294.001C312.615 294.957 311.229 295.913 309.844 296.868C309.165 297.337 308.486 297.805 307.786 298.288C306.439 299.215 305.089 300.139 303.737 301.06C300.655 303.16 297.602 305.28 294.609 307.505C286.179 313.594 286.179 313.594 281.75 313.251C277.583 311.862 273.808 310.179 270 308.001C270 307.341 270 306.681 270 306.001C271.351 304.879 271.351 304.879 273.27 303.638C273.984 303.17 274.698 302.702 275.434 302.219C276.611 301.462 276.611 301.462 277.812 300.688C279.473 299.601 281.134 298.512 282.793 297.423C283.655 296.859 284.516 296.295 285.404 295.714C289.511 293.004 293.569 290.224 297.625 287.438C298.801 286.633 298.801 286.633 300 285.811C303.864 283.161 307.723 280.503 311.578 277.841C312.666 277.091 312.666 277.091 313.775 276.325C315.13 275.39 316.485 274.453 317.838 273.514C319.551 272.332 321.273 271.163 323 270.001C323.869 269.414 324.738 268.828 325.633 268.224C329.642 266.153 333.605 266.317 338 267.001Z" fill="#FFD6A8"/>
</svg>
