<svg width="683" height="683" viewBox="0 0 683 683" fill="none" xmlns="http://www.w3.org/2000/svg">
<g clip-path="url(#clip0_300_376)">
<mask id="mask0_300_376" style="mask-type:luminance" maskUnits="userSpaceOnUse" x="0" y="0" width="683" height="683">
<path d="M682.667 0H0V682.667H682.667V0Z" fill="white"/>
</mask>
<g mask="url(#mask0_300_376)">
<path d="M129.2 3.73477C124 6.40143 120.933 9.20143 118 13.8681C114.267 20.1348 114 21.0681 113.6 38.6681L113.067 56.9348L102.8 57.7348C81.7332 59.4681 60.2666 68.2681 42.3999 82.4014C24.7999 96.4014 11.5999 116.135 4.3999 139.335L0.666562 151.335L0.266562 364.668C-0.000104591 554.135 0.133229 579.201 1.9999 589.068C6.3999 612.001 15.5999 630.001 31.7332 646.935C48.7999 664.801 67.5999 675.201 91.1999 680.135C102.8 682.535 114 682.668 341.333 682.668C568.667 682.668 579.867 682.535 591.467 680.135C615.067 675.201 633.867 664.801 650.933 646.935C667.067 630.001 676.267 612.001 680.667 589.068C682.533 579.201 682.667 554.135 682.4 364.668L682 151.335L678.267 139.335C663.867 93.6014 625.067 61.3348 579.867 57.7348L569.6 56.9348L569.067 38.6681C568.667 21.0681 568.4 20.1348 564.667 13.8681C558.8 4.53477 548.933 -0.531901 538.267 0.401433C528.933 1.20143 521.6 5.60143 516.4 13.6014C512.8 18.9348 512.667 20.0014 512.267 38.2681L511.733 57.3348L440.933 57.0681L370 56.6681L369.333 38.0014C368.667 17.8681 367.6 14.5348 360.4 7.73477C349.733 -2.39857 332.933 -2.39857 322.267 7.73477C315.067 14.5348 314 17.8681 313.333 38.0014L312.667 56.6681L241.733 57.0681L170.667 57.3348V41.2014C170.667 21.6014 169.067 15.7348 162 8.6681C152.8 -0.5319 140.8 -2.39857 129.2 3.73477ZM113.6 131.735C114 148.801 114.267 150.401 117.733 156.268C127.067 172.401 148.933 175.201 162 162.135C169.067 154.935 170.667 149.068 170.667 129.468V113.335L241.733 113.601L312.667 114.001L313.333 132.668C314 152.801 315.067 156.135 322.267 162.935C335.6 175.601 357.333 172.001 366.4 155.335C368.133 152.401 368.8 146.535 369.333 132.668L370 114.001L441.067 113.601L512 113.335V129.601C512 149.868 513.333 154.668 520.533 161.868C533.733 175.201 555.467 172.535 564.933 156.268C568.4 150.401 568.667 148.801 569.067 131.735C569.467 121.601 570 113.335 570.533 113.335C574.8 113.468 590.267 117.735 594.8 120.001C602 123.735 613.733 134.801 617.867 141.868C624.533 153.201 625.333 159.201 625.333 194.935V228.001H341.333H57.3332V194.935C57.3332 159.201 58.1332 153.201 64.7999 141.868C68.9332 134.668 80.6666 123.735 87.9999 120.001C92.7999 117.601 106.133 113.868 111.467 113.468C112.533 113.335 113.2 119.068 113.6 131.735ZM351.733 343.468C358 346.001 363.467 351.201 366.8 357.601C369.333 362.535 369.333 366.001 369.067 456.535L368.667 550.401L364.667 556.268C351.733 574.668 323.867 572.001 315.333 551.735C313.6 547.468 313.333 538.401 313.333 492.535V438.401L306 445.068C297.333 452.935 291.6 455.201 281.867 454.401C264.8 452.935 252.8 435.601 257.333 418.535C258.667 413.468 263.067 408.535 291.733 379.468C312.933 358.268 326.533 345.468 330 343.868C336.533 340.801 345.067 340.668 351.733 343.468Z" fill="#FFD6A8"/>
</g>
</g>
<defs>
<clipPath id="clip0_300_376">
<rect width="683" height="683" fill="white"/>
</clipPath>
</defs>
</svg>
