<svg width="512" height="512" viewBox="0 0 512 512" fill="none" xmlns="http://www.w3.org/2000/svg">
<g clip-path="url(#clip0_300_360)">
<mask id="mask0_300_360" style="mask-type:luminance" maskUnits="userSpaceOnUse" x="0" y="0" width="512" height="512">
<path d="M512 0H0V512H512V0Z" fill="white"/>
</mask>
<g mask="url(#mask0_300_360)">
<path d="M200 256C202.577 258.714 203.572 261.287 204.469 264.877C204.724 265.877 204.979 266.877 205.242 267.908C205.515 269.021 205.789 270.134 206.07 271.281C206.376 272.493 206.682 273.706 206.997 274.954C207.682 277.672 208.361 280.392 209.036 283.112C210.146 287.591 211.27 292.067 212.395 296.542C214.437 304.676 216.467 312.813 218.495 320.95C220.671 329.681 222.85 338.41 225.03 347.139C225.295 348.201 225.295 348.201 225.566 349.284C227.598 357.42 229.63 365.555 231.663 373.691C232.226 375.944 232.789 378.196 233.351 380.449C233.728 381.955 234.104 383.462 234.481 384.968C236.742 394.017 239 403.066 241.254 412.116C242.696 417.904 244.139 423.691 245.583 429.479C246.43 432.872 247.276 436.265 248.12 439.66C249.049 443.398 249.982 447.136 250.916 450.874C251.185 451.961 251.455 453.048 251.733 454.168C253.318 460.502 255.061 466.765 257 473C260.982 456.963 264.963 440.927 268.943 424.89C270.848 417.216 272.753 409.542 274.658 401.868C285.414 358.558 285.414 358.558 296.094 315.231C296.525 313.476 296.956 311.721 297.387 309.966C299.093 303.019 300.798 296.071 302.492 289.122C302.995 287.065 303.498 285.008 304.003 282.951C304.591 280.553 305.177 278.154 305.759 275.753C309.838 259.162 309.838 259.162 313 256C317.904 255.607 321.399 256.228 325.883 258.176C327.028 258.665 328.173 259.154 329.352 259.657C330.61 260.209 331.868 260.761 333.125 261.313C334.461 261.888 335.797 262.462 337.134 263.034C340.101 264.306 343.064 265.584 346.027 266.864C351.453 269.202 356.9 271.491 362.348 273.777C364.326 274.608 366.304 275.439 368.283 276.27C371.197 277.494 374.111 278.718 377.026 279.941C382.466 282.226 387.898 284.527 393.321 286.854C395.134 287.629 396.949 288.4 398.765 289.166C401.471 290.309 404.168 291.473 406.863 292.641C407.666 292.976 408.469 293.311 409.296 293.656C417.304 297.175 423.658 302.358 428 310C429.215 313.645 429.145 316.987 429.141 320.782C429.145 321.983 429.145 321.983 429.15 323.208C429.158 325.901 429.16 328.593 429.161 331.285C429.166 333.212 429.171 335.138 429.176 337.065C429.189 342.305 429.196 347.544 429.2 352.784C429.203 356.054 429.207 359.325 429.212 362.596C429.225 372.821 429.235 383.046 429.239 393.272C429.243 405.091 429.261 416.91 429.29 428.728C429.312 437.855 429.322 446.982 429.323 456.109C429.324 461.565 429.33 467.021 429.348 472.476C429.364 477.605 429.367 482.733 429.358 487.861C429.357 489.746 429.361 491.632 429.371 493.517C429.384 496.085 429.378 498.651 429.368 501.219C429.38 502.346 429.38 502.346 429.392 503.497C429.344 508.503 429.344 508.503 427.831 510.69C425.269 512.523 423.469 512.377 420.332 512.38C419.144 512.389 417.957 512.397 416.733 512.406C415.421 512.4 414.11 512.394 412.759 512.388C411.356 512.392 409.954 512.397 408.552 512.404C404.69 512.419 400.828 512.414 396.966 512.407C392.804 512.402 388.643 512.415 384.481 512.425C376.325 512.442 368.168 512.443 360.012 512.438C353.384 512.434 346.757 512.435 340.129 512.441C338.716 512.442 338.716 512.442 337.275 512.443C335.361 512.444 333.447 512.446 331.534 512.447C313.575 512.461 295.616 512.456 277.657 512.444C261.215 512.434 244.774 512.447 228.332 512.471C211.464 512.495 194.595 512.505 177.726 512.498C168.25 512.495 158.774 512.497 149.298 512.515C141.231 512.529 133.165 512.53 125.098 512.513C120.98 512.504 116.862 512.502 112.744 512.517C108.977 512.531 105.21 512.527 101.443 512.507C99.4294 512.501 97.4153 512.516 95.4013 512.53C94.2109 512.521 93.0204 512.511 91.7938 512.501C90.7642 512.501 89.7345 512.5 88.6736 512.5C85.266 511.863 84.082 510.729 82.0001 508C81.6072 505.26 81.4592 502.922 81.4922 500.183C81.486 499.391 81.4797 498.598 81.4733 497.781C81.4573 495.122 81.47 492.464 81.4826 489.804C81.4771 487.899 81.47 485.993 81.4613 484.088C81.443 478.908 81.4502 473.728 81.4628 468.548C81.473 463.124 81.4636 457.701 81.4573 452.278C81.45 443.164 81.4596 434.049 81.4786 424.935C81.5004 414.41 81.4934 403.886 81.4713 393.361C81.4532 384.321 81.4506 375.28 81.4611 366.24C81.4673 360.843 81.4682 355.446 81.4549 350.048C81.4434 344.968 81.4515 339.887 81.4745 334.806C81.4798 332.946 81.4783 331.086 81.4695 329.227C81.4212 318.049 81.8348 309.371 88.1251 299.75C97.5147 290.769 110.448 287.139 122.375 282.688C125.511 281.507 128.647 280.324 131.782 279.14C133.935 278.327 136.088 277.515 138.241 276.704C145.72 273.883 153.166 270.985 160.598 268.043C162.608 267.251 164.619 266.459 166.63 265.667C169.514 264.531 172.396 263.392 175.274 262.238C177.926 261.175 180.585 260.129 183.246 259.086C184.018 258.771 184.79 258.457 185.586 258.132C190.599 256.19 194.616 255.345 200 256Z" fill="#225D5C"/>
<path d="M316.758 18.9417C337.238 34.8315 352.238 57.7986 355.793 83.7904C356.259 88.7575 356.207 93.7534 356.238 98.7385C356.246 99.9733 356.254 101.208 356.263 102.48C356.277 105.093 356.287 107.707 356.295 110.32C356.307 112.962 356.327 115.604 356.357 118.247C356.726 151.172 350.305 177.688 327 202C307.009 221.168 281.575 230.749 253.996 230.402C229.433 229.641 207.229 220.42 189 204C187.83 202.954 187.83 202.954 186.637 201.887C168.67 184.913 157.998 160.066 156.886 135.486C156.725 129.677 156.715 123.87 156.739 118.06C156.75 115.006 156.739 111.953 156.727 108.899C156.702 77.2285 164.695 50.5077 187.125 27.3753C222.071 -7.32373 277.358 -8.7947 316.758 18.9417Z" fill="#225D5C"/>
<path d="M247.484 247.795C248.218 247.79 248.952 247.784 249.708 247.778C251.261 247.769 252.815 247.762 254.368 247.758C256.728 247.748 259.086 247.717 261.445 247.686C262.958 247.679 264.471 247.674 265.984 247.67C267.032 247.652 267.032 247.652 268.1 247.633C273.813 247.658 278.52 248.876 282.926 252.647C287.506 258.35 289.651 262.441 289 269.998C286.846 275.764 283.854 280.454 280.228 285.397C274.412 293.903 274.774 302.104 276.355 311.905C279.58 331.915 281.918 348.949 274.062 368.123C273.76 368.863 273.457 369.602 273.145 370.364C267.897 382.811 267.897 382.811 263 386.998C258.87 388.373 254.969 388.203 250.75 387.311C247.712 384.756 247.075 383.246 245.633 379.616C245.201 378.537 244.769 377.459 244.324 376.348C243.887 375.243 243.45 374.137 243 372.998C242.584 371.992 242.167 370.985 241.738 369.947C236.595 357.441 232.455 346.724 234.662 333.188C235.314 328.96 235.663 324.695 236.062 320.436C236.19 319.103 236.19 319.103 236.32 317.744C237.563 304.382 238.51 293.863 231 281.998C230.513 281.203 230.025 280.408 229.523 279.588C228.695 278.253 227.85 276.928 226.98 275.619C224.576 271.644 224.463 267.492 225 262.998C226.403 257.629 228.329 254.023 233.062 250.998C237.885 248.332 242.045 247.828 247.484 247.795Z" fill="#225D5C"/>
</g>
</g>
<defs>
<clipPath id="clip0_300_360">
<rect width="512" height="512" fill="white"/>
</clipPath>
</defs>
</svg>
