<svg width="512" height="512" viewBox="0 0 512 512" fill="none" xmlns="http://www.w3.org/2000/svg">
<g clip-path="url(#clip0_300_368)">
<mask id="mask0_300_368" style="mask-type:luminance" maskUnits="userSpaceOnUse" x="0" y="0" width="512" height="512">
<path d="M512 0H0V512H512V0Z" fill="white"/>
</mask>
<g mask="url(#mask0_300_368)">
<path d="M200 256C202.577 258.714 203.572 261.287 204.469 264.877C204.724 265.877 204.979 266.877 205.242 267.908C205.515 269.021 205.789 270.134 206.07 271.281C206.376 272.493 206.682 273.706 206.997 274.954C207.682 277.672 208.361 280.392 209.036 283.112C210.146 287.591 211.27 292.067 212.395 296.542C214.437 304.676 216.467 312.813 218.495 320.95C220.671 329.681 222.85 338.41 225.03 347.139C225.295 348.201 225.295 348.201 225.566 349.284C227.598 357.42 229.63 365.555 231.663 373.691C232.226 375.944 232.789 378.196 233.351 380.449C233.728 381.955 234.104 383.462 234.481 384.968C236.742 394.017 239 403.066 241.254 412.116C242.696 417.904 244.139 423.691 245.583 429.479C246.43 432.872 247.276 436.265 248.12 439.66C249.049 443.398 249.982 447.136 250.916 450.874C251.185 451.961 251.455 453.048 251.733 454.168C253.318 460.502 255.061 466.765 257 473C260.982 456.963 264.963 440.927 268.943 424.89C270.848 417.216 272.753 409.542 274.658 401.868C285.414 358.558 285.414 358.558 296.094 315.231C296.525 313.476 296.956 311.721 297.387 309.966C299.093 303.019 300.798 296.071 302.492 289.122C302.995 287.065 303.498 285.008 304.003 282.951C304.591 280.553 305.177 278.154 305.759 275.753C309.838 259.162 309.838 259.162 313 256C317.904 255.607 321.399 256.228 325.883 258.176C327.028 258.665 328.173 259.154 329.352 259.657C330.61 260.209 331.868 260.761 333.125 261.313C334.461 261.888 335.797 262.462 337.134 263.034C340.101 264.306 343.064 265.584 346.027 266.864C351.453 269.202 356.9 271.491 362.348 273.777C364.326 274.608 366.304 275.439 368.283 276.27C371.197 277.494 374.111 278.718 377.026 279.941C382.466 282.226 387.899 284.527 393.322 286.854C395.135 287.629 396.95 288.4 398.766 289.166C401.472 290.309 404.168 291.473 406.863 292.641C407.666 292.976 408.469 293.311 409.296 293.656C417.304 297.175 423.658 302.358 428 310C429.215 313.645 429.145 316.987 429.141 320.782C429.145 321.983 429.145 321.983 429.15 323.208C429.158 325.901 429.16 328.593 429.161 331.285C429.166 333.212 429.171 335.138 429.176 337.065C429.189 342.305 429.197 347.544 429.201 352.784C429.204 356.054 429.207 359.325 429.212 362.596C429.225 372.821 429.236 383.046 429.24 393.272C429.244 405.091 429.261 416.91 429.29 428.728C429.312 437.855 429.322 446.982 429.323 456.109C429.324 461.565 429.33 467.021 429.348 472.476C429.364 477.605 429.367 482.733 429.358 487.861C429.357 489.746 429.361 491.632 429.371 493.517C429.384 496.085 429.378 498.651 429.368 501.219C429.38 502.346 429.38 502.346 429.392 503.497C429.344 508.503 429.344 508.503 427.831 510.69C425.269 512.523 423.469 512.377 420.332 512.38C419.144 512.389 417.957 512.397 416.733 512.406C415.421 512.4 414.11 512.394 412.759 512.388C411.356 512.392 409.954 512.397 408.552 512.404C404.69 512.419 400.828 512.414 396.966 512.407C392.804 512.402 388.643 512.415 384.481 512.425C376.325 512.442 368.168 512.443 360.012 512.438C353.384 512.434 346.757 512.435 340.129 512.441C338.716 512.442 338.716 512.442 337.275 512.443C335.361 512.444 333.447 512.446 331.534 512.447C313.575 512.461 295.616 512.456 277.657 512.444C261.215 512.434 244.774 512.447 228.332 512.471C211.464 512.495 194.595 512.505 177.726 512.498C168.25 512.495 158.774 512.497 149.298 512.515C141.231 512.529 133.165 512.53 125.098 512.513C120.98 512.504 116.862 512.502 112.744 512.517C108.977 512.531 105.21 512.527 101.443 512.507C99.4299 512.501 97.4158 512.516 95.4018 512.53C94.2114 512.521 93.0209 512.511 91.7943 512.501C90.7647 512.501 89.735 512.5 88.6741 512.5C85.2665 511.863 84.0825 510.729 82.0006 508C81.6077 505.26 81.4597 502.922 81.4927 500.183C81.4865 499.391 81.4802 498.598 81.4738 497.781C81.4578 495.122 81.4705 492.464 81.4831 489.804C81.4776 487.899 81.4705 485.993 81.4618 484.088C81.4435 478.908 81.4507 473.728 81.4633 468.548C81.4735 463.124 81.4641 457.701 81.4578 452.278C81.4505 443.164 81.4601 434.049 81.4791 424.935C81.5009 414.41 81.4939 403.886 81.4718 393.361C81.4537 384.321 81.4511 375.28 81.4616 366.24C81.4678 360.843 81.4687 355.446 81.4554 350.048C81.4439 344.968 81.452 339.887 81.475 334.806C81.4803 332.946 81.4788 331.086 81.47 329.227C81.4217 318.049 81.8353 309.371 88.1256 299.75C97.5152 290.769 110.448 287.139 122.375 282.688C125.511 281.507 128.647 280.324 131.782 279.14C133.935 278.327 136.088 277.515 138.241 276.704C145.72 273.883 153.166 270.985 160.598 268.043C162.608 267.251 164.619 266.459 166.63 265.667C169.514 264.531 172.396 263.392 175.274 262.238C177.926 261.175 180.585 260.129 183.246 259.086C184.018 258.771 184.79 258.457 185.586 258.132C190.599 256.19 194.616 255.345 200 256Z" fill="#FFD6A8"/>
<path d="M316.759 18.9417C337.239 34.8315 352.239 57.7986 355.794 83.7904C356.26 88.7575 356.208 93.7534 356.239 98.7385C356.247 99.9733 356.255 101.208 356.264 102.48C356.278 105.093 356.288 107.707 356.296 110.32C356.308 112.962 356.328 115.604 356.358 118.247C356.727 151.172 350.306 177.688 327.001 202C307.01 221.168 281.576 230.749 253.997 230.402C229.434 229.641 207.23 220.42 189.001 204C187.831 202.954 187.831 202.954 186.638 201.887C168.671 184.913 157.999 160.066 156.887 135.486C156.726 129.677 156.716 123.87 156.74 118.06C156.751 115.006 156.74 111.953 156.728 108.899C156.703 77.2285 164.696 50.5077 187.126 27.3753C222.072 -7.32373 277.359 -8.7947 316.759 18.9417Z" fill="#FFD6A8"/>
<path d="M247.485 247.795C248.219 247.79 248.953 247.784 249.709 247.778C251.262 247.769 252.816 247.762 254.369 247.758C256.729 247.748 259.087 247.717 261.446 247.686C262.959 247.679 264.472 247.674 265.985 247.67C267.033 247.652 267.033 247.652 268.101 247.633C273.814 247.658 278.521 248.876 282.927 252.647C287.507 258.35 289.652 262.441 289.001 269.998C286.847 275.764 283.855 280.454 280.229 285.397C274.413 293.903 274.775 302.104 276.356 311.905C279.581 331.915 281.919 348.949 274.063 368.123C273.761 368.863 273.458 369.602 273.146 370.364C267.898 382.811 267.898 382.811 263.001 386.998C258.871 388.373 254.97 388.203 250.751 387.311C247.713 384.756 247.076 383.246 245.634 379.616C245.202 378.537 244.77 377.459 244.325 376.348C243.888 375.243 243.451 374.137 243.001 372.998C242.585 371.992 242.168 370.985 241.739 369.947C236.596 357.441 232.456 346.724 234.663 333.188C235.315 328.96 235.664 324.695 236.063 320.436C236.191 319.103 236.191 319.103 236.321 317.744C237.564 304.382 238.511 293.863 231.001 281.998C230.514 281.203 230.026 280.408 229.524 279.588C228.696 278.253 227.851 276.928 226.981 275.619C224.577 271.644 224.464 267.492 225.001 262.998C226.404 257.629 228.33 254.023 233.063 250.998C237.886 248.332 242.046 247.828 247.485 247.795Z" fill="#FFD6A8"/>
</g>
</g>
<defs>
<clipPath id="clip0_300_368">
<rect width="512" height="512" fill="white"/>
</clipPath>
</defs>
</svg>
